  0
SECTION
  2
HEADER
  9
$ACADVER
  1
AC1015
  9
$ACADMAINTVER
 70
     6
  9
$DWGCODEPAGE
  3
ANSI_1252
  9
$INSBASE
 10
0.0
 20
0.0
 30
0.0
  9
$EXTMIN
 10
0.0
 20
-30.0
 30
0.0
  9
$EXTMAX
 10
135.0
 20
200.0
 30
0.0
  9
$LIMMIN
 10
0.0
 20
0.0
  9
$LIMMAX
 10
420.0
 20
297.0
  9
$ORTHOMODE
 70
     0
  9
$REGENMODE
 70
     1
  9
$FILLMODE
 70
     1
  9
$QTEXTMODE
 70
     0
  9
$MIRRTEXT
 70
     1
  9
$LTSCALE
 40
1.0
  9
$ATTMODE
 70
     1
  9
$TEXTSIZE
 40
3.5
  9
$TRACEWID
 40
1.0
  9
$TEXTSTYLE
  7
Standard
  9
$CLAYER
  8
0
  9
$CELTYPE
  6
ByLayer
  9
$CECOLOR
 62
   256
  9
$CELTSCALE
 40
1.0
  9
$DISPSILH
 70
     0
  9
$DIMSCALE
 40
1.0
  9
$DIMASZ
 40
3.302
  9
$DIMEXO
 40
1.0
  9
$DIMDLI
 40
3.75
  9
$DIMRND
 40
0.0
  9
$DIMDLE
 40
0.0
  9
$DIMEXE
 40
1.0
  9
$DIMTP
 40
0.0
  9
$DIMTM
 40
0.0
  9
$DIMTXT
 40
3.5
  9
$DIMCEN
 40
2.5
  9
$DIMTSZ
 40
0.0
  9
$DIMTOL
 70
     0
  9
$DIMLIM
 70
     0
  9
$DIMTIH
 70
     1
  9
$DIMTOH
 70
     1
  9
$DIMSE1
 70
     0
  9
$DIMSE2
 70
     0
  9
$DIMTAD
 70
     1
  9
$DIMZIN
 70
     0
  9
$DIMBLK
  1

  9
$DIMASO
 70
     1
  9
$DIMSHO
 70
     1
  9
$DIMPOST
  1

  9
$DIMAPOST
  1

  9
$DIMALT
 70
     0
  9
$DIMALTD
 70
     3
  9
$DIMALTF
 40
0.0393700787
  9
$DIMLFAC
 40
1.0
  9
$DIMTOFL
 70
     1
  9
$DIMTVP
 40
0.0
  9
$DIMTIX
 70
     0
  9
$DIMSOXD
 70
     0
  9
$DIMSAH
 70
     0
  9
$DIMBLK1
  1

  9
$DIMBLK2
  1

  9
$DIMSTYLE
  2
ISO-25
  9
$DIMCLRD
 70
     0
  9
$DIMCLRE
 70
     0
  9
$DIMCLRT
 70
     0
  9
$DIMTFAC
 40
1.0
  9
$DIMGAP
 40
1.524
  9
$DIMJUST
 70
     0
  9
$DIMSD1
 70
     0
  9
$DIMSD2
 70
     0
  9
$DIMTOLJ
 70
     0
  9
$DIMTZIN
 70
     0
  9
$DIMALTZ
 70
     0
  9
$DIMALTTZ
 70
     0
  9
$DIMUPT
 70
     0
  9
$DIMDEC
 70
     2
  9
$DIMTDEC
 70
     2
  9
$DIMALTU
 70
     2
  9
$DIMALTTD
 70
     3
  9
$DIMTXSTY
  7
Standard
  9
$DIMAUNIT
 70
     0
  9
$DIMADEC
 70
     2
  9
$DIMALTRND
 40
0.0
  9
$DIMAZIN
 70
     0
  9
$DIMDSEP
 70
    44
  9
$DIMATFIT
 70
     3
  9
$DIMFRAC
 70
     0
  9
$DIMLDRBLK
  1

  9
$DIMLUNIT
 70
     2
  9
$DIMLWD
 70
    -2
  9
$DIMLWE
 70
    -2
  9
$DIMTMOVE
 70
     0
  9
$LUNITS
 70
     2
  9
$LUPREC
 70
     2
  9
$SKETCHINC
 40
1.0
  9
$FILLETRAD
 40
10.0
  9
$AUNITS
 70
     0
  9
$AUPREC
 70
     2
  9
$MENU
  1
.
  9
$ELEVATION
 40
0.0
  9
$PELEVATION
 40
0.0
  9
$THICKNESS
 40
0.0
  9
$LIMCHECK
 70
     0
  9
$CHAMFERA
 40
0.0
  9
$CHAMFERB
 40
0.0
  9
$CHAMFERC
 40
0.0
  9
$CHAMFERD
 40
0.0
  9
$SKPOLY
 70
     0
  9
$TDCREATE
 40
2459395.781309676
  9
$TDUCREATE
 40
2459395.697976342
  9
$TDUPDATE
 40
2459395.781574282
  9
$TDUUPDATE
 40
2459395.698240949
  9
$TDINDWG
 40
0.0000000116
  9
$TDUSRTIMER
 40
0.0000000116
  9
$USRTIMER
 70
     1
  9
$ANGBASE
 50
0.0
  9
$ANGDIR
 70
     0
  9
$PDMODE
 70
     0
  9
$PDSIZE
 40
-1.0
  9
$PLINEWID
 40
0.0
  9
$SPLFRAME
 70
     0
  9
$SPLINETYPE
 70
     6
  9
$SPLINESEGS
 70
     8
  9
$HANDSEED
  5
1CE
  9
$SURFTAB1
 70
     6
  9
$SURFTAB2
 70
     6
  9
$SURFTYPE
 70
     6
  9
$SURFU
 70
     6
  9
$SURFV
 70
     6
  9
$UCSBASE
  2

  9
$UCSNAME
  2

  9
$UCSORG
 10
0.0
 20
0.0
 30
0.0
  9
$UCSXDIR
 10
1.0
 20
0.0
 30
0.0
  9
$UCSYDIR
 10
0.0
 20
1.0
 30
0.0
  9
$UCSORTHOREF
  2

  9
$UCSORTHOVIEW
 70
     0
  9
$UCSORGTOP
 10
0.0
 20
0.0
 30
0.0
  9
$UCSORGBOTTOM
 10
0.0
 20
0.0
 30
0.0
  9
$UCSORGLEFT
 10
0.0
 20
0.0
 30
0.0
  9
$UCSORGRIGHT
 10
0.0
 20
0.0
 30
0.0
  9
$UCSORGFRONT
 10
0.0
 20
0.0
 30
0.0
  9
$UCSORGBACK
 10
0.0
 20
0.0
 30
0.0
  9
$PUCSBASE
  2

  9
$PUCSNAME
  2

  9
$PUCSORG
 10
0.0
 20
0.0
 30
0.0
  9
$PUCSXDIR
 10
1.0
 20
0.0
 30
0.0
  9
$PUCSYDIR
 10
0.0
 20
1.0
 30
0.0
  9
$PUCSORTHOREF
  2

  9
$PUCSORTHOVIEW
 70
     0
  9
$PUCSORGTOP
 10
0.0
 20
0.0
 30
0.0
  9
$PUCSORGBOTTOM
 10
0.0
 20
0.0
 30
0.0
  9
$PUCSORGLEFT
 10
0.0
 20
0.0
 30
0.0
  9
$PUCSORGRIGHT
 10
0.0
 20
0.0
 30
0.0
  9
$PUCSORGFRONT
 10
0.0
 20
0.0
 30
0.0
  9
$PUCSORGBACK
 10
0.0
 20
0.0
 30
0.0
  9
$USERI1
 70
     0
  9
$USERI2
 70
     0
  9
$USERI3
 70
     0
  9
$USERI4
 70
     0
  9
$USERI5
 70
     0
  9
$USERR1
 40
0.0
  9
$USERR2
 40
0.0
  9
$USERR3
 40
0.0
  9
$USERR4
 40
0.0
  9
$USERR5
 40
0.0
  9
$WORLDVIEW
 70
     1
  9
$SHADEDGE
 70
     3
  9
$SHADEDIF
 70
    70
  9
$TILEMODE
 70
     1
  9
$MAXACTVP
 70
    64
  9
$PINSBASE
 10
0.0
 20
0.0
 30
0.0
  9
$PLIMCHECK
 70
     0
  9
$PEXTMIN
 10
1.0000000000E+20
 20
1.0000000000E+20
 30
1.0000000000E+20
  9
$PEXTMAX
 10
-1.0000000000E+20
 20
-1.0000000000E+20
 30
-1.0000000000E+20
  9
$PLIMMIN
 10
0.0
 20
0.0
  9
$PLIMMAX
 10
420.0
 20
297.0
  9
$UNITMODE
 70
     0
  9
$VISRETAIN
 70
     1
  9
$PLINEGEN
 70
     0
  9
$PSLTSCALE
 70
     1
  9
$TREEDEPTH
 70
  3020
  9
$CMLSTYLE
  2
Standard
  9
$CMLJUST
 70
     0
  9
$CMLSCALE
 40
20.0
  9
$PROXYGRAPHICS
 70
     1
  9
$MEASUREMENT
 70
     1
  9
$CELWEIGHT
370
    -1
  9
$ENDCAPS
280
     0
  9
$JOINSTYLE
280
     0
  9
$LWDISPLAY
290
     1
  9
$INSUNITS
 70
     4
  9
$HYPERLINKBASE
  1

  9
$STYLESHEET
  1

  9
$XEDIT
290
     1
  9
$CEPSNTYPE
380
     0
  9
$PSTYLEMODE
290
     1
  9
$FINGERPRINTGUID
  2
{3DEDFCC9-E014-4A72-95D5-C54A54307CF4}
  9
$VERSIONGUID
  2
{FAEB1C32-E019-11D5-929B-00C0DF256EC4}
  9
$EXTNAMES
290
     1
  9
$PSVPSCALE
 40
0.0
  9
$OLESTARTUP
290
     0
  0
ENDSEC
  0
SECTION
  2
CLASSES
  0
CLASS
  1
ACDBDICTIONARYWDFLT
  2
AcDbDictionaryWithDefault
  3
ObjectDBX Classes
 90
        0
280
     0
281
     0
  0
CLASS
  1
VISUALSTYLE
  2
AcDbVisualStyle
  3
ObjectDBX Classes
 90
     4095
280
     0
281
     0
  0
CLASS
  1
MATERIAL
  2
AcDbMaterial
  3
ObjectDBX Classes
 90
     1153
280
     0
281
     0
  0
CLASS
  1
SCALE
  2
AcDbScale
  3
ObjectDBX Classes
 90
     1153
280
     0
281
     0
  0
CLASS
  1
TABLESTYLE
  2
AcDbTableStyle
  3
ObjectDBX Classes
 90
     4095
280
     0
281
     0
  0
CLASS
  1
MLEADERSTYLE
  2
AcDbMLeaderStyle
  3
ACDB_MLEADERSTYLE_CLASS
 90
     4095
280
     0
281
     0
  0
CLASS
  1
SUN
  2
AcDbSun
  3
SCENEOE
 90
     1153
280
     0
281
     0
  0
CLASS
  1
ACDBPLACEHOLDER
  2
AcDbPlaceHolder
  3
ObjectDBX Classes
 90
        0
280
     0
281
     0
  0
CLASS
  1
LAYOUT
  2
AcDbLayout
  3
ObjectDBX Classes
 90
        0
280
     0
281
     0
  0
ENDSEC
  0
SECTION
  2
TABLES
  0
TABLE
  2
VPORT
  5
8
330
0
100
AcDbSymbolTable
 70
     1
  0
VPORT
  5
29
330
8
100
AcDbSymbolTableRecord
100
AcDbViewportTableRecord
  2
*Active
 70
     0
 10
0.0
 20
0.0
 11
1.0
 21
1.0
 12
67.5
 22
85.0
 13
0.0
 23
0.0
 14
10.0
 24
10.0
 15
10.0
 25
10.0
 16
0.0
 26
0.0
 36
1.0
 17
0.0
 27
0.0
 37
0.0
 40
234.6
 41
0.5869565217
 42
50.0
 43
0.0
 44
0.0
 50
0.0
 51
0.0
 71
     0
 72
   100
 73
     1
 74
     3
 75
     0
 76
     0
 77
     0
 78
     0
281
     0
 65
     1
110
0.0
120
0.0
130
0.0
111
1.0
121
0.0
131
0.0
112
0.0
122
1.0
132
0.0
 79
     0
146
0.0
  0
ENDTAB
  0
TABLE
  2
LTYPE
  5
5
330
0
100
AcDbSymbolTable
 70
     6
  0
LTYPE
  5
14
330
5
100
AcDbSymbolTableRecord
100
AcDbLinetypeTableRecord
  2
ByBlock
 70
     0
  3

 72
    65
 73
     0
 40
0.0
  0
LTYPE
  5
15
330
5
100
AcDbSymbolTableRecord
100
AcDbLinetypeTableRecord
  2
ByLayer
 70
     0
  3

 72
    65
 73
     0
 40
0.0
  0
LTYPE
  5
16
330
5
100
AcDbSymbolTableRecord
100
AcDbLinetypeTableRecord
  2
Continuous
 70
     0
  3
Solid line
 72
    65
 73
     0
 40
0.0
  0
LTYPE
  5
6E
330
5
100
AcDbSymbolTableRecord
100
AcDbLinetypeTableRecord
  2
HIDDEN
 70
     0
  3
Hidden __ __ __ __ __ __ __ __ __ __ __ __ __ __
 72
    65
 73
     2
 40
1.905
 49
1.27
 74
     0
 49
-0.635
 74
     0
  0
LTYPE
  5
6F
330
5
100
AcDbSymbolTableRecord
100
AcDbLinetypeTableRecord
  2
PHANTOM
 70
     0
  3
Phantom ______  __  __  ______  __  __  ______
 72
    65
 73
     6
 40
12.7
 49
6.35
 74
     0
 49
-1.27
 74
     0
 49
1.27
 74
     0
 49
-1.27
 74
     0
 49
1.27
 74
     0
 49
-1.27
 74
     0
  0
LTYPE
  5
70
330
5
100
AcDbSymbolTableRecord
100
AcDbLinetypeTableRecord
  2
CENTER
 70
     0
  3
Center ____ _ ____ _ ____ _ ____ _ ____ _ ____
 72
    65
 73
     4
 40
10.16
 49
6.35
 74
     0
 49
-1.27
 74
     0
 49
1.27
 74
     0
 49
-1.27
 74
     0
  0
LTYPE
  5
71
330
5
100
AcDbSymbolTableRecord
100
AcDbLinetypeTableRecord
  2
CENTERX2
 70
     0
  3
Center (2x) ________  __  ________  __  _____
 72
    65
 73
     4
 40
20.32
 49
12.7
 74
     0
 49
-2.54
 74
     0
 49
2.54
 74
     0
 49
-2.54
 74
     0
  0
LTYPE
  5
72
330
5
100
AcDbSymbolTableRecord
100
AcDbLinetypeTableRecord
  2
DOT2
 70
     0
  3
Dot (.5x) ........................................
 72
    65
 73
     2
 40
0.635
 49
0.0
 74
     0
 49
-0.635
 74
     0
  0
ENDTAB
  0
TABLE
  2
LAYER
  5
2
330
0
100
AcDbSymbolTable
 70
     1
  0
LAYER
  5
10
330
2
100
AcDbSymbolTableRecord
100
AcDbLayerTableRecord
  2
0
 70
     0
 62
     7
  6
Continuous
370
    -3
390
F
  0
ENDTAB
  0
TABLE
  2
STYLE
  5
3
330
0
100
AcDbSymbolTable
 70
     1
  0
STYLE
  5
11
330
3
100
AcDbSymbolTableRecord
100
AcDbTextStyleTableRecord
  2
Standard
 70
     0
 40
0.0
 41
1.0
 50
0.0
 71
     0
 42
3.5
  3
txt
  4

  0
ENDTAB
  0
TABLE
  2
VIEW
  5
6
330
0
100
AcDbSymbolTable
 70
     0
  0
ENDTAB
  0
TABLE
  2
UCS
  5
7
330
0
100
AcDbSymbolTable
 70
     0
  0
ENDTAB
  0
TABLE
  2
APPID
  5
9
330
0
100
AcDbSymbolTable
 70
     1
  0
APPID
  5
12
330
9
100
AcDbSymbolTableRecord
100
AcDbRegAppTableRecord
  2
ACAD
 70
     0
  0
ENDTAB
  0
TABLE
  2
DIMSTYLE
  5
A
330
0
100
AcDbSymbolTable
 70
     1
100
AcDbDimStyleTable
  0
DIMSTYLE
105
27
330
A
100
AcDbSymbolTableRecord
100
AcDbDimStyleTableRecord
  2
ISO-25
 70
     0
 41
2.5
 42
0.625
 43
3.75
 44
1.25
 73
     0
 74
     0
 77
     1
 78
     8
140
2.5
141
2.5
143
0.0393700787
147
0.625
171
     3
172
     1
178
     0
271
     2
272
     2
274
     3
278
    44
283
     0
284
     8
340
11
  0
ENDTAB
  0
TABLE
  2
BLOCK_RECORD
  5
1
330
0
100
AcDbSymbolTable
 70
     1
  0
BLOCK_RECORD
  5
1F
330
1
100
AcDbSymbolTableRecord
100
AcDbBlockTableRecord
  2
*Model_Space
340
22
  0
BLOCK_RECORD
  5
1B
330
1
100
AcDbSymbolTableRecord
100
AcDbBlockTableRecord
  2
*Paper_Space
340
1E
  0
BLOCK_RECORD
  5
23
330
1
100
AcDbSymbolTableRecord
100
AcDbBlockTableRecord
  2
*Paper_Space0
340
26
  0
ENDTAB
  0
ENDSEC
  0
SECTION
  2
BLOCKS
  0
BLOCK
  5
20
330
1F
100
AcDbEntity
  8
0
100
AcDbBlockBegin
  2
*Model_Space
 70
     0
 10
0.0
 20
0.0
 30
0.0
  3
*Model_Space
  1

  0
ENDBLK
  5
21
330
1F
100
AcDbEntity
  8
0
100
AcDbBlockEnd
  0
BLOCK
  5
1C
330
1B
100
AcDbEntity
 67
     1
  8
0
100
AcDbBlockBegin
  2
*Paper_Space
 70
     0
 10
0.0
 20
0.0
 30
0.0
  3
*Paper_Space
  1

  0
ENDBLK
  5
1D
330
1B
100
AcDbEntity
 67
     1
  8
0
100
AcDbBlockEnd
  0
BLOCK
  5
24
330
23
100
AcDbEntity
  8
0
100
AcDbBlockBegin
  2
*Paper_Space0
 70
     0
 10
0.0
 20
0.0
 30
0.0
  3
*Paper_Space0
  1

  0
ENDBLK
  5
25
330
23
100
AcDbEntity
  8
0
100
AcDbBlockEnd
  0
ENDSEC
  0
SECTION
  2
ENTITIES
  0
SPLINE
  5
E9
330
1F
100
AcDbEntity
  8
0
  6
Continuous
 62
     7
370
    25
100
AcDbSpline
210
0.0
220
0.0
230
1.0
 70
     8
 71
     3
 72
    11
 73
     7
 74
     0
 42
0.000000001
 43
0.00000001
 40
0.0
 40
0.0
 40
0.0
 40
0.0
 40
0.2670804478595399
 40
0.5222146806059782
 40
0.7647453600346109
 40
1.0
 40
1.0
 40
1.0
 40
1.0
 10
49.98294245928111
 20
154.9930446891351
 30
0.0
 10
50.03449657514404
 20
155.0378610851697
 30
0.0
 10
50.1352988478864
 20
155.1254892890637
 30
0.0
 10
50.29629119275734
 20
155.2368005576393
 30
0.0
 10
50.45790001595746
 20
155.3322691190276
 30
0.0
 10
50.57025076611112
 20
155.3804022955427
 30
0.0
 10
50.62557066440932
 20
155.4041023814428
 30
0.0
  0
SPLINE
  5
EA
330
1F
100
AcDbEntity
  8
0
  6
Continuous
 62
     7
370
    25
100
AcDbSpline
210
0.0
220
0.0
230
1.0
 70
     8
 71
     3
 72
    15
 73
    11
 74
     0
 42
0.000000001
 43
0.00000001
 40
0.0
 40
0.0
 40
0.0
 40
0.0
 40
0.1367997581407766
 40
0.271472965703642
 40
0.4040687209202548
 40
0.5352378743759663
 40
0.6617987338335185
 40
0.781075365862579
 40
0.89328874140206
 40
0.9999999999999999
 40
0.9999999999999999
 40
0.9999999999999999
 40
0.9999999999999999
 10
26.42765399774265
 20
152.526698535289
 30
0.0
 10
26.36162875064607
 20
152.5278400572483
 30
0.0
 10
26.23060461811669
 20
152.530105356222
 30
0.0
 10
26.03651668601004
 20
152.5509778184019
 30
0.0
 10
25.84694326213258
 20
152.5836294848033
 30
0.0
 10
25.66392336158223
 20
152.6287743751244
 30
0.0
 10
25.49091584291679
 20
152.6857017147022
 30
0.0
 10
25.3319832097362
 20
152.7538192740237
 30
0.0
 10
25.18763758396428
 20
152.8308434365653
 30
0.0
 10
25.10173658400418
 20
152.8924854634134
 30
0.0
 10
25.05986553620419
 20
152.9225318686223
 30
0.0
  0
SPLINE
  5
EB
330
1F
100
AcDbEntity
  8
0
  6
Continuous
 62
     7
370
    25
100
AcDbSpline
210
0.0
220
0.0
230
1.0
 70
     8
 71
     3
 72
    11
 73
     7
 74
     0
 42
0.000000001
 43
0.00000001
 40
0.0
 40
0.0
 40
0.0
 40
0.0
 40
0.2460490022239574
 40
0.4941081531964229
 40
0.7448572770330986
 40
1.0
 40
1.0
 40
1.0
 40
1.0
 10
50.62557066440932
 20
155.4041023814428
 30
0.0
 10
50.70188975453021
 20
155.4270545521973
 30
0.0
 10
50.85515143952961
 20
155.4731464062622
 30
0.0
 10
51.09233428371416
 20
155.5185995235231
 30
0.0
 10
51.33509646036381
 20
155.5465486100997
 30
0.0
 10
51.4988914091933
 20
155.5503980998951
 30
0.0
 10
51.58150015158879
 20
155.55233956093
 30
0.0
  0
SPLINE
  5
EC
330
1F
100
AcDbEntity
  8
0
  6
Continuous
 62
     7
370
    25
100
AcDbSpline
210
0.0
220
0.0
230
1.0
 70
     8
 71
     3
 72
    15
 73
    11
 74
     0
 42
0.000000001
 43
0.00000001
 40
0.0
 40
0.0
 40
0.0
 40
0.0
 40
0.1430315648145793
 40
0.2795012351515907
 40
0.4100483234290837
 40
0.534645868980652
 40
0.6550575246126352
 40
0.7722920525242177
 40
0.8868964497636379
 40
1.0
 40
1.0
 40
1.0
 40
1.0
 10
38.82653220287085
 20
155.55233956093
 30
0.0
 10
38.9224894218237
 20
155.5508093326777
 30
0.0
 10
39.11000160666069
 20
155.5478190788332
 30
0.0
 10
39.38391110940684
 20
155.5197719281762
 30
0.0
 10
39.64304918186695
 20
155.4756646192313
 30
0.0
 10
39.88738750075331
 20
155.4132124460832
 30
0.0
 10
40.11689801198636
 20
155.3323570734905
 30
0.0
 10
40.33133937485609
 20
155.2325586070629
 30
0.0
 10
40.53201820165665
 20
155.1162584904488
 30
0.0
 10
40.65330683167964
 20
155.0232278038798
 30
0.0
 10
40.71355143364008
 20
154.9770190481095
 30
0.0
  0
SPLINE
  5
ED
330
1F
100
AcDbEntity
  8
0
  6
Continuous
 62
     7
370
    25
100
AcDbSpline
210
0.0
220
0.0
230
1.0
 70
     8
 71
     3
 72
    15
 73
    11
 74
     0
 42
0.000000001
 43
0.00000001
 40
0.0
 40
0.0
 40
0.0
 40
0.0
 40
0.1164336848478705
 40
0.2342285977201108
 40
0.3530834866831002
 40
0.4753803457398907
 40
0.6000806277228407
 40
0.7289313306075523
 40
0.8619578954363905
 40
1.0
 40
1.0
 40
1.0
 40
1.0
 10
26.51339117722982
 20
155.55233956093
 30
0.0
 10
26.5657937680478
 20
155.551065380289
 30
0.0
 10
26.6712115891898
 20
155.5485021225415
 30
0.0
 10
26.82916703970929
 20
155.5288520316568
 30
0.0
 10
26.98731001132429
 20
155.4953311153116
 30
0.0
 10
27.14570199274199
 20
155.4498824795959
 30
0.0
 10
27.30431693195654
 20
155.3907277180184
 30
0.0
 10
27.46296791271331
 20
155.3191582245232
 30
0.0
 10
27.6223785611833
 20
155.2352394426374
 30
0.0
 10
27.72536716268586
 20
155.1697995397342
 30
0.0
 10
27.7778142541529
 20
155.1364741763146
 30
0.0
  0
SPLINE
  5
EF
330
1F
100
AcDbEntity
  8
0
  6
Continuous
 62
     7
370
    25
100
AcDbSpline
210
0.0
220
0.0
230
1.0
 70
     8
 71
     3
 72
    15
 73
    11
 74
     0
 42
0.000000001
 43
0.00000001
 40
0.0
 40
0.0
 40
0.0
 40
0.0
 40
0.0745945886172422
 40
0.1635805529569362
 40
0.2664870430370989
 40
0.3843798954241296
 40
0.5163117504874214
 40
0.663305849885139
 40
0.8243615869362135
 40
1.0
 40
1.0
 40
1.0
 40
1.0
 10
7.044641177229819
 20
154.48983956093
 30
0.0
 10
7.005408555102871
 20
154.4845098418681
 30
0.0
 10
6.919374244297755
 20
154.4728221523531
 30
0.0
 10
6.778507081193541
 20
154.4597734438442
 30
0.0
 10
6.614463036207329
 20
154.4486459812601
 30
0.0
 10
6.427431776922364
 20
154.4403236821329
 30
0.0
 10
6.216950549672681
 20
154.4331469165237
 30
0.0
 10
5.983502537952858
 20
154.427519652277
 30
0.0
 10
5.726808161925883
 20
154.4243768366991
 30
0.0
 10
5.548114269817606
 20
154.4242175339221
 30
0.0
 10
5.454897587486227
 20
154.4241344327249
 30
0.0
  0
SPLINE
  5
F0
330
1F
100
AcDbEntity
  8
0
  6
Continuous
 62
     7
370
    25
100
AcDbSpline
210
0.0
220
0.0
230
1.0
 70
     8
 71
     3
 72
    11
 73
     7
 74
     0
 42
0.000000001
 43
0.00000001
 40
0.0
 40
0.0
 40
0.0
 40
0.0
 40
0.2159859923904272
 40
0.4426704848506668
 40
0.7009766372487578
 40
1.0
 40
1.0
 40
1.0
 40
1.0
 10
25.88037835671701
 20
154.7999357147762
 30
0.0
 10
25.88248930455267
 20
154.7766232122803
 30
0.0
 10
25.88681576244727
 20
154.7288434619886
 30
0.0
 10
25.92083117023184
 20
154.6600163425248
 30
0.0
 10
25.97328348750426
 20
154.5933796881631
 30
0.0
 10
26.01972432707314
 20
154.5551973055573
 30
0.0
 10
26.04464117722982
 20
154.5347113558018
 30
0.0
  0
SPLINE
  5
F1
330
1F
100
AcDbEntity
  8
0
  6
Continuous
 62
     7
370
    25
100
AcDbSpline
210
0.0
220
0.0
230
1.0
 70
     8
 71
     3
 72
    19
 73
    15
 74
     0
 42
0.000000001
 43
0.00000001
 40
0.0
 40
0.0
 40
0.0
 40
0.0
 40
0.0913377392588079
 40
0.1812092176624122
 40
0.2707116372388665
 40
0.3596023179115587
 40
0.445521222911548
 40
0.526149388786188
 40
0.6015151038242518
 40
0.6716761663306642
 40
0.7425877863139285
 40
0.8211594805399862
 40
0.9064620938651582
 40
1.0
 40
1.0
 40
1.0
 40
1.0
 10
19.14303861312726
 20
152.8856728942633
 30
0.0
 10
19.20048784337047
 20
152.8863719887004
 30
0.0
 10
19.31446406122038
 20
152.8877589548881
 30
0.0
 10
19.48431147619655
 20
152.9010568766739
 30
0.0
 10
19.65168070975765
 20
152.9227231980805
 30
0.0
 10
19.81534990058537
 20
152.9520861034962
 30
0.0
 10
19.97197952381924
 20
152.9881805224286
 30
0.0
 10
20.11783628350221
 20
153.0317114904157
 30
0.0
 10
20.25198637174457
 20
153.0791992147566
 30
0.0
 10
20.37673042049376
 20
153.1340455859871
 30
0.0
 10
20.49773618562788
 20
153.2011448847237
 30
0.0
 10
20.61927676816386
 20
153.2852371778155
 30
0.0
 10
20.74707298744672
 20
153.3848381637928
 30
0.0
 10
20.8297595137885
 20
153.4611464401867
 30
0.0
 10
20.87300656184521
 20
153.5010575096479
 30
0.0
  0
SPLINE
  5
F2
330
1F
100
AcDbEntity
  8
0
  6
Continuous
 62
     7
370
    25
100
AcDbSpline
210
0.0
220
0.0
230
1.0
 70
     8
 71
     3
 72
    15
 73
    11
 74
     0
 42
0.000000001
 43
0.00000001
 40
0.0
 40
0.0
 40
0.0
 40
0.0
 40
0.0929477586755862
 40
0.1887204515450921
 40
0.2961449054465171
 40
0.4207621173566577
 40
0.5559395402698982
 40
0.6952523826069567
 40
0.8431274053104049
 40
1.0
 40
1.0
 40
1.0
 40
1.0
 10
10.72140399774264
 20
156.4225318686223
 30
0.0
 10
10.71948165401211
 20
156.4021662164109
 30
0.0
 10
10.7155785413172
 20
156.3608159446443
 30
0.0
 10
10.68455820761823
 20
156.3024023684562
 30
0.0
 10
10.63544254387575
 20
156.2496906678959
 30
0.0
 10
10.56897502613649
 20
156.2039885621531
 30
0.0
 10
10.49056126606922
 20
156.1655625377755
 30
0.0
 10
10.40288931384687
 20
156.1360859010573
 30
0.0
 10
10.30696666992763
 20
156.1195155153115
 30
0.0
 10
10.24043013880098
 20
156.1174865565694
 30
0.0
 10
10.20617963876828
 20
156.1164421250326
 30
0.0
  0
SPLINE
  5
F4
330
1F
100
AcDbEntity
  8
0
  6
Continuous
 62
     7
370
    25
100
AcDbSpline
210
0.0
220
0.0
230
1.0
 70
     8
 71
     3
 72
    15
 73
    11
 74
     0
 42
0.000000001
 43
0.00000001
 40
0.0
 40
0.0
 40
0.0
 40
0.0
 40
0.1126800005989785
 40
0.2267863256845145
 40
0.3435438780032628
 40
0.4641578350564983
 40
0.5888885369105769
 40
0.7195659585847978
 40
0.8563425024365477
 40
0.9999999999999999
 40
0.9999999999999999
 40
0.9999999999999999
 40
0.9999999999999999
 10
36.99480143364008
 20
155.0074677660582
 30
0.0
 10
37.05357588496225
 20
155.0510905904338
 30
0.0
 10
37.17186876558546
 20
155.1388884250411
 30
0.0
 10
37.36556020476393
 20
155.2506277309687
 30
0.0
 10
37.57450382905728
 20
155.3430380874711
 30
0.0
 10
37.79679834496722
 20
155.4204260187993
 30
0.0
 10
38.03405037220762
 20
155.4790717540614
 30
0.0
 10
38.28511120893499
 20
155.5226755797812
 30
0.0
 10
38.55120894985294
 20
155.5470598791092
 30
0.0
 10
38.73326873044969
 20
155.5505511124263
 30
0.0
 10
38.82653220287085
 20
155.55233956093
 30
0.0
  0
SPLINE
  5
F5
330
1F
100
AcDbEntity
  8
0
  6
Continuous
 62
     7
370
    25
100
AcDbSpline
210
0.0
220
0.0
230
1.0
 70
     8
 71
     3
 72
    23
 73
    19
 74
     0
 42
0.000000001
 43
0.00000001
 40
0.0
 40
0.0
 40
0.0
 40
0.0
 40
0.078180954464758
 40
0.153810946027876
 40
0.2271663162950064
 40
0.2983004198204481
 40
0.367868234949125
 40
0.4359295690692103
 40
0.5031044905747082
 40
0.569909937839259
 40
0.6340171450478618
 40
0.6934955928699896
 40
0.7493030339671152
 40
0.8020140850215449
 40
0.8524436363344156
 40
0.9014358981331374
 40
0.9503268810753965
 40
1.0
 40
1.0
 40
1.0
 40
1.0
 10
45.09624374133239
 20
152.526698535289
 30
0.0
 10
45.01446740911418
 20
152.5280936218851
 30
0.0
 10
44.85358302100093
 20
152.5308382748587
 30
0.0
 10
44.61675118405706
 20
152.5521915887067
 30
0.0
 10
44.38894848356185
 20
152.5862872914196
 30
0.0
 10
44.17006034465843
 20
152.6341996350187
 30
0.0
 10
43.96065904866567
 20
152.6967469041386
 30
0.0
 10
43.76034164099557
 20
152.773117955584
 30
0.0
 10
43.56881271788328
 20
152.8629026354838
 30
0.0
 10
43.38890722871604
 20
152.9660690996559
 30
0.0
 10
43.22411062987911
 20
153.0782571339015
 30
0.0
 10
43.07930397859567
 20
153.1980171635533
 30
0.0
 10
42.9561501571587
 20
153.3239255998916
 30
0.0
 10
42.85591448675538
 20
153.4570951480048
 30
0.0
 10
42.77683954351367
 20
153.5957749623888
 30
0.0
 10
42.72088362872549
 20
153.7409961808194
 30
0.0
 10
42.68689663469704
 20
153.8923851011014
 30
0.0
 10
42.6825625800555
 20
153.9955434152994
 30
0.0
 10
42.68037835671701
 20
154.0475318686223
 30
0.0
  0
SPLINE
  5
F6
330
1F
100
AcDbEntity
  8
0
  6
Continuous
 62
     7
370
    25
100
AcDbSpline
210
0.0
220
0.0
230
1.0
 70
     8
 71
     3
 72
    15
 73
    11
 74
     0
 42
0.000000001
 43
0.00000001
 40
0.0
 40
0.0
 40
0.0
 40
0.0
 40
0.1775930308892259
 40
0.3402160080246255
 40
0.4873222102434873
 40
0.6200356430809489
 40
0.7372669130683664
 40
0.8396369564267042
 40
0.9271648819097276
 40
1.0
 40
1.0
 40
1.0
 40
1.0
 10
5.635987331075968
 20
156.577980586571
 30
0.0
 10
5.72145888320618
 20
156.5779207763126
 30
0.0
 10
5.885197235549214
 20
156.5778061974506
 30
0.0
 10
6.119711381832954
 20
156.5743731456137
 30
0.0
 10
6.332600682705428
 20
156.5697553278252
 30
0.0
 10
6.523581923562789
 20
156.5633593329076
 30
0.0
 10
6.692997842259067
 20
156.5559155486946
 30
0.0
 10
6.840419655481621
 20
156.5452149954468
 30
0.0
 10
6.966445324249865
 20
156.5342942320959
 30
0.0
 10
7.042809829099779
 20
156.5230097290244
 30
0.0
 10
7.077493741332382
 20
156.5178844327249
 30
0.0
  0
SPLINE
  5
F7
330
1F
100
AcDbEntity
  8
0
  6
Continuous
 62
     7
370
    25
100
AcDbSpline
210
0.0
220
0.0
230
1.0
 70
     8
 71
     3
 72
    19
 73
    15
 74
     0
 42
0.000000001
 43
0.00000001
 40
0.0
 40
0.0
 40
0.0
 40
0.0
 40
0.1328519912744706
 40
0.264106352989213
 40
0.3937423390723399
 40
0.5229453409718049
 40
0.5868038465806944
 40
0.6490752870790718
 40
0.7102169595058925
 40
0.770203778649535
 40
0.8291078906403572
 40
0.8870054892305956
 40
0.9439768066652258
 40
0.9999999999999999
 40
0.9999999999999999
 40
0.9999999999999999
 40
0.9999999999999999
 10
20.03422451056315
 20
146.3135575096479
 30
0.0
 10
20.03643056055372
 20
146.1962289542529
 30
0.0
 10
20.04081613138281
 20
145.9629827938483
 30
0.0
 10
20.07445587001995
 20
145.6165612835509
 30
0.0
 10
20.12964660304222
 20
145.2763242298251
 30
0.0
 10
20.19456474699756
 20
144.9986067854182
 30
0.0
 10
20.25655427712556
 20
144.7818013968662
 30
0.0
 10
20.30690065405201
 20
144.6242421441096
 30
0.0
 10
20.36238504809605
 20
144.472053488581
 30
0.0
 10
20.42161664661728
 20
144.3244960688421
 30
0.0
 10
20.4848827555032
 20
144.1817325067085
 30
0.0
 10
20.55236166975814
 20
144.0438976274733
 30
0.0
 10
20.62301973432488
 20
143.9104709487105
 30
0.0
 10
20.67507963917678
 20
143.8253246931848
 30
0.0
 10
20.70089117722982
 20
143.7831087916992
 30
0.0
  0
SPLINE
  5
F8
330
1F
100
AcDbEntity
  8
0
  6
Continuous
 62
     7
370
    25
100
AcDbSpline
210
0.0
220
0.0
230
1.0
 70
     8
 71
     3
 72
    23
 73
    19
 74
     0
 42
0.000000001
 43
0.00000001
 40
0.0
 40
0.0
 40
0.0
 40
0.0
 40
0.0501875134222717
 40
0.098901633441127
 40
0.147522341830361
 40
0.1972128638566714
 40
0.2485692328702982
 40
0.3029107522011872
 40
0.360985846364004
 40
0.4227200207025723
 40
0.4875282548361642
 40
0.5538673302441728
 40
0.6214613821255054
 40
0.6915961300916302
 40
0.7645120287159588
 40
0.8395947350987344
 40
0.9181826763277238
 40
0.9999999999999999
 40
0.9999999999999999
 40
0.9999999999999999
 40
0.9999999999999999
 10
33.63422451056316
 20
147.1188459711864
 30
0.0
 10
33.63523867248624
 20
147.1459210793535
 30
0.0
 10
33.63723722280135
 20
147.1992764309285
 30
0.0
 10
33.65508479126532
 20
147.2771479793748
 30
0.0
 10
33.68230578235386
 20
147.3517494746844
 30
0.0
 10
33.72119653918066
 20
147.4227734862802
 30
0.0
 10
33.77176021528132
 20
147.4898119540033
 30
0.0
 10
33.83329689911894
 20
147.5533244740729
 30
0.0
 10
33.90568371687294
 20
147.6133066383811
 30
0.0
 10
33.98829095901486
 20
147.6689374110428
 30
0.0
 10
34.07891519246349
 20
147.7200890817092
 30
0.0
 10
34.17688553932948
 20
147.7636218269942
 30
0.0
 10
34.28012457096748
 20
147.801666945041
 30
0.0
 10
34.38934088457781
 20
147.8329529873621
 30
0.0
 10
34.50454623274012
 20
147.8567605792502
 30
0.0
 10
34.62556385477185
 20
147.8732917637524
 30
0.0
 10
34.75208090805133
 20
147.8841499191331
 30
0.0
 10
34.8385281298808
 20
147.8851584676365
 30
0.0
 10
34.8826219464606
 20
147.8856728942633
 30
0.0
  0
SPLINE
  5
F9
330
1F
100
AcDbEntity
  8
0
  6
Continuous
 62
     7
370
    25
100
AcDbSpline
210
0.0
220
0.0
230
1.0
 70
     8
 71
     3
 72
    15
 73
    11
 74
     0
 42
0.000000001
 43
0.00000001
 40
0.0
 40
0.0
 40
0.0
 40
0.0
 40
0.1126800005989785
 40
0.226786325684513
 40
0.3435438780032612
 40
0.4641578350564984
 40
0.5888885369105752
 40
0.7195659585847978
 40
0.8563425024365477
 40
0.9999999999999999
 40
0.9999999999999999
 40
0.9999999999999999
 40
0.9999999999999999
 10
17.35377579261444
 20
155.0074677660582
 30
0.0
 10
17.41255024393661
 20
155.0510905904338
 30
0.0
 10
17.53084312455981
 20
155.1388884250411
 30
0.0
 10
17.72453456373829
 20
155.2506277309687
 30
0.0
 10
17.93347818803164
 20
155.3430380874711
 30
0.0
 10
18.15577270394159
 20
155.4204260187993
 30
0.0
 10
18.39302473118198
 20
155.4790717540614
 30
0.0
 10
18.64408556790935
 20
155.5226755797813
 30
0.0
 10
18.91018330882729
 20
155.5470598791092
 30
0.0
 10
19.09224308942404
 20
155.5505511124263
 30
0.0
 10
19.18550656184521
 20
155.55233956093
 30
0.0
  0
SPLINE
  5
FA
330
1F
100
AcDbEntity
  8
0
  6
Continuous
 62
     7
370
    25
100
AcDbSpline
210
0.0
220
0.0
230
1.0
 70
     8
 71
     3
 72
    15
 73
    11
 74
     0
 42
0.000000001
 43
0.00000001
 40
0.0
 40
0.0
 40
0.0
 40
0.0
 40
0.1683599380208798
 40
0.3231653554166508
 40
0.4663758978310154
 40
0.5970503274931348
 40
0.7149816119237635
 40
0.8215424810290681
 40
0.9160695506282964
 40
1.0
 40
1.0
 40
1.0
 40
1.0
 10
35.10297451056316
 20
146.5667626378531
 30
0.0
 10
35.15434473839277
 20
146.5493884293679
 30
0.0
 10
35.25294941911159
 20
146.5160387956832
 30
0.0
 10
35.39384414943247
 20
146.4638586344699
 30
0.0
 10
35.52174390029507
 20
146.4118078038148
 30
0.0
 10
35.63741841312812
 20
146.3612290149881
 30
0.0
 10
35.7394509338337
 20
146.309410360623
 30
0.0
 10
35.82945197742974
 20
146.2597544611683
 30
0.0
 10
35.90629860449136
 20
146.2092588499715
 30
0.0
 10
35.95123260353851
 20
146.173380291333
 30
0.0
 10
35.97236553620419
 20
146.1565062275967
 30
0.0
  0
SPLINE
  5
FB
330
1F
100
AcDbEntity
  8
0
  6
Continuous
 62
     7
370
    25
100
AcDbSpline
210
0.0
220
0.0
230
1.0
 70
     8
 71
     3
 72
    15
 73
    11
 74
     0
 42
0.000000001
 43
0.00000001
 40
0.0
 40
0.0
 40
0.0
 40
0.0
 40
0.1164336848478696
 40
0.2342285977201132
 40
0.3530834866830967
 40
0.4753803457398906
 40
0.6000806277228484
 40
0.7289313306075503
 40
0.8619578954363916
 40
1.0
 40
1.0
 40
1.0
 40
1.0
 10
34.8826219464606
 20
147.8856728942633
 30
0.0
 10
34.93502453727857
 20
147.8843987136223
 30
0.0
 10
35.04044235842057
 20
147.8818354558748
 30
0.0
 10
35.19839780894007
 20
147.8621853649901
 30
0.0
 10
35.35654078055507
 20
147.8286644486449
 30
0.0
 10
35.51493276197279
 20
147.7832158129293
 30
0.0
 10
35.67354770118729
 20
147.7240610513516
 30
0.0
 10
35.83219868194409
 20
147.6524915578566
 30
0.0
 10
35.99160933041407
 20
147.5685727759707
 30
0.0
 10
36.09459793191663
 20
147.5031328730676
 30
0.0
 10
36.14704502338368
 20
147.4698075096479
 30
0.0
  0
SPLINE
  5
FC
330
1F
100
AcDbEntity
  8
0
  6
Continuous
 62
     7
370
    25
100
AcDbSpline
210
0.0
220
0.0
230
1.0
 70
     8
 71
     3
 72
    23
 73
    19
 74
     0
 42
0.000000001
 43
0.00000001
 40
0.0
 40
0.0
 40
0.0
 40
0.0
 40
0.048247171665507
 40
0.0957000030546111
 40
0.143519496244723
 40
0.1924245121089683
 40
0.2439269887901752
 40
0.2984272070165779
 40
0.3570133694549786
 40
0.4199079941606689
 40
0.4857248310927382
 40
0.5527193036092144
 40
0.6209278327344641
 40
0.691303295552135
 40
0.7641769374750763
 40
0.8397829135547404
 40
0.9184407894605887
 40
0.9999999999999999
 40
0.9999999999999999
 40
0.9999999999999999
 40
0.9999999999999999
 10
36.19832707466573
 20
145.7045831506736
 30
0.0
 10
36.19705642557599
 20
145.6756383036837
 30
0.0
 10
36.19453604733264
 20
145.6182251569703
 30
0.0
 10
36.17542530208519
 20
145.5338707174595
 30
0.0
 10
36.14410724083277
 20
145.4529430082194
 30
0.0
 10
36.09870715887553
 20
145.3762053146635
 30
0.0
 10
36.04257305559428
 20
145.3019355866784
 30
0.0
 10
35.97252335439702
 20
145.2320391988871
 30
0.0
 10
35.89028496885435
 20
145.1657300929802
 30
0.0
 10
35.79704179691409
 20
145.1029258070732
 30
0.0
 10
35.69445136141116
 20
145.0456980892446
 30
0.0
 10
35.58446519782293
 20
144.9960959493193
 30
0.0
 10
35.46836554724749
 20
144.9543909822223
 30
0.0
 10
35.34624405264229
 20
144.9200290746244
 30
0.0
 10
35.21781671434487
 20
144.8926660020722
 30
0.0
 10
35.08288001411215
 20
144.8736623164953
 30
0.0
 10
34.94184123986874
 20
144.8624507664669
 30
0.0
 10
34.84578342097453
 20
144.8608478435588
 30
0.0
 10
34.79688476697341
 20
144.8600318686223
 30
0.0
  0
SPLINE
  5
FD
330
1F
100
AcDbEntity
  8
0
  6
Continuous
 62
     7
370
    25
100
AcDbSpline
210
0.0
220
0.0
230
1.0
 70
     8
 71
     3
 72
    11
 73
     7
 74
     0
 42
0.000000001
 43
0.00000001
 40
0.0
 40
0.0
 40
0.0
 40
0.0
 40
0.2296198844348457
 40
0.4635695666773171
 40
0.7150166158617768
 40
1.0
 40
1.0
 40
1.0
 40
1.0
 10
27.21371169005034
 20
153.3560254583659
 30
0.0
 10
27.21165106521196
 20
153.3817153986535
 30
0.0
 10
27.20749095962809
 20
153.4335796982825
 30
0.0
 10
27.17445213717726
 20
153.5076161592934
 30
0.0
 10
27.12236005421795
 20
153.5768517473882
 30
0.0
 10
27.07579142653833
 20
153.6147420537931
 30
0.0
 10
27.05105143364009
 20
153.6348716122121
 30
0.0
  0
SPLINE
  5
FE
330
1F
100
AcDbEntity
  8
0
  6
Continuous
 62
     7
370
    25
100
AcDbSpline
210
0.0
220
0.0
230
1.0
 70
     8
 71
     3
 72
    23
 73
    19
 74
     0
 42
0.000000001
 43
0.00000001
 40
0.0
 40
0.0
 40
0.0
 40
0.0
 40
0.0664054487464511
 40
0.1322821099389369
 40
0.1974251129561974
 40
0.2624877061748966
 40
0.3272422983607088
 40
0.3918182337461776
 40
0.4560177933301023
 40
0.520441901190213
 40
0.5842982111207372
 40
0.6466252435131687
 40
0.7077746918052811
 40
0.7683278786878986
 40
0.8273174227270242
 40
0.885637597304116
 40
0.9432477390129985
 40
1.0
 40
1.0
 40
1.0
 40
1.0
 10
42.08550656184521
 20
146.5347113558018
 30
0.0
 10
42.08481670906066
 20
146.59374833653
 30
0.0
 10
42.0834424967993
 20
146.7113521856505
 30
0.0
 10
42.07466627347693
 20
146.8867071429822
 30
0.0
 10
42.05916363592057
 20
147.0603760774334
 30
0.0
 10
42.03840004849488
 20
147.2324834316348
 30
0.0
 10
42.01210737699904
 20
147.4033312574343
 30
0.0
 10
41.97939001487998
 20
147.5723033135323
 30
0.0
 10
41.93961907923883
 20
147.7394337188949
 30
0.0
 10
41.8952307538567
 20
147.9047330893036
 30
0.0
 10
41.84479594025734
 20
148.0665565919576
 30
0.0
 10
41.79017308144984
 20
148.2239129379137
 30
0.0
 10
41.7318482772207
 20
148.3768165726243
 30
0.0
 10
41.66799040346525
 20
148.5242819608101
 30
0.0
 10
41.59932350215276
 20
148.6667587351022
 30
0.0
 10
41.5274408692442
 20
148.8046841203565
 30
0.0
 10
41.45096029504762
 20
148.9378990725558
 30
0.0
 10
41.39521928198024
 20
149.0229524137065
 30
0.0
 10
41.36755784389649
 20
149.0651600737505
 30
0.0
  0
SPLINE
  5
FF
330
1F
100
AcDbEntity
  8
0
  6
Continuous
 62
     7
370
    25
100
AcDbSpline
210
0.0
220
0.0
230
1.0
 70
     8
 71
     3
 72
    15
 73
    11
 74
     0
 42
0.000000001
 43
0.00000001
 40
0.0
 40
0.0
 40
0.0
 40
0.0
 40
0.1669308253651424
 40
0.3216859262911519
 40
0.4643994428593444
 40
0.5948867204722343
 40
0.7129214878277548
 40
0.819583701375363
 40
0.9152718147238763
 40
1.0
 40
1.0
 40
1.0
 40
1.0
 10
34.68791040799906
 20
146.2694869968274
 30
0.0
 10
34.63893727925338
 20
146.2860422525685
 30
0.0
 10
34.54456306017514
 20
146.31794524452
 30
0.0
 10
34.40984710962579
 20
146.3683710310861
 30
0.0
 10
34.28733161672064
 20
146.4189326436098
 30
0.0
 10
34.17655002751293
 20
146.4680536304317
 30
0.0
 10
34.07837868742595
 20
146.5177894554058
 30
0.0
 10
33.99238628645155
 20
146.5673356191269
 30
0.0
 10
33.91815680412676
 20
146.6165054583734
 30
0.0
 10
33.8748942806597
 20
146.6519022190943
 30
0.0
 10
33.85457707466573
 20
146.6685254583659
 30
0.0
  0
SPLINE
  5
100
330
1F
100
AcDbEntity
  8
0
  6
Continuous
 62
     7
370
    25
100
AcDbSpline
210
0.0
220
0.0
230
1.0
 70
     8
 71
     3
 72
    23
 73
    19
 74
     0
 42
0.000000001
 43
0.00000001
 40
0.0
 40
0.0
 40
0.0
 40
0.0
 40
0.0636619166505099
 40
0.1268565326224358
 40
0.1896837975409631
 40
0.2524754359950858
 40
0.3153073717384607
 40
0.3782553827130691
 40
0.4411310905647696
 40
0.5040855115161226
 40
0.5670544981697497
 40
0.6294223253702903
 40
0.6916924388140346
 40
0.7534360282005067
 40
0.815098763984313
 40
0.8766489606784683
 40
0.9382992022638584
 40
1.0
 40
1.0
 40
1.0
 40
1.0
 10
42.70089117722983
 20
146.5827882788787
 30
0.0
 10
42.70025960845215
 20
146.5200105529162
 30
0.0
 10
42.69900110683196
 20
146.3949159114016
 30
0.0
 10
42.6893390446288
 20
146.2080559761252
 30
0.0
 10
42.67227547410165
 20
146.0226145408732
 30
0.0
 10
42.64907636415581
 20
145.8382044523652
 30
0.0
 10
42.61940500744591
 20
145.6545976689515
 30
0.0
 10
42.58332423122743
 20
145.4720689342153
 30
0.0
 10
42.54117180054879
 20
145.2906947752425
 30
0.0
 10
42.49086682216029
 20
145.1114109711632
 30
0.0
 10
42.43640946321906
 20
144.9338635662485
 30
0.0
 10
42.37402519728884
 20
144.7596484766652
 30
0.0
 10
42.30711607591131
 20
144.5884458218588
 30
0.0
 10
42.23411829517789
 20
144.4204744742214
 30
0.0
 10
42.15455390478046
 20
144.2563154795765
 30
0.0
 10
42.06969840936051
 20
144.094940374652
 30
0.0
 10
41.97842341483751
 20
143.9370261148156
 30
0.0
 10
41.91306897139184
 20
143.8344285828059
 30
0.0
 10
41.880378356717
 20
143.7831087916992
 30
0.0
  0
SPLINE
  5
101
330
1F
100
AcDbEntity
  8
0
  6
Continuous
 62
     7
370
    25
100
AcDbSpline
210
0.0
220
0.0
230
1.0
 70
     8
 71
     3
 72
    15
 73
    11
 74
     0
 42
0.000000001
 43
0.00000001
 40
0.0
 40
0.0
 40
0.0
 40
0.0
 40
0.1413111758092154
 40
0.2741953655402146
 40
0.4030262327324355
 40
0.5256174799943365
 40
0.6455098011999911
 40
0.7627015209231987
 40
0.8814851706981701
 40
1.0
 40
1.0
 40
1.0
 40
1.0
 10
27.60313476697342
 20
153.8231728942633
 30
0.0
 10
27.62105085532895
 20
153.806367013369
 30
0.0
 10
27.65581461953631
 20
153.7737574576941
 30
0.0
 10
27.70213270940645
 20
153.7210426305513
 30
0.0
 10
27.74113848227744
 20
153.6667609877364
 30
0.0
 10
27.77423297893336
 20
153.6111682411887
 30
0.0
 10
27.79777687371631
 20
153.5530683899507
 30
0.0
 10
27.81573824752889
 20
153.4938662134327
 30
0.0
 10
27.82763262468616
 20
153.4331568457237
 30
0.0
 10
27.82860878046045
 20
153.3918699030107
 30
0.0
 10
27.82909630543495
 20
153.3712498173402
 30
0.0
  0
SPLINE
  5
102
330
1F
100
AcDbEntity
  8
0
  6
Continuous
 62
     7
370
    25
100
AcDbSpline
210
0.0
220
0.0
230
1.0
 70
     8
 71
     3
 72
    15
 73
    11
 74
     0
 42
0.000000001
 43
0.00000001
 40
0.0
 40
0.0
 40
0.0
 40
0.0
 40
0.1683599380208821
 40
0.3231653554166522
 40
0.4663758978310018
 40
0.5970503274931204
 40
0.7149816119237514
 40
0.8215424810290695
 40
0.9160695506282942
 40
1.0
 40
1.0
 40
1.0
 40
1.0
 10
26.73374374133239
 20
154.2334293045197
 30
0.0
 10
26.785113969162
 20
154.2160550960346
 30
0.0
 10
26.88371864988082
 20
154.1827054623499
 30
0.0
 10
27.02461338020171
 20
154.1305253011365
 30
0.0
 10
27.1525131310643
 20
154.0784744704814
 30
0.0
 10
27.26818764389735
 20
154.0278956816547
 30
0.0
 10
27.37022016460294
 20
153.9760770272896
 30
0.0
 10
27.46022120819897
 20
153.9264211278349
 30
0.0
 10
27.53706783526059
 20
153.8759255166381
 30
0.0
 10
27.58200183430774
 20
153.8400469579996
 30
0.0
 10
27.60313476697342
 20
153.8231728942633
 30
0.0
  0
SPLINE
  5
103
330
1F
100
AcDbEntity
  8
0
  6
Continuous
 62
     7
370
    25
100
AcDbSpline
210
0.0
220
0.0
230
1.0
 70
     8
 71
     3
 72
    15
 73
    11
 74
     0
 42
0.000000001
 43
0.00000001
 40
0.0
 40
0.0
 40
0.0
 40
0.0
 40
0.1342564906836256
 40
0.2625960987039104
 40
0.3869711779658664
 40
0.5082500189080917
 40
0.6285802043150229
 40
0.7495980899447547
 40
0.8729126577255887
 40
1.0
 40
1.0
 40
1.0
 40
1.0
 10
40.71355143364008
 20
154.9770190481095
 30
0.0
 10
40.75350210374766
 20
154.942773508276
 30
0.0
 10
40.83164275867944
 20
154.8757916803398
 30
0.0
 10
40.93516015710881
 20
154.7645054174727
 30
0.0
 10
41.02191235037026
 20
154.6460997949284
 30
0.0
 10
41.09408961512398
 20
154.5218967180568
 30
0.0
 10
41.15059315642278
 20
154.391169736296
 30
0.0
 10
41.19136889820101
 20
154.2540130593508
 30
0.0
 10
41.21802611959022
 20
154.1105086910085
 30
0.0
 10
41.22196764457868
 20
154.0123929768886
 30
0.0
 10
41.22396810030675
 20
153.9625959711864
 30
0.0
  0
SPLINE
  5
104
330
1F
100
AcDbEntity
  8
0
  6
Continuous
 62
     7
370
    25
100
AcDbSpline
210
0.0
220
0.0
230
1.0
 70
     8
 71
     3
 72
    15
 73
    11
 74
     0
 42
0.000000001
 43
0.00000001
 40
0.0
 40
0.0
 40
0.0
 40
0.0
 40
0.1167219295051353
 40
0.2324347286801629
 40
0.348630439513841
 40
0.4677087313995405
 40
0.5904345695510328
 40
0.7191717976118469
 40
0.8554696386454369
 40
1.0
 40
1.0
 40
1.0
 40
1.0
 10
16.81371169005033
 20
154.0315062275967
 30
0.0
 10
16.81553513142119
 20
154.0764833495566
 30
0.0
 10
16.8191662494304
 20
154.1660487395728
 30
0.0
 10
16.84450094482191
 20
154.2985090655188
 30
0.0
 10
16.88763456389231
 20
154.4270395335585
 30
0.0
 10
16.94755784142771
 20
154.5515988611457
 30
0.0
 10
17.02336202842697
 20
154.6729686928662
 30
0.0
 10
17.11768659094096
 20
154.7891483044957
 30
0.0
 10
17.22746814090878
 20
154.9028853905277
 30
0.0
 10
17.31085837634746
 20
154.9719322677395
 30
0.0
 10
17.35377579261444
 20
155.0074677660582
 30
0.0
  0
SPLINE
  5
105
330
1F
100
AcDbEntity
  8
0
  6
Continuous
 62
     7
370
    25
100
AcDbSpline
210
0.0
220
0.0
230
1.0
 70
     8
 71
     3
 72
    23
 73
    19
 74
     0
 42
0.000000001
 43
0.00000001
 40
0.0
 40
0.0
 40
0.0
 40
0.0
 40
0.0486412444266234
 40
0.0968273970355336
 40
0.1450926226073886
 40
0.1951915258546468
 40
0.2474337415964034
 40
0.3030395512599834
 40
0.362895395134772
 40
0.4272639962782758
 40
0.4943694389129325
 40
0.5619887214172569
 40
0.6305091297698406
 40
0.700230530153882
 40
0.7718993306309658
 40
0.8454874756025091
 40
0.9213296026741058
 40
0.9999999999999999
 40
0.9999999999999999
 40
0.9999999999999999
 40
0.9999999999999999
 10
27.15217322851188
 20
146.3808652019556
 30
0.0
 10
27.15428696791015
 20
146.431806227715
 30
0.0
 10
27.1584946703725
 20
146.5332116704568
 30
0.0
 10
27.19375740051937
 20
146.6817233919941
 30
0.0
 10
27.24950532387606
 20
146.8250442893907
 30
0.0
 10
27.32921723253138
 20
146.9616438182659
 30
0.0
 10
27.43069441635499
 20
147.0925902434716
 30
0.0
 10
27.55491471525036
 20
147.2170088576136
 30
0.0
 10
27.70053276347609
 20
147.3365832980357
 30
0.0
 10
27.86719852945098
 20
147.4479029830593
 30
0.0
 10
28.04884637313651
 20
147.5501938378444
 30
0.0
 10
28.24177098905774
 20
147.6400365596169
 30
0.0
 10
28.44331546451365
 20
147.7165533031327
 30
0.0
 10
28.65438068414673
 20
147.7778278164406
 30
0.0
 10
28.87399273223355
 20
147.8270542047385
 30
0.0
 10
29.10294483279261
 20
147.861171839748
 30
0.0
 10
29.34091204172133
 20
147.8812966996645
 30
0.0
 10
29.50256140261599
 20
147.8841964698095
 30
0.0
 10
29.58486553620418
 20
147.8856728942633
 30
0.0
  0
SPLINE
  5
106
330
1F
100
AcDbEntity
  8
0
  6
Continuous
 62
     7
370
    25
100
AcDbSpline
210
0.0
220
0.0
230
1.0
 70
     8
 71
     3
 72
    11
 73
     7
 74
     0
 42
0.000000001
 43
0.00000001
 40
0.0
 40
0.0
 40
0.0
 40
0.0
 40
0.215985992390431
 40
0.4426704848506745
 40
0.7009766372486954
 40
0.9999999999999999
 40
0.9999999999999999
 40
0.9999999999999999
 40
0.9999999999999999
 10
34.24960912594778
 20
147.1332690481095
 30
0.0
 10
34.25172007378343
 20
147.1099565456137
 30
0.0
 10
34.25604653167804
 20
147.062176795322
 30
0.0
 10
34.29006193946262
 20
146.9933496758581
 30
0.0
 10
34.34251425673505
 20
146.9267130214963
 30
0.0
 10
34.38895509630391
 20
146.8885306388906
 30
0.0
 10
34.4138719464606
 20
146.8680446891351
 30
0.0
  0
SPLINE
  5
107
330
1F
100
AcDbEntity
  8
0
  6
Continuous
 62
     7
370
    25
100
AcDbSpline
210
0.0
220
0.0
230
1.0
 70
     8
 71
     3
 72
    11
 73
     7
 74
     0
 42
0.000000001
 43
0.00000001
 40
0.0
 40
0.0
 40
0.0
 40
0.0
 40
0.229619884434853
 40
0.4635695666772483
 40
0.7150166158617792
 40
1.0
 40
1.0
 40
1.0
 40
1.0
 10
35.58294245928111
 20
145.6893587916992
 30
0.0
 10
35.58088183444275
 20
145.7150487319869
 30
0.0
 10
35.57672172885885
 20
145.7669130316158
 30
0.0
 10
35.54368290640802
 20
145.8409494926267
 30
0.0
 10
35.49159082344873
 20
145.9101850807215
 30
0.0
 10
35.44502219576911
 20
145.9480753871264
 30
0.0
 10
35.42028220287086
 20
145.9682049455454
 30
0.0
  0
SPLINE
  5
108
330
1F
100
AcDbEntity
  8
0
  6
Continuous
 62
     7
370
    25
100
AcDbSpline
210
0.0
220
0.0
230
1.0
 70
     8
 71
     3
 72
    15
 73
    11
 74
     0
 42
0.000000001
 43
0.00000001
 40
0.0
 40
0.0
 40
0.0
 40
0.0
 40
0.0754091243635807
 40
0.1648236943982193
 40
0.267872227622367
 40
0.3856994889107137
 40
0.51702195448459
 40
0.6635259917936454
 40
0.8240749176751168
 40
1.0
 40
1.0
 40
1.0
 40
1.0
 10
26.04464117722982
 20
154.5347113558018
 30
0.0
 10
26.05991495462612
 20
154.5234227086169
 30
0.0
 10
26.09329924915441
 20
154.4987488173672
 30
0.0
 10
26.15262582198785
 20
154.4665168119887
 30
0.0
 10
26.22136827782196
 20
154.4295364493857
 30
0.0
 10
26.30251014991858
 20
154.3937845607932
 30
0.0
 10
26.39400327282992
 20
154.3545715855318
 30
0.0
 10
26.49751134156868
 20
154.3164248370618
 30
0.0
 10
26.61131117033024
 20
154.2738227931345
 30
0.0
 10
26.69170822540189
 20
154.2472978455481
 30
0.0
 10
26.73374374133239
 20
154.2334293045197
 30
0.0
  0
SPLINE
  5
109
330
1F
100
AcDbEntity
  8
0
  6
Continuous
 62
     7
370
    25
100
AcDbSpline
210
0.0
220
0.0
230
1.0
 70
     8
 71
     3
 72
    15
 73
    11
 74
     0
 42
0.000000001
 43
0.00000001
 40
0.0
 40
0.0
 40
0.0
 40
0.0
 40
0.0699546856899432
 40
0.1561878681314068
 40
0.2572561554836661
 40
0.373831777647498
 40
0.507036813941593
 40
0.6551172724003625
 40
0.8194266219497868
 40
1.0
 40
1.0
 40
1.0
 40
1.0
 10
27.05105143364008
 20
153.634871612212
 30
0.0
 10
27.03572374571345
 20
153.6452901898908
 30
0.0
 10
27.0015016078104
 20
153.6685517544385
 30
0.0
 10
26.94110064708952
 20
153.7002395984092
 30
0.0
 10
26.8689663906638
 20
153.7358378739428
 30
0.0
 10
26.78357403556091
 20
153.7725138027152
 30
0.0
 10
26.68533697309952
 20
153.8105416276208
 30
0.0
 10
26.57433928855038
 20
153.8505181656792
 30
0.0
 10
26.45093198461396
 20
153.8930007747854
 30
0.0
 10
26.36412825490889
 20
153.9213241414789
 30
0.0
 10
26.31867963876829
 20
153.9361536634941
 30
0.0
  0
SPLINE
  5
10A
330
1F
100
AcDbEntity
  8
0
  6
Continuous
 62
     7
370
    25
100
AcDbSpline
210
0.0
220
0.0
230
1.0
 70
     8
 71
     3
 72
    15
 73
    11
 74
     0
 42
0.000000001
 43
0.00000001
 40
0.0
 40
0.0
 40
0.0
 40
0.0
 40
0.1319716309655184
 40
0.2610897076429958
 40
0.3866084430871405
 40
0.5106689552424103
 40
0.6332772126140318
 40
0.7551893283274761
 40
0.8771743611072962
 40
1.0
 40
1.0
 40
1.0
 40
1.0
 10
25.43646810030675
 20
153.1933652019557
 30
0.0
 10
25.47323088286101
 20
153.1687364384823
 30
0.0
 10
25.54596154534514
 20
153.120011446544
 30
0.0
 10
25.65997383435507
 20
153.0581254386151
 30
0.0
 10
25.77508346847179
 20
153.0044498967498
 30
0.0
 10
25.89225294820158
 20
152.9612601961604
 30
0.0
 10
26.01117404596616
 20
152.9273751743792
 30
0.0
 10
26.13175024744002
 20
152.9034038750177
 30
0.0
 10
26.25393051804869
 20
152.8884153572217
 30
0.0
 10
26.33599839290265
 20
152.8865891388108
 30
0.0
 10
26.37717322851188
 20
152.8856728942633
 30
0.0
  0
SPLINE
  5
10B
330
1F
100
AcDbEntity
  8
0
  6
Continuous
 62
     7
370
    25
100
AcDbSpline
210
0.0
220
0.0
230
1.0
 70
     8
 71
     3
 72
    23
 73
    19
 74
     0
 42
0.000000001
 43
0.00000001
 40
0.0
 40
0.0
 40
0.0
 40
0.0
 40
0.0683678485211965
 40
0.1315590364086854
 40
0.1887661455010105
 40
0.2405070925620757
 40
0.286969596949656
 40
0.3277351168641988
 40
0.3640875441509979
 40
0.3952594933819083
 40
0.4544409623132991
 40
0.5166387135177282
 40
0.5835588737282559
 40
0.6567782477917394
 40
0.7355703869006545
 40
0.8180505088741512
 40
0.9063008482892698
 40
1.0
 40
1.0
 40
1.0
 40
1.0
 10
52.54704502338367
 20
154.0643587916992
 30
0.0
 10
52.54675650423026
 20
154.1062967902671
 30
0.0
 10
52.54620131194867
 20
154.186997335916
 30
0.0
 10
52.54148897329572
 20
154.3027221453418
 30
0.0
 10
52.53353352195268
 20
154.4080213228325
 30
0.0
 10
52.52294196098685
 20
154.5028230071924
 30
0.0
 10
52.5074646642913
 20
154.5866893390566
 30
0.0
 10
52.49045278894553
 20
154.6606317312798
 30
0.0
 10
52.46904383697156
 20
154.7236375276799
 30
0.0
 10
52.43685399169328
 20
154.7945490402301
 30
0.0
 10
52.38261502012904
 20
154.8718071118986
 30
0.0
 10
52.29930090625268
 20
154.952585703312
 30
0.0
 10
52.19666424860942
 20
155.0232667958166
 30
0.0
 10
52.07620884307172
 20
155.0834350133427
 30
0.0
 10
51.94067688600754
 20
155.1324518772543
 30
0.0
 10
51.79171642800461
 20
155.1689353500087
 30
0.0
 10
51.63040613360059
 20
155.1892071378182
 30
0.0
 10
51.51878814250403
 20
155.1919517827622
 30
0.0
 10
51.46130784389648
 20
155.1933652019556
 30
0.0
  0
SPLINE
  5
10C
330
1F
100
AcDbEntity
  8
0
  6
Continuous
 62
     7
370
    25
100
AcDbSpline
210
0.0
220
0.0
230
1.0
 70
     8
 71
     3
 72
    15
 73
    11
 74
     0
 42
0.000000001
 43
0.00000001
 40
0.0
 40
0.0
 40
0.0
 40
0.0
 40
0.1342564906836216
 40
0.2625960987039068
 40
0.386971177965865
 40
0.5082500189080892
 40
0.6285802043150219
 40
0.7495980899447551
 40
0.8729126577255883
 40
1.0
 40
1.0
 40
1.0
 40
1.0
 10
21.07252579261444
 20
154.9770190481095
 30
0.0
 10
21.11247646272202
 20
154.942773508276
 30
0.0
 10
21.19061711765379
 20
154.8757916803398
 30
0.0
 10
21.29413451608315
 20
154.7645054174726
 30
0.0
 10
21.38088670934463
 20
154.6460997949284
 30
0.0
 10
21.45306397409834
 20
154.5218967180568
 30
0.0
 10
21.50956751539713
 20
154.391169736296
 30
0.0
 10
21.55034325717538
 20
154.2540130593507
 30
0.0
 10
21.57700047856456
 20
154.1105086910085
 30
0.0
 10
21.58094200355302
 20
154.0123929768886
 30
0.0
 10
21.58294245928111
 20
153.9625959711864
 30
0.0
  0
SPLINE
  5
10D
330
1F
100
AcDbEntity
  8
0
  6
Continuous
 62
     7
370
    25
100
AcDbSpline
210
0.0
220
0.0
230
1.0
 70
     8
 71
     3
 72
    19
 73
    15
 74
     0
 42
0.000000001
 43
0.00000001
 40
0.0
 40
0.0
 40
0.0
 40
0.0
 40
0.1556545550983686
 40
0.3020005062188631
 40
0.4424164066188792
 40
0.5784163454497943
 40
0.64374311709128
 40
0.7034430959358443
 40
0.7587350034204515
 40
0.810294580137342
 40
0.8601264362852185
 40
0.9069107179775672
 40
0.9535054070477308
 40
1.0
 40
1.0
 40
1.0
 40
1.0
 10
34.89944886953752
 20
147.526698535289
 30
0.0
 10
34.85633162271376
 20
147.5255028968616
 30
0.0
 10
34.77267566828755
 20
147.5231831227304
 30
0.0
 10
34.65202802923874
 20
147.4997963610863
 30
0.0
 10
34.54036600956862
 20
147.4636833907475
 30
0.0
 10
34.45621112920466
 20
147.4195716900696
 30
0.0
 10
34.39621320437021
 20
147.3792287719715
 30
0.0
 10
34.3575270494762
 20
147.3476667451517
 30
0.0
 10
34.32394181839642
 20
147.3159076790074
 30
0.0
 10
34.29748957215273
 20
147.281445734527
 30
0.0
 10
34.27523245302276
 20
147.2468160665285
 30
0.0
 10
34.26083515058963
 20
147.2096954344353
 30
0.0
 10
34.25162046451707
 20
147.17191546762
 30
0.0
 10
34.25027909135807
 20
147.1461419501157
 30
0.0
 10
34.24960912594778
 20
147.1332690481095
 30
0.0
  0
SPLINE
  5
10E
330
1F
100
AcDbEntity
  8
0
  6
Continuous
 62
     7
370
    25
100
AcDbSpline
210
0.0
220
0.0
230
1.0
 70
     8
 71
     3
 72
    15
 73
    11
 74
     0
 42
0.000000001
 43
0.00000001
 40
0.0
 40
0.0
 40
0.0
 40
0.0
 40
0.1669308253651559
 40
0.3216859262911551
 40
0.4643994428593591
 40
0.5948867204722492
 40
0.7129214878277699
 40
0.8195837013753814
 40
0.9152718147238917
 40
0.9999999999999999
 40
0.9999999999999999
 40
0.9999999999999999
 40
0.9999999999999999
 10
26.31867963876829
 20
153.9361536634941
 30
0.0
 10
26.26970651002263
 20
153.9527089192353
 30
0.0
 10
26.17533229094439
 20
153.9846119111868
 30
0.0
 10
26.04061634039499
 20
154.0350376977526
 30
0.0
 10
25.9181008474899
 20
154.0855993102765
 30
0.0
 10
25.80731925828214
 20
154.1347202970984
 30
0.0
 10
25.7091479181952
 20
154.1844561220725
 30
0.0
 10
25.62315551722077
 20
154.2340022857936
 30
0.0
 10
25.548926034896
 20
154.2831721250401
 30
0.0
 10
25.50566351142894
 20
154.3185688857609
 30
0.0
 10
25.48534630543496
 20
154.3351921250326
 30
0.0
  0
SPLINE
  5
10F
330
1F
100
AcDbEntity
  8
0
  6
Continuous
 62
     7
370
    25
100
AcDbSpline
210
0.0
220
0.0
230
1.0
 70
     8
 71
     3
 72
    23
 73
    19
 74
     0
 42
0.000000001
 43
0.00000001
 40
0.0
 40
0.0
 40
0.0
 40
0.0
 40
0.0875067036494361
 40
0.1706303404637917
 40
0.2491638638941571
 40
0.323977050591621
 40
0.3949875564101507
 40
0.4629346917213115
 40
0.5286034512658275
 40
0.5921575274870663
 40
0.6527680449138522
 40
0.7095376398021667
 40
0.7627723065276015
 40
0.8130876446330674
 40
0.8611005991848921
 40
0.9075515534861226
 40
0.953706993759597
 40
1.0
 40
1.0
 40
1.0
 40
1.0
 10
38.83374374133239
 20
152.526698535289
 30
0.0
 10
38.74315450117285
 20
152.5280156731816
 30
0.0
 10
38.5665134868718
 20
152.5305839756965
 30
0.0
 10
38.30931151962852
 20
152.5524349497018
 30
0.0
 10
38.06700653772719
 20
152.5881503573335
 30
0.0
 10
37.83999914680305
 20
152.6381583083325
 30
0.0
 10
37.6281439196594
 20
152.7029454953472
 30
0.0
 10
37.43157483854706
 20
152.7825158835876
 30
0.0
 10
37.24965924455186
 20
152.8758040328838
 30
0.0
 10
37.08532617339679
 20
152.984161652926
 30
0.0
 10
36.93852491699557
 20
153.1007614324303
 30
0.0
 10
36.8093668497557
 20
153.2215460562355
 30
0.0
 10
36.70011323410953
 20
153.3469127079715
 30
0.0
 10
36.61126538045588
 20
153.476630834828
 30
0.0
 10
36.54143177417706
 20
153.6096683358949
 30
0.0
 10
36.49089892985888
 20
153.7465590009533
 30
0.0
 10
36.46010503013079
 20
153.8877707706538
 30
0.0
 10
36.45652833816801
 20
153.9835469027292
 30
0.0
 10
36.45473733107598
 20
154.0315062275967
 30
0.0
  0
SPLINE
  5
110
330
1F
100
AcDbEntity
  8
0
  6
Continuous
 62
     7
370
    25
100
AcDbSpline
210
0.0
220
0.0
230
1.0
 70
     8
 71
     3
 72
    15
 73
    11
 74
     0
 42
0.000000001
 43
0.00000001
 40
0.0
 40
0.0
 40
0.0
 40
0.0
 40
0.0699546856899464
 40
0.1561878681314095
 40
0.2572561554836529
 40
0.3738317776474979
 40
0.5070368139415881
 40
0.6551172724003568
 40
0.8194266219497728
 40
1.0
 40
1.0
 40
1.0
 40
1.0
 10
35.42028220287086
 20
145.9682049455454
 30
0.0
 10
35.40495451494422
 20
145.9786235232241
 30
0.0
 10
35.37073237704117
 20
146.0018850877719
 30
0.0
 10
35.3103314163203
 20
146.0335729317425
 30
0.0
 10
35.23819715989455
 20
146.0691712072761
 30
0.0
 10
35.1528048047917
 20
146.1058471360486
 30
0.0
 10
35.05456774233029
 20
146.143874960954
 30
0.0
 10
34.94357005778116
 20
146.1838514990126
 30
0.0
 10
34.82016275384473
 20
146.2263341081186
 30
0.0
 10
34.73335902413966
 20
146.2546574748122
 30
0.0
 10
34.68791040799906
 20
146.2694869968274
 30
0.0
  0
SPLINE
  5
111
330
1F
100
AcDbEntity
  8
0
  6
Continuous
 62
     7
370
    25
100
AcDbSpline
210
0.0
220
0.0
230
1.0
 70
     8
 71
     3
 72
    19
 73
    15
 74
     0
 42
0.000000001
 43
0.00000001
 40
0.0
 40
0.0
 40
0.0
 40
0.0
 40
0.1407828023836021
 40
0.2757618394997496
 40
0.4044750150130842
 40
0.5287110395683747
 40
0.5894722108715295
 40
0.6492871637200548
 40
0.7083401455944303
 40
0.7669935324750614
 40
0.8253862604813423
 40
0.8835417572498273
 40
0.941661722516565
 40
1.0
 40
1.0
 40
1.0
 40
1.0
 10
29.58486553620419
 20
147.8856728942634
 30
0.0
 10
29.67920793612907
 20
147.8840183580686
 30
0.0
 10
29.86400347440242
 20
147.8807774938661
 30
0.0
 10
30.13407043859574
 20
147.8543547293012
 30
0.0
 10
30.39025949151411
 20
147.8091995466489
 30
0.0
 10
30.59428136386921
 20
147.7576735695885
 30
0.0
 10
30.75051021397292
 20
147.7074813266314
 30
0.0
 10
30.86289431157683
 20
147.6641904162292
 30
0.0
 10
30.97124296188173
 20
147.6149770538786
 30
0.0
 10
31.07632598888649
 20
147.5612364131984
 30
0.0
 10
31.17830971259349
 20
147.5029742335368
 30
0.0
 10
31.27620040569817
 20
147.4387008302056
 30
0.0
 10
31.37016055763396
 20
147.3688552873061
 30
0.0
 10
31.42992653098554
 20
147.318666762424
 30
0.0
 10
31.45986553620419
 20
147.2935254583659
 30
0.0
  0
SPLINE
  5
112
330
1F
100
AcDbEntity
  8
0
  6
Continuous
 62
     7
370
    25
100
AcDbSpline
210
0.0
220
0.0
230
1.0
 70
     8
 71
     3
 72
    15
 73
    11
 74
     0
 42
0.000000001
 43
0.00000001
 40
0.0
 40
0.0
 40
0.0
 40
0.0
 40
0.1412615421882089
 40
0.2763720514238463
 40
0.4066468166784618
 40
0.5319496682939686
 40
0.6529681352021885
 40
0.7704649802307698
 40
0.8861271182755067
 40
1.0
 40
1.0
 40
1.0
 40
1.0
 10
27.39239758748624
 20
154.8856728942633
 30
0.0
 10
27.35610072110701
 20
154.9101747890398
 30
0.0
 10
27.28508748377368
 20
154.9581116784312
 30
0.0
 10
27.17561584307592
 20
155.0208146144818
 30
0.0
 10
27.06665513149955
 20
155.0738322582027
 30
0.0
 10
26.95824872396729
 20
155.1173717424326
 30
0.0
 10
26.85057948936332
 20
155.1513006870522
 30
0.0
 10
26.74340456550829
 20
155.1754872588699
 30
0.0
 10
26.63668323616679
 20
155.1905226702039
 30
0.0
 10
26.56552157402077
 20
155.1924226281809
 30
0.0
 10
26.53021810030674
 20
155.1933652019556
 30
0.0
  0
SPLINE
  5
113
330
1F
100
AcDbEntity
  8
0
  6
Continuous
 62
     7
370
    25
100
AcDbSpline
210
0.0
220
0.0
230
1.0
 70
     8
 71
     3
 72
    23
 73
    19
 74
     0
 42
0.000000001
 43
0.00000001
 40
0.0
 40
0.0
 40
0.0
 40
0.0
 40
0.0560745648741928
 40
0.1101232072387593
 40
0.1631630981749438
 40
0.2155994951225809
 40
0.2688617438007642
 40
0.3228662515024583
 40
0.3789241745704194
 40
0.437352786958689
 40
0.4980151627293998
 40
0.5613480185741817
 40
0.6267172177485297
 40
0.6944602834888167
 40
0.7657410002921503
 40
0.840109458579332
 40
0.9180965899888524
 40
1.0
 40
1.0
 40
1.0
 40
1.0
 10
8.290634766973406
 20
155.5050639199044
 30
0.0
 10
8.2899084568714
 20
155.472133276949
 30
0.0
 10
8.288482077584064
 20
155.4074617449128
 30
0.0
 10
8.271346955121217
 20
155.3129802446992
 30
0.0
 10
8.246175324440886
 20
155.2227113781447
 30
0.0
 10
8.209702596971507
 20
155.1367128948445
 30
0.0
 10
8.16202117460993
 20
155.055818040353
 30
0.0
 10
8.104515659081352
 20
154.9789755435411
 30
0.0
 10
8.036908472746143
 20
154.9065937224269
 30
0.0
 10
7.958772535968641
 20
154.8396338340439
 30
0.0
 10
7.871886281467913
 20
154.7769855274672
 30
0.0
 10
7.776636612971781
 20
154.7196088714645
 30
0.0
 10
7.673741375049337
 20
154.6675511638922
 30
0.0
 10
7.563271034146599
 20
154.6206871282472
 30
0.0
 10
7.44464091659345
 20
154.580513519694
 30
0.0
 10
7.318559427133192
 20
154.544130810652
 30
0.0
 10
7.18444110852956
 20
154.5138269353421
 30
0.0
 10
7.091995922974985
 20
154.4979648583162
 30
0.0
 10
7.044641177229819
 20
154.48983956093
 30
0.0
  0
SPLINE
  5
114
330
1F
100
AcDbEntity
  8
0
  6
Continuous
 62
     7
370
    25
100
AcDbSpline
210
0.0
220
0.0
230
1.0
 70
     8
 71
     3
 72
    19
 73
    15
 74
     0
 42
0.000000001
 43
0.00000001
 40
0.0
 40
0.0
 40
0.0
 40
0.0
 40
0.0766227698023594
 40
0.1521849682155958
 40
0.2272434548159105
 40
0.3025789204818796
 40
0.3787458428279918
 40
0.4570996132546148
 40
0.5381495480707315
 40
0.6218167669713878
 40
0.7090154150213929
 40
0.8010790546584581
 40
0.8979864042121883
 40
1.0
 40
1.0
 40
1.0
 40
1.0
 10
21.3778142541529
 20
153.33358956093
 30
0.0
 10
21.33646480369602
 20
153.2881288670502
 30
0.0
 10
21.25433823975499
 20
153.1978367218955
 30
0.0
 10
21.11666096341477
 20
153.0781384969246
 30
0.0
 10
20.97164482966497
 20
152.9693110731599
 30
0.0
 10
20.81498575650344
 20
152.8769266422512
 30
0.0
 10
20.64961949877706
 20
152.795451560099
 30
0.0
 10
20.47422752579386
 20
152.7251676384532
 30
0.0
 10
20.28905896185536
 20
152.6643107810357
 30
0.0
 10
20.09349974382185
 20
152.6136001466502
 30
0.0
 10
19.8863218844969
 20
152.5743493707205
 30
0.0
 10
19.66661599659573
 20
152.5468190334743
 30
0.0
 10
19.43390968373564
 20
152.5297008149063
 30
0.0
 10
19.2744794714242
 20
152.5277162760182
 30
0.0
 10
19.19271810030675
 20
152.526698535289
 30
0.0
  0
SPLINE
  5
115
330
1F
100
AcDbEntity
  8
0
  6
Continuous
 62
     7
370
    25
100
AcDbSpline
210
0.0
220
0.0
230
1.0
 70
     8
 71
     3
 72
    23
 73
    19
 74
     0
 42
0.000000001
 43
0.00000001
 40
0.0
 40
0.0
 40
0.0
 40
0.0
 40
0.0641030648799059
 40
0.1232272831819911
 40
0.1770298860804386
 40
0.2259815609155348
 40
0.2698881339038653
 40
0.3093202298589843
 40
0.3445257193437917
 40
0.3754455056392332
 40
0.4349637071945155
 40
0.498132954550565
 40
0.5665769722976715
 40
0.6423409591618698
 40
0.7237115579990981
 40
0.8096731575176385
 40
0.901497932359215
 40
1.0
 40
1.0
 40
1.0
 40
1.0
 10
55.72653220287085
 20
154.1629164840069
 30
0.0
 10
55.72621414033288
 20
154.2003117806444
 30
0.0
 10
55.72560271898337
 20
154.2721979036723
 30
0.0
 10
55.72128224605535
 20
154.3754364337215
 30
0.0
 10
55.71194300514597
 20
154.4694286953045
 30
0.0
 10
55.7016320232943
 20
154.5544082868027
 30
0.0
 10
55.68624409038743
 20
154.6301163197936
 30
0.0
 10
55.66805768179677
 20
154.6968853087128
 30
0.0
 10
55.64693243468898
 20
154.7548614069451
 30
0.0
 10
55.61325206461785
 20
154.820190845502
 30
0.0
 10
55.55817617487716
 20
154.8916696329937
 30
0.0
 10
55.47625072933333
 20
154.9680726361405
 30
0.0
 10
55.373822406297
 20
155.0334128038771
 30
0.0
 10
55.255001896156
 20
155.0905714581245
 30
0.0
 10
55.12047140025282
 20
155.1364896692797
 30
0.0
 10
54.97281826137613
 20
155.1700278158735
 30
0.0
 10
54.81256047961416
 20
155.1901871527742
 30
0.0
 10
54.70148588189755
 20
155.1922813616458
 30
0.0
 10
54.6440001515888
 20
155.1933652019556
 30
0.0
  0
SPLINE
  5
116
330
1F
100
AcDbEntity
  8
0
  6
Continuous
 62
     7
370
    25
100
AcDbSpline
210
0.0
220
0.0
230
1.0
 70
     8
 71
     3
 72
    27
 73
    23
 74
     0
 42
0.000000001
 43
0.00000001
 40
0.0
 40
0.0
 40
0.0
 40
0.0
 40
0.0876349256170984
 40
0.1724728208640028
 40
0.2549926109715956
 40
0.3366544256563315
 40
0.3764031565249921
 40
0.4146992242594997
 40
0.451580841537994
 40
0.4871294754235178
 40
0.5216629188479284
 40
0.5552012691337342
 40
0.5881925237673824
 40
0.620847081402398
 40
0.654671105792341
 40
0.6918644669784741
 40
0.7327747452187197
 40
0.7775209524244688
 40
0.8265328064715035
 40
0.8798547261773406
 40
0.9376497436139137
 40
1.0
 40
1.0
 40
1.0
 40
1.0
 10
54.6440001515888
 20
155.1933652019556
 30
0.0
 10
54.5733654304511
 20
155.1917380857735
 30
0.0
 10
54.43435042564824
 20
155.1885357858248
 30
0.0
 10
54.23091776934734
 20
155.1566916005987
 30
0.0
 10
54.03612380866814
 20
155.1076376522001
 30
0.0
 10
53.88238132029096
 20
155.048550344956
 30
0.0
 10
53.76648673784081
 20
154.992688440883
 30
0.0
 10
53.68514545768963
 20
154.9482988979963
 30
0.0
 10
53.61087019794585
 20
154.8988213545759
 30
0.0
 10
53.54122782206704
 20
154.8479860164256
 30
0.0
 10
53.47875709657655
 20
154.7924559483273
 30
0.0
 10
53.42232127813622
 20
154.7336752426902
 30
0.0
 10
53.3718069605608
 20
154.6717106199287
 30
0.0
 10
53.32552696948481
 20
154.6061421247695
 30
0.0
 10
53.2864869668859
 20
154.5320671372813
 30
0.0
 10
53.25320659871816
 20
154.4481712580968
 30
0.0
 10
53.22407652546723
 20
154.3534490811643
 30
0.0
 10
53.20280019460321
 20
154.2469865049574
 30
0.0
 10
53.18384808003027
 20
154.1300059016178
 30
0.0
 10
53.17183269212627
 20
154.0015221334883
 30
0.0
 10
53.16341262814939
 20
153.862015081705
 30
0.0
 10
53.1627654806372
 20
153.7652281128789
 30
0.0
 10
53.16242963876829
 20
153.7149998173402
 30
0.0
  0
SPLINE
  5
117
330
1F
100
AcDbEntity
  8
0
  6
Continuous
 62
     7
370
    25
100
AcDbSpline
210
0.0
220
0.0
230
1.0
 70
     8
 71
     3
 72
    23
 73
    19
 74
     0
 42
0.000000001
 43
0.00000001
 40
0.0
 40
0.0
 40
0.0
 40
0.0
 40
0.0597676864728478
 40
0.1191903756761272
 40
0.1784718245662356
 40
0.2382099757108976
 40
0.2982148920228071
 40
0.3588153725467718
 40
0.4200632768875966
 40
0.4827268955161631
 40
0.5460070762253357
 40
0.6093861856168599
 40
0.6728710196717252
 40
0.7368928850864686
 40
0.8015388335692866
 40
0.8666743250440859
 40
0.9327633417884109
 40
1.0
 40
1.0
 40
1.0
 40
1.0
 10
53.05585912594778
 20
154.8464100737505
 30
0.0
 10
53.08110171089287
 20
154.8748378069535
 30
0.0
 10
53.13144117290316
 20
154.9315291798348
 30
0.0
 10
53.21393594052
 20
155.0095772541058
 30
0.0
 10
53.29948688189329
 20
155.0842009954387
 30
0.0
 10
53.39127228572465
 20
155.1516607989552
 30
0.0
 10
53.48652232122549
 20
155.2156054953054
 30
0.0
 10
53.58708405793487
 20
155.2728015206997
 30
0.0
 10
53.69146123469664
 20
155.3265051944386
 30
0.0
 10
53.80115957298384
 20
155.372841281781
 30
0.0
 10
53.91364420821529
 20
155.4158334756406
 30
0.0
 10
54.02930378108741
 20
155.4512419146273
 30
0.0
 10
54.14648366054347
 20
155.4828970628866
 30
0.0
 10
54.2659610372954
 20
155.5087970851492
 30
0.0
 10
54.38781555501478
 20
155.5273440599198
 30
0.0
 10
54.51146944988449
 20
155.54244727739
 30
0.0
 10
54.63749453366912
 20
155.5500641215952
 30
0.0
 10
54.72225081691325
 20
155.5515767410404
 30
0.0
 10
54.76499374133238
 20
155.55233956093
 30
0.0
  0
SPLINE
  5
118
330
1F
100
AcDbEntity
  8
0
  6
Continuous
 62
     7
370
    25
100
AcDbSpline
210
0.0
220
0.0
230
1.0
 70
     8
 71
     3
 72
    19
 73
    15
 74
     0
 42
0.000000001
 43
0.00000001
 40
0.0
 40
0.0
 40
0.0
 40
0.0
 40
0.1603266904503157
 40
0.3103205857647532
 40
0.4513492706831028
 40
0.5880634549920305
 40
0.6524574951131564
 40
0.7115975859387071
 40
0.7668915491125197
 40
0.8179936626796126
 40
0.8651728307634275
 40
0.9104413172857596
 40
0.9554041299051454
 40
1.0
 40
1.0
 40
1.0
 40
1.0
 10
26.37717322851188
 20
152.8856728942633
 30
0.0
 10
26.43311195483193
 20
152.8872244337777
 30
0.0
 10
26.54138424729814
 20
152.8902275186015
 30
0.0
 10
26.69696461823105
 20
152.9172601497484
 30
0.0
 10
26.84016574740179
 20
152.9602088501326
 30
0.0
 10
26.94851735004471
 20
153.0115546381934
 30
0.0
 10
27.02505568680262
 20
153.0603817423227
 30
0.0
 10
27.07557521631011
 20
153.0970628079576
 30
0.0
 10
27.11816620220606
 20
153.1362287734352
 30
0.0
 10
27.152946820326
 20
153.1771404260638
 30
0.0
 10
27.17994094168429
 20
153.2194691339587
 30
0.0
 10
27.19982421480741
 20
153.2632762667258
 30
0.0
 10
27.21113446729523
 20
153.3092537245262
 30
0.0
 10
27.21285496555769
 20
153.3404775241158
 30
0.0
 10
27.21371169005034
 20
153.3560254583659
 30
0.0
  0
SPLINE
  5
119
330
1F
100
AcDbEntity
  8
0
  6
Continuous
 62
     7
370
    25
100
AcDbSpline
210
0.0
220
0.0
230
1.0
 70
     8
 71
     3
 72
    23
 73
    19
 74
     0
 42
0.000000001
 43
0.00000001
 40
0.0
 40
0.0
 40
0.0
 40
0.0
 40
0.0583149004096536
 40
0.1172940060591672
 40
0.1766070762992205
 40
0.2365935356109537
 40
0.2977291535408452
 40
0.3595046077406632
 40
0.422515156785375
 40
0.4863567622319117
 40
0.5507736710048404
 40
0.6150047297679477
 40
0.6790229741107291
 40
0.7428040533334339
 40
0.806938830787984
 40
0.8710380393204316
 40
0.9351613450848577
 40
1.0
 40
1.0
 40
1.0
 40
1.0
 10
41.16242963876829
 20
143.7831087916992
 30
0.0
 10
41.19736965386468
 20
143.8286973604766
 30
0.0
 10
41.26764764994518
 20
143.920393750676
 30
0.0
 10
41.36460264793418
 20
144.0648844067746
 30
0.0
 10
41.45721374848272
 20
144.2140704020189
 30
0.0
 10
41.54381638331562
 20
144.3692928988189
 30
0.0
 10
41.62527523314883
 20
144.5299683404278
 30
0.0
 10
41.70183134946621
 20
144.6963417125511
 30
0.0
 10
41.77189735451969
 20
144.8684214082925
 30
0.0
 10
41.83691938982944
 20
145.045241770442
 30
0.0
 10
41.89498295569054
 20
145.2257230170385
 30
0.0
 10
41.9468944322869
 20
145.4082842599796
 30
0.0
 10
41.98866816954492
 20
145.5927750323978
 30
0.0
 10
42.0246177245709
 20
145.7783826564565
 30
0.0
 10
42.05125461888949
 20
145.9656413082288
 30
0.0
 10
42.07188573846553
 20
146.1539839375412
 30
0.0
 10
42.08294669194109
 20
146.3438715277254
 30
0.0
 10
42.08465012224707
 20
146.4708632729733
 30
0.0
 10
42.08550656184521
 20
146.5347113558018
 30
0.0
  0
SPLINE
  5
11A
330
1F
100
AcDbEntity
  8
0
  6
Continuous
 62
     7
370
    25
100
AcDbSpline
210
0.0
220
0.0
230
1.0
 70
     8
 71
     3
 72
    15
 73
    11
 74
     0
 42
0.000000001
 43
0.00000001
 40
0.0
 40
0.0
 40
0.0
 40
0.0
 40
0.1185581518092375
 40
0.2368257623347833
 40
0.3562052757820503
 40
0.4777407459348753
 40
0.6021266315960728
 40
0.729936836228113
 40
0.862653249219792
 40
1.0
 40
1.0
 40
1.0
 40
1.0
 10
46.98807066440932
 20
153.08358956093
 30
0.0
 10
46.92348443992726
 20
153.0374016519134
 30
0.0
 10
46.79447026742309
 20
152.9451390230129
 30
0.0
 10
46.58508577977103
 20
152.8300648382774
 30
0.0
 10
46.36470650658238
 20
152.7333467488343
 30
0.0
 10
46.13219916530168
 20
152.6566465974078
 30
0.0
 10
45.88865928778691
 20
152.5985079605685
 30
0.0
 10
45.6342165305886
 20
152.5573170046454
 30
0.0
 10
45.3689813387498
 20
152.5306684517976
 30
0.0
 10
45.18818952243117
 20
152.528036880562
 30
0.0
 10
45.09624374133239
 20
152.526698535289
 30
0.0
  0
SPLINE
  5
11B
330
1F
100
AcDbEntity
  8
0
  6
Continuous
 62
     7
370
    25
100
AcDbSpline
210
0.0
220
0.0
230
1.0
 70
     8
 71
     3
 72
    15
 73
    11
 74
     0
 42
0.000000001
 43
0.00000001
 40
0.0
 40
0.0
 40
0.0
 40
0.0
 40
0.0956167756552311
 40
0.1927410191852934
 40
0.3013604136521144
 40
0.4253082524068586
 40
0.5608421614340104
 40
0.7005223956972727
 40
0.8451639175898027
 40
1.0
 40
1.0
 40
1.0
 40
1.0
 10
9.695762972101612
 20
156.4225318686223
 30
0.0
 10
9.697647531579854
 20
156.4434357828901
 30
0.0
 10
9.701446361984473
 20
156.4855731768081
 30
0.0
 10
9.732555517806704
 20
156.5450211971395
 30
0.0
 10
9.781361698504735
 20
156.5983226167012
 30
0.0
 10
9.847509528026308
 20
156.6444954385624
 30
0.0
 10
9.925822316934216
 20
156.682696936514
 30
0.0
 10
10.01273722244033
 20
156.7118366605287
 30
0.0
 10
10.1072266389316
 20
156.7288671333581
 30
0.0
 10
10.17245515437446
 20
156.7308180673881
 30
0.0
 10
10.20617963876828
 20
156.7318267404172
 30
0.0
  0
SPLINE
  5
11C
330
1F
100
AcDbEntity
  8
0
  6
Continuous
 62
     7
370
    25
100
AcDbSpline
210
0.0
220
0.0
230
1.0
 70
     8
 71
     3
 72
    19
 73
    15
 74
     0
 42
0.000000001
 43
0.00000001
 40
0.0
 40
0.0
 40
0.0
 40
0.0
 40
0.1603266904503156
 40
0.3103205857647517
 40
0.4513492706830924
 40
0.5880634549920303
 40
0.6524574951131584
 40
0.7115975859387086
 40
0.7668915491125206
 40
0.8179936626796109
 40
0.8651728307634272
 40
0.9104413172857346
 40
0.9554041299051192
 40
1.0
 40
1.0
 40
1.0
 40
1.0
 10
34.74640399774265
 20
145.2190062275967
 30
0.0
 10
34.80234272406272
 20
145.2205577671111
 30
0.0
 10
34.91061501652893
 20
145.2235608519349
 30
0.0
 10
35.0661953874618
 20
145.2505934830816
 30
0.0
 10
35.20939651663257
 20
145.293542183466
 30
0.0
 10
35.31774811927549
 20
145.3448879715267
 30
0.0
 10
35.39428645603341
 20
145.393715075656
 30
0.0
 10
35.44480598554088
 20
145.430396141291
 30
0.0
 10
35.48739697143684
 20
145.4695621067685
 30
0.0
 10
35.52217758955678
 20
145.5104737593972
 30
0.0
 10
35.54917171091506
 20
145.552802467292
 30
0.0
 10
35.5690549840382
 20
145.5966096000592
 30
0.0
 10
35.58036523652601
 20
145.6425870578595
 30
0.0
 10
35.58208573478846
 20
145.6738108574492
 30
0.0
 10
35.58294245928111
 20
145.6893587916992
 30
0.0
  0
SPLINE
  5
11D
330
1F
100
AcDbEntity
  8
0
  6
Continuous
 62
     7
370
    25
100
AcDbSpline
210
0.0
220
0.0
230
1.0
 70
     8
 71
     3
 72
    19
 73
    15
 74
     0
 42
0.000000001
 43
0.00000001
 40
0.0
 40
0.0
 40
0.0
 40
0.0
 40
0.1407828023836013
 40
0.2757618394997485
 40
0.4044750150130862
 40
0.5287110395683742
 40
0.5894722108715319
 40
0.6492871637200592
 40
0.7083401455944279
 40
0.7669935324750595
 40
0.8253862604813492
 40
0.8835417572498346
 40
0.9416617225165644
 40
1.0
 40
1.0
 40
1.0
 40
1.0
 10
45.11307066440931
 20
155.55233956093
 30
0.0
 10
45.2074130643342
 20
155.5506850247353
 30
0.0
 10
45.39220860260755
 20
155.5474441605328
 30
0.0
 10
45.66227556680087
 20
155.5210213959679
 30
0.0
 10
45.91846461971921
 20
155.4758662133155
 30
0.0
 10
46.12248649207436
 20
155.4243402362553
 30
0.0
 10
46.27871534217802
 20
155.374147993298
 30
0.0
 10
46.39109943978195
 20
155.3308570828958
 30
0.0
 10
46.49944809008684
 20
155.2816437205452
 30
0.0
 10
46.60453111709162
 20
155.2279030798651
 30
0.0
 10
46.7065148407986
 20
155.1696409002034
 30
0.0
 10
46.80440553390331
 20
155.1053674968723
 30
0.0
 10
46.89836568583908
 20
155.0355219539727
 30
0.0
 10
46.95813165919066
 20
154.9853334290907
 30
0.0
 10
46.98807066440931
 20
154.9601921250326
 30
0.0
  0
SPLINE
  5
11E
330
1F
100
AcDbEntity
  8
0
  6
Continuous
 62
     7
370
    25
100
AcDbSpline
210
0.0
220
0.0
230
1.0
 70
     8
 71
     3
 72
    23
 73
    19
 74
     0
 42
0.000000001
 43
0.00000001
 40
0.0
 40
0.0
 40
0.0
 40
0.0
 40
0.0501875134222888
 40
0.0989016334411276
 40
0.1475223418303775
 40
0.1972128638566888
 40
0.2485692328703017
 40
0.3029107522011999
 40
0.3609858463640055
 40
0.4227200207025771
 40
0.487528254836167
 40
0.5538673302441753
 40
0.6214613821255036
 40
0.691596130091635
 40
0.7645120287159618
 40
0.8395947350987372
 40
0.9181826763277242
 40
1.0
 40
1.0
 40
1.0
 40
1.0
 10
25.26499374133238
 20
154.7855126378531
 30
0.0
 10
25.26600790325546
 20
154.8125877460202
 30
0.0
 10
25.26800645357058
 20
154.8659430975952
 30
0.0
 10
25.28585402203455
 20
154.9438146460414
 30
0.0
 10
25.31307501312308
 20
155.0184161413511
 30
0.0
 10
25.3519657699499
 20
155.0894401529469
 30
0.0
 10
25.40252944605056
 20
155.15647862067
 30
0.0
 10
25.46406612988815
 20
155.2199911407396
 30
0.0
 10
25.53645294764218
 20
155.2799733050478
 30
0.0
 10
25.61906018978408
 20
155.3356040777094
 30
0.0
 10
25.70968442323272
 20
155.3867557483759
 30
0.0
 10
25.80765477009869
 20
155.4302884936608
 30
0.0
 10
25.91089380173672
 20
155.4683336117077
 30
0.0
 10
26.02011011534704
 20
155.4996196540288
 30
0.0
 10
26.13531546350933
 20
155.5234272459168
 30
0.0
 10
26.25633308554108
 20
155.5399584304191
 30
0.0
 10
26.38285013882057
 20
155.5508165857998
 30
0.0
 10
26.46929736065003
 20
155.5518251343032
 30
0.0
 10
26.51339117722982
 20
155.55233956093
 30
0.0
  0
SPLINE
  5
11F
330
1F
100
AcDbEntity
  8
0
  6
Continuous
 62
     7
370
    25
100
AcDbSpline
210
0.0
220
0.0
230
1.0
 70
     8
 71
     3
 72
    23
 73
    19
 74
     0
 42
0.000000001
 43
0.00000001
 40
0.0
 40
0.0
 40
0.0
 40
0.0
 40
0.0486412444266146
 40
0.0968273970355337
 40
0.1450926226073805
 40
0.1951915258546459
 40
0.2474337415964026
 40
0.303039551259978
 40
0.3628953951347723
 40
0.4272639962782744
 40
0.4943694389129331
 40
0.5619887214172575
 40
0.6305091297698404
 40
0.7002305301538795
 40
0.7718993306309653
 40
0.8454874756025087
 40
0.9213296026741046
 40
1.0
 40
1.0
 40
1.0
 40
1.0
 10
42.680378356717
 20
154.0475318686223
 30
0.0
 10
42.68249209611526
 20
154.0984728943816
 30
0.0
 10
42.68669979857763
 20
154.1998783371235
 30
0.0
 10
42.72196252872448
 20
154.3483900586606
 30
0.0
 10
42.77771045208121
 20
154.4917109560574
 30
0.0
 10
42.85742236073648
 20
154.6283104849325
 30
0.0
 10
42.95889954456011
 20
154.7592569101383
 30
0.0
 10
43.0831198434555
 20
154.8836755242802
 30
0.0
 10
43.22873789168121
 20
155.0032499647024
 30
0.0
 10
43.39540365765613
 20
155.114569649726
 30
0.0
 10
43.57705150134164
 20
155.2168605045111
 30
0.0
 10
43.76997611726286
 20
155.3067032262835
 30
0.0
 10
43.97152059271878
 20
155.3832199697995
 30
0.0
 10
44.18258581235186
 20
155.4444944831072
 30
0.0
 10
44.40219786043868
 20
155.4937208714052
 30
0.0
 10
44.63114996099771
 20
155.5278385064147
 30
0.0
 10
44.86911716992645
 20
155.5479633663312
 30
0.0
 10
45.03076653082112
 20
155.5508631364761
 30
0.0
 10
45.11307066440931
 20
155.55233956093
 30
0.0
  0
SPLINE
  5
120
330
1F
100
AcDbEntity
  8
0
  6
Continuous
 62
     7
370
    25
100
AcDbSpline
210
0.0
220
0.0
230
1.0
 70
     8
 71
     3
 72
    15
 73
    11
 74
     0
 42
0.000000001
 43
0.00000001
 40
0.0
 40
0.0
 40
0.0
 40
0.0
 40
0.1167219295051354
 40
0.232434728680163
 40
0.3486304395138412
 40
0.4677087313995421
 40
0.5904345695510345
 40
0.7191717976118468
 40
0.8554696386454368
 40
0.9999999999999999
 40
0.9999999999999999
 40
0.9999999999999999
 40
0.9999999999999999
 10
36.45473733107598
 20
154.0315062275967
 30
0.0
 10
36.45656077244682
 20
154.0764833495566
 30
0.0
 10
36.46019189045604
 20
154.1660487395727
 30
0.0
 10
36.48552658584757
 20
154.2985090655189
 30
0.0
 10
36.52866020491795
 20
154.4270395335584
 30
0.0
 10
36.58858348245335
 20
154.5515988611457
 30
0.0
 10
36.66438766945262
 20
154.6729686928662
 30
0.0
 10
36.7587122319666
 20
154.7891483044957
 30
0.0
 10
36.86849378193442
 20
154.9028853905277
 30
0.0
 10
36.95188401737311
 20
154.9719322677395
 30
0.0
 10
36.99480143364008
 20
155.0074677660582
 30
0.0
  0
SPLINE
  5
121
330
1F
100
AcDbEntity
  8
0
  6
Continuous
 62
     7
370
    25
100
AcDbSpline
210
0.0
220
0.0
230
1.0
 70
     8
 71
     3
 72
    15
 73
    11
 74
     0
 42
0.000000001
 43
0.00000001
 40
0.0
 40
0.0
 40
0.0
 40
0.0
 40
0.1430315648145791
 40
0.2795012351515903
 40
0.4100483234290815
 40
0.5346458689806497
 40
0.6550575246126343
 40
0.7722920525242151
 40
0.8868964497636367
 40
1.0
 40
1.0
 40
1.0
 40
1.0
 10
19.18550656184521
 20
155.55233956093
 30
0.0
 10
19.28146378079806
 20
155.5508093326777
 30
0.0
 10
19.46897596563506
 20
155.5478190788332
 30
0.0
 10
19.74288546838118
 20
155.5197719281762
 30
0.0
 10
20.0020235408413
 20
155.4756646192314
 30
0.0
 10
20.24636185972767
 20
155.4132124460831
 30
0.0
 10
20.47587237096073
 20
155.3323570734906
 30
0.0
 10
20.69031373383044
 20
155.2325586070629
 30
0.0
 10
20.890992560631
 20
155.1162584904488
 30
0.0
 10
21.012281190654
 20
155.0232278038798
 30
0.0
 10
21.07252579261444
 20
154.9770190481095
 30
0.0
  0
SPLINE
  5
122
330
1F
100
AcDbEntity
  8
0
  6
Continuous
 62
     7
370
    25
100
AcDbSpline
210
0.0
220
0.0
230
1.0
 70
     8
 71
     3
 72
    23
 73
    19
 74
     0
 42
0.000000001
 43
0.00000001
 40
0.0
 40
0.0
 40
0.0
 40
0.0
 40
0.0560259963716995
 40
0.1127864681995648
 40
0.1707613967764681
 40
0.229258325533253
 40
0.289331351856418
 40
0.3505066144061068
 40
0.4130415016541689
 40
0.4771224052135288
 40
0.541771367336223
 40
0.6064816960451981
 40
0.6713297072271346
 40
0.7360400359361025
 40
0.8016162849488753
 40
0.8672722394572938
 40
0.9333676820709482
 40
1.0
 40
1.0
 40
1.0
 40
1.0
 10
41.98294245928111
 20
149.0651600737505
 30
0.0
 10
42.01024126713769
 20
149.024504493264
 30
0.0
 10
42.06519675786692
 20
148.9426603560308
 30
0.0
 10
42.1424678005047
 20
148.8148844688298
 30
0.0
 10
42.21392747575599
 20
148.6813536457703
 30
0.0
 10
42.28184872394423
 20
148.542760881972
 30
0.0
 10
42.34462188015302
 20
148.3987116404033
 30
0.0
 10
42.40437444927308
 20
148.2495721054988
 30
0.0
 10
42.45848899655169
 20
148.0945778752744
 30
0.0
 10
42.50900922036692
 20
147.9351988152318
 30
0.0
 10
42.55357315875965
 20
147.7720677226652
 30
0.0
 10
42.59287380651329
 20
147.6069154361506
 30
0.0
 10
42.62660222674114
 20
147.4404740952735
 30
0.0
 10
42.654135706779
 20
147.2721121860855
 30
0.0
 10
42.67447181984085
 20
147.1020339935241
 30
0.0
 10
42.69003803982541
 20
146.9302468982785
 30
0.0
 10
42.69882734067943
 20
146.7570261700489
 30
0.0
 10
42.70020137908049
 20
146.6410239830815
 30
0.0
 10
42.70089117722983
 20
146.5827882788787
 30
0.0
  0
SPLINE
  5
123
330
1F
100
AcDbEntity
  8
0
  6
Continuous
 62
     7
370
    25
100
AcDbSpline
210
0.0
220
0.0
230
1.0
 70
     8
 71
     3
 72
    15
 73
    11
 74
     0
 42
0.000000001
 43
0.00000001
 40
0.0
 40
0.0
 40
0.0
 40
0.0
 40
0.1555257650163291
 40
0.3008115601313593
 40
0.4411139686739771
 40
0.5772515831045596
 40
0.7017515197109802
 40
0.8099390303948808
 40
0.9063920153228151
 40
1.0
 40
1.0
 40
1.0
 40
1.0
 10
10.20617963876828
 20
156.1164421250326
 30
0.0
 10
10.17245545028132
 20
156.1174510928238
 30
0.0
 10
10.10722750716939
 20
156.1194025969707
 30
0.0
 10
10.01273406008644
 20
156.1364290548007
 30
0.0
 10
9.925833605035086
 20
156.1655831733686
 30
0.0
 10
9.84747019273905
 20
156.2037342437685
 30
0.0
 10
9.781651263755812
 20
156.2499571528614
 30
0.0
 10
9.732592000684882
 20
156.3023788877474
 30
0.0
 10
9.701592279235838
 20
156.3608213389795
 30
0.0
 10
9.697686586528434
 20
156.4021679964889
 30
0.0
 10
9.695762972101612
 20
156.4225318686223
 30
0.0
  0
SPLINE
  5
124
330
1F
100
AcDbEntity
  8
0
  6
Continuous
 62
     7
370
    25
100
AcDbSpline
210
0.0
220
0.0
230
1.0
 70
     8
 71
     3
 72
    23
 73
    19
 74
     0
 42
0.000000001
 43
0.00000001
 40
0.0
 40
0.0
 40
0.0
 40
0.0
 40
0.0520368647074099
 40
0.1030709112752027
 40
0.1537641505700488
 40
0.204803266577268
 40
0.2574591909004972
 40
0.3129115912010853
 40
0.3713966184903966
 40
0.4337485159862053
 40
0.4984823521491994
 40
0.5642982651829527
 40
0.6314422558938083
 40
0.7003124970113318
 40
0.7712781103567116
 40
0.8446766116103541
 40
0.9208428965267936
 40
1.0
 40
1.0
 40
1.0
 40
1.0
 10
17.42909630543495
 20
153.9625959711864
 30
0.0
 10
17.43173022713615
 20
153.9239878828123
 30
0.0
 10
17.43694731143776
 20
153.8475157341985
 30
0.0
 10
17.46413950338732
 20
153.7360055962342
 30
0.0
 10
17.50641123200015
 20
153.6304459356385
 30
0.0
 10
17.56201373440218
 20
153.52976468502
 30
0.0
 10
17.6337757422277
 20
153.4354093085495
 30
0.0
 10
17.72000110307394
 20
153.3463193761539
 30
0.0
 10
17.82124038699147
 20
153.2629793365489
 30
0.0
 10
17.93503565789577
 20
153.1849178375491
 30
0.0
 10
18.06045349479635
 20
153.1153524252977
 30
0.0
 10
18.19364680911968
 20
153.0533019328939
 30
0.0
 10
18.3343807175306
 20
153.0012647461693
 30
0.0
 10
18.48224433460993
 20
152.9588373090923
 30
0.0
 10
18.63729319983573
 20
152.9259820449111
 30
0.0
 10
18.79956205034484
 20
152.9032800651831
 30
0.0
 10
18.96887786541262
 20
152.8882352047592
 30
0.0
 10
19.08424455218728
 20
152.8865378919245
 30
0.0
 10
19.14303861312726
 20
152.8856728942633
 30
0.0
  0
SPLINE
  5
125
330
1F
100
AcDbEntity
  8
0
  6
Continuous
 62
     7
370
    25
100
AcDbSpline
210
0.0
220
0.0
230
1.0
 70
     8
 71
     3
 72
    23
 73
    19
 74
     0
 42
0.000000001
 43
0.00000001
 40
0.0
 40
0.0
 40
0.0
 40
0.0
 40
0.0520368647074101
 40
0.1030709112752032
 40
0.1537641505700488
 40
0.2048032665772681
 40
0.2574591909004982
 40
0.3129115912010852
 40
0.3713966184903965
 40
0.4337485159862066
 40
0.4984823521491993
 40
0.5642982651829527
 40
0.6314422558938082
 40
0.7003124970113316
 40
0.7712781103567115
 40
0.844676611610354
 40
0.9208428965267936
 40
1.0
 40
1.0
 40
1.0
 40
1.0
 10
37.07012194646059
 20
153.9625959711864
 30
0.0
 10
37.07275586816179
 20
153.9239878828123
 30
0.0
 10
37.07797295246339
 20
153.8475157341984
 30
0.0
 10
37.10516514441297
 20
153.7360055962342
 30
0.0
 10
37.14743687302579
 20
153.6304459356385
 30
0.0
 10
37.20303937542782
 20
153.52976468502
 30
0.0
 10
37.27480138325334
 20
153.4354093085496
 30
0.0
 10
37.36102674409958
 20
153.3463193761538
 30
0.0
 10
37.46226602801711
 20
153.262979336549
 30
0.0
 10
37.57606129892142
 20
153.1849178375491
 30
0.0
 10
37.70147913582199
 20
153.1153524252977
 30
0.0
 10
37.83467245014533
 20
153.0533019328938
 30
0.0
 10
37.97540635855625
 20
153.0012647461694
 30
0.0
 10
38.12326997563556
 20
152.9588373090922
 30
0.0
 10
38.27831884086139
 20
152.9259820449112
 30
0.0
 10
38.44058769137047
 20
152.903280065183
 30
0.0
 10
38.60990350643827
 20
152.8882352047592
 30
0.0
 10
38.72527019321294
 20
152.8865378919245
 30
0.0
 10
38.7840642541529
 20
152.8856728942633
 30
0.0
  0
SPLINE
  5
126
330
1F
100
AcDbEntity
  8
0
  6
Continuous
 62
     7
370
    25
100
AcDbSpline
210
0.0
220
0.0
230
1.0
 70
     8
 71
     3
 72
    19
 73
    15
 74
     0
 42
0.000000001
 43
0.00000001
 40
0.0
 40
0.0
 40
0.0
 40
0.0
 40
0.0766227698023604
 40
0.1521849682155979
 40
0.2272434548159127
 40
0.3025789204818805
 40
0.3787458428279915
 40
0.4570996132546145
 40
0.5381495480707312
 40
0.6218167669713877
 40
0.7090154150213926
 40
0.801079054658458
 40
0.8979864042121882
 40
1.0
 40
1.0
 40
1.0
 40
1.0
 10
41.01883989517854
 20
153.33358956093
 30
0.0
 10
40.97749044472167
 20
153.2881288670502
 30
0.0
 10
40.89536388078063
 20
153.1978367218955
 30
0.0
 10
40.75768660444043
 20
153.0781384969247
 30
0.0
 10
40.6126704706906
 20
152.9693110731598
 30
0.0
 10
40.45601139752908
 20
152.8769266422512
 30
0.0
 10
40.2906451398027
 20
152.7954515600989
 30
0.0
 10
40.11525316681951
 20
152.7251676384532
 30
0.0
 10
39.93008460288102
 20
152.6643107810357
 30
0.0
 10
39.73452538484748
 20
152.6136001466501
 30
0.0
 10
39.52734752552256
 20
152.5743493707205
 30
0.0
 10
39.30764163762138
 20
152.5468190334743
 30
0.0
 10
39.07493532476128
 20
152.5297008149063
 30
0.0
 10
38.91550511244985
 20
152.5277162760181
 30
0.0
 10
38.83374374133239
 20
152.526698535289
 30
0.0
  0
SPLINE
  5
127
330
1F
100
AcDbEntity
  8
0
  6
Continuous
 62
     7
370
    25
100
AcDbSpline
210
0.0
220
0.0
230
1.0
 70
     8
 71
     3
 72
    23
 73
    19
 74
     0
 42
0.000000001
 43
0.00000001
 40
0.0
 40
0.0
 40
0.0
 40
0.0
 40
0.0639890187806363
 40
0.1277668674220463
 40
0.1914353758814133
 40
0.2547542487583132
 40
0.3177839031115832
 40
0.3806345524610622
 40
0.4436518576863941
 40
0.5069115865965163
 40
0.569889476035939
 40
0.632135755391693
 40
0.6942413623156652
 40
0.7557714275221924
 40
0.8169462995162243
 40
0.8780678357684976
 40
0.9389731280320889
 40
1.0
 40
1.0
 40
1.0
 40
1.0
 10
19.41883989517854
 20
146.2622754583659
 30
0.0
 10
19.41954863127827
 20
146.3250499449372
 30
0.0
 10
19.420963764578
 20
146.450391756018
 30
0.0
 10
19.42952902208056
 20
146.6380611482643
 30
0.0
 10
19.44598515301944
 20
146.8245260977648
 30
0.0
 10
19.46755221309801
 20
147.00970974173
 30
0.0
 10
19.49459739615331
 20
147.1933808907982
 30
0.0
 10
19.52842277453562
 20
147.375625264397
 30
0.0
 10
19.56845959782849
 20
147.5568366273845
 30
0.0
 10
19.61497851316379
 20
147.7366149768645
 30
0.0
 10
19.66670364292725
 20
147.914184744598
 30
0.0
 10
19.72482026604193
 20
148.0885679068307
 30
0.0
 10
19.78766007654937
 20
148.2598040213699
 30
0.0
 10
19.85711343283324
 20
148.42731272243
 30
0.0
 10
19.93034095623987
 20
148.5921712854953
 30
0.0
 10
20.01109173797602
 20
148.7527772448313
 30
0.0
 10
20.09537415187786
 20
148.9114193652778
 30
0.0
 10
20.1571512940429
 20
149.0138791164001
 30
0.0
 10
20.18807066440931
 20
149.0651600737505
 30
0.0
  0
SPLINE
  5
128
330
1F
100
AcDbEntity
  8
0
  6
Continuous
 62
     7
370
    25
100
AcDbSpline
210
0.0
220
0.0
230
1.0
 70
     8
 71
     3
 72
    23
 73
    19
 74
     0
 42
0.000000001
 43
0.00000001
 40
0.0
 40
0.0
 40
0.0
 40
0.0
 40
0.0875067036494351
 40
0.1706303404637907
 40
0.2491638638941562
 40
0.3239770505916202
 40
0.39498755641015
 40
0.4629346917213119
 40
0.528603451265827
 40
0.5921575274870657
 40
0.6527680449138518
 40
0.7095376398021663
 40
0.7627723065276012
 40
0.8130876446330677
 40
0.8611005991848919
 40
0.9075515534861224
 40
0.9537069937595969
 40
0.9999999999999999
 40
0.9999999999999999
 40
0.9999999999999999
 40
0.9999999999999999
 10
19.19271810030675
 20
152.526698535289
 30
0.0
 10
19.10212886014721
 20
152.5280156731816
 30
0.0
 10
18.92548784584617
 20
152.5305839756965
 30
0.0
 10
18.66828587860286
 20
152.5524349497018
 30
0.0
 10
18.42598089670155
 20
152.5881503573334
 30
0.0
 10
18.19897350577741
 20
152.6381583083325
 30
0.0
 10
17.98711827863375
 20
152.7029454953472
 30
0.0
 10
17.79054919752142
 20
152.7825158835875
 30
0.0
 10
17.60863360352621
 20
152.8758040328838
 30
0.0
 10
17.44430053237114
 20
152.9841616529259
 30
0.0
 10
17.29749927596995
 20
153.1007614324304
 30
0.0
 10
17.16834120873007
 20
153.2215460562355
 30
0.0
 10
17.05908759308387
 20
153.3469127079715
 30
0.0
 10
16.97023973943024
 20
153.4766308348281
 30
0.0
 10
16.90040613315143
 20
153.609668335895
 30
0.0
 10
16.84987328883322
 20
153.7465590009532
 30
0.0
 10
16.81907938910515
 20
153.8877707706538
 30
0.0
 10
16.81550269714236
 20
153.9835469027292
 30
0.0
 10
16.81371169005033
 20
154.0315062275967
 30
0.0
  0
SPLINE
  5
129
330
1F
100
AcDbEntity
  8
0
  6
Continuous
 62
     7
370
    25
100
AcDbSpline
210
0.0
220
0.0
230
1.0
 70
     8
 71
     3
 72
    15
 73
    11
 74
     0
 42
0.000000001
 43
0.00000001
 40
0.0
 40
0.0
 40
0.0
 40
0.0
 40
0.1367997581407763
 40
0.2714729657036411
 40
0.4040687209202526
 40
0.5352378743759638
 40
0.6617987338335136
 40
0.7810753658625793
 40
0.8932887414020644
 40
1.0
 40
1.0
 40
1.0
 40
1.0
 10
34.79688476697341
 20
144.8600318686223
 30
0.0
 10
34.73085951987684
 20
144.8611733905817
 30
0.0
 10
34.59983538734747
 20
144.8634386895554
 30
0.0
 10
34.40574745524082
 20
144.8843111517352
 30
0.0
 10
34.21617403136334
 20
144.9169628181366
 30
0.0
 10
34.033154130813
 20
144.9621077084577
 30
0.0
 10
33.86014661214756
 20
145.0190350480356
 30
0.0
 10
33.70121397896698
 20
145.087152607357
 30
0.0
 10
33.55686835319507
 20
145.1641767698987
 30
0.0
 10
33.47096735323495
 20
145.2258187967468
 30
0.0
 10
33.42909630543496
 20
145.2558652019556
 30
0.0
  0
SPLINE
  5
12A
330
1F
100
AcDbEntity
  8
0
  6
Continuous
 62
     7
370
    25
100
AcDbSpline
210
0.0
220
0.0
230
1.0
 70
     8
 71
     3
 72
    19
 73
    15
 74
     0
 42
0.000000001
 43
0.00000001
 40
0.0
 40
0.0
 40
0.0
 40
0.0
 40
0.0973063231277527
 40
0.1921790396260561
 40
0.2855831795165942
 40
0.377452867436674
 40
0.4657533108349362
 40
0.5478410123585736
 40
0.6240057395681811
 40
0.6953833964562356
 40
0.765806712626713
 40
0.839216682788447
 40
0.91692644514101
 40
1.0
 40
1.0
 40
1.0
 40
1.0
 10
51.58150015158879
 20
155.55233956093
 30
0.0
 10
51.63735351704807
 20
155.5511429467859
 30
0.0
 10
51.74766336936622
 20
155.548779645516
 30
0.0
 10
51.91105263012767
 20
155.5335640697815
 30
0.0
 10
52.06978158067426
 20
155.5070376570831
 30
0.0
 10
52.22264417231349
 20
155.4705107664711
 30
0.0
 10
52.36632742848295
 20
155.4252537905945
 30
0.0
 10
52.49833097933047
 20
155.3738178752574
 30
0.0
 10
52.61625087949713
 20
155.31440561455
 30
0.0
 10
52.72179846172845
 20
155.246849713997
 30
0.0
 10
52.81800142455702
 20
155.1687268461224
 30
0.0
 10
52.90422887210369
 20
155.0748970647064
 30
0.0
 10
52.98655585327242
 20
154.9682135980011
 30
0.0
 10
53.03224991134734
 20
154.8879042980795
 30
0.0
 10
53.05585912594778
 20
154.8464100737505
 30
0.0
  0
SPLINE
  5
12B
330
1F
100
AcDbEntity
  8
0
  6
Continuous
 62
     7
370
    25
100
AcDbSpline
210
0.0
220
0.0
230
1.0
 70
     8
 71
     3
 72
    15
 73
    11
 74
     0
 42
0.000000001
 43
0.00000001
 40
0.0
 40
0.0
 40
0.0
 40
0.0
 40
0.1413111758092205
 40
0.27419536554026
 40
0.4030262327324303
 40
0.525617479994335
 40
0.6455098011999926
 40
0.7627015209231985
 40
0.881485170698169
 40
1.0
 40
1.0
 40
1.0
 40
1.0
 10
35.97236553620419
 20
146.1565062275967
 30
0.0
 10
35.99028162455971
 20
146.1397003467023
 30
0.0
 10
36.02504538876709
 20
146.1070907910274
 30
0.0
 10
36.07136347863721
 20
146.0543759638847
 30
0.0
 10
36.11036925150821
 20
146.0000943210697
 30
0.0
 10
36.14346374816412
 20
145.944501574522
 30
0.0
 10
36.16700764294709
 20
145.8864017232841
 30
0.0
 10
36.18496901675967
 20
145.8271995467661
 30
0.0
 10
36.19686339391692
 20
145.766490179057
 30
0.0
 10
36.19783954969122
 20
145.725203236344
 30
0.0
 10
36.19832707466573
 20
145.7045831506736
 30
0.0
  0
SPLINE
  5
12C
330
1F
100
AcDbEntity
  8
0
  6
Continuous
 62
     7
370
    25
100
AcDbSpline
210
0.0
220
0.0
230
1.0
 70
     8
 71
     3
 72
    15
 73
    11
 74
     0
 42
0.000000001
 43
0.00000001
 40
0.0
 40
0.0
 40
0.0
 40
0.0
 40
0.0754091243635853
 40
0.1648236943982027
 40
0.2678722276223476
 40
0.3856994889107151
 40
0.5170219544845972
 40
0.6635259917936414
 40
0.8240749176751103
 40
1.0
 40
1.0
 40
1.0
 40
1.0
 10
34.4138719464606
 20
146.8680446891351
 30
0.0
 10
34.42914572385689
 20
146.8567560419502
 30
0.0
 10
34.46253001838517
 20
146.8320821507005
 30
0.0
 10
34.52185659121863
 20
146.7998501453219
 30
0.0
 10
34.59059904705273
 20
146.7628697827191
 30
0.0
 10
34.67174091914935
 20
146.7271178941265
 30
0.0
 10
34.76323404206068
 20
146.6879049188651
 30
0.0
 10
34.86674211079946
 20
146.6497581703952
 30
0.0
 10
34.98054193956101
 20
146.6071561264679
 30
0.0
 10
35.06093899463266
 20
146.5806311788814
 30
0.0
 10
35.10297451056317
 20
146.5667626378531
 30
0.0
  0
SPLINE
  5
12D
330
1F
100
AcDbEntity
  8
0
  6
Continuous
 62
     7
370
    25
100
AcDbSpline
210
0.0
220
0.0
230
1.0
 70
     8
 71
     3
 72
    15
 73
    11
 74
     0
 42
0.000000001
 43
0.00000001
 40
0.0
 40
0.0
 40
0.0
 40
0.0
 40
0.1391376083713477
 40
0.2708939588788087
 40
0.398588742181925
 40
0.5219912357022001
 40
0.641409876647993
 40
0.7595350638119619
 40
0.878993899521922
 40
1.0
 40
1.0
 40
1.0
 40
1.0
 10
33.85457707466573
 20
146.6685254583659
 30
0.0
 10
33.83721996848517
 20
146.6850961936407
 30
0.0
 10
33.80342655157241
 20
146.7173585857622
 30
0.0
 10
33.75810558994171
 20
146.7691155382141
 30
0.0
 10
33.71903377148478
 20
146.8225219144262
 30
0.0
 10
33.68901473872944
 20
146.8790770161307
 30
0.0
 10
33.66449629505783
 20
146.9363516772312
 30
0.0
 10
33.64658530628199
 20
146.9953674645641
 30
0.0
 10
33.63588534281791
 20
147.0564867345159
 30
0.0
 10
33.63478049102719
 20
147.0979705834157
 30
0.0
 10
33.63422451056316
 20
147.1188459711864
 30
0.0
  0
SPLINE
  5
12E
330
1F
100
AcDbEntity
  8
0
  6
Continuous
 62
     7
370
    25
100
AcDbSpline
210
0.0
220
0.0
230
1.0
 70
     8
 71
     3
 72
    23
 73
    19
 74
     0
 42
0.000000001
 43
0.00000001
 40
0.0
 40
0.0
 40
0.0
 40
0.0
 40
0.0551831855100303
 40
0.1110438685368108
 40
0.1682446088005066
 40
0.2267328019663685
 40
0.2864298156588007
 40
0.347466698966411
 40
0.4098428436671044
 40
0.4738143361188999
 40
0.5387752719796354
 40
0.6035282338906252
 40
0.6687518456169294
 40
0.7341761279564575
 40
0.7999681605528858
 40
0.8661567619082334
 40
0.9328001747943987
 40
0.9999999999999999
 40
0.9999999999999999
 40
0.9999999999999999
 40
0.9999999999999999
 10
20.0855065618452
 20
143.7831087916992
 30
0.0
 10
20.06024819165957
 20
143.8237293207019
 30
0.0
 10
20.00942134807626
 20
143.9054690869148
 30
0.0
 10
19.94011761999887
 20
144.0338211578097
 30
0.0
 10
19.87322028904291
 20
144.1666211465277
 30
0.0
 10
19.81131995981799
 20
144.3054736398925
 30
0.0
 10
19.75130269515489
 20
144.4487674165993
 30
0.0
 10
19.69757108940145
 20
144.5981272250862
 30
0.0
 10
19.64583321151926
 20
144.7520695340224
 30
0.0
 10
19.59879932269874
 20
144.9110906469951
 30
0.0
 10
19.55659408503373
 20
145.0735790844953
 30
0.0
 10
19.51958631259108
 20
145.2384399118506
 30
0.0
 10
19.48810592601739
 20
145.4048744709243
 30
0.0
 10
19.46378479433875
 20
145.5734013363178
 30
0.0
 10
19.44347527070156
 20
145.7432828777286
 30
0.0
 10
19.428883580696
 20
145.9148378869461
 30
0.0
 10
19.42110780450923
 20
146.0880575833222
 30
0.0
 10
19.41959795719822
 20
146.2040421099548
 30
0.0
 10
19.41883989517854
 20
146.2622754583659
 30
0.0
  0
SPLINE
  5
12F
330
1F
100
AcDbEntity
  8
0
  6
Continuous
 62
     7
370
    25
100
AcDbSpline
210
0.0
220
0.0
230
1.0
 70
     8
 71
     3
 72
    23
 73
    19
 74
     0
 42
0.000000001
 43
0.00000001
 40
0.0
 40
0.0
 40
0.0
 40
0.0
 40
0.0573002682048633
 40
0.1156596566541009
 40
0.1744237591741527
 40
0.234066063852156
 40
0.2949250263632056
 40
0.3567381438431402
 40
0.4195497655882056
 40
0.4837490173040973
 40
0.5483903384441716
 40
0.6128049202953789
 40
0.6769046792716222
 40
0.7410527493179643
 40
0.8055808004035099
 40
0.8700938109290266
 40
0.9346866120821323
 40
1.0
 40
1.0
 40
1.0
 40
1.0
 10
20.90601938235802
 20
149.0651600737505
 30
0.0
 10
20.87358024676607
 20
149.0194843500504
 30
0.0
 10
20.80810238074093
 20
148.9272886468525
 30
0.0
 10
20.71650596085404
 20
148.7833758047562
 30
0.0
 10
20.62975611436947
 20
148.6338776293693
 30
0.0
 10
20.54788047331827
 20
148.4788845414744
 30
0.0
 10
20.47086672770919
 20
148.3180834809548
 30
0.0
 10
20.40023023709536
 20
148.151047801013
 30
0.0
 10
20.33202438826708
 20
147.9794738254414
 30
0.0
 10
20.2713013416166
 20
147.8021802326923
 30
0.0
 10
20.2146851290757
 20
147.6218957595296
 30
0.0
 10
20.16702779108427
 20
147.4391124558669
 30
0.0
 10
20.12598758410837
 20
147.2552621375959
 30
0.0
 10
20.09199546896054
 20
147.0698334385175
 30
0.0
 10
20.06673178111087
 20
146.8826107163513
 30
0.0
 10
20.04830215614064
 20
146.6941866446015
 30
0.0
 10
20.03666782773631
 20
146.5044085059529
 30
0.0
 10
20.03504195584604
 20
146.3774093289606
 30
0.0
 10
20.03422451056315
 20
146.3135575096479
 30
0.0
  0
SPLINE
  5
130
330
1F
100
AcDbEntity
  8
0
  6
Continuous
 62
     7
370
    25
100
AcDbSpline
210
0.0
220
0.0
230
1.0
 70
     8
 71
     3
 72
    15
 73
    11
 74
     0
 42
0.000000001
 43
0.00000001
 40
0.0
 40
0.0
 40
0.0
 40
0.0
 40
0.1185581518092449
 40
0.236825762334782
 40
0.3562052757820486
 40
0.4777407459348792
 40
0.6021266315960729
 40
0.7299368362281109
 40
0.8626532492197927
 40
1.0
 40
1.0
 40
1.0
 40
1.0
 10
31.45986553620419
 20
145.4169228942633
 30
0.0
 10
31.39527931172212
 20
145.3707349852467
 30
0.0
 10
31.26626513921798
 20
145.2784723563462
 30
0.0
 10
31.05688065156591
 20
145.1633981716107
 30
0.0
 10
30.83650137837724
 20
145.0666800821676
 30
0.0
 10
30.60399403709657
 20
144.9899799307411
 30
0.0
 10
30.36045415958178
 20
144.9318412939019
 30
0.0
 10
30.10601140238348
 20
144.8906503379787
 30
0.0
 10
29.84077621054469
 20
144.8640017851309
 30
0.0
 10
29.65998439422605
 20
144.8613702138953
 30
0.0
 10
29.56803861312726
 20
144.8600318686223
 30
0.0
  0
SPLINE
  5
131
330
1F
100
AcDbEntity
  8
0
  6
Continuous
 62
     7
370
    25
100
AcDbSpline
210
0.0
220
0.0
230
1.0
 70
     8
 71
     3
 72
    23
 73
    19
 74
     0
 42
0.000000001
 43
0.00000001
 40
0.0
 40
0.0
 40
0.0
 40
0.0
 40
0.0770176645389759
 40
0.151069269901335
 40
0.2228192931161642
 40
0.2920589949166829
 40
0.3590590676971324
 40
0.4245300980856093
 40
0.4883695853617632
 40
0.551302873857245
 40
0.6119381325700505
 40
0.6701068597214817
 40
0.7258703779500892
 40
0.7800627766631415
 40
0.8341853975874838
 40
0.8881321784752637
 40
0.9432138463847255
 40
1.0
 40
1.0
 40
1.0
 40
1.0
 10
7.077493741332382
 20
156.5178844327249
 30
0.0
 10
7.121126732277563
 20
156.5103564384412
 30
0.0
 10
7.206712345982636
 20
156.4955903635795
 30
0.0
 10
7.331300987395907
 20
156.4655573419618
 30
0.0
 10
7.449902649398155
 20
156.4305772751892
 30
0.0
 10
7.562359550216696
 20
156.3897561319114
 30
0.0
 10
7.668556424525394
 20
156.3430603575878
 30
0.0
 10
7.768888827909673
 20
156.2912190658277
 30
0.0
 10
7.862952382379815
 20
156.2330912556677
 30
0.0
 10
7.950886106048799
 20
156.1706513671097
 30
0.0
 10
8.03007396731384
 20
156.1023880235383
 30
0.0
 10
8.10088838771869
 20
156.0309226711441
 30
0.0
 10
8.15813822629033
 20
155.9528282326151
 30
0.0
 10
8.207910878097884
 20
155.8724334200664
 30
0.0
 10
8.243767979872196
 20
155.7860500994545
 30
0.0
 10
8.272303717267949
 20
155.6965217618508
 30
0.0
 10
8.286994184961621
 20
155.6019649220154
 30
0.0
 10
8.289408975235038
 20
155.5376906942616
 30
0.0
 10
8.290634766973406
 20
155.5050639199044
 30
0.0
  0
SPLINE
  5
132
330
1F
100
AcDbEntity
  8
0
  6
Continuous
 62
     7
370
    25
100
AcDbSpline
210
0.0
220
0.0
230
1.0
 70
     8
 71
     3
 72
    15
 73
    11
 74
     0
 42
0.000000001
 43
0.00000001
 40
0.0
 40
0.0
 40
0.0
 40
0.0
 40
0.1319716309655018
 40
0.2610897076429835
 40
0.3866084430871441
 40
0.5106689552423991
 40
0.6332772126140249
 40
0.7551893283274759
 40
0.8771743611072974
 40
1.0
 40
1.0
 40
1.0
 40
1.0
 10
33.80569886953752
 20
145.526698535289
 30
0.0
 10
33.84246165209176
 20
145.5020697718156
 30
0.0
 10
33.91519231457591
 20
145.4533447798773
 30
0.0
 10
34.02920460358586
 20
145.3914587719485
 30
0.0
 10
34.14431423770253
 20
145.337783230083
 30
0.0
 10
34.26148371743237
 20
145.2945935294938
 30
0.0
 10
34.38040481519693
 20
145.2607085077125
 30
0.0
 10
34.50098101667078
 20
145.2367372083509
 30
0.0
 10
34.62316128727947
 20
145.2217486905551
 30
0.0
 10
34.70522916213342
 20
145.2199224721441
 30
0.0
 10
34.74640399774265
 20
145.2190062275967
 30
0.0
  0
SPLINE
  5
133
330
1F
100
AcDbEntity
  8
0
  6
Continuous
 62
     7
370
    25
100
AcDbSpline
210
0.0
220
0.0
230
1.0
 70
     8
 71
     3
 72
    19
 73
    15
 74
     0
 42
0.000000001
 43
0.00000001
 40
0.0
 40
0.0
 40
0.0
 40
0.0
 40
0.0913377392588096
 40
0.1812092176624101
 40
0.2707116372388661
 40
0.3596023179115582
 40
0.4455212229115457
 40
0.526149388786189
 40
0.6015151038242509
 40
0.671676166330665
 40
0.7425877863139259
 40
0.8211594805399836
 40
0.9064620938651569
 40
1.0
 40
1.0
 40
1.0
 40
1.0
 10
38.78406425415291
 20
152.8856728942634
 30
0.0
 10
38.84151348439612
 20
152.8863719887004
 30
0.0
 10
38.95548970224602
 20
152.8877589548881
 30
0.0
 10
39.12533711722222
 20
152.9010568766739
 30
0.0
 10
39.29270635078329
 20
152.9227231980805
 30
0.0
 10
39.45637554161101
 20
152.9520861034963
 30
0.0
 10
39.61300516484487
 20
152.9881805224285
 30
0.0
 10
39.75886192452788
 20
153.0317114904157
 30
0.0
 10
39.89301201277021
 20
153.0791992147566
 30
0.0
 10
40.0177560615194
 20
153.1340455859871
 30
0.0
 10
40.1387618266535
 20
153.2011448847236
 30
0.0
 10
40.26030240918951
 20
153.2852371778156
 30
0.0
 10
40.38809862847236
 20
153.3848381637928
 30
0.0
 10
40.47078515481415
 20
153.4611464401867
 30
0.0
 10
40.51403220287085
 20
153.5010575096479
 30
0.0
  0
SPLINE
  5
134
330
1F
100
AcDbEntity
  8
0
  6
Continuous
 62
     7
370
    25
100
AcDbSpline
210
0.0
220
0.0
230
1.0
 70
     8
 71
     3
 72
    23
 73
    19
 74
     0
 42
0.000000001
 43
0.00000001
 40
0.0
 40
0.0
 40
0.0
 40
0.0
 40
0.0781809544647587
 40
0.153810946027876
 40
0.2271663162950068
 40
0.2983004198204481
 40
0.367868234949129
 40
0.4359295690692137
 40
0.5031044905747127
 40
0.5699099378392587
 40
0.6340171450478678
 40
0.6934955928699952
 40
0.7493030339671153
 40
0.8020140850215525
 40
0.8524436363344233
 40
0.9014358981331372
 40
0.9503268810754049
 40
1.0
 40
1.0
 40
1.0
 40
1.0
 10
29.56803861312726
 20
144.8600318686223
 30
0.0
 10
29.48626228090905
 20
144.8614269552184
 30
0.0
 10
29.3253778927958
 20
144.864171608192
 30
0.0
 10
29.08854605585194
 20
144.8855249220401
 30
0.0
 10
28.86074335535675
 20
144.919620624753
 30
0.0
 10
28.64185521645329
 20
144.967532968352
 30
0.0
 10
28.43245392046055
 20
145.030080237472
 30
0.0
 10
28.23213651279045
 20
145.1064512889173
 30
0.0
 10
28.04060758967818
 20
145.1962359688172
 30
0.0
 10
27.86070210051091
 20
145.2994024329892
 30
0.0
 10
27.69590550167394
 20
145.4115904672348
 30
0.0
 10
27.55109885039056
 20
145.5313504968867
 30
0.0
 10
27.42794502895353
 20
145.6572589332248
 30
0.0
 10
27.32770935855027
 20
145.7904284813382
 30
0.0
 10
27.24863441530856
 20
145.9291082957221
 30
0.0
 10
27.19267850052034
 20
146.0743295141527
 30
0.0
 10
27.15869150649193
 20
146.2257184344347
 30
0.0
 10
27.15435745185038
 20
146.3288767486327
 30
0.0
 10
27.15217322851188
 20
146.3808652019556
 30
0.0
  0
SPLINE
  5
135
330
1F
100
AcDbEntity
  8
0
  6
Continuous
 62
     7
370
    25
100
AcDbSpline
210
0.0
220
0.0
230
1.0
 70
     8
 71
     3
 72
    23
 73
    19
 74
     0
 42
0.000000001
 43
0.00000001
 40
0.0
 40
0.0
 40
0.0
 40
0.0
 40
0.0482471716654919
 40
0.095700003054612
 40
0.1435194962447237
 40
0.1924245121089703
 40
0.2439269887901643
 40
0.2984272070165798
 40
0.3570133694549795
 40
0.4199079941606719
 40
0.4857248310927327
 40
0.5527193036092095
 40
0.620927832734465
 40
0.6913032955521305
 40
0.7641769374750743
 40
0.8397829135547392
 40
0.918440789460588
 40
1.0
 40
1.0
 40
1.0
 40
1.0
 10
27.82909630543495
 20
153.3712498173402
 30
0.0
 10
27.82782565634522
 20
153.3423049703504
 30
0.0
 10
27.82530527810185
 20
153.2848918236369
 30
0.0
 10
27.80619453285443
 20
153.2005373841262
 30
0.0
 10
27.77487647160199
 20
153.119609674886
 30
0.0
 10
27.72947638964476
 20
153.0428719813301
 30
0.0
 10
27.67334228636349
 20
152.9686022533451
 30
0.0
 10
27.60329258516625
 20
152.8987058655537
 30
0.0
 10
27.52105419962357
 20
152.8323967596468
 30
0.0
 10
27.42781102768333
 20
152.7695924737399
 30
0.0
 10
27.32522059218037
 20
152.7123647559112
 30
0.0
 10
27.21523442859215
 20
152.662762615986
 30
0.0
 10
27.09913477801673
 20
152.621057648889
 30
0.0
 10
26.97701328341151
 20
152.5866957412911
 30
0.0
 10
26.84858594511409
 20
152.5593326687389
 30
0.0
 10
26.71364924488137
 20
152.540328983162
 30
0.0
 10
26.57261047063798
 20
152.5291174331336
 30
0.0
 10
26.47655265174374
 20
152.5275145102255
 30
0.0
 10
26.42765399774265
 20
152.526698535289
 30
0.0
  0
SPLINE
  5
136
330
1F
100
AcDbEntity
  8
0
  6
Continuous
 62
     7
370
    25
100
AcDbSpline
210
0.0
220
0.0
230
1.0
 70
     8
 71
     3
 72
    15
 73
    11
 74
     0
 42
0.000000001
 43
0.00000001
 40
0.0
 40
0.0
 40
0.0
 40
0.0
 40
0.1391376083713825
 40
0.2708939588788452
 40
0.3985887421819672
 40
0.5219912357021967
 40
0.6414098766479912
 40
0.7595350638120133
 40
0.8789938995219728
 40
1.0
 40
1.0
 40
1.0
 40
1.0
 10
25.48534630543496
 20
154.3351921250326
 30
0.0
 10
25.46798919925438
 20
154.3517628603074
 30
0.0
 10
25.43419578234165
 20
154.3840252524289
 30
0.0
 10
25.38887482071095
 20
154.4357822048808
 30
0.0
 10
25.34980300225402
 20
154.4891885810929
 30
0.0
 10
25.31978396949866
 20
154.5457436827974
 30
0.0
 10
25.29526552582703
 20
154.6030183438977
 30
0.0
 10
25.27735453705124
 20
154.6620341312309
 30
0.0
 10
25.26665457358714
 20
154.7231534011824
 30
0.0
 10
25.26554972179641
 20
154.7646372500823
 30
0.0
 10
25.26499374133238
 20
154.7855126378531
 30
0.0
  0
SPLINE
  5
137
330
1F
100
AcDbEntity
  8
0
  6
Continuous
 62
     7
370
    25
100
AcDbSpline
210
0.0
220
0.0
230
1.0
 70
     8
 71
     3
 72
    27
 73
    23
 74
     0
 42
0.000000001
 43
0.00000001
 40
0.0
 40
0.0
 40
0.0
 40
0.0
 40
0.0878271218868903
 40
0.1734074142606986
 40
0.2579329549395111
 40
0.3423002767318075
 40
0.3838650171429357
 40
0.4235864640718905
 40
0.4619186222533082
 40
0.4992224307104184
 40
0.534999986030601
 40
0.5701688463802635
 40
0.604972864049129
 40
0.6391019522938977
 40
0.6740598724276977
 40
0.7111632721690693
 40
0.7512479573796799
 40
0.7943056032091174
 40
0.8403048673176433
 40
0.8900435450869231
 40
0.9430010943538482
 40
1.0
 40
1.0
 40
1.0
 40
1.0
 10
51.46130784389648
 20
155.1933652019556
 30
0.0
 10
51.39335129923494
 20
155.1916491294066
 30
0.0
 10
51.25917670215514
 20
155.1882608855813
 30
0.0
 10
51.06159482070365
 20
155.1573181204387
 30
0.0
 10
50.87068959222957
 20
155.1085320983093
 30
0.0
 10
50.71774677053678
 20
155.051878199885
 30
0.0
 10
50.60155249518757
 20
154.9977870887205
 30
0.0
 10
50.52030155866999
 20
154.9534634838486
 30
0.0
 10
50.44447610045157
 20
154.906328023027
 30
0.0
 10
50.37514723458363
 20
154.8550450403396
 30
0.0
 10
50.31103792925798
 20
154.8011197849439
 30
0.0
 10
50.25304334856693
 20
154.7432769358321
 30
0.0
 10
50.20144484317402
 20
154.6814241690177
 30
0.0
 10
50.15339264618362
 20
154.6168679552062
 30
0.0
 10
50.11335988485821
 20
154.5449570456795
 30
0.0
 10
50.07759757346837
 20
154.465834662773
 30
0.0
 10
50.0483494623234
 20
154.3773948182681
 30
0.0
 10
50.02480644724607
 20
154.28028198181
 30
0.0
 10
50.00529708738866
 20
154.1746658239382
 30
0.0
 10
49.99218854211747
 20
154.0603607697514
 30
0.0
 10
49.98398914815532
 20
153.9370767109411
 30
0.0
 10
49.98329980102911
 20
153.8520331617161
 30
0.0
 10
49.98294245928111
 20
153.8079485352889
 30
0.0
  0
SPLINE
  5
138
330
1F
100
AcDbEntity
  8
0
  6
Continuous
 62
     7
370
    25
100
AcDbSpline
210
0.0
220
0.0
230
1.0
 70
     8
 71
     3
 72
    31
 73
    27
 74
     0
 42
0.000000001
 43
0.00000001
 40
0.0
 40
0.0
 40
0.0
 40
0.0
 40
0.049061653667645
 40
0.0968806365261915
 40
0.1432168147114388
 40
0.1884481494659011
 40
0.2324534612040125
 40
0.2756220841397443
 40
0.3179725077670777
 40
0.3595190263294236
 40
0.3998677699941298
 40
0.4387058865202354
 40
0.4763344571782716
 40
0.5126664561837111
 40
0.5477181700055704
 40
0.5824060398794875
 40
0.61648531739848
 40
0.6502358508249253
 40
0.6848523969550004
 40
0.7214989776244998
 40
0.7604923399752752
 40
0.8022116757038721
 40
0.8467381015470432
 40
0.8944662622282376
 40
0.9456364559664324
 40
1.0
 40
1.0
 40
1.0
 40
1.0
 10
54.76499374133238
 20
155.55233956093
 30
0.0
 10
54.80453354551241
 20
155.5518803808523
 30
0.0
 10
54.8826116596957
 20
155.5509736511587
 30
0.0
 10
54.9978620400924
 20
155.5437173138305
 30
0.0
 10
55.10952963303747
 20
155.5313862564925
 30
0.0
 10
55.21774613593769
 20
155.5160184196424
 30
0.0
 10
55.32224809219976
 20
155.4940785523834
 30
0.0
 10
55.42317945696811
 20
155.4673962019261
 30
0.0
 10
55.52120673840722
 20
155.4375743289551
 30
0.0
 10
55.61460057926823
 20
155.4012541628698
 30
0.0
 10
55.70336696914387
 20
155.3613320655664
 30
0.0
 10
55.78708617622246
 20
155.3181560636884
 30
0.0
 10
55.86493378926085
 20
155.2710531609533
 30
0.0
 10
55.93632676581887
 20
155.2196962410964
 30
0.0
 10
56.00179499783026
 20
155.1646302323462
 30
0.0
 10
56.06205640886562
 20
155.1064696363442
 30
0.0
 10
56.11604591319917
 20
155.043738387364
 30
0.0
 10
56.16362544319077
 20
154.976186107052
 30
0.0
 10
56.20739544191311
 20
154.9035413631257
 30
0.0
 10
56.24252036272109
 20
154.8217404222819
 30
0.0
 10
56.27450465293229
 20
154.7326297005681
 30
0.0
 10
56.29828892187901
 20
154.6344182335316
 30
0.0
 10
56.31901322275664
 20
154.5283920513065
 30
0.0
 10
56.33158328522877
 20
154.4134119939836
 30
0.0
 10
56.34113796643146
 20
154.2902145788331
 30
0.0
 10
56.34165201609653
 20
154.2051389091006
 30
0.0
 10
56.34191681825546
 20
154.1613139199043
 30
0.0
  0
SPLINE
  5
139
330
1F
100
AcDbEntity
  8
0
  6
Continuous
 62
     7
370
    25
100
AcDbSpline
210
0.0
220
0.0
230
1.0
 70
     8
 71
     3
 72
    19
 73
    15
 74
     0
 42
0.000000001
 43
0.00000001
 40
0.0
 40
0.0
 40
0.0
 40
0.0
 40
0.1556545550983755
 40
0.3020005062188684
 40
0.4424164066188909
 40
0.5784163454497929
 40
0.6437431170912798
 40
0.7034430959358419
 40
0.7587350034204561
 40
0.810294580137366
 40
0.8601264362852171
 40
0.9069107179775666
 40
0.9535054070477627
 40
1.0
 40
1.0
 40
1.0
 40
1.0
 10
26.53021810030674
 20
155.1933652019556
 30
0.0
 10
26.48710085348299
 20
155.1921695635283
 30
0.0
 10
26.40344489905678
 20
155.1898497893971
 30
0.0
 10
26.28279726000796
 20
155.1664630277529
 30
0.0
 10
26.17113524033786
 20
155.1303500574142
 30
0.0
 10
26.08698035997389
 20
155.0862383567363
 30
0.0
 10
26.02698243513943
 20
155.0458954386382
 30
0.0
 10
25.98829628024542
 20
155.0143334118183
 30
0.0
 10
25.95471104916565
 20
154.9825743456742
 30
0.0
 10
25.92825880292197
 20
154.9481124011936
 30
0.0
 10
25.90600168379198
 20
154.9134827331952
 30
0.0
 10
25.89160438135885
 20
154.8763621011019
 30
0.0
 10
25.88238969528631
 20
154.8385821342866
 30
0.0
 10
25.8810483221273
 20
154.8128086167824
 30
0.0
 10
25.88037835671701
 20
154.7999357147762
 30
0.0
  0
SPLINE
  5
13A
330
1F
100
AcDbEntity
  8
0
  6
Continuous
 62
     7
370
    25
100
AcDbSpline
210
0.0
220
0.0
230
1.0
 70
     8
 71
     3
 72
    15
 73
    11
 74
     0
 42
0.000000001
 43
0.00000001
 40
0.0
 40
0.0
 40
0.0
 40
0.0
 40
0.1561818244526251
 40
0.3034056966815312
 40
0.4421050911100844
 40
0.5766872759535808
 40
0.7007557504556621
 40
0.8086124154677633
 40
0.9050546489233676
 40
1.0
 40
1.0
 40
1.0
 40
1.0
 10
10.20617963876828
 20
156.7318267404172
 30
0.0
 10
10.24043044088528
 20
156.7307826094457
 30
0.0
 10
10.30696755885423
 20
156.7287542345952
 30
0.0
 10
10.40288607434893
 20
156.7121797411835
 30
0.0
 10
10.49057251117166
 20
156.6827175162335
 30
0.0
 10
10.56893568341515
 20
156.6442411584002
 30
0.0
 10
10.63573403515921
 20
156.598591315173
 30
0.0
 10
10.68459452276722
 20
156.5449974425392
 30
0.0
 10
10.71572456802518
 20
156.4855787335831
 30
0.0
 10
10.71952075141859
 20
156.4434376254653
 30
0.0
 10
10.72140399774264
 20
156.4225318686223
 30
0.0
  0
SPLINE
  5
13B
330
1F
100
AcDbEntity
  8
0
  6
Continuous
 62
     7
370
    25
100
AcDbSpline
210
0.0
220
0.0
230
1.0
 70
     8
 71
     3
 72
    15
 73
    11
 74
     0
 42
0.000000001
 43
0.00000001
 40
0.0
 40
0.0
 40
0.0
 40
0.0
 40
0.1412615421882075
 40
0.276372051423855
 40
0.4066468166784725
 40
0.5319496682939634
 40
0.652968135202191
 40
0.7704649802307681
 40
0.8861271182755042
 40
1.0
 40
1.0
 40
1.0
 40
1.0
 10
35.761628356717
 20
147.2190062275967
 30
0.0
 10
35.72533149033778
 20
147.2435081223731
 30
0.0
 10
35.65431825300444
 20
147.2914450117645
 30
0.0
 10
35.54484661230669
 20
147.3541479478151
 30
0.0
 10
35.43588590073034
 20
147.4071655915361
 30
0.0
 10
35.32747949319805
 20
147.4507050757659
 30
0.0
 10
35.2198102585941
 20
147.4846340203856
 30
0.0
 10
35.11263533473903
 20
147.508820592203
 30
0.0
 10
35.0059140053976
 20
147.5238560035374
 30
0.0
 10
34.93475234325155
 20
147.5257559615143
 30
0.0
 10
34.89944886953752
 20
147.526698535289
 30
0.0
  0
SPLINE
  5
13C
330
1F
100
AcDbEntity
  8
0
  6
Continuous
 62
     7
370
    25
100
AcDbSpline
210
0.0
220
0.0
230
1.0
 70
     8
 71
     3
 72
    15
 73
    11
 74
     0
 42
0.000000001
 43
0.00000001
 40
0.0
 40
0.0
 40
0.0
 40
0.0
 40
0.123993614518099
 40
0.2474054914794175
 40
0.3688880027020367
 40
0.4913641254540418
 40
0.615082521054421
 40
0.7406431677396033
 40
0.868142020563588
 40
1.0
 40
1.0
 40
1.0
 40
1.0
 10
18.03486553620418
 20
154.9193267404172
 30
0.0
 10
18.00545764413934
 20
154.9021652572293
 30
0.0
 10
17.94677983223789
 20
154.8679228069296
 30
0.0
 10
17.8645368541224
 20
154.8085548244607
 30
0.0
 10
17.78787194789286
 20
154.742950675736
 30
0.0
 10
17.71596071813775
 20
154.6719146184824
 30
0.0
 10
17.65151419828191
 20
154.592614412102
 30
0.0
 10
17.59123131905945
 20
154.5085381900553
 30
0.0
 10
17.53592609363916
 20
154.4183105518583
 30
0.0
 10
17.50494391452751
 20
154.354176381317
 30
0.0
 10
17.4891924592811
 20
154.3215703301607
 30
0.0
  0
SPLINE
  5
13E
330
1F
100
AcDbEntity
  8
0
  6
Continuous
 62
     7
370
    25
100
AcDbSpline
210
0.0
220
0.0
230
1.0
 70
     8
 71
     3
 72
    19
 73
    15
 74
     0
 42
0.000000001
 43
0.00000001
 40
0.0
 40
0.0
 40
0.0
 40
0.0
 40
0.0755474852614013
 40
0.147649897720217
 40
0.217957519664486
 40
0.2876064579187829
 40
0.3600144580205561
 40
0.4374753573659618
 40
0.5218332238359044
 40
0.6126791158573535
 40
0.7076977312843183
 40
0.8035483285589089
 40
0.9008522935190634
 40
1.0
 40
1.0
 40
1.0
 40
1.0
 10
20.96755784389649
 20
154.3215703301608
 30
0.0
 10
20.94629218779808
 20
154.3694428033271
 30
0.0
 10
20.90473061977211
 20
154.4630046967794
 30
0.0
 10
20.82358306947562
 20
154.5910229519669
 30
0.0
 10
20.72840774773092
 20
154.703509667393
 30
0.0
 10
20.61781422782554
 20
154.8012406772057
 30
0.0
 10
20.4915805438539
 20
154.8865842747812
 30
0.0
 10
20.34826924987745
 20
154.96323755556
 30
0.0
 10
20.18606403419537
 20
155.0296331069164
 30
0.0
 10
20.00782208938551
 20
155.0871308990394
 30
0.0
 10
19.81851833933694
 20
155.1353229533359
 30
0.0
 10
19.62147539608602
 20
155.1680925450962
 30
0.0
 10
19.41998748785199
 20
155.1902352206104
 30
0.0
 10
19.28385769697771
 20
155.1923153672981
 30
0.0
 10
19.21515399774264
 20
155.1933652019556
 30
0.0
  0
SPLINE
  5
13F
330
1F
100
AcDbEntity
  8
0
  6
Continuous
 62
     7
370
    25
100
AcDbSpline
210
0.0
220
0.0
230
1.0
 70
     8
 71
     3
 72
    15
 73
    11
 74
     0
 42
0.000000001
 43
0.00000001
 40
0.0
 40
0.0
 40
0.0
 40
0.0
 40
0.1374291025968092
 40
0.2706514820594522
 40
0.4000932691068968
 40
0.525449604745211
 40
0.6474980392426773
 40
0.7668728831676459
 40
0.8841350512192488
 40
1.0
 40
1.0
 40
1.0
 40
1.0
 10
19.21515399774264
 20
155.1933652019556
 30
0.0
 10
19.15904074144713
 20
155.1926715674704
 30
0.0
 10
19.04853186310485
 20
155.1913055307439
 30
0.0
 10
18.88557542993094
 20
155.1782464219316
 30
0.0
 10
18.72862095341305
 20
155.1564809756543
 30
0.0
 10
18.57736024276668
 20
155.1276164297869
 30
0.0
 10
18.43302583515253
 20
155.0873568737643
 30
0.0
 10
18.29378169969711
 20
155.0417654602772
 30
0.0
 10
18.16114142881237
 20
154.9853824326833
 30
0.0
 10
18.07678898166586
 20
154.941257151321
 30
0.0
 10
18.03486553620418
 20
154.9193267404172
 30
0.0
  0
SPLINE
  5
141
330
1F
100
AcDbEntity
  8
0
  6
Continuous
 62
     7
370
    25
100
AcDbSpline
210
0.0
220
0.0
230
1.0
 70
     8
 71
     3
 72
    15
 73
    11
 74
     0
 42
0.000000001
 43
0.00000001
 40
0.0
 40
0.0
 40
0.0
 40
0.0
 40
0.137429102596812
 40
0.2706514820594549
 40
0.4000932691068967
 40
0.5254496047452135
 40
0.6474980392426772
 40
0.7668728831676486
 40
0.8841350512192514
 40
1.0
 40
1.0
 40
1.0
 40
1.0
 10
38.85617963876829
 20
155.1933652019556
 30
0.0
 10
38.80006638247277
 20
155.1926715674704
 30
0.0
 10
38.68955750413048
 20
155.1913055307439
 30
0.0
 10
38.52660107095659
 20
155.1782464219316
 30
0.0
 10
38.36964659443867
 20
155.1564809756543
 30
0.0
 10
38.21838588379234
 20
155.1276164297869
 30
0.0
 10
38.07405147617816
 20
155.0873568737642
 30
0.0
 10
37.93480734072278
 20
155.0417654602773
 30
0.0
 10
37.80216706983799
 20
154.9853824326832
 30
0.0
 10
37.7178146226915
 20
154.941257151321
 30
0.0
 10
37.67589117722982
 20
154.9193267404172
 30
0.0
  0
SPLINE
  5
142
330
1F
100
AcDbEntity
  8
0
  6
Continuous
 62
     7
370
    25
100
AcDbSpline
210
0.0
220
0.0
230
1.0
 70
     8
 71
     3
 72
    15
 73
    11
 74
     0
 42
0.000000001
 43
0.00000001
 40
0.0
 40
0.0
 40
0.0
 40
0.0
 40
0.1239936145181025
 40
0.2474054914794207
 40
0.3688880027020397
 40
0.4913641254540447
 40
0.6150825210544236
 40
0.7406431677396056
 40
0.8681420205635901
 40
0.9999999999999999
 40
0.9999999999999999
 40
0.9999999999999999
 40
0.9999999999999999
 10
37.67589117722982
 20
154.9193267404172
 30
0.0
 10
37.64648328516498
 20
154.9021652572293
 30
0.0
 10
37.58780547326352
 20
154.8679228069296
 30
0.0
 10
37.50556249514806
 20
154.8085548244608
 30
0.0
 10
37.42889758891849
 20
154.7429506757359
 30
0.0
 10
37.35698635916339
 20
154.6719146184824
 30
0.0
 10
37.29253983930754
 20
154.592614412102
 30
0.0
 10
37.23225696008511
 20
154.5085381900554
 30
0.0
 10
37.17695173466479
 20
154.4183105518583
 30
0.0
 10
37.14596955555316
 20
154.354176381317
 30
0.0
 10
37.13021810030675
 20
154.3215703301607
 30
0.0
  0
SPLINE
  5
143
330
1F
100
AcDbEntity
  8
0
  6
Continuous
 62
     7
370
    25
100
AcDbSpline
210
0.0
220
0.0
230
1.0
 70
     8
 71
     3
 72
    19
 73
    15
 74
     0
 42
0.000000001
 43
0.00000001
 40
0.0
 40
0.0
 40
0.0
 40
0.0
 40
0.0755474852614
 40
0.1476498977202158
 40
0.217957519664485
 40
0.2876064579187845
 40
0.3600144580205552
 40
0.4374753573659624
 40
0.5218332238359051
 40
0.6126791158573528
 40
0.7076977312843196
 40
0.803548328558912
 40
0.9008522935190649
 40
1.0
 40
1.0
 40
1.0
 40
1.0
 10
40.60858348492213
 20
154.3215703301607
 30
0.0
 10
40.58731782882372
 20
154.369442803327
 30
0.0
 10
40.54575626079775
 20
154.4630046967793
 30
0.0
 10
40.46460871050127
 20
154.5910229519669
 30
0.0
 10
40.36943338875655
 20
154.703509667393
 30
0.0
 10
40.25883986885118
 20
154.8012406772056
 30
0.0
 10
40.13260618487956
 20
154.8865842747813
 30
0.0
 10
39.98929489090309
 20
154.9632375555599
 30
0.0
 10
39.82708967522102
 20
155.0296331069164
 30
0.0
 10
39.64884773041115
 20
155.0871308990395
 30
0.0
 10
39.45954398036258
 20
155.1353229533359
 30
0.0
 10
39.26250103711168
 20
155.1680925450963
 30
0.0
 10
39.06101312887763
 20
155.1902352206104
 30
0.0
 10
38.92488333800335
 20
155.1923153672981
 30
0.0
 10
38.85617963876829
 20
155.1933652019556
 30
0.0
  0
SPLINE
  5
144
330
1F
100
AcDbEntity
  8
0
  6
Continuous
 62
     7
370
    25
100
AcDbSpline
210
0.0
220
0.0
230
1.0
 70
     8
 71
     3
 72
    27
 73
    23
 74
     0
 42
0.000000001
 43
0.00000001
 40
0.0
 40
0.0
 40
0.0
 40
0.0
 40
0.0312950607527294
 40
0.0629488569816258
 40
0.094572318947467
 40
0.1273339107641108
 40
0.1606948653011508
 40
0.1956749314777709
 40
0.2319667275314399
 40
0.2703452394784447
 40
0.3095503797754464
 40
0.3495382602302972
 40
0.3902675230760402
 40
0.4316472192326262
 40
0.4741202945396517
 40
0.5180041406824657
 40
0.5632784939899775
 40
0.6097673010202597
 40
0.7051030839877437
 40
0.801254937179725
 40
0.8994489151752062
 40
1.0
 40
1.0
 40
1.0
 40
1.0
 10
27.76755784389649
 20
146.3768587916992
 30
0.0
 10
27.76832351073932
 20
146.3519679380652
 30
0.0
 10
27.76986362126878
 20
146.301900906787
 30
0.0
 10
27.7825681728967
 20
146.2276138500514
 30
0.0
 10
27.8016030584588
 20
146.1535716816391
 30
0.0
 10
27.83001807105888
 20
146.0810737595379
 30
0.0
 10
27.86573257595796
 20
146.0090054905496
 30
0.0
 10
27.90882942266831
 20
145.9377185246012
 30
0.0
 10
27.96099055043924
 20
145.8677813490092
 30
0.0
 10
28.01948013212858
 20
145.7986029918512
 30
0.0
 10
28.08547976835192
 20
145.7323228531852
 30
0.0
 10
28.15666967517651
 20
145.6688275204484
 30
0.0
 10
28.23378130047907
 20
145.6097768666491
 30
0.0
 10
28.31575217349465
 20
145.5540979705043
 30
0.0
 10
28.40356444230332
 20
145.5030022995619
 30
0.0
 10
28.49644793960396
 20
145.4547345433893
 30
0.0
 10
28.59503177174251
 20
145.4109055817585
 30
0.0
 10
28.73378813205681
 20
145.3572969538128
 30
0.0
 10
28.91471264026377
 20
145.3009517954123
 30
0.0
 10
29.14044874812047
 20
145.2543258319718
 30
0.0
 10
29.37331936891355
 20
145.2243000640373
 30
0.0
 10
29.53135359281903
 20
145.2207847369466
 30
0.0
 10
29.61130784389649
 20
145.2190062275967
 30
0.0
  0
SPLINE
  5
145
330
1F
100
AcDbEntity
  8
0
  6
Continuous
 62
     7
370
    25
100
AcDbSpline
210
0.0
220
0.0
230
1.0
 70
     8
 71
     3
 72
    23
 73
    19
 74
     0
 42
0.000000001
 43
0.00000001
 40
0.0
 40
0.0
 40
0.0
 40
0.0
 40
0.0505032644855925
 40
0.1000581727813269
 40
0.1495861038532847
 40
0.1997652538433661
 40
0.2522274148189272
 40
0.3074651427744804
 40
0.3662182774211541
 40
0.429349287624273
 40
0.4949588252569106
 40
0.5616926795672829
 40
0.6293834800517827
 40
0.6985585546443379
 40
0.7703030202928374
 40
0.844165483090742
 40
0.9205475764969077
 40
1.0
 40
1.0
 40
1.0
 40
1.0
 10
31.45986553620419
 20
146.3664421250326
 30
0.0
 10
31.45851197953497
 20
146.406922654096
 30
0.0
 10
31.45583028344149
 20
146.4871235641276
 30
0.0
 10
31.42862916090603
 20
146.604394293059
 30
0.0
 10
31.38695738539265
 20
146.7166301120697
 30
0.0
 10
31.32842851512755
 20
146.8239970742459
 30
0.0
 10
31.25191067433463
 20
146.924984890045
 30
0.0
 10
31.16001015518535
 20
147.0218242400534
 30
0.0
 10
31.05053998649485
 20
147.1123336414791
 30
0.0
 10
30.92649838924499
 20
147.1971055694209
 30
0.0
 10
30.79007245004038
 20
147.2740036580495
 30
0.0
 10
30.64515428776089
 20
147.342421908884
 30
0.0
 10
30.4922087943207
 20
147.399185999327
 30
0.0
 10
30.33172511531952
 20
147.445624071373
 30
0.0
 10
30.16371828791202
 20
147.4827660906784
 30
0.0
 10
29.98767962988971
 20
147.5074920420307
 30
0.0
 10
29.80448642108874
 20
147.5245609539861
 30
0.0
 10
29.6797252006219
 20
147.5259767102075
 30
0.0
 10
29.61611553620418
 20
147.526698535289
 30
0.0
  0
SPLINE
  5
146
330
1F
100
AcDbEntity
  8
0
  6
Continuous
 62
     7
370
    25
100
AcDbSpline
210
0.0
220
0.0
230
1.0
 70
     8
 71
     3
 72
    27
 73
    23
 74
     0
 42
0.000000001
 43
0.00000001
 40
0.0
 40
0.0
 40
0.0
 40
0.0
 40
0.1013824843904753
 40
0.2007026271396063
 40
0.2986629319509151
 40
0.3959821433883272
 40
0.4438000253421187
 40
0.4891931177008591
 40
0.5331525783177695
 40
0.5753687279884793
 40
0.6157068726437651
 40
0.6550915935443704
 40
0.6930233535046246
 40
0.7301404026577678
 40
0.7661864607841581
 40
0.8009716147973663
 40
0.8349768063469841
 40
0.8681820376516779
 40
0.9007482549256706
 40
0.9334275437345482
 40
0.9665248779828672
 40
1.0
 40
1.0
 40
1.0
 40
1.0
 10
29.61130784389649
 20
145.2190062275967
 30
0.0
 10
29.69231645754158
 20
145.2208866771425
 30
0.0
 10
29.85268579231626
 20
145.2246093237744
 30
0.0
 10
30.08994491596444
 20
145.2533250430447
 30
0.0
 10
30.32073178860741
 20
145.3005665881521
 30
0.0
 10
30.50725644411914
 20
145.3557393238358
 30
0.0
 10
30.64983292279262
 20
145.4091262667815
 30
0.0
 10
30.75093911303983
 20
145.4515147244411
 30
0.0
 10
30.84527126580541
 20
145.4980077665583
 30
0.0
 10
30.93350970535502
 20
145.5474036247302
 30
0.0
 10
31.0151964736829
 20
145.6006479541823
 30
0.0
 10
31.09008652737716
 20
145.6575253499375
 30
0.0
 10
31.15986408184467
 20
145.7167374688732
 30
0.0
 10
31.22194963663058
 20
145.780282818311
 30
0.0
 10
31.27847364710412
 20
145.8455299462839
 30
0.0
 10
31.32674233077185
 20
145.9141499307055
 30
0.0
 10
31.36761450491306
 20
145.9847368320345
 30
0.0
 10
31.40169236153554
 20
146.0569353721998
 30
0.0
 10
31.42744816084644
 20
146.1314090439976
 30
0.0
 10
31.44587399215139
 20
146.2078761031064
 30
0.0
 10
31.45741256536605
 20
146.2865001041768
 30
0.0
 10
31.45904479171921
 20
146.3396941622295
 30
0.0
 10
31.45986553620419
 20
146.3664421250326
 30
0.0
  0
SPLINE
  5
147
330
1F
100
AcDbEntity
  8
0
  6
Continuous
 62
     7
370
    25
100
AcDbSpline
210
0.0
220
0.0
230
1.0
 70
     8
 71
     3
 72
    27
 73
    23
 74
     0
 42
0.000000001
 43
0.00000001
 40
0.0
 40
0.0
 40
0.0
 40
0.0
 40
0.1027679984470492
 40
0.2024599599115148
 40
0.2991440269583581
 40
0.3941596854165444
 40
0.4404680095348601
 40
0.4852406579811872
 40
0.5286156115037417
 40
0.570744586274131
 40
0.6118835527764507
 40
0.6520894034057402
 40
0.6915517102656502
 40
0.7307060320926596
 40
0.7685617667985837
 40
0.8043374143957407
 40
0.8389856709315221
 40
0.872604540809007
 40
0.9048905567513248
 40
0.9367976321897856
 40
0.9684103981486304
 40
1.0
 40
1.0
 40
1.0
 40
1.0
 10
29.61611553620418
 20
147.526698535289
 30
0.0
 10
29.5343075030586
 20
147.5248257078183
 30
0.0
 10
29.37314010307632
 20
147.52113611008
 30
0.0
 10
29.13633699260196
 20
147.4927638927609
 30
0.0
 10
28.90906241018241
 20
147.445318717128
 30
0.0
 10
28.72743900315727
 20
147.3905345351351
 30
0.0
 10
28.58882437727109
 20
147.3381857829939
 30
0.0
 10
28.49090245463914
 20
147.2948863050321
 30
0.0
 10
28.39848596954797
 20
147.2477154222071
 30
0.0
 10
28.31189751506488
 20
147.1960214436431
 30
0.0
 10
28.22983776332518
 20
147.1418582076772
 30
0.0
 10
28.15349849255817
 20
147.0832422938259
 30
0.0
 10
28.08278870589447
 20
147.0203509341568
 30
0.0
 10
28.01734376037787
 20
146.9545820750371
 30
0.0
 10
27.95931718311891
 20
146.8859760834942
 30
0.0
 10
27.90815563514519
 20
146.8165478565094
 30
0.0
 10
27.86449481768684
 20
146.746029852054
 30
0.0
 10
27.82945397525538
 20
146.673960772743
 30
0.0
 10
27.8014617012308
 20
146.6011551081207
 30
0.0
 10
27.78266343091636
 20
146.5271489589796
 30
0.0
 10
27.76980423087004
 20
146.4523569607255
 30
0.0
 10
27.76830645657277
 20
146.4020186982669
 30
0.0
 10
27.76755784389649
 20
146.3768587916992
 30
0.0
  0
SPLINE
  5
148
330
1F
100
AcDbEntity
  8
0
  6
Continuous
 62
     7
370
    25
100
AcDbSpline
210
0.0
220
0.0
230
1.0
 70
     8
 71
     3
 72
    23
 73
    19
 74
     0
 42
0.000000001
 43
0.00000001
 40
0.0
 40
0.0
 40
0.0
 40
0.0
 40
0.0505032644855926
 40
0.1000581727813269
 40
0.1495861038532944
 40
0.199765253843367
 40
0.2522274148189281
 40
0.3074651427744792
 40
0.3662182774211624
 40
0.4293492876242812
 40
0.4949588252569105
 40
0.5616926795672826
 40
0.6293834800517824
 40
0.6985585546443389
 40
0.7703030202928394
 40
0.8441654830907422
 40
0.9205475764969063
 40
1.0
 40
1.0
 40
1.0
 40
1.0
 10
46.98807066440931
 20
154.0331087916992
 30
0.0
 10
46.98671710774008
 20
154.0735893207627
 30
0.0
 10
46.98403541164662
 20
154.1537902307943
 30
0.0
 10
46.95683428911116
 20
154.2710609597256
 30
0.0
 10
46.91516251359779
 20
154.3832967787363
 30
0.0
 10
46.85663364333266
 20
154.4906637409126
 30
0.0
 10
46.78011580253975
 20
154.5916515567117
 30
0.0
 10
46.68821528339046
 20
154.6884909067201
 30
0.0
 10
46.57874511469998
 20
154.7790003081458
 30
0.0
 10
46.45470351745011
 20
154.8637722360876
 30
0.0
 10
46.31827757824548
 20
154.9406703247162
 30
0.0
 10
46.17335941596605
 20
155.0090885755507
 30
0.0
 10
46.02041392252581
 20
155.0658526659936
 30
0.0
 10
45.85993024352466
 20
155.1122907380397
 30
0.0
 10
45.69192341611715
 20
155.1494327573451
 30
0.0
 10
45.51588475809482
 20
155.1741587086973
 30
0.0
 10
45.33269154929388
 20
155.1912276206528
 30
0.0
 10
45.20793032882703
 20
155.1926433768741
 30
0.0
 10
45.14432066440931
 20
155.1933652019556
 30
0.0
  0
SPLINE
  5
149
330
1F
100
AcDbEntity
  8
0
  6
Continuous
 62
     7
370
    25
100
AcDbSpline
210
0.0
220
0.0
230
1.0
 70
     8
 71
     3
 72
    27
 73
    23
 74
     0
 42
0.000000001
 43
0.00000001
 40
0.0
 40
0.0
 40
0.0
 40
0.0
 40
0.1013824843904746
 40
0.2007026271396048
 40
0.2986629319509157
 40
0.395982143388327
 40
0.4438000253421189
 40
0.4891931177008596
 40
0.5331525783177754
 40
0.5753687279884854
 40
0.6157068726437663
 40
0.6550915935443719
 40
0.6930233535046253
 40
0.7301404026577687
 40
0.766186460784169
 40
0.8009716147973759
 40
0.8349768063469938
 40
0.8681820376516785
 40
0.9007482549256813
 40
0.9334275437345592
 40
0.966524877982867
 40
1.0
 40
1.0
 40
1.0
 40
1.0
 10
45.13951297210161
 20
152.8856728942633
 30
0.0
 10
45.2205215857467
 20
152.8875533438091
 30
0.0
 10
45.38089092052137
 20
152.8912759904411
 30
0.0
 10
45.61815004416958
 20
152.9199917097114
 30
0.0
 10
45.84893691681253
 20
152.9672332548187
 30
0.0
 10
46.03546157232424
 20
153.0224059905023
 30
0.0
 10
46.17803805099774
 20
153.0757929334482
 30
0.0
 10
46.27914424124496
 20
153.1181813911077
 30
0.0
 10
46.37347639401051
 20
153.164674433225
 30
0.0
 10
46.46171483356014
 20
153.2140702913969
 30
0.0
 10
46.54340160188802
 20
153.2673146208489
 30
0.0
 10
46.61829165558227
 20
153.3241920166041
 30
0.0
 10
46.6880692100498
 20
153.3834041355399
 30
0.0
 10
46.75015476483571
 20
153.4469494849777
 30
0.0
 10
46.80667877530925
 20
153.5121966129507
 30
0.0
 10
46.85494745897695
 20
153.5808165973722
 30
0.0
 10
46.89581963311817
 20
153.6514034987013
 30
0.0
 10
46.92989748974065
 20
153.7236020388664
 30
0.0
 10
46.95565328905156
 20
153.7980757106643
 30
0.0
 10
46.97407912035651
 20
153.8745427697731
 30
0.0
 10
46.98561769357118
 20
153.9531667708436
 30
0.0
 10
46.98724991992433
 20
154.0063608288961
 30
0.0
 10
46.98807066440931
 20
154.0331087916992
 30
0.0
  0
SPLINE
  5
14A
330
1F
100
AcDbEntity
  8
0
  6
Continuous
 62
     7
370
    25
100
AcDbSpline
210
0.0
220
0.0
230
1.0
 70
     8
 71
     3
 72
    27
 73
    23
 74
     0
 42
0.000000001
 43
0.00000001
 40
0.0
 40
0.0
 40
0.0
 40
0.0
 40
0.0312950607527297
 40
0.0629488569816259
 40
0.0945723189474676
 40
0.1273339107641002
 40
0.1606948653011405
 40
0.1956749314777722
 40
0.2319667275314312
 40
0.2703452394784452
 40
0.3095503797754471
 40
0.3495382602302993
 40
0.3902675230760425
 40
0.4316472192326275
 40
0.4741202945396533
 40
0.5180041406824675
 40
0.5632784939899762
 40
0.6097673010202572
 40
0.7051030839877419
 40
0.8012549371797252
 40
0.8994489151752072
 40
1.0
 40
1.0
 40
1.0
 40
1.0
 10
43.29576297210161
 20
154.0435254583659
 30
0.0
 10
43.29652863894444
 20
154.0186346047318
 30
0.0
 10
43.2980687494739
 20
153.9685675734536
 30
0.0
 10
43.31077330110183
 20
153.8942805167181
 30
0.0
 10
43.3298081866639
 20
153.8202383483058
 30
0.0
 10
43.35822319926402
 20
153.7477404262046
 30
0.0
 10
43.39393770416308
 20
153.6756721572163
 30
0.0
 10
43.43703455087342
 20
153.6043851912679
 30
0.0
 10
43.48919567864439
 20
153.5344480156758
 30
0.0
 10
43.54768526033369
 20
153.4652696585179
 30
0.0
 10
43.61368489655704
 20
153.3989895198518
 30
0.0
 10
43.68487480338164
 20
153.3354941871151
 30
0.0
 10
43.7619864286842
 20
153.2764435333158
 30
0.0
 10
43.84395730169978
 20
153.2207646371709
 30
0.0
 10
43.93176957050844
 20
153.1696689662285
 30
0.0
 10
44.02465306780909
 20
153.121401210056
 30
0.0
 10
44.12323689994764
 20
153.0775722484252
 30
0.0
 10
44.26199326026193
 20
153.0239636204795
 30
0.0
 10
44.4429177684689
 20
152.967618462079
 30
0.0
 10
44.66865387632559
 20
152.9209924986386
 30
0.0
 10
44.90152449711869
 20
152.890966730704
 30
0.0
 10
45.05955872102415
 20
152.8874514036133
 30
0.0
 10
45.13951297210161
 20
152.8856728942633
 30
0.0
  0
SPLINE
  5
14B
330
1F
100
AcDbEntity
  8
0
  6
Continuous
 62
     7
370
    25
100
AcDbSpline
210
0.0
220
0.0
230
1.0
 70
     8
 71
     3
 72
    27
 73
    23
 74
     0
 42
0.000000001
 43
0.00000001
 40
0.0
 40
0.0
 40
0.0
 40
0.0
 40
0.102767998447049
 40
0.2024599599115129
 40
0.2991440269583573
 40
0.3941596854165449
 40
0.440468009534859
 40
0.4852406579811813
 40
0.528615611503741
 40
0.570744586274129
 40
0.6118835527764432
 40
0.6520894034057338
 40
0.6915517102656504
 40
0.7307060320926598
 40
0.7685617667985828
 40
0.8043374143957415
 40
0.838985670931522
 40
0.8726045408090068
 40
0.9048905567513136
 40
0.9367976321897861
 40
0.9684103981486188
 40
1.0
 40
1.0
 40
1.0
 40
1.0
 10
45.14432066440931
 20
155.1933652019556
 30
0.0
 10
45.06251263126372
 20
155.1914923744849
 30
0.0
 10
44.90134523128145
 20
155.1878027767466
 30
0.0
 10
44.6645421208071
 20
155.1594305594276
 30
0.0
 10
44.43726753838756
 20
155.1119853837947
 30
0.0
 10
44.25564413136236
 20
155.0572012018018
 30
0.0
 10
44.11702950547622
 20
155.0048524496605
 30
0.0
 10
44.01910758284425
 20
154.9615529716988
 30
0.0
 10
43.92669109775311
 20
154.9143820888738
 30
0.0
 10
43.84010264327003
 20
154.8626881103097
 30
0.0
 10
43.75804289153029
 20
154.8085248743439
 30
0.0
 10
43.68170362076329
 20
154.7499089604926
 30
0.0
 10
43.6109938340996
 20
154.6870176008235
 30
0.0
 10
43.54554888858299
 20
154.6212487417038
 30
0.0
 10
43.48752231132405
 20
154.5526427501609
 30
0.0
 10
43.43636076335032
 20
154.4832145231761
 30
0.0
 10
43.39269994589196
 20
154.4126965187206
 30
0.0
 10
43.35765910346051
 20
154.3406274394096
 30
0.0
 10
43.3296668294359
 20
154.2678217747873
 30
0.0
 10
43.31086855912147
 20
154.1938156256463
 30
0.0
 10
43.29800935907517
 20
154.1190236273922
 30
0.0
 10
43.2965115847779
 20
154.0686853649335
 30
0.0
 10
43.29576297210161
 20
154.0435254583659
 30
0.0
  0
SPLINE
  5
14F
330
1F
100
AcDbEntity
  8
0
  6
Continuous
 62
     7
370
    25
100
AcDbSpline
210
0.0
220
0.0
230
1.0
 70
     8
 71
     3
 72
    23
 73
    19
 74
     0
 42
0.000000001
 43
0.00000001
 40
0.0
 40
0.0
 40
0.0
 40
0.0
 40
0.082374904846719
 40
0.1588937519498781
 40
0.2295611577607283
 40
0.2952585695353506
 40
0.3547686298748277
 40
0.408931908423617
 40
0.4575040961802273
 40
0.5008596591041772
 40
0.5789142921497314
 40
0.6510413090908781
 40
0.7181445776838593
 40
0.7814848626411922
 40
0.8410275629404346
 40
0.8955175944265955
 40
0.9480182937828269
 40
1.0
 40
1.0
 40
1.0
 40
1.0
 10
6.079897587486228
 20
154.8255767404172
 30
0.0
 10
6.132252059179597
 20
154.8255584769552
 30
0.0
 10
6.233239106802797
 20
154.8255232483866
 30
0.0
 10
6.379074548067555
 20
154.8300741324321
 30
0.0
 10
6.514263511955387
 20
154.8353341854118
 30
0.0
 10
6.638533313285039
 20
154.8430430899518
 30
0.0
 10
6.752013900877415
 20
154.853846942475
 30
0.0
 10
6.854565087286671
 20
154.8649415822623
 30
0.0
 10
6.946104204835282
 20
154.880652377588
 30
0.0
 10
7.052055219976476
 20
154.901933529868
 30
0.0
 10
7.170075652001167
 20
154.9374650488075
 30
0.0
 10
7.298056786026824
 20
154.9902542086587
 30
0.0
 10
7.408876240778239
 20
155.0566681908064
 30
0.0
 10
7.503398041444939
 20
155.1324430852122
 30
0.0
 10
7.579079109454365
 20
155.2168584776272
 30
0.0
 10
7.634387611291982
 20
155.3076149285529
 30
0.0
 10
7.66961377808259
 20
155.4037217092553
 30
0.0
 10
7.673377592390541
 20
155.4703250861125
 30
0.0
 10
7.675250151588791
 20
155.5034613558018
 30
0.0
  0
SPLINE
  5
150
330
1F
100
AcDbEntity
  8
0
  6
Continuous
 62
     7
370
    25
100
AcDbSpline
210
0.0
220
0.0
230
1.0
 70
     8
 71
     3
 72
    23
 73
    19
 74
     0
 42
0.000000001
 43
0.00000001
 40
0.0
 40
0.0
 40
0.0
 40
0.0
 40
0.052175451315529
 40
0.1053582573896704
 40
0.1610334138664594
 40
0.2219522922180677
 40
0.2867648491976834
 40
0.3534852555933897
 40
0.4247200604434284
 40
0.5000746220041
 40
0.5420400853110082
 40
0.5897952376286719
 40
0.6433578944582293
 40
0.7028051150062443
 40
0.7682202988243267
 40
0.839176513125248
 40
0.9165714911625414
 40
0.9999999999999999
 40
0.9999999999999999
 40
0.9999999999999999
 40
0.9999999999999999
 10
7.675250151588791
 20
155.5034613558018
 30
0.0
 10
7.673358692302027
 20
155.5358024340314
 30
0.0
 10
7.669539255203688
 20
155.601109001746
 30
0.0
 10
7.634145862752795
 20
155.6955076107309
 30
0.0
 10
7.579105065094405
 20
155.785343566042
 30
0.0
 10
7.503166798585245
 20
155.8686146603909
 30
0.0
 10
7.410723671734177
 20
155.9439950741252
 30
0.0
 10
7.303075902913549
 20
156.0088991186941
 30
0.0
 10
7.181793161660982
 20
156.0613773597739
 30
0.0
 10
7.069832538014707
 20
156.0946094037523
 30
0.0
 10
6.969911297187021
 20
156.1152398967651
 30
0.0
 10
6.882532906251113
 20
156.1296573521592
 30
0.0
 10
6.783871073141025
 20
156.1414654003332
 30
0.0
 10
6.674000125992868
 20
156.1506867591232
 30
0.0
 10
6.55327260444459
 20
156.158853552297
 30
0.0
 10
6.421286374258678
 20
156.164269525
 30
0.0
 10
6.278098081397287
 20
156.1674877760354
 30
0.0
 10
6.178724231753536
 20
156.1676434296958
 30
0.0
 10
6.127173228511869
 20
156.1677241763146
 30
0.0
  0
LINE
  5
151
330
1F
100
AcDbEntity
  8
0
  6
Continuous
 62
     7
370
    25
100
AcDbLine
 10
5.0085834849
 20
154.4241344327
 30
0.0
 11
5.0085834849
 21
152.5779805866
 31
0.0
  0
LINE
  5
152
330
1F
100
AcDbEntity
  8
0
  6
Continuous
 62
     7
370
    25
100
AcDbLine
 10
4.3931988695
 20
156.5779805866
 30
0.0
 11
5.6359873311
 21
156.5779805866
 31
0.0
  0
LINE
  5
153
330
1F
100
AcDbEntity
  8
0
  6
Continuous
 62
     7
370
    25
100
AcDbLine
 10
4.3931988695
 20
152.5779805866
 30
0.0
 11
4.3931988695
 21
156.5779805866
 31
0.0
  0
LINE
  5
154
330
1F
100
AcDbEntity
  8
0
  6
Continuous
 62
     7
370
    25
100
AcDbLine
 10
5.0085834849
 20
152.5779805866
 30
0.0
 11
4.3931988695
 21
152.5779805866
 31
0.0
  0
LINE
  5
155
330
1F
100
AcDbEntity
  8
0
  6
Continuous
 62
     7
370
    25
100
AcDbLine
 10
49.9829424593
 20
153.8079485353
 30
0.0
 11
49.9829424593
 21
152.5779805866
 31
0.0
  0
LINE
  5
156
330
1F
100
AcDbEntity
  8
0
  6
Continuous
 62
     7
370
    25
100
AcDbLine
 10
52.5470450234
 20
152.5779805866
 30
0.0
 11
52.5470450234
 21
154.0643587917
 31
0.0
  0
LINE
  5
157
330
1F
100
AcDbEntity
  8
0
  6
Continuous
 62
     7
370
    25
100
AcDbLine
 10
53.1624296388
 20
152.5779805866
 30
0.0
 11
52.5470450234
 21
152.5779805866
 31
0.0
  0
LINE
  5
158
330
1F
100
AcDbEntity
  8
0
  6
Continuous
 62
     7
370
    25
100
AcDbLine
 10
53.1624296388
 20
153.7149998173
 30
0.0
 11
53.1624296388
 21
152.5779805866
 31
0.0
  0
LINE
  5
159
330
1F
100
AcDbEntity
  8
0
  6
Continuous
 62
     7
370
    25
100
AcDbLine
 10
55.7265322029
 20
152.5779805866
 30
0.0
 11
55.7265322029
 21
154.162916484
 31
0.0
  0
LINE
  5
15A
330
1F
100
AcDbEntity
  8
0
  6
Continuous
 62
     7
370
    25
100
AcDbLine
 10
56.3419168183
 20
152.5779805866
 30
0.0
 11
55.7265322029
 21
152.5779805866
 31
0.0
  0
LINE
  5
15B
330
1F
100
AcDbEntity
  8
0
  6
Continuous
 62
     7
370
    25
100
AcDbLine
 10
56.3419168183
 20
154.1613139199
 30
0.0
 11
56.3419168183
 21
152.5779805866
 31
0.0
  0
LINE
  5
15C
330
1F
100
AcDbEntity
  8
0
  6
Continuous
 62
     7
370
    25
100
AcDbLine
 10
49.9829424593
 20
155.5010575096
 30
0.0
 11
49.9829424593
 21
154.9930446891
 31
0.0
  0
LINE
  5
15D
330
1F
100
AcDbEntity
  8
0
  6
Continuous
 62
     7
370
    25
100
AcDbLine
 10
49.3675578439
 20
155.5010575096
 30
0.0
 11
49.9829424593
 21
155.5010575096
 31
0.0
  0
LINE
  5
15E
330
1F
100
AcDbEntity
  8
0
  6
Continuous
 62
     7
370
    25
100
AcDbLine
 10
49.3675578439
 20
152.5779805866
 30
0.0
 11
49.3675578439
 21
155.5010575096
 31
0.0
  0
LINE
  5
15F
330
1F
100
AcDbEntity
  8
0
  6
Continuous
 62
     7
370
    25
100
AcDbLine
 10
49.9829424593
 20
152.5779805866
 30
0.0
 11
49.3675578439
 21
152.5779805866
 31
0.0
  0
LINE
  5
160
330
1F
100
AcDbEntity
  8
0
  6
Continuous
 62
     7
370
    25
100
AcDbLine
 10
20.7008911772
 20
143.7831087917
 30
0.0
 11
20.0855065618
 21
143.7831087917
 31
0.0
  0
LINE
  5
161
330
1F
100
AcDbEntity
  8
0
  6
Continuous
 62
     7
370
    25
100
AcDbLine
 10
20.1880706644
 20
149.0651600738
 30
0.0
 11
20.9060193824
 21
149.0651600738
 31
0.0
  0
LINE
  5
162
330
1F
100
AcDbEntity
  8
0
  6
Continuous
 62
     7
370
    25
100
AcDbLine
 10
25.9008911772
 20
145.3215703302
 30
0.0
 11
25.9008911772
 21
144.9113139199
 31
0.0
  0
LINE
  5
163
330
1F
100
AcDbEntity
  8
0
  6
Continuous
 62
     7
370
    25
100
AcDbLine
 10
23.490634767
 20
145.3215703302
 30
0.0
 11
25.9008911772
 21
145.3215703302
 31
0.0
  0
LINE
  5
164
330
1F
100
AcDbEntity
  8
0
  6
Continuous
 62
     7
370
    25
100
AcDbLine
 10
23.490634767
 20
148.9113139199
 30
0.0
 11
23.490634767
 21
145.3215703302
 31
0.0
  0
LINE
  5
165
330
1F
100
AcDbEntity
  8
0
  6
Continuous
 62
     7
370
    25
100
AcDbLine
 10
22.8752501516
 20
148.9113139199
 30
0.0
 11
23.490634767
 21
148.9113139199
 31
0.0
  0
LINE
  5
166
330
1F
100
AcDbEntity
  8
0
  6
Continuous
 62
     7
370
    25
100
AcDbLine
 10
22.8752501516
 20
144.9113139199
 30
0.0
 11
22.8752501516
 21
148.9113139199
 31
0.0
  0
LINE
  5
167
330
1F
100
AcDbEntity
  8
0
  6
Continuous
 62
     7
370
    25
100
AcDbLine
 10
25.9008911772
 20
144.9113139199
 30
0.0
 11
22.8752501516
 21
144.9113139199
 31
0.0
  0
LINE
  5
168
330
1F
100
AcDbEntity
  8
0
  6
Continuous
 62
     7
370
    25
100
AcDbLine
 10
31.4598655362
 20
144.9113139199
 30
0.0
 11
31.4598655362
 21
145.4169228943
 31
0.0
  0
LINE
  5
169
330
1F
100
AcDbEntity
  8
0
  6
Continuous
 62
     7
370
    25
100
AcDbLine
 10
32.0752501516
 20
144.9113139199
 30
0.0
 11
31.4598655362
 21
144.9113139199
 31
0.0
  0
LINE
  5
16A
330
1F
100
AcDbEntity
  8
0
  6
Continuous
 62
     7
370
    25
100
AcDbLine
 10
32.0752501516
 20
147.834390843
 30
0.0
 11
32.0752501516
 21
144.9113139199
 31
0.0
  0
LINE
  5
16B
330
1F
100
AcDbEntity
  8
0
  6
Continuous
 62
     7
370
    25
100
AcDbLine
 10
31.4598655362
 20
147.834390843
 30
0.0
 11
32.0752501516
 21
147.834390843
 31
0.0
  0
LINE
  5
16C
330
1F
100
AcDbEntity
  8
0
  6
Continuous
 62
     7
370
    25
100
AcDbLine
 10
31.4598655362
 20
147.2935254584
 30
0.0
 11
31.4598655362
 21
147.834390843
 31
0.0
  0
LINE
  5
16D
330
1F
100
AcDbEntity
  8
0
  6
Continuous
 62
     7
370
    25
100
AcDbLine
 10
33.8188398952
 20
152.5779805866
 30
0.0
 11
33.2034552798
 21
152.5779805866
 31
0.0
  0
LINE
  5
16E
330
1F
100
AcDbEntity
  8
0
  6
Continuous
 62
     7
370
    25
100
AcDbLine
 10
33.8188398952
 20
156.1677241763
 30
0.0
 11
33.8188398952
 21
152.5779805866
 31
0.0
  0
LINE
  5
16F
330
1F
100
AcDbEntity
  8
0
  6
Continuous
 62
     7
370
    25
100
AcDbLine
 10
35.2034552798
 20
156.1677241763
 30
0.0
 11
33.8188398952
 21
156.1677241763
 31
0.0
  0
LINE
  5
170
330
1F
100
AcDbEntity
  8
0
  6
Continuous
 62
     7
370
    25
100
AcDbLine
 10
35.2034552798
 20
156.5779805866
 30
0.0
 11
35.2034552798
 21
156.1677241763
 31
0.0
  0
LINE
  5
171
330
1F
100
AcDbEntity
  8
0
  6
Continuous
 62
     7
370
    25
100
AcDbLine
 10
31.8188398952
 20
156.5779805866
 30
0.0
 11
35.2034552798
 21
156.5779805866
 31
0.0
  0
LINE
  5
172
330
1F
100
AcDbEntity
  8
0
  6
Continuous
 62
     7
370
    25
100
AcDbLine
 10
31.8188398952
 20
156.1677241763
 30
0.0
 11
31.8188398952
 21
156.5779805866
 31
0.0
  0
LINE
  5
173
330
1F
100
AcDbEntity
  8
0
  6
Continuous
 62
     7
370
    25
100
AcDbLine
 10
33.2034552798
 20
156.1677241763
 30
0.0
 11
31.8188398952
 21
156.1677241763
 31
0.0
  0
LINE
  5
174
330
1F
100
AcDbEntity
  8
0
  6
Continuous
 62
     7
370
    25
100
AcDbLine
 10
33.2034552798
 20
152.5779805866
 30
0.0
 11
33.2034552798
 21
156.1677241763
 31
0.0
  0
LINE
  5
175
330
1F
100
AcDbEntity
  8
0
  6
Continuous
 62
     7
370
    25
100
AcDbLine
 10
27.7778142542
 20
155.1364741763
 30
0.0
 11
27.3923975875
 21
154.8856728943
 31
0.0
  0
LINE
  5
176
330
1F
100
AcDbEntity
  8
0
  6
Continuous
 62
     7
370
    25
100
AcDbLine
 10
23.7573014336
 20
156.6805446891
 30
0.0
 11
23.7573014336
 21
152.5779805866
 31
0.0
  0
LINE
  5
177
330
1F
100
AcDbEntity
  8
0
  6
Continuous
 62
     7
370
    25
100
AcDbLine
 10
23.1419168183
 20
156.6805446891
 30
0.0
 11
23.7573014336
 21
156.6805446891
 31
0.0
  0
LINE
  5
178
330
1F
100
AcDbEntity
  8
0
  6
Continuous
 62
     7
370
    25
100
AcDbLine
 10
23.1419168183
 20
152.5779805866
 30
0.0
 11
23.1419168183
 21
156.6805446891
 31
0.0
  0
LINE
  5
179
330
1F
100
AcDbEntity
  8
0
  6
Continuous
 62
     7
370
    25
100
AcDbLine
 10
23.7573014336
 20
152.5779805866
 30
0.0
 11
23.1419168183
 21
152.5779805866
 31
0.0
  0
LINE
  5
17A
330
1F
100
AcDbEntity
  8
0
  6
Continuous
 62
     7
370
    25
100
AcDbLine
 10
21.5829424593
 20
153.9625959712
 30
0.0
 11
17.4290963054
 21
153.9625959712
 31
0.0
  0
LINE
  5
17B
330
1F
100
AcDbEntity
  8
0
  6
Continuous
 62
     7
370
    25
100
AcDbLine
 10
20.8730065618
 20
153.5010575096
 30
0.0
 11
21.3778142542
 21
153.3335895609
 31
0.0
  0
LINE
  5
17C
330
1F
100
AcDbEntity
  8
0
  6
Continuous
 62
     7
370
    25
100
AcDbLine
 10
33.2201861257
 20
-20.0
 30
0.0
 11
103.2201861257
 21
-20.0
 31
0.0
  0
LINE
  5
17D
330
1F
100
AcDbEntity
  8
0
  6
Continuous
 62
     7
370
    25
100
AcDbLine
 10
103.2201861257
 20
-20.0
 30
0.0
 11
103.2201861257
 21
-16.7
 31
0.0
  0
LINE
  5
17E
330
1F
100
AcDbEntity
  8
0
  6
Continuous
 62
     7
370
    25
100
AcDbLine
 10
103.2201861257
 20
-16.7
 30
0.0
 11
33.2201861257
 21
-16.7
 31
0.0
  0
LINE
  5
17F
330
1F
100
AcDbEntity
  8
0
  6
Continuous
 62
     7
370
    25
100
AcDbLine
 10
33.2201861257
 20
-16.7
 30
0.0
 11
33.2201861257
 21
-20.0
 31
0.0
  0
LINE
  5
180
330
1F
100
AcDbEntity
  8
0
  6
Continuous
 62
     7
370
    25
100
AcDbLine
 10
68.8
 20
190.0
 30
0.0
 11
65.5
 21
190.0
 31
0.0
  0
LINE
  5
181
330
1F
100
AcDbEntity
  8
0
  6
Continuous
 62
     7
370
    25
100
AcDbLine
 10
65.5
 20
190.0
 30
0.0
 11
65.5
 21
184.0
 31
0.0
  0
LINE
  5
182
330
1F
100
AcDbEntity
  8
0
  6
Continuous
 62
     7
370
    25
100
AcDbLine
 10
65.5
 20
184.0
 30
0.0
 11
68.8
 21
184.0
 31
0.0
  0
LINE
  5
183
330
1F
100
AcDbEntity
  8
0
  6
Continuous
 62
     7
370
    25
100
AcDbLine
 10
68.8
 20
184.0
 30
0.0
 11
68.8
 21
190.0
 31
0.0
  0
LINE
  5
184
330
1F
100
AcDbEntity
  8
0
  6
Continuous
 62
     7
370
    25
100
AcDbLine
 10
78.8
 20
184.0
 30
0.0
 11
82.1
 21
184.0
 31
0.0
  0
LINE
  5
185
330
1F
100
AcDbEntity
  8
0
  6
Continuous
 62
     7
370
    25
100
AcDbLine
 10
82.1
 20
184.0
 30
0.0
 11
82.1
 21
190.0
 31
0.0
  0
LINE
  5
186
330
1F
100
AcDbEntity
  8
0
  6
Continuous
 62
     7
370
    25
100
AcDbLine
 10
82.1
 20
190.0
 30
0.0
 11
78.8
 21
190.0
 31
0.0
  0
LINE
  5
187
330
1F
100
AcDbEntity
  8
0
  6
Continuous
 62
     7
370
    25
100
AcDbLine
 10
78.8
 20
190.0
 30
0.0
 11
78.8
 21
184.0
 31
0.0
  0
LINE
  5
188
330
1F
100
AcDbEntity
  8
0
  6
Continuous
 62
     7
370
    25
100
AcDbLine
 10
82.1
 20
166.0
 30
0.0
 11
78.8
 21
166.0
 31
0.0
  0
LINE
  5
189
330
1F
100
AcDbEntity
  8
0
  6
Continuous
 62
     7
370
    25
100
AcDbLine
 10
78.8
 20
166.0
 30
0.0
 11
78.8
 21
160.0
 31
0.0
  0
LINE
  5
18A
330
1F
100
AcDbEntity
  8
0
  6
Continuous
 62
     7
370
    25
100
AcDbLine
 10
78.8
 20
160.0
 30
0.0
 11
82.1
 21
160.0
 31
0.0
  0
LINE
  5
18B
330
1F
100
AcDbEntity
  8
0
  6
Continuous
 62
     7
370
    25
100
AcDbLine
 10
82.1
 20
160.0
 30
0.0
 11
82.1
 21
166.0
 31
0.0
  0
LINE
  5
18C
330
1F
100
AcDbEntity
  8
0
  6
Continuous
 62
     7
370
    25
100
AcDbLine
 10
65.5
 20
160.0
 30
0.0
 11
68.8
 21
160.0
 31
0.0
  0
LINE
  5
18D
330
1F
100
AcDbEntity
  8
0
  6
Continuous
 62
     7
370
    25
100
AcDbLine
 10
68.8
 20
160.0
 30
0.0
 11
68.8
 21
166.0
 31
0.0
  0
LINE
  5
18E
330
1F
100
AcDbEntity
  8
0
  6
Continuous
 62
     7
370
    25
100
AcDbLine
 10
68.8
 20
166.0
 30
0.0
 11
65.5
 21
166.0
 31
0.0
  0
LINE
  5
18F
330
1F
100
AcDbEntity
  8
0
  6
Continuous
 62
     7
370
    25
100
AcDbLine
 10
65.5
 20
166.0
 30
0.0
 11
65.5
 21
160.0
 31
0.0
  0
LINE
  5
190
330
1F
100
AcDbEntity
  8
0
  6
Continuous
 62
     7
370
    25
100
AcDbLine
 10
135.0
 20
158.7878387082
 30
0.0
 11
120.0
 21
200.0
 31
0.0
  0
LINE
  5
191
330
1F
100
AcDbEntity
  8
0
  6
Continuous
 62
     7
370
    25
100
AcDbLine
 10
135.0
 20
-10.0
 30
0.0
 11
135.0
 21
158.7878387082
 31
0.0
  0
LINE
  5
192
330
1F
100
AcDbEntity
  8
0
  6
Continuous
 62
     7
370
    25
100
AcDbLine
 10
20.0
 20
-30.0
 30
0.0
 11
115.0
 21
-30.0
 31
0.0
  0
LINE
  5
193
330
1F
100
AcDbEntity
  8
0
  6
Continuous
 62
     7
370
    25
100
AcDbLine
 10
0.0
 20
158.7878387082
 30
0.0
 11
0.0
 21
-10.0
 31
0.0
  0
LINE
  5
194
330
1F
100
AcDbEntity
  8
0
  6
Continuous
 62
     7
370
    25
100
AcDbLine
 10
15.0
 20
200.0
 30
0.0
 11
0.0
 21
158.7878387082
 31
0.0
  0
LINE
  5
195
330
1F
100
AcDbEntity
  8
0
  6
Continuous
 62
     7
370
    25
100
AcDbLine
 10
120.0
 20
200.0
 30
0.0
 11
15.0
 21
200.0
 31
0.0
  0
LINE
  5
196
330
1F
100
AcDbEntity
  8
0
  6
Continuous
 62
     7
370
    25
100
AcDbLine
 10
10.5162757926
 20
155.5010575096
 30
0.0
 11
10.5162757926
 21
152.5779805866
 31
0.0
  0
LINE
  5
197
330
1F
100
AcDbEntity
  8
0
  6
Continuous
 62
     7
370
    25
100
AcDbLine
 10
9.9008911772
 20
155.5010575096
 30
0.0
 11
10.5162757926
 21
155.5010575096
 31
0.0
  0
LINE
  5
198
330
1F
100
AcDbEntity
  8
0
  6
Continuous
 62
     7
370
    25
100
AcDbLine
 10
9.9008911772
 20
152.5779805866
 30
0.0
 11
9.9008911772
 21
155.5010575096
 31
0.0
  0
LINE
  5
199
330
1F
100
AcDbEntity
  8
0
  6
Continuous
 62
     7
370
    25
100
AcDbLine
 10
10.5162757926
 20
152.5779805866
 30
0.0
 11
9.9008911772
 21
152.5779805866
 31
0.0
  0
LINE
  5
19A
330
1F
100
AcDbEntity
  8
0
  6
Continuous
 62
     7
370
    25
100
AcDbLine
 10
12.3717245106
 20
152.5779805866
 30
0.0
 11
11.6137116901
 21
152.5779805866
 31
0.0
  0
LINE
  5
19B
330
1F
100
AcDbEntity
  8
0
  6
Continuous
 62
     7
370
    25
100
AcDbLine
 10
13.7419168183
 20
153.7943267404
 30
0.0
 11
12.3717245106
 21
152.5779805866
 31
0.0
  0
LINE
  5
19C
330
1F
100
AcDbEntity
  8
0
  6
Continuous
 62
     7
370
    25
100
AcDbLine
 10
15.1121091259
 20
152.5779805866
 30
0.0
 11
13.7419168183
 21
153.7943267404
 31
0.0
  0
LINE
  5
19D
330
1F
100
AcDbEntity
  8
0
  6
Continuous
 62
     7
370
    25
100
AcDbLine
 10
15.8701219465
 20
152.5779805866
 30
0.0
 11
15.1121091259
 21
152.5779805866
 31
0.0
  0
LINE
  5
19E
330
1F
100
AcDbEntity
  8
0
  6
Continuous
 62
     7
370
    25
100
AcDbLine
 10
14.1209232285
 20
154.1300639199
 30
0.0
 11
15.8701219465
 21
152.5779805866
 31
0.0
  0
LINE
  5
19F
330
1F
100
AcDbEntity
  8
0
  6
Continuous
 62
     7
370
    25
100
AcDbLine
 10
15.6649937413
 20
155.5010575096
 30
0.0
 11
14.1209232285
 21
154.1300639199
 31
0.0
  0
LINE
  5
1A0
330
1F
100
AcDbEntity
  8
0
  6
Continuous
 62
     7
370
    25
100
AcDbLine
 10
14.9069809208
 20
155.5010575096
 30
0.0
 11
15.6649937413
 21
155.5010575096
 31
0.0
  0
LINE
  5
1A1
330
1F
100
AcDbEntity
  8
0
  6
Continuous
 62
     7
370
    25
100
AcDbLine
 10
13.7419168183
 20
154.4666023814
 30
0.0
 11
14.9069809208
 21
155.5010575096
 31
0.0
  0
LINE
  5
1A2
330
1F
100
AcDbEntity
  8
0
  6
Continuous
 62
     7
370
    25
100
AcDbLine
 10
12.5768527157
 20
155.5010575096
 30
0.0
 11
13.7419168183
 21
154.4666023814
 31
0.0
  0
LINE
  5
1A3
330
1F
100
AcDbEntity
  8
0
  6
Continuous
 62
     7
370
    25
100
AcDbLine
 10
11.8188398952
 20
155.5010575096
 30
0.0
 11
12.5768527157
 21
155.5010575096
 31
0.0
  0
LINE
  5
1A4
330
1F
100
AcDbEntity
  8
0
  6
Continuous
 62
     7
370
    25
100
AcDbLine
 10
13.362910408
 20
154.1300639199
 30
0.0
 11
11.8188398952
 21
155.5010575096
 31
0.0
  0
LINE
  5
1A5
330
1F
100
AcDbEntity
  8
0
  6
Continuous
 62
     7
370
    25
100
AcDbLine
 10
11.6137116901
 20
152.5779805866
 30
0.0
 11
13.362910408
 21
154.1300639199
 31
0.0
  0
LINE
  5
1A6
330
1F
100
AcDbEntity
  8
0
  6
Continuous
 62
     7
370
    25
100
AcDbLine
 10
41.2239681003
 20
153.9625959712
 30
0.0
 11
37.0701219465
 21
153.9625959712
 31
0.0
  0
LINE
  5
1A7
330
1F
100
AcDbEntity
  8
0
  6
Continuous
 62
     7
370
    25
100
AcDbLine
 10
40.5140322029
 20
153.5010575096
 30
0.0
 11
41.0188398952
 21
153.3335895609
 31
0.0
  0
LINE
  5
1A8
330
1F
100
AcDbEntity
  8
0
  6
Continuous
 62
     7
370
    25
100
AcDbLine
 10
41.3675578439
 20
149.0651600738
 30
0.0
 11
41.9829424593
 21
149.0651600738
 31
0.0
  0
LINE
  5
1A9
330
1F
100
AcDbEntity
  8
0
  6
Continuous
 62
     7
370
    25
100
AcDbLine
 10
41.8803783567
 20
143.7831087917
 30
0.0
 11
41.1624296388
 21
143.7831087917
 31
0.0
  0
LINE
  5
1AA
330
1F
100
AcDbEntity
  8
0
  6
Continuous
 62
     7
370
    25
100
AcDbLine
 10
37.5521732285
 20
147.475416484
 30
0.0
 11
37.5521732285
 21
147.834390843
 31
0.0
  0
LINE
  5
1AB
330
1F
100
AcDbEntity
  8
0
  6
Continuous
 62
     7
370
    25
100
AcDbLine
 10
38.372686049
 20
147.475416484
 30
0.0
 11
37.5521732285
 21
147.475416484
 31
0.0
  0
LINE
  5
1AC
330
1F
100
AcDbEntity
  8
0
  6
Continuous
 62
     7
370
    25
100
AcDbLine
 10
38.372686049
 20
144.9113139199
 30
0.0
 11
38.372686049
 21
147.475416484
 31
0.0
  0
LINE
  5
1AD
330
1F
100
AcDbEntity
  8
0
  6
Continuous
 62
     7
370
    25
100
AcDbLine
 10
38.9880706644
 20
144.9113139199
 30
0.0
 11
38.372686049
 21
144.9113139199
 31
0.0
  0
LINE
  5
1AE
330
1F
100
AcDbEntity
  8
0
  6
Continuous
 62
     7
370
    25
100
AcDbLine
 10
38.9880706644
 20
147.475416484
 30
0.0
 11
38.9880706644
 21
144.9113139199
 31
0.0
  0
LINE
  5
1AF
330
1F
100
AcDbEntity
  8
0
  6
Continuous
 62
     7
370
    25
100
AcDbLine
 10
39.9624296388
 20
147.475416484
 30
0.0
 11
38.9880706644
 21
147.475416484
 31
0.0
  0
LINE
  5
1B0
330
1F
100
AcDbEntity
  8
0
  6
Continuous
 62
     7
370
    25
100
AcDbLine
 10
39.9624296388
 20
147.834390843
 30
0.0
 11
39.9624296388
 21
147.475416484
 31
0.0
  0
LINE
  5
1B1
330
1F
100
AcDbEntity
  8
0
  6
Continuous
 62
     7
370
    25
100
AcDbLine
 10
38.9880706644
 20
147.834390843
 30
0.0
 11
39.9624296388
 21
147.834390843
 31
0.0
  0
LINE
  5
1B2
330
1F
100
AcDbEntity
  8
0
  6
Continuous
 62
     7
370
    25
100
AcDbLine
 10
38.9880706644
 20
149.0138780225
 30
0.0
 11
38.9880706644
 21
147.834390843
 31
0.0
  0
LINE
  5
1B3
330
1F
100
AcDbEntity
  8
0
  6
Continuous
 62
     7
370
    25
100
AcDbLine
 10
38.372686049
 20
149.0138780225
 30
0.0
 11
38.9880706644
 21
149.0138780225
 31
0.0
  0
LINE
  5
1B4
330
1F
100
AcDbEntity
  8
0
  6
Continuous
 62
     7
370
    25
100
AcDbLine
 10
38.372686049
 20
147.834390843
 30
0.0
 11
38.372686049
 21
149.0138780225
 31
0.0
  0
LINE
  5
1B5
330
1F
100
AcDbEntity
  8
0
  6
Continuous
 62
     7
370
    25
100
AcDbLine
 10
37.5521732285
 20
147.834390843
 30
0.0
 11
38.372686049
 21
147.834390843
 31
0.0
  0
LINE
  5
1B6
330
1F
100
AcDbEntity
  8
0
  6
Continuous
 62
     7
370
    25
100
AcDbLine
 10
33.4290963054
 20
145.255865202
 30
0.0
 11
33.8056988695
 21
145.5266985353
 31
0.0
  0
LINE
  5
1B7
330
1F
100
AcDbEntity
  8
0
  6
Continuous
 62
     7
370
    25
100
AcDbLine
 10
36.1470450234
 20
147.4698075096
 30
0.0
 11
35.7616283567
 21
147.2190062276
 31
0.0
  0
LINE
  5
1B8
330
1F
100
AcDbEntity
  8
0
  6
Continuous
 62
     7
370
    25
100
AcDbLine
 10
46.9880706644
 20
152.5779805866
 30
0.0
 11
46.9880706644
 21
153.0835895609
 31
0.0
  0
LINE
  5
1B9
330
1F
100
AcDbEntity
  8
0
  6
Continuous
 62
     7
370
    25
100
AcDbLine
 10
47.6034552798
 20
152.5779805866
 30
0.0
 11
46.9880706644
 21
152.5779805866
 31
0.0
  0
LINE
  5
1BA
330
1F
100
AcDbEntity
  8
0
  6
Continuous
 62
     7
370
    25
100
AcDbLine
 10
47.6034552798
 20
155.5010575096
 30
0.0
 11
47.6034552798
 21
152.5779805866
 31
0.0
  0
LINE
  5
1BB
330
1F
100
AcDbEntity
  8
0
  6
Continuous
 62
     7
370
    25
100
AcDbLine
 10
46.9880706644
 20
155.5010575096
 30
0.0
 11
47.6034552798
 21
155.5010575096
 31
0.0
  0
LINE
  5
1BC
330
1F
100
AcDbEntity
  8
0
  6
Continuous
 62
     7
370
    25
100
AcDbLine
 10
46.9880706644
 20
154.960192125
 30
0.0
 11
46.9880706644
 21
155.5010575096
 31
0.0
  0
LINE
  5
1BD
330
1F
100
AcDbEntity
  8
0
  6
Continuous
 62
     7
370
    25
100
AcDbLine
 10
8.87
 20
33.45
 30
0.0
 11
5.57
 21
33.45
 31
0.0
  0
LINE
  5
1BE
330
1F
100
AcDbEntity
  8
0
  6
Continuous
 62
     7
370
    25
100
AcDbLine
 10
5.57
 20
33.45
 30
0.0
 11
5.57
 21
17.95
 31
0.0
  0
LINE
  5
1BF
330
1F
100
AcDbEntity
  8
0
  6
Continuous
 62
     7
370
    25
100
AcDbLine
 10
5.57
 20
17.95
 30
0.0
 11
8.87
 21
17.95
 31
0.0
  0
LINE
  5
1C0
330
1F
100
AcDbEntity
  8
0
  6
Continuous
 62
     7
370
    25
100
AcDbLine
 10
8.87
 20
17.95
 30
0.0
 11
8.87
 21
33.45
 31
0.0
  0
LINE
  5
1C1
330
1F
100
AcDbEntity
  8
0
  6
Continuous
 62
     7
370
    25
100
AcDbLine
 10
126.13
 20
17.95
 30
0.0
 11
129.43
 21
17.95
 31
0.0
  0
LINE
  5
1C2
330
1F
100
AcDbEntity
  8
0
  6
Continuous
 62
     7
370
    25
100
AcDbLine
 10
129.43
 20
17.95
 30
0.0
 11
129.43
 21
33.45
 31
0.0
  0
LINE
  5
1C3
330
1F
100
AcDbEntity
  8
0
  6
Continuous
 62
     7
370
    25
100
AcDbLine
 10
129.43
 20
33.45
 30
0.0
 11
126.13
 21
33.45
 31
0.0
  0
LINE
  5
1C4
330
1F
100
AcDbEntity
  8
0
  6
Continuous
 62
     7
370
    25
100
AcDbLine
 10
126.13
 20
33.45
 30
0.0
 11
126.13
 21
17.95
 31
0.0
  0
LINE
  5
1C5
330
1F
100
AcDbEntity
  8
0
  6
Continuous
 62
     7
370
    25
100
AcDbLine
 10
25.0598655362
 20
152.9225318686
 30
0.0
 11
25.4364681003
 21
153.193365202
 31
0.0
  0
LINE
  5
1C6
330
1F
100
AcDbEntity
  8
0
  6
Continuous
 62
     7
370
    25
100
AcDbLine
 10
5.4548975875
 20
154.4241344327
 30
0.0
 11
5.0085834849
 21
154.4241344327
 31
0.0
  0
LINE
  5
1C7
330
1F
100
AcDbEntity
  8
0
  6
Continuous
 62
     7
370
    25
100
AcDbLine
 10
17.4891924593
 20
154.3215703302
 30
0.0
 11
20.9675578439
 21
154.3215703302
 31
0.0
  0
LINE
  5
1C8
330
1F
100
AcDbEntity
  8
0
  6
Continuous
 62
     7
370
    25
100
AcDbLine
 10
37.1302181003
 20
154.3215703302
 30
0.0
 11
40.6085834849
 21
154.3215703302
 31
0.0
  0
LINE
  5
1C9
330
1F
100
AcDbEntity
  8
0
  6
Continuous
 62
     7
370
    25
100
AcDbLine
 10
5.0085834849
 20
156.1677241763
 30
0.0
 11
5.0085834849
 21
154.834390843
 31
0.0
  0
LINE
  5
1CA
330
1F
100
AcDbEntity
  8
0
  6
Continuous
 62
     7
370
    25
100
AcDbLine
 10
5.0085834849
 20
154.834390843
 30
0.0
 11
6.0798975875
 21
154.8255767404
 31
0.0
  0
LINE
  5
1CB
330
1F
100
AcDbEntity
  8
0
  6
Continuous
 62
     7
370
    25
100
AcDbLine
 10
6.1271732285
 20
156.1677241763
 30
0.0
 11
5.0085834849
 21
156.1677241763
 31
0.0
  0
ARC
  5
1CC
330
1F
100
AcDbEntity
  8
0
  6
Continuous
 62
     7
370
    25
100
AcDbCircle
 10
115.0
 20
-10.0
 30
0.0
 40
19.99999999999999
100
AcDbArc
 50
270.0
 51
0.0
  0
ARC
  5
1CD
330
1F
100
AcDbEntity
  8
0
  6
Continuous
 62
     7
370
    25
100
AcDbCircle
 10
20.0
 20
-10.0
 30
0.0
 40
19.99999999999999
100
AcDbArc
 50
180.0
 51
270.0
  0
ENDSEC
  0
SECTION
  2
OBJECTS
  0
DICTIONARY
  5
C
330
0
100
AcDbDictionary
281
     1
  3
ACAD_GROUP
350
D
  3
ACAD_LAYOUT
350
1A
  3
ACAD_MLINESTYLE
350
17
  3
ACAD_PLOTSETTINGS
350
19
  3
ACAD_PLOTSTYLENAME
350
E
  3
ACAD_SCALELIST
350
47
  0
DICTIONARY
  5
D
102
{ACAD_REACTORS
330
C
102
}
330
C
100
AcDbDictionary
281
     1
  0
DICTIONARY
  5
1A
102
{ACAD_REACTORS
330
C
102
}
330
C
100
AcDbDictionary
281
     1
  3
Layout1
350
1E
  3
Layout2
350
26
  3
Model
350
22
  0
DICTIONARY
  5
17
102
{ACAD_REACTORS
330
C
102
}
330
C
100
AcDbDictionary
281
     1
  3
Standard
350
18
  0
DICTIONARY
  5
19
102
{ACAD_REACTORS
330
C
102
}
330
C
100
AcDbDictionary
281
     1
  0
ACDBDICTIONARYWDFLT
  5
E
102
{ACAD_REACTORS
330
C
102
}
330
C
100
AcDbDictionary
281
     1
  3
Normal
350
F
100
AcDbDictionaryWithDefault
340
F
  0
DICTIONARY
  5
47
102
{ACAD_REACTORS
330
C
102
}
330
C
100
AcDbDictionary
281
     1
  3
A0
350
48
  3
A1
350
49
  3
A2
350
4A
  3
A3
350
4B
  3
A4
350
4C
  3
A5
350
4D
  3
A6
350
4E
  3
A7
350
4F
  3
A8
350
50
  3
A9
350
51
  3
B0
350
52
  3
B1
350
53
  3
B2
350
54
  3
B3
350
55
  3
B4
350
56
  3
B5
350
57
  3
B6
350
58
  3
B7
350
59
  3
B8
350
5A
  3
B9
350
5B
  3
C0
350
5C
  3
C1
350
5D
  3
C2
350
5E
  3
C3
350
5F
  3
C4
350
60
  3
C5
350
61
  3
C6
350
62
  3
C7
350
63
  3
C8
350
64
  3
C9
350
65
  3
D0
350
66
  3
D1
350
67
  3
D2
350
68
  0
LAYOUT
  5
1E
102
{ACAD_REACTORS
330
1A
102
}
330
1A
100
AcDbPlotSettings
  1

  2
none_device
  4

  6

 40
0.0
 41
0.0
 42
0.0
 43
0.0
 44
0.0
 45
0.0
 46
0.0
 47
0.0
 48
0.0
 49
0.0
140
0.0
141
0.0
142
1.0
143
1.0
 70
   688
 72
     1
 73
     0
 74
     5
  7

 75
    16
147
1.0
148
0.0
149
0.0
100
AcDbLayout
  1
Layout1
 70
     1
 71
     1
 10
0.0
 20
0.0
 11
420.0
 21
297.0
 12
0.0
 22
0.0
 32
0.0
 14
1.0000000000E+20
 24
1.0000000000E+20
 34
1.0000000000E+20
 15
-1.0000000000E+20
 25
-1.0000000000E+20
 35
-1.0000000000E+20
146
0.0
 13
0.0
 23
0.0
 33
0.0
 16
1.0
 26
0.0
 36
0.0
 17
0.0
 27
1.0
 37
0.0
 76
     0
330
1B
  0
LAYOUT
  5
26
102
{ACAD_REACTORS
330
1A
102
}
330
1A
100
AcDbPlotSettings
  1

  2
none_device
  4

  6

 40
0.0
 41
0.0
 42
0.0
 43
0.0
 44
0.0
 45
0.0
 46
0.0
 47
0.0
 48
0.0
 49
0.0
140
0.0
141
0.0
142
1.0
143
1.0
 70
   688
 72
     1
 73
     0
 74
     5
  7

 75
    16
147
1.0
148
0.0
149
0.0
100
AcDbLayout
  1
Layout2
 70
     1
 71
     2
 10
0.0
 20
0.0
 11
0.0
 21
0.0
 12
0.0
 22
0.0
 32
0.0
 14
0.0
 24
0.0
 34
0.0
 15
0.0
 25
0.0
 35
0.0
146
0.0
 13
0.0
 23
0.0
 33
0.0
 16
1.0
 26
0.0
 36
0.0
 17
0.0
 27
1.0
 37
0.0
 76
     0
330
23
  0
LAYOUT
  5
22
102
{ACAD_REACTORS
330
1A
102
}
330
1A
100
AcDbPlotSettings
  1

  2
none_device
  4
ANSI_A_(11.00_x_8.50_Inches)
  6

 40
6.35
 41
19.05
 42
6.35000508
 43
19.05000254
 44
279.4
 45
215.9
 46
70.6216605035
 47
9.9087595996
 48
0.0
 49
0.0
140
0.0
141
0.0
142
0.0365869565
143
1.0
 70
  1696
 72
     0
 73
     0
 74
     0
  7

 75
     0
147
0.0179189148
148
-1300.4909072572
149
0.0
100
AcDbLayout
  1
Model
 70
     1
 71
     0
 10
0.0
 20
0.0
 11
420.0
 21
297.0
 12
0.0
 22
0.0
 32
0.0
 14
0.0
 24
-30.0
 34
0.0
 15
135.0
 25
200.0
 35
0.0
146
0.0
 13
0.0
 23
0.0
 33
0.0
 16
1.0
 26
0.0
 36
0.0
 17
0.0
 27
1.0
 37
0.0
 76
     0
330
1F
331
29
  0
MLINESTYLE
  5
18
102
{ACAD_REACTORS
330
17
102
}
330
17
100
AcDbMlineStyle
  2
Standard
 70
     0
  3

 62
   256
 51
90.0
 52
90.0
 71
     2
 49
0.5
 62
   256
  6
BYLAYER
 49
-0.5
 62
   256
  6
BYLAYER
  0
ACDBPLACEHOLDER
  5
F
102
{ACAD_REACTORS
330
E
102
}
330
E
  0
SCALE
  5
48
102
{ACAD_REACTORS
330
47
102
}
330
47
100
AcDbScale
 70
     0
300
1:1
140
1.0
141
1.0
290
     1
  0
SCALE
  5
49
102
{ACAD_REACTORS
330
47
102
}
330
47
100
AcDbScale
 70
     0
300
1:2
140
1.0
141
2.0
290
     0
  0
SCALE
  5
4A
102
{ACAD_REACTORS
330
47
102
}
330
47
100
AcDbScale
 70
     0
300
1:4
140
1.0
141
4.0
290
     0
  0
SCALE
  5
4B
102
{ACAD_REACTORS
330
47
102
}
330
47
100
AcDbScale
 70
     0
300
1:5
140
1.0
141
5.0
290
     0
  0
SCALE
  5
4C
102
{ACAD_REACTORS
330
47
102
}
330
47
100
AcDbScale
 70
     0
300
1:8
140
1.0
141
8.0
290
     0
  0
SCALE
  5
4D
102
{ACAD_REACTORS
330
47
102
}
330
47
100
AcDbScale
 70
     0
300
1:10
140
1.0
141
10.0
290
     0
  0
SCALE
  5
4E
102
{ACAD_REACTORS
330
47
102
}
330
47
100
AcDbScale
 70
     0
300
1:16
140
1.0
141
16.0
290
     0
  0
SCALE
  5
4F
102
{ACAD_REACTORS
330
47
102
}
330
47
100
AcDbScale
 70
     0
300
1:20
140
1.0
141
20.0
290
     0
  0
SCALE
  5
50
102
{ACAD_REACTORS
330
47
102
}
330
47
100
AcDbScale
 70
     0
300
1:30
140
1.0
141
30.0
290
     0
  0
SCALE
  5
51
102
{ACAD_REACTORS
330
47
102
}
330
47
100
AcDbScale
 70
     0
300
1:40
140
1.0
141
40.0
290
     0
  0
SCALE
  5
52
102
{ACAD_REACTORS
330
47
102
}
330
47
100
AcDbScale
 70
     0
300
1:50
140
1.0
141
50.0
290
     0
  0
SCALE
  5
53
102
{ACAD_REACTORS
330
47
102
}
330
47
100
AcDbScale
 70
     0
300
1:100
140
1.0
141
100.0
290
     0
  0
SCALE
  5
54
102
{ACAD_REACTORS
330
47
102
}
330
47
100
AcDbScale
 70
     0
300
2:1
140
2.0
141
1.0
290
     0
  0
SCALE
  5
55
102
{ACAD_REACTORS
330
47
102
}
330
47
100
AcDbScale
 70
     0
300
4:1
140
4.0
141
1.0
290
     0
  0
SCALE
  5
56
102
{ACAD_REACTORS
330
47
102
}
330
47
100
AcDbScale
 70
     0
300
8:1
140
8.0
141
1.0
290
     0
  0
SCALE
  5
57
102
{ACAD_REACTORS
330
47
102
}
330
47
100
AcDbScale
 70
     0
300
10:1
140
10.0
141
1.0
290
     0
  0
SCALE
  5
58
102
{ACAD_REACTORS
330
47
102
}
330
47
100
AcDbScale
 70
     0
300
100:1
140
100.0
141
1.0
290
     0
  0
SCALE
  5
59
102
{ACAD_REACTORS
330
47
102
}
330
47
100
AcDbScale
 70
     0
300
1/128" = 1'-0"
140
0.0078125
141
12.0
290
     0
  0
SCALE
  5
5A
102
{ACAD_REACTORS
330
47
102
}
330
47
100
AcDbScale
 70
     0
300
1/64" = 1'-0"
140
0.015625
141
12.0
290
     0
  0
SCALE
  5
5B
102
{ACAD_REACTORS
330
47
102
}
330
47
100
AcDbScale
 70
     0
300
1/32" = 1'-0"
140
0.03125
141
12.0
290
     0
  0
SCALE
  5
5C
102
{ACAD_REACTORS
330
47
102
}
330
47
100
AcDbScale
 70
     0
300
1/16" = 1'-0"
140
0.0625
141
12.0
290
     0
  0
SCALE
  5
5D
102
{ACAD_REACTORS
330
47
102
}
330
47
100
AcDbScale
 70
     0
300
3/32" = 1'-0"
140
0.09375
141
12.0
290
     0
  0
SCALE
  5
5E
102
{ACAD_REACTORS
330
47
102
}
330
47
100
AcDbScale
 70
     0
300
1/8" = 1'-0"
140
0.125
141
12.0
290
     0
  0
SCALE
  5
5F
102
{ACAD_REACTORS
330
47
102
}
330
47
100
AcDbScale
 70
     0
300
3/16" = 1'-0"
140
0.1875
141
12.0
290
     0
  0
SCALE
  5
60
102
{ACAD_REACTORS
330
47
102
}
330
47
100
AcDbScale
 70
     0
300
1/4" = 1'-0"
140
0.25
141
12.0
290
     0
  0
SCALE
  5
61
102
{ACAD_REACTORS
330
47
102
}
330
47
100
AcDbScale
 70
     0
300
3/8" = 1'-0"
140
0.375
141
12.0
290
     0
  0
SCALE
  5
62
102
{ACAD_REACTORS
330
47
102
}
330
47
100
AcDbScale
 70
     0
300
1/2" = 1'-0"
140
0.5
141
12.0
290
     0
  0
SCALE
  5
63
102
{ACAD_REACTORS
330
47
102
}
330
47
100
AcDbScale
 70
     0
300
3/4" = 1'-0"
140
0.75
141
12.0
290
     0
  0
SCALE
  5
64
102
{ACAD_REACTORS
330
47
102
}
330
47
100
AcDbScale
 70
     0
300
1" = 1'-0"
140
1.0
141
12.0
290
     0
  0
SCALE
  5
65
102
{ACAD_REACTORS
330
47
102
}
330
47
100
AcDbScale
 70
     0
300
1-1/2" = 1'-0"
140
1.5
141
12.0
290
     0
  0
SCALE
  5
66
102
{ACAD_REACTORS
330
47
102
}
330
47
100
AcDbScale
 70
     0
300
3" = 1'-0"
140
3.0
141
12.0
290
     0
  0
SCALE
  5
67
102
{ACAD_REACTORS
330
47
102
}
330
47
100
AcDbScale
 70
     0
300
6" = 1'-0"
140
6.0
141
12.0
290
     0
  0
SCALE
  5
68
102
{ACAD_REACTORS
330
47
102
}
330
47
100
AcDbScale
 70
     0
300
1'-0" = 1'-0"
140
12.0
141
12.0
290
     0
  0
ENDSEC
  0
EOF
