  0
SECTION
  2
HEADER
  9
$ACADVER
  1
AC1015
  9
$ACADMAINTVER
 70
     6
  9
$DWGCODEPAGE
  3
ANSI_1252
  9
$INSBASE
 10
0.0
 20
0.0
 30
0.0
  9
$EXTMIN
 10
-30.0
 20
-135.0
 30
0.0
  9
$EXTMAX
 10
200.0
 20
0.0
 30
0.0
  9
$LIMMIN
 10
0.0
 20
0.0
  9
$LIMMAX
 10
420.0
 20
297.0
  9
$ORTHOMODE
 70
     0
  9
$REGENMODE
 70
     1
  9
$FILLMODE
 70
     1
  9
$QTEXTMODE
 70
     0
  9
$MIRRTEXT
 70
     1
  9
$LTSCALE
 40
1.0
  9
$ATTMODE
 70
     1
  9
$TEXTSIZE
 40
3.5
  9
$TRACEWID
 40
1.0
  9
$TEXTSTYLE
  7
Standard
  9
$CLAYER
  8
0
  9
$CELTYPE
  6
ByLayer
  9
$CECOLOR
 62
   256
  9
$CELTSCALE
 40
1.0
  9
$DISPSILH
 70
     0
  9
$DIMSCALE
 40
1.0
  9
$DIMASZ
 40
3.302
  9
$DIMEXO
 40
1.0
  9
$DIMDLI
 40
3.75
  9
$DIMRND
 40
0.0
  9
$DIMDLE
 40
0.0
  9
$DIMEXE
 40
1.0
  9
$DIMTP
 40
0.0
  9
$DIMTM
 40
0.0
  9
$DIMTXT
 40
3.5
  9
$DIMCEN
 40
2.5
  9
$DIMTSZ
 40
0.0
  9
$DIMTOL
 70
     0
  9
$DIMLIM
 70
     0
  9
$DIMTIH
 70
     1
  9
$DIMTOH
 70
     1
  9
$DIMSE1
 70
     0
  9
$DIMSE2
 70
     0
  9
$DIMTAD
 70
     1
  9
$DIMZIN
 70
     0
  9
$DIMBLK
  1

  9
$DIMASO
 70
     1
  9
$DIMSHO
 70
     1
  9
$DIMPOST
  1

  9
$DIMAPOST
  1

  9
$DIMALT
 70
     0
  9
$DIMALTD
 70
     3
  9
$DIMALTF
 40
0.0393700787
  9
$DIMLFAC
 40
1.0
  9
$DIMTOFL
 70
     1
  9
$DIMTVP
 40
0.0
  9
$DIMTIX
 70
     0
  9
$DIMSOXD
 70
     0
  9
$DIMSAH
 70
     0
  9
$DIMBLK1
  1

  9
$DIMBLK2
  1

  9
$DIMSTYLE
  2
ISO-25
  9
$DIMCLRD
 70
     0
  9
$DIMCLRE
 70
     0
  9
$DIMCLRT
 70
     0
  9
$DIMTFAC
 40
1.0
  9
$DIMGAP
 40
1.524
  9
$DIMJUST
 70
     0
  9
$DIMSD1
 70
     0
  9
$DIMSD2
 70
     0
  9
$DIMTOLJ
 70
     0
  9
$DIMTZIN
 70
     0
  9
$DIMALTZ
 70
     0
  9
$DIMALTTZ
 70
     0
  9
$DIMUPT
 70
     0
  9
$DIMDEC
 70
     2
  9
$DIMTDEC
 70
     2
  9
$DIMALTU
 70
     2
  9
$DIMALTTD
 70
     3
  9
$DIMTXSTY
  7
Standard
  9
$DIMAUNIT
 70
     0
  9
$DIMADEC
 70
     2
  9
$DIMALTRND
 40
0.0
  9
$DIMAZIN
 70
     0
  9
$DIMDSEP
 70
    44
  9
$DIMATFIT
 70
     3
  9
$DIMFRAC
 70
     0
  9
$DIMLDRBLK
  1

  9
$DIMLUNIT
 70
     2
  9
$DIMLWD
 70
    -2
  9
$DIMLWE
 70
    -2
  9
$DIMTMOVE
 70
     0
  9
$LUNITS
 70
     2
  9
$LUPREC
 70
     2
  9
$SKETCHINC
 40
1.0
  9
$FILLETRAD
 40
10.0
  9
$AUNITS
 70
     0
  9
$AUPREC
 70
     2
  9
$MENU
  1
.
  9
$ELEVATION
 40
0.0
  9
$PELEVATION
 40
0.0
  9
$THICKNESS
 40
0.0
  9
$LIMCHECK
 70
     0
  9
$CHAMFERA
 40
0.0
  9
$CHAMFERB
 40
0.0
  9
$CHAMFERC
 40
0.0
  9
$CHAMFERD
 40
0.0
  9
$SKPOLY
 70
     0
  9
$TDCREATE
 40
2459395.854367535
  9
$TDUCREATE
 40
2459395.771034202
  9
$TDUPDATE
 40
2459395.854398356
  9
$TDUUPDATE
 40
2459395.771065023
  9
$TDINDWG
 40
0.0000000116
  9
$TDUSRTIMER
 40
0.0000000116
  9
$USRTIMER
 70
     1
  9
$ANGBASE
 50
0.0
  9
$ANGDIR
 70
     0
  9
$PDMODE
 70
     0
  9
$PDSIZE
 40
-1.0
  9
$PLINEWID
 40
0.0
  9
$SPLFRAME
 70
     0
  9
$SPLINETYPE
 70
     6
  9
$SPLINESEGS
 70
     8
  9
$HANDSEED
  5
1DE
  9
$SURFTAB1
 70
     6
  9
$SURFTAB2
 70
     6
  9
$SURFTYPE
 70
     6
  9
$SURFU
 70
     6
  9
$SURFV
 70
     6
  9
$UCSBASE
  2

  9
$UCSNAME
  2

  9
$UCSORG
 10
0.0
 20
0.0
 30
0.0
  9
$UCSXDIR
 10
1.0
 20
0.0
 30
0.0
  9
$UCSYDIR
 10
0.0
 20
1.0
 30
0.0
  9
$UCSORTHOREF
  2

  9
$UCSORTHOVIEW
 70
     0
  9
$UCSORGTOP
 10
0.0
 20
0.0
 30
0.0
  9
$UCSORGBOTTOM
 10
0.0
 20
0.0
 30
0.0
  9
$UCSORGLEFT
 10
0.0
 20
0.0
 30
0.0
  9
$UCSORGRIGHT
 10
0.0
 20
0.0
 30
0.0
  9
$UCSORGFRONT
 10
0.0
 20
0.0
 30
0.0
  9
$UCSORGBACK
 10
0.0
 20
0.0
 30
0.0
  9
$PUCSBASE
  2

  9
$PUCSNAME
  2

  9
$PUCSORG
 10
0.0
 20
0.0
 30
0.0
  9
$PUCSXDIR
 10
1.0
 20
0.0
 30
0.0
  9
$PUCSYDIR
 10
0.0
 20
1.0
 30
0.0
  9
$PUCSORTHOREF
  2

  9
$PUCSORTHOVIEW
 70
     0
  9
$PUCSORGTOP
 10
0.0
 20
0.0
 30
0.0
  9
$PUCSORGBOTTOM
 10
0.0
 20
0.0
 30
0.0
  9
$PUCSORGLEFT
 10
0.0
 20
0.0
 30
0.0
  9
$PUCSORGRIGHT
 10
0.0
 20
0.0
 30
0.0
  9
$PUCSORGFRONT
 10
0.0
 20
0.0
 30
0.0
  9
$PUCSORGBACK
 10
0.0
 20
0.0
 30
0.0
  9
$USERI1
 70
     0
  9
$USERI2
 70
     0
  9
$USERI3
 70
     0
  9
$USERI4
 70
     0
  9
$USERI5
 70
     0
  9
$USERR1
 40
0.0
  9
$USERR2
 40
0.0
  9
$USERR3
 40
0.0
  9
$USERR4
 40
0.0
  9
$USERR5
 40
0.0
  9
$WORLDVIEW
 70
     1
  9
$SHADEDGE
 70
     3
  9
$SHADEDIF
 70
    70
  9
$TILEMODE
 70
     1
  9
$MAXACTVP
 70
    64
  9
$PINSBASE
 10
0.0
 20
0.0
 30
0.0
  9
$PLIMCHECK
 70
     0
  9
$PEXTMIN
 10
1.0000000000E+20
 20
1.0000000000E+20
 30
1.0000000000E+20
  9
$PEXTMAX
 10
-1.0000000000E+20
 20
-1.0000000000E+20
 30
-1.0000000000E+20
  9
$PLIMMIN
 10
0.0
 20
0.0
  9
$PLIMMAX
 10
420.0
 20
297.0
  9
$UNITMODE
 70
     0
  9
$VISRETAIN
 70
     1
  9
$PLINEGEN
 70
     0
  9
$PSLTSCALE
 70
     1
  9
$TREEDEPTH
 70
  3020
  9
$CMLSTYLE
  2
Standard
  9
$CMLJUST
 70
     0
  9
$CMLSCALE
 40
20.0
  9
$PROXYGRAPHICS
 70
     1
  9
$MEASUREMENT
 70
     1
  9
$CELWEIGHT
370
    -1
  9
$ENDCAPS
280
     0
  9
$JOINSTYLE
280
     0
  9
$LWDISPLAY
290
     1
  9
$INSUNITS
 70
     4
  9
$HYPERLINKBASE
  1

  9
$STYLESHEET
  1

  9
$XEDIT
290
     1
  9
$CEPSNTYPE
380
     0
  9
$PSTYLEMODE
290
     1
  9
$FINGERPRINTGUID
  2
{5785B231-75E2-414E-A8ED-90108AFF9B17}
  9
$VERSIONGUID
  2
{FAEB1C32-E019-11D5-929B-00C0DF256EC4}
  9
$EXTNAMES
290
     1
  9
$PSVPSCALE
 40
0.0
  9
$OLESTARTUP
290
     0
  0
ENDSEC
  0
SECTION
  2
CLASSES
  0
CLASS
  1
ACDBDICTIONARYWDFLT
  2
AcDbDictionaryWithDefault
  3
ObjectDBX Classes
 90
        0
280
     0
281
     0
  0
CLASS
  1
VISUALSTYLE
  2
AcDbVisualStyle
  3
ObjectDBX Classes
 90
     4095
280
     0
281
     0
  0
CLASS
  1
MATERIAL
  2
AcDbMaterial
  3
ObjectDBX Classes
 90
     1153
280
     0
281
     0
  0
CLASS
  1
SCALE
  2
AcDbScale
  3
ObjectDBX Classes
 90
     1153
280
     0
281
     0
  0
CLASS
  1
TABLESTYLE
  2
AcDbTableStyle
  3
ObjectDBX Classes
 90
     4095
280
     0
281
     0
  0
CLASS
  1
MLEADERSTYLE
  2
AcDbMLeaderStyle
  3
ACDB_MLEADERSTYLE_CLASS
 90
     4095
280
     0
281
     0
  0
CLASS
  1
SUN
  2
AcDbSun
  3
SCENEOE
 90
     1153
280
     0
281
     0
  0
CLASS
  1
ACDBPLACEHOLDER
  2
AcDbPlaceHolder
  3
ObjectDBX Classes
 90
        0
280
     0
281
     0
  0
CLASS
  1
LAYOUT
  2
AcDbLayout
  3
ObjectDBX Classes
 90
        0
280
     0
281
     0
  0
ENDSEC
  0
SECTION
  2
TABLES
  0
TABLE
  2
VPORT
  5
8
330
0
100
AcDbSymbolTable
 70
     1
  0
VPORT
  5
29
330
8
100
AcDbSymbolTableRecord
100
AcDbViewportTableRecord
  2
*Active
 70
     0
 10
0.0
 20
0.0
 11
1.0
 21
1.0
 12
85.0
 22
-67.5
 13
0.0
 23
0.0
 14
10.0
 24
10.0
 15
10.0
 25
10.0
 16
0.0
 26
0.0
 36
1.0
 17
0.0
 27
0.0
 37
0.0
 40
137.7
 41
1.7037037037
 42
50.0
 43
0.0
 44
0.0
 50
0.0
 51
0.0
 71
     0
 72
   100
 73
     1
 74
     3
 75
     0
 76
     0
 77
     0
 78
     0
281
     0
 65
     1
110
0.0
120
0.0
130
0.0
111
1.0
121
0.0
131
0.0
112
0.0
122
1.0
132
0.0
 79
     0
146
0.0
  0
ENDTAB
  0
TABLE
  2
LTYPE
  5
5
330
0
100
AcDbSymbolTable
 70
     6
  0
LTYPE
  5
14
330
5
100
AcDbSymbolTableRecord
100
AcDbLinetypeTableRecord
  2
ByBlock
 70
     0
  3

 72
    65
 73
     0
 40
0.0
  0
LTYPE
  5
15
330
5
100
AcDbSymbolTableRecord
100
AcDbLinetypeTableRecord
  2
ByLayer
 70
     0
  3

 72
    65
 73
     0
 40
0.0
  0
LTYPE
  5
16
330
5
100
AcDbSymbolTableRecord
100
AcDbLinetypeTableRecord
  2
Continuous
 70
     0
  3
Solid line
 72
    65
 73
     0
 40
0.0
  0
LTYPE
  5
6E
330
5
100
AcDbSymbolTableRecord
100
AcDbLinetypeTableRecord
  2
HIDDEN
 70
     0
  3
Hidden __ __ __ __ __ __ __ __ __ __ __ __ __ __
 72
    65
 73
     2
 40
1.905
 49
1.27
 74
     0
 49
-0.635
 74
     0
  0
LTYPE
  5
6F
330
5
100
AcDbSymbolTableRecord
100
AcDbLinetypeTableRecord
  2
PHANTOM
 70
     0
  3
Phantom ______  __  __  ______  __  __  ______
 72
    65
 73
     6
 40
12.7
 49
6.35
 74
     0
 49
-1.27
 74
     0
 49
1.27
 74
     0
 49
-1.27
 74
     0
 49
1.27
 74
     0
 49
-1.27
 74
     0
  0
LTYPE
  5
70
330
5
100
AcDbSymbolTableRecord
100
AcDbLinetypeTableRecord
  2
CENTER
 70
     0
  3
Center ____ _ ____ _ ____ _ ____ _ ____ _ ____
 72
    65
 73
     4
 40
10.16
 49
6.35
 74
     0
 49
-1.27
 74
     0
 49
1.27
 74
     0
 49
-1.27
 74
     0
  0
LTYPE
  5
71
330
5
100
AcDbSymbolTableRecord
100
AcDbLinetypeTableRecord
  2
CENTERX2
 70
     0
  3
Center (2x) ________  __  ________  __  _____
 72
    65
 73
     4
 40
20.32
 49
12.7
 74
     0
 49
-2.54
 74
     0
 49
2.54
 74
     0
 49
-2.54
 74
     0
  0
LTYPE
  5
72
330
5
100
AcDbSymbolTableRecord
100
AcDbLinetypeTableRecord
  2
DOT2
 70
     0
  3
Dot (.5x) ........................................
 72
    65
 73
     2
 40
0.635
 49
0.0
 74
     0
 49
-0.635
 74
     0
  0
ENDTAB
  0
TABLE
  2
LAYER
  5
2
330
0
100
AcDbSymbolTable
 70
     1
  0
LAYER
  5
10
330
2
100
AcDbSymbolTableRecord
100
AcDbLayerTableRecord
  2
0
 70
     0
 62
     7
  6
Continuous
370
    -3
390
F
  0
ENDTAB
  0
TABLE
  2
STYLE
  5
3
330
0
100
AcDbSymbolTable
 70
     1
  0
STYLE
  5
11
330
3
100
AcDbSymbolTableRecord
100
AcDbTextStyleTableRecord
  2
Standard
 70
     0
 40
0.0
 41
1.0
 50
0.0
 71
     0
 42
3.5
  3
txt
  4

  0
ENDTAB
  0
TABLE
  2
VIEW
  5
6
330
0
100
AcDbSymbolTable
 70
     0
  0
ENDTAB
  0
TABLE
  2
UCS
  5
7
330
0
100
AcDbSymbolTable
 70
     0
  0
ENDTAB
  0
TABLE
  2
APPID
  5
9
330
0
100
AcDbSymbolTable
 70
     1
  0
APPID
  5
12
330
9
100
AcDbSymbolTableRecord
100
AcDbRegAppTableRecord
  2
ACAD
 70
     0
  0
ENDTAB
  0
TABLE
  2
DIMSTYLE
  5
A
330
0
100
AcDbSymbolTable
 70
     1
100
AcDbDimStyleTable
  0
DIMSTYLE
105
27
330
A
100
AcDbSymbolTableRecord
100
AcDbDimStyleTableRecord
  2
ISO-25
 70
     0
 41
2.5
 42
0.625
 43
3.75
 44
1.25
 73
     0
 74
     0
 77
     1
 78
     8
140
2.5
141
2.5
143
0.0393700787
147
0.625
171
     3
172
     1
178
     0
271
     2
272
     2
274
     3
278
    44
283
     0
284
     8
340
11
  0
ENDTAB
  0
TABLE
  2
BLOCK_RECORD
  5
1
330
0
100
AcDbSymbolTable
 70
     1
  0
BLOCK_RECORD
  5
1F
330
1
100
AcDbSymbolTableRecord
100
AcDbBlockTableRecord
  2
*Model_Space
340
22
  0
BLOCK_RECORD
  5
1B
330
1
100
AcDbSymbolTableRecord
100
AcDbBlockTableRecord
  2
*Paper_Space
340
1E
  0
BLOCK_RECORD
  5
23
330
1
100
AcDbSymbolTableRecord
100
AcDbBlockTableRecord
  2
*Paper_Space0
340
26
  0
ENDTAB
  0
ENDSEC
  0
SECTION
  2
BLOCKS
  0
BLOCK
  5
20
330
1F
100
AcDbEntity
  8
0
100
AcDbBlockBegin
  2
*Model_Space
 70
     0
 10
0.0
 20
0.0
 30
0.0
  3
*Model_Space
  1

  0
ENDBLK
  5
21
330
1F
100
AcDbEntity
  8
0
100
AcDbBlockEnd
  0
BLOCK
  5
1C
330
1B
100
AcDbEntity
 67
     1
  8
0
100
AcDbBlockBegin
  2
*Paper_Space
 70
     0
 10
0.0
 20
0.0
 30
0.0
  3
*Paper_Space
  1

  0
ENDBLK
  5
1D
330
1B
100
AcDbEntity
 67
     1
  8
0
100
AcDbBlockEnd
  0
BLOCK
  5
24
330
23
100
AcDbEntity
  8
0
100
AcDbBlockBegin
  2
*Paper_Space0
 70
     0
 10
0.0
 20
0.0
 30
0.0
  3
*Paper_Space0
  1

  0
ENDBLK
  5
25
330
23
100
AcDbEntity
  8
0
100
AcDbBlockEnd
  0
ENDSEC
  0
SECTION
  2
ENTITIES
  0
SPLINE
  5
73
330
1F
100
AcDbEntity
  8
0
  6
Continuous
 62
     7
370
    25
100
AcDbSpline
210
0.0
220
0.0
230
1.0
 70
     8
 71
     3
 72
    23
 73
    19
 74
     0
 42
0.000000001
 43
0.00000001
 40
0.0
 40
0.0
 40
0.0
 40
0.0
 40
0.082374904846719
 40
0.1588937519498781
 40
0.2295611577607283
 40
0.2952585695353506
 40
0.3547686298748277
 40
0.408931908423617
 40
0.4575040961802273
 40
0.5008596591041772
 40
0.5789142921497314
 40
0.6510413090908781
 40
0.7181445776838593
 40
0.7814848626411922
 40
0.8410275629404346
 40
0.8955175944265955
 40
0.9480182937828269
 40
1.0
 40
1.0
 40
1.0
 40
1.0
 10
154.8255767404172
 20
-6.079897587484603
 30
0.0
 10
154.8255584769553
 20
-6.132252059177973
 30
0.0
 10
154.8255232483866
 20
-6.233239106801181
 30
0.0
 10
154.8300741324321
 20
-6.379074548065931
 30
0.0
 10
154.8353341854118
 20
-6.514263511953764
 30
0.0
 10
154.8430430899519
 20
-6.638533313283422
 30
0.0
 10
154.8538469424751
 20
-6.752013900875799
 30
0.0
 10
154.8649415822624
 20
-6.854565087285048
 30
0.0
 10
154.8806523775881
 20
-6.946104204833659
 30
0.0
 10
154.901933529868
 20
-7.052055219974853
 30
0.0
 10
154.9374650488075
 20
-7.170075651999543
 30
0.0
 10
154.9902542086588
 20
-7.2980567860252
 30
0.0
 10
155.0566681908065
 20
-7.408876240776616
 30
0.0
 10
155.1324430852123
 20
-7.503398041443315
 30
0.0
 10
155.2168584776273
 20
-7.579079109452741
 30
0.0
 10
155.3076149285529
 20
-7.634387611290351
 30
0.0
 10
155.4037217092554
 20
-7.66961377808096
 30
0.0
 10
155.4703250861126
 20
-7.673377592388911
 30
0.0
 10
155.5034613558019
 20
-7.675250151587161
 30
0.0
  0
SPLINE
  5
77
330
1F
100
AcDbEntity
  8
0
  6
Continuous
 62
     7
370
    25
100
AcDbSpline
210
0.0
220
0.0
230
1.0
 70
     8
 71
     3
 72
    23
 73
    19
 74
     0
 42
0.000000001
 43
0.00000001
 40
0.0
 40
0.0
 40
0.0
 40
0.0
 40
0.052175451315529
 40
0.1053582573896704
 40
0.1610334138664594
 40
0.2219522922180677
 40
0.2867648491976834
 40
0.3534852555933897
 40
0.4247200604434284
 40
0.5000746220041
 40
0.5420400853110082
 40
0.5897952376286719
 40
0.6433578944582293
 40
0.7028051150062443
 40
0.7682202988243267
 40
0.839176513125248
 40
0.9165714911625414
 40
0.9999999999999999
 40
0.9999999999999999
 40
0.9999999999999999
 40
0.9999999999999999
 10
155.5034613558019
 20
-7.675250151587161
 30
0.0
 10
155.5358024340315
 20
-7.673358692300396
 30
0.0
 10
155.601109001746
 20
-7.669539255202057
 30
0.0
 10
155.695507610731
 20
-7.634145862751164
 30
0.0
 10
155.7853435660421
 20
-7.579105065092774
 30
0.0
 10
155.868614660391
 20
-7.503166798583615
 30
0.0
 10
155.9439950741253
 20
-7.410723671732546
 30
0.0
 10
156.0088991186942
 20
-7.303075902911911
 30
0.0
 10
156.061377359774
 20
-7.181793161659344
 30
0.0
 10
156.0946094037523
 20
-7.06983253801307
 30
0.0
 10
156.1152398967652
 20
-6.969911297185383
 30
0.0
 10
156.1296573521593
 20
-6.882532906249475
 30
0.0
 10
156.1414654003332
 20
-6.783871073139395
 30
0.0
 10
156.1506867591233
 20
-6.674000125991231
 30
0.0
 10
156.1588535522971
 20
-6.553272604442953
 30
0.0
 10
156.1642695250001
 20
-6.42128637425704
 30
0.0
 10
156.1674877760354
 20
-6.27809808139565
 30
0.0
 10
156.1676434296959
 20
-6.178724231751899
 30
0.0
 10
156.1677241763147
 20
-6.127173228510231
 30
0.0
  0
SPLINE
  5
78
330
1F
100
AcDbEntity
  8
0
  6
Continuous
 62
     7
370
    25
100
AcDbSpline
210
0.0
220
0.0
230
1.0
 70
     8
 71
     3
 72
    27
 73
    23
 74
     0
 42
0.000000001
 43
0.00000001
 40
0.0
 40
0.0
 40
0.0
 40
0.0
 40
0.0312950607527297
 40
0.0629488569816259
 40
0.0945723189474676
 40
0.1273339107641002
 40
0.1606948653011405
 40
0.1956749314777722
 40
0.2319667275314312
 40
0.2703452394784452
 40
0.3095503797754471
 40
0.3495382602302993
 40
0.3902675230760425
 40
0.4316472192326275
 40
0.4741202945396533
 40
0.5180041406824675
 40
0.5632784939899762
 40
0.6097673010202572
 40
0.7051030839877419
 40
0.8012549371797252
 40
0.8994489151752072
 40
1.0
 40
1.0
 40
1.0
 40
1.0
 10
154.0435254583663
 20
-43.2957629721
 30
0.0
 10
154.0186346047323
 20
-43.29652863894284
 30
0.0
 10
153.9685675734541
 20
-43.29806874947229
 30
0.0
 10
153.8942805167185
 20
-43.31077330110022
 30
0.0
 10
153.8202383483062
 20
-43.32980818666229
 30
0.0
 10
153.7477404262051
 20
-43.35822319926241
 30
0.0
 10
153.6756721572168
 20
-43.39393770416147
 30
0.0
 10
153.6043851912683
 20
-43.43703455087181
 30
0.0
 10
153.5344480156763
 20
-43.48919567864277
 30
0.0
 10
153.4652696585184
 20
-43.54768526033209
 30
0.0
 10
153.3989895198523
 20
-43.61368489655543
 30
0.0
 10
153.3354941871155
 20
-43.68487480338003
 30
0.0
 10
153.2764435333163
 20
-43.76198642868259
 30
0.0
 10
153.2207646371714
 20
-43.84395730169818
 30
0.0
 10
153.1696689662289
 20
-43.93176957050684
 30
0.0
 10
153.1214012100565
 20
-44.02465306780748
 30
0.0
 10
153.0775722484256
 20
-44.12323689994604
 30
0.0
 10
153.02396362048
 20
-44.26199326026033
 30
0.0
 10
152.9676184620795
 20
-44.4429177684673
 30
0.0
 10
152.9209924986391
 20
-44.66865387632398
 30
0.0
 10
152.8909667307045
 20
-44.90152449711708
 30
0.0
 10
152.8874514036137
 20
-45.05955872102254
 30
0.0
 10
152.8856728942638
 20
-45.13951297210001
 30
0.0
  0
SPLINE
  5
79
330
1F
100
AcDbEntity
  8
0
  6
Continuous
 62
     7
370
    25
100
AcDbSpline
210
0.0
220
0.0
230
1.0
 70
     8
 71
     3
 72
    23
 73
    19
 74
     0
 42
0.000000001
 43
0.00000001
 40
0.0
 40
0.0
 40
0.0
 40
0.0
 40
0.0505032644855926
 40
0.1000581727813269
 40
0.1495861038532944
 40
0.199765253843367
 40
0.2522274148189281
 40
0.3074651427744792
 40
0.3662182774211624
 40
0.4293492876242812
 40
0.4949588252569105
 40
0.5616926795672826
 40
0.6293834800517824
 40
0.6985585546443389
 40
0.7703030202928394
 40
0.8441654830907422
 40
0.9205475764969063
 40
1.0
 40
1.0
 40
1.0
 40
1.0
 10
154.0331087916997
 20
-46.98807066440769
 30
0.0
 10
154.0735893207632
 20
-46.98671710773847
 30
0.0
 10
154.1537902307948
 20
-46.984035411645
 30
0.0
 10
154.2710609597262
 20
-46.95683428910954
 30
0.0
 10
154.3832967787368
 20
-46.91516251359617
 30
0.0
 10
154.4906637409131
 20
-46.85663364333105
 30
0.0
 10
154.5916515567122
 20
-46.78011580253813
 30
0.0
 10
154.6884909067206
 20
-46.68821528338883
 30
0.0
 10
154.7790003081463
 20
-46.57874511469836
 30
0.0
 10
154.863772236088
 20
-46.45470351744849
 30
0.0
 10
154.9406703247166
 20
-46.31827757824385
 30
0.0
 10
155.0090885755512
 20
-46.17335941596442
 30
0.0
 10
155.0658526659941
 20
-46.02041392252418
 30
0.0
 10
155.1122907380402
 20
-45.85993024352304
 30
0.0
 10
155.1494327573456
 20
-45.69192341611553
 30
0.0
 10
155.1741587086978
 20
-45.5158847580932
 30
0.0
 10
155.1912276206533
 20
-45.33269154929225
 30
0.0
 10
155.1926433768746
 20
-45.20793032882541
 30
0.0
 10
155.1933652019561
 20
-45.14432066440769
 30
0.0
  0
SPLINE
  5
7A
330
1F
100
AcDbEntity
  8
0
  6
Continuous
 62
     7
370
    25
100
AcDbSpline
210
0.0
220
0.0
230
1.0
 70
     8
 71
     3
 72
    27
 73
    23
 74
     0
 42
0.000000001
 43
0.00000001
 40
0.0
 40
0.0
 40
0.0
 40
0.0
 40
0.1013824843904746
 40
0.2007026271396048
 40
0.2986629319509157
 40
0.395982143388327
 40
0.4438000253421189
 40
0.4891931177008596
 40
0.5331525783177754
 40
0.5753687279884854
 40
0.6157068726437663
 40
0.6550915935443719
 40
0.6930233535046253
 40
0.7301404026577687
 40
0.766186460784169
 40
0.8009716147973759
 40
0.8349768063469938
 40
0.8681820376516785
 40
0.9007482549256813
 40
0.9334275437345592
 40
0.966524877982867
 40
1.0
 40
1.0
 40
1.0
 40
1.0
 10
152.8856728942638
 20
-45.13951297210001
 30
0.0
 10
152.8875533438096
 20
-45.2205215857451
 30
0.0
 10
152.8912759904416
 20
-45.38089092051978
 30
0.0
 10
152.9199917097119
 20
-45.61815004416798
 30
0.0
 10
152.9672332548192
 20
-45.84893691681093
 30
0.0
 10
153.0224059905028
 20
-46.03546157232263
 30
0.0
 10
153.0757929334487
 20
-46.17803805099614
 30
0.0
 10
153.1181813911082
 20
-46.27914424124335
 30
0.0
 10
153.1646744332255
 20
-46.3734763940089
 30
0.0
 10
153.2140702913974
 20
-46.46171483355855
 30
0.0
 10
153.2673146208494
 20
-46.54340160188642
 30
0.0
 10
153.3241920166046
 20
-46.61829165558066
 30
0.0
 10
153.3834041355404
 20
-46.68806921004819
 30
0.0
 10
153.4469494849782
 20
-46.7501547648341
 30
0.0
 10
153.5121966129512
 20
-46.80667877530765
 30
0.0
 10
153.5808165973727
 20
-46.85494745897535
 30
0.0
 10
153.6514034987018
 20
-46.89581963311657
 30
0.0
 10
153.7236020388669
 20
-46.92989748973905
 30
0.0
 10
153.7980757106648
 20
-46.95565328904995
 30
0.0
 10
153.8745427697736
 20
-46.97407912035489
 30
0.0
 10
153.9531667708441
 20
-46.98561769356957
 30
0.0
 10
154.0063608288966
 20
-46.98724991992272
 30
0.0
 10
154.0331087916997
 20
-46.98807066440769
 30
0.0
  0
SPLINE
  5
7B
330
1F
100
AcDbEntity
  8
0
  6
Continuous
 62
     7
370
    25
100
AcDbSpline
210
0.0
220
0.0
230
1.0
 70
     8
 71
     3
 72
    27
 73
    23
 74
     0
 42
0.000000001
 43
0.00000001
 40
0.0
 40
0.0
 40
0.0
 40
0.0
 40
0.102767998447049
 40
0.2024599599115129
 40
0.2991440269583573
 40
0.3941596854165449
 40
0.440468009534859
 40
0.4852406579811813
 40
0.528615611503741
 40
0.570744586274129
 40
0.6118835527764432
 40
0.6520894034057338
 40
0.6915517102656504
 40
0.7307060320926598
 40
0.7685617667985828
 40
0.8043374143957415
 40
0.838985670931522
 40
0.8726045408090068
 40
0.9048905567513136
 40
0.9367976321897861
 40
0.9684103981486188
 40
1.0
 40
1.0
 40
1.0
 40
1.0
 10
155.1933652019561
 20
-45.14432066440769
 30
0.0
 10
155.1914923744854
 20
-45.06251263126209
 30
0.0
 10
155.187802776747
 20
-44.90134523127983
 30
0.0
 10
155.1594305594281
 20
-44.66454212080547
 30
0.0
 10
155.1119853837952
 20
-44.43726753838594
 30
0.0
 10
155.0572012018023
 20
-44.25564413136074
 30
0.0
 10
155.004852449661
 20
-44.1170295054746
 30
0.0
 10
154.9615529716992
 20
-44.01910758284262
 30
0.0
 10
154.9143820888742
 20
-43.92669109775149
 30
0.0
 10
154.8626881103102
 20
-43.8401026432684
 30
0.0
 10
154.8085248743444
 20
-43.75804289152867
 30
0.0
 10
154.7499089604931
 20
-43.68170362076167
 30
0.0
 10
154.6870176008239
 20
-43.61099383409798
 30
0.0
 10
154.6212487417042
 20
-43.54554888858138
 30
0.0
 10
154.5526427501614
 20
-43.48752231132244
 30
0.0
 10
154.4832145231766
 20
-43.4363607633487
 30
0.0
 10
154.412696518721
 20
-43.39269994589034
 30
0.0
 10
154.3406274394101
 20
-43.35765910345889
 30
0.0
 10
154.2678217747878
 20
-43.32966682943428
 30
0.0
 10
154.1938156256468
 20
-43.31086855911985
 30
0.0
 10
154.1190236273926
 20
-43.29800935907355
 30
0.0
 10
154.068685364934
 20
-43.29651158477628
 30
0.0
 10
154.0435254583663
 20
-43.2957629721
 30
0.0
  0
SPLINE
  5
7C
330
1F
100
AcDbEntity
  8
0
  6
Continuous
 62
     7
370
    25
100
AcDbSpline
210
0.0
220
0.0
230
1.0
 70
     8
 71
     3
 72
    27
 73
    23
 74
     0
 42
0.000000001
 43
0.00000001
 40
0.0
 40
0.0
 40
0.0
 40
0.0
 40
0.0312950607527294
 40
0.0629488569816258
 40
0.094572318947467
 40
0.1273339107641108
 40
0.1606948653011508
 40
0.1956749314777709
 40
0.2319667275314399
 40
0.2703452394784447
 40
0.3095503797754464
 40
0.3495382602302972
 40
0.3902675230760402
 40
0.4316472192326262
 40
0.4741202945396517
 40
0.5180041406824657
 40
0.5632784939899775
 40
0.6097673010202597
 40
0.7051030839877437
 40
0.801254937179725
 40
0.8994489151752062
 40
1.0
 40
1.0
 40
1.0
 40
1.0
 10
146.3768587916995
 20
-27.76755784389496
 30
0.0
 10
146.3519679380655
 20
-27.7683235107378
 30
0.0
 10
146.3019009067873
 20
-27.76986362126724
 30
0.0
 10
146.2276138500517
 20
-27.78256817289517
 30
0.0
 10
146.1535716816394
 20
-27.80160305845727
 30
0.0
 10
146.0810737595382
 20
-27.83001807105735
 30
0.0
 10
146.00900549055
 20
-27.86573257595643
 30
0.0
 10
145.9377185246015
 20
-27.90882942266678
 30
0.0
 10
145.8677813490095
 20
-27.96099055043771
 30
0.0
 10
145.7986029918515
 20
-28.01948013212705
 30
0.0
 10
145.7323228531855
 20
-28.08547976835039
 30
0.0
 10
145.6688275204487
 20
-28.15666967517498
 30
0.0
 10
145.6097768666494
 20
-28.23378130047755
 30
0.0
 10
145.5540979705046
 20
-28.31575217349313
 30
0.0
 10
145.5030022995622
 20
-28.40356444230181
 30
0.0
 10
145.4547345433896
 20
-28.49644793960244
 30
0.0
 10
145.4109055817588
 20
-28.59503177174098
 30
0.0
 10
145.3572969538131
 20
-28.73378813205529
 30
0.0
 10
145.3009517954127
 20
-28.91471264026225
 30
0.0
 10
145.2543258319722
 20
-29.14044874811894
 30
0.0
 10
145.2243000640376
 20
-29.37331936891202
 30
0.0
 10
145.2207847369469
 20
-29.5313535928175
 30
0.0
 10
145.219006227597
 20
-29.61130784389497
 30
0.0
  0
SPLINE
  5
7D
330
1F
100
AcDbEntity
  8
0
  6
Continuous
 62
     7
370
    25
100
AcDbSpline
210
0.0
220
0.0
230
1.0
 70
     8
 71
     3
 72
    23
 73
    19
 74
     0
 42
0.000000001
 43
0.00000001
 40
0.0
 40
0.0
 40
0.0
 40
0.0
 40
0.0505032644855925
 40
0.1000581727813269
 40
0.1495861038532847
 40
0.1997652538433661
 40
0.2522274148189272
 40
0.3074651427744804
 40
0.3662182774211541
 40
0.429349287624273
 40
0.4949588252569106
 40
0.5616926795672829
 40
0.6293834800517827
 40
0.6985585546443379
 40
0.7703030202928374
 40
0.844165483090742
 40
0.9205475764969077
 40
1.0
 40
1.0
 40
1.0
 40
1.0
 10
146.3664421250329
 20
-31.45986553620266
 30
0.0
 10
146.4069226540963
 20
-31.45851197953343
 30
0.0
 10
146.487123564128
 20
-31.45583028343995
 30
0.0
 10
146.6043942930593
 20
-31.4286291609045
 30
0.0
 10
146.71663011207
 20
-31.38695738539111
 30
0.0
 10
146.8239970742462
 20
-31.32842851512601
 30
0.0
 10
146.9249848900454
 20
-31.25191067433309
 30
0.0
 10
147.0218242400537
 20
-31.16001015518381
 30
0.0
 10
147.1123336414794
 20
-31.05053998649331
 30
0.0
 10
147.1971055694213
 20
-30.92649838924345
 30
0.0
 10
147.2740036580499
 20
-30.79007245003884
 30
0.0
 10
147.3424219088843
 20
-30.64515428775934
 30
0.0
 10
147.3991859993273
 20
-30.49220879431916
 30
0.0
 10
147.4456240713733
 20
-30.33172511531798
 30
0.0
 10
147.4827660906787
 20
-30.16371828791048
 30
0.0
 10
147.507492042031
 20
-29.98767962988817
 30
0.0
 10
147.5245609539865
 20
-29.8044864210872
 30
0.0
 10
147.5259767102077
 20
-29.67972520062036
 30
0.0
 10
147.5266985352893
 20
-29.61611553620263
 30
0.0
  0
SPLINE
  5
7E
330
1F
100
AcDbEntity
  8
0
  6
Continuous
 62
     7
370
    25
100
AcDbSpline
210
0.0
220
0.0
230
1.0
 70
     8
 71
     3
 72
    27
 73
    23
 74
     0
 42
0.000000001
 43
0.00000001
 40
0.0
 40
0.0
 40
0.0
 40
0.0
 40
0.1013824843904753
 40
0.2007026271396063
 40
0.2986629319509151
 40
0.3959821433883272
 40
0.4438000253421187
 40
0.4891931177008591
 40
0.5331525783177695
 40
0.5753687279884793
 40
0.6157068726437651
 40
0.6550915935443704
 40
0.6930233535046246
 40
0.7301404026577678
 40
0.7661864607841581
 40
0.8009716147973663
 40
0.8349768063469841
 40
0.8681820376516779
 40
0.9007482549256706
 40
0.9334275437345482
 40
0.9665248779828672
 40
1.0
 40
1.0
 40
1.0
 40
1.0
 10
145.219006227597
 20
-29.61130784389497
 30
0.0
 10
145.2208866771428
 20
-29.69231645754006
 30
0.0
 10
145.2246093237748
 20
-29.85268579231474
 30
0.0
 10
145.253325043045
 20
-30.08994491596292
 30
0.0
 10
145.3005665881524
 20
-30.32073178860589
 30
0.0
 10
145.3557393238361
 20
-30.50725644411762
 30
0.0
 10
145.4091262667818
 20
-30.6498329227911
 30
0.0
 10
145.4515147244414
 20
-30.75093911303831
 30
0.0
 10
145.4980077665587
 20
-30.84527126580389
 30
0.0
 10
145.5474036247305
 20
-30.9335097053535
 30
0.0
 10
145.6006479541826
 20
-31.01519647368137
 30
0.0
 10
145.6575253499378
 20
-31.09008652737563
 30
0.0
 10
145.7167374688736
 20
-31.15986408184315
 30
0.0
 10
145.7802828183114
 20
-31.22194963662906
 30
0.0
 10
145.8455299462843
 20
-31.27847364710259
 30
0.0
 10
145.9141499307059
 20
-31.32674233077032
 30
0.0
 10
145.9847368320349
 20
-31.36761450491154
 30
0.0
 10
146.0569353722002
 20
-31.40169236153401
 30
0.0
 10
146.131409043998
 20
-31.4274481608449
 30
0.0
 10
146.2078761031068
 20
-31.44587399214986
 30
0.0
 10
146.2865001041772
 20
-31.45741256536452
 30
0.0
 10
146.3396941622298
 20
-31.45904479171768
 30
0.0
 10
146.3664421250329
 20
-31.45986553620266
 30
0.0
  0
SPLINE
  5
7F
330
1F
100
AcDbEntity
  8
0
  6
Continuous
 62
     7
370
    25
100
AcDbSpline
210
0.0
220
0.0
230
1.0
 70
     8
 71
     3
 72
    27
 73
    23
 74
     0
 42
0.000000001
 43
0.00000001
 40
0.0
 40
0.0
 40
0.0
 40
0.0
 40
0.1027679984470492
 40
0.2024599599115148
 40
0.2991440269583581
 40
0.3941596854165444
 40
0.4404680095348601
 40
0.4852406579811872
 40
0.5286156115037417
 40
0.570744586274131
 40
0.6118835527764507
 40
0.6520894034057402
 40
0.6915517102656502
 40
0.7307060320926596
 40
0.7685617667985837
 40
0.8043374143957407
 40
0.8389856709315221
 40
0.872604540809007
 40
0.9048905567513248
 40
0.9367976321897856
 40
0.9684103981486304
 40
1.0
 40
1.0
 40
1.0
 40
1.0
 10
147.5266985352893
 20
-29.61611553620263
 30
0.0
 10
147.5248257078186
 20
-29.53430750305706
 30
0.0
 10
147.5211361100803
 20
-29.37314010307478
 30
0.0
 10
147.4927638927612
 20
-29.13633699260042
 30
0.0
 10
147.4453187171283
 20
-28.90906241018087
 30
0.0
 10
147.3905345351355
 20
-28.72743900315572
 30
0.0
 10
147.3381857829942
 20
-28.58882437726954
 30
0.0
 10
147.2948863050324
 20
-28.4909024546376
 30
0.0
 10
147.2477154222074
 20
-28.39848596954642
 30
0.0
 10
147.1960214436434
 20
-28.31189751506334
 30
0.0
 10
147.1418582076775
 20
-28.22983776332363
 30
0.0
 10
147.0832422938262
 20
-28.15349849255663
 30
0.0
 10
147.0203509341571
 20
-28.08278870589293
 30
0.0
 10
146.9545820750375
 20
-28.01734376037633
 30
0.0
 10
146.8859760834945
 20
-27.95931718311737
 30
0.0
 10
146.8165478565097
 20
-27.90815563514366
 30
0.0
 10
146.7460298520542
 20
-27.8644948176853
 30
0.0
 10
146.6739607727433
 20
-27.82945397525384
 30
0.0
 10
146.601155108121
 20
-27.80146170122925
 30
0.0
 10
146.5271489589799
 20
-27.78266343091482
 30
0.0
 10
146.4523569607258
 20
-27.76980423086851
 30
0.0
 10
146.4020186982672
 20
-27.76830645657125
 30
0.0
 10
146.3768587916995
 20
-27.76755784389496
 30
0.0
  0
SPLINE
  5
80
330
1F
100
AcDbEntity
  8
0
  6
Continuous
 62
     7
370
    25
100
AcDbSpline
210
0.0
220
0.0
230
1.0
 70
     8
 71
     3
 72
    15
 73
    11
 74
     0
 42
0.000000001
 43
0.00000001
 40
0.0
 40
0.0
 40
0.0
 40
0.0
 40
0.137429102596812
 40
0.2706514820594549
 40
0.4000932691068967
 40
0.5254496047452135
 40
0.6474980392426772
 40
0.7668728831676486
 40
0.8841350512192514
 40
1.0
 40
1.0
 40
1.0
 40
1.0
 10
155.193365201956
 20
-38.85617963876666
 30
0.0
 10
155.1926715674708
 20
-38.80006638247114
 30
0.0
 10
155.1913055307443
 20
-38.68955750412886
 30
0.0
 10
155.178246421932
 20
-38.52660107095497
 30
0.0
 10
155.1564809756547
 20
-38.36964659443705
 30
0.0
 10
155.1276164297873
 20
-38.21838588379072
 30
0.0
 10
155.0873568737646
 20
-38.07405147617654
 30
0.0
 10
155.0417654602777
 20
-37.93480734072115
 30
0.0
 10
154.9853824326836
 20
-37.80216706983636
 30
0.0
 10
154.9412571513214
 20
-37.71781462268987
 30
0.0
 10
154.9193267404175
 20
-37.6758911772282
 30
0.0
  0
SPLINE
  5
81
330
1F
100
AcDbEntity
  8
0
  6
Continuous
 62
     7
370
    25
100
AcDbSpline
210
0.0
220
0.0
230
1.0
 70
     8
 71
     3
 72
    19
 73
    15
 74
     0
 42
0.000000001
 43
0.00000001
 40
0.0
 40
0.0
 40
0.0
 40
0.0
 40
0.0755474852614
 40
0.1476498977202158
 40
0.217957519664485
 40
0.2876064579187845
 40
0.3600144580205552
 40
0.4374753573659624
 40
0.5218332238359051
 40
0.6126791158573528
 40
0.7076977312843196
 40
0.803548328558912
 40
0.9008522935190649
 40
1.0
 40
1.0
 40
1.0
 40
1.0
 10
154.3215703301612
 20
-40.60858348492051
 30
0.0
 10
154.3694428033274
 20
-40.58731782882211
 30
0.0
 10
154.4630046967797
 20
-40.54575626079613
 30
0.0
 10
154.5910229519673
 20
-40.46460871049966
 30
0.0
 10
154.7035096673934
 20
-40.36943338875493
 30
0.0
 10
154.801240677206
 20
-40.25883986884956
 30
0.0
 10
154.8865842747817
 20
-40.13260618487794
 30
0.0
 10
154.9632375555603
 20
-39.98929489090146
 30
0.0
 10
155.0296331069169
 20
-39.8270896752194
 30
0.0
 10
155.0871308990399
 20
-39.64884773040953
 30
0.0
 10
155.1353229533363
 20
-39.45954398036096
 30
0.0
 10
155.1680925450967
 20
-39.26250103711006
 30
0.0
 10
155.1902352206109
 20
-39.06101312887601
 30
0.0
 10
155.1923153672985
 20
-38.92488333800173
 30
0.0
 10
155.193365201956
 20
-38.85617963876666
 30
0.0
  0
SPLINE
  5
83
330
1F
100
AcDbEntity
  8
0
  6
Continuous
 62
     7
370
    25
100
AcDbSpline
210
0.0
220
0.0
230
1.0
 70
     8
 71
     3
 72
    15
 73
    11
 74
     0
 42
0.000000001
 43
0.00000001
 40
0.0
 40
0.0
 40
0.0
 40
0.0
 40
0.1239936145181025
 40
0.2474054914794207
 40
0.3688880027020397
 40
0.4913641254540447
 40
0.6150825210544236
 40
0.7406431677396056
 40
0.8681420205635901
 40
0.9999999999999999
 40
0.9999999999999999
 40
0.9999999999999999
 40
0.9999999999999999
 10
154.9193267404175
 20
-37.6758911772282
 30
0.0
 10
154.9021652572296
 20
-37.64648328516336
 30
0.0
 10
154.8679228069299
 20
-37.58780547326189
 30
0.0
 10
154.8085548244611
 20
-37.50556249514643
 30
0.0
 10
154.7429506757363
 20
-37.42889758891686
 30
0.0
 10
154.6719146184828
 20
-37.35698635916178
 30
0.0
 10
154.5926144121024
 20
-37.29253983930593
 30
0.0
 10
154.5085381900558
 20
-37.23225696008349
 30
0.0
 10
154.4183105518586
 20
-37.17695173466317
 30
0.0
 10
154.3541763813174
 20
-37.14596955555155
 30
0.0
 10
154.3215703301611
 20
-37.13021810030513
 30
0.0
  0
SPLINE
  5
84
330
1F
100
AcDbEntity
  8
0
  6
Continuous
 62
     7
370
    25
100
AcDbSpline
210
0.0
220
0.0
230
1.0
 70
     8
 71
     3
 72
    15
 73
    11
 74
     0
 42
0.000000001
 43
0.00000001
 40
0.0
 40
0.0
 40
0.0
 40
0.0
 40
0.1374291025968092
 40
0.2706514820594522
 40
0.4000932691068968
 40
0.525449604745211
 40
0.6474980392426773
 40
0.7668728831676459
 40
0.8841350512192488
 40
1.0
 40
1.0
 40
1.0
 40
1.0
 10
155.1933652019558
 20
-19.21515399774101
 30
0.0
 10
155.1926715674706
 20
-19.15904074144551
 30
0.0
 10
155.1913055307441
 20
-19.04853186310322
 30
0.0
 10
155.1782464219318
 20
-18.88557542992931
 30
0.0
 10
155.1564809756545
 20
-18.72862095341142
 30
0.0
 10
155.1276164297871
 20
-18.57736024276505
 30
0.0
 10
155.0873568737645
 20
-18.43302583515091
 30
0.0
 10
155.0417654602774
 20
-18.29378169969549
 30
0.0
 10
154.9853824326835
 20
-18.16114142881074
 30
0.0
 10
154.9412571513212
 20
-18.07678898166423
 30
0.0
 10
154.9193267404174
 20
-18.03486553620255
 30
0.0
  0
SPLINE
  5
85
330
1F
100
AcDbEntity
  8
0
  6
Continuous
 62
     7
370
    25
100
AcDbSpline
210
0.0
220
0.0
230
1.0
 70
     8
 71
     3
 72
    19
 73
    15
 74
     0
 42
0.000000001
 43
0.00000001
 40
0.0
 40
0.0
 40
0.0
 40
0.0
 40
0.0755474852614013
 40
0.147649897720217
 40
0.217957519664486
 40
0.2876064579187829
 40
0.3600144580205561
 40
0.4374753573659618
 40
0.5218332238359044
 40
0.6126791158573535
 40
0.7076977312843183
 40
0.8035483285589089
 40
0.9008522935190634
 40
1.0
 40
1.0
 40
1.0
 40
1.0
 10
154.321570330161
 20
-20.96755784389488
 30
0.0
 10
154.3694428033273
 20
-20.94629218779646
 30
0.0
 10
154.4630046967796
 20
-20.9047306197705
 30
0.0
 10
154.5910229519671
 20
-20.823583069474
 30
0.0
 10
154.7035096673932
 20
-20.7284077477293
 30
0.0
 10
154.8012406772059
 20
-20.61781422782392
 30
0.0
 10
154.8865842747814
 20
-20.49158054385228
 30
0.0
 10
154.9632375555602
 20
-20.34826924987583
 30
0.0
 10
155.0296331069166
 20
-20.18606403419375
 30
0.0
 10
155.0871308990397
 20
-20.00782208938388
 30
0.0
 10
155.1353229533361
 20
-19.81851833933532
 30
0.0
 10
155.1680925450964
 20
-19.6214753960844
 30
0.0
 10
155.1902352206106
 20
-19.41998748785037
 30
0.0
 10
155.1923153672982
 20
-19.28385769697607
 30
0.0
 10
155.1933652019558
 20
-19.21515399774101
 30
0.0
  0
SPLINE
  5
87
330
1F
100
AcDbEntity
  8
0
  6
Continuous
 62
     7
370
    25
100
AcDbSpline
210
0.0
220
0.0
230
1.0
 70
     8
 71
     3
 72
    15
 73
    11
 74
     0
 42
0.000000001
 43
0.00000001
 40
0.0
 40
0.0
 40
0.0
 40
0.0
 40
0.123993614518099
 40
0.2474054914794175
 40
0.3688880027020367
 40
0.4913641254540418
 40
0.615082521054421
 40
0.7406431677396033
 40
0.868142020563588
 40
1.0
 40
1.0
 40
1.0
 40
1.0
 10
154.9193267404174
 20
-18.03486553620255
 30
0.0
 10
154.9021652572295
 20
-18.00545764413772
 30
0.0
 10
154.8679228069297
 20
-17.94677983223626
 30
0.0
 10
154.8085548244609
 20
-17.86453685412078
 30
0.0
 10
154.7429506757362
 20
-17.78787194789123
 30
0.0
 10
154.6719146184826
 20
-17.71596071813613
 30
0.0
 10
154.5926144121022
 20
-17.65151419828029
 30
0.0
 10
154.5085381900555
 20
-17.59123131905783
 30
0.0
 10
154.4183105518585
 20
-17.53592609363754
 30
0.0
 10
154.3541763813172
 20
-17.5049439145259
 30
0.0
 10
154.3215703301609
 20
-17.48919245927949
 30
0.0
  0
SPLINE
  5
8A
330
1F
100
AcDbEntity
  8
0
  6
Continuous
 62
     7
370
    25
100
AcDbSpline
210
0.0
220
0.0
230
1.0
 70
     8
 71
     3
 72
    15
 73
    11
 74
     0
 42
0.000000001
 43
0.00000001
 40
0.0
 40
0.0
 40
0.0
 40
0.0
 40
0.0745945886172422
 40
0.1635805529569362
 40
0.2664870430370989
 40
0.3843798954241296
 40
0.5163117504874214
 40
0.663305849885139
 40
0.8243615869362135
 40
1.0
 40
1.0
 40
1.0
 40
1.0
 10
154.4898395609301
 20
-7.044641177228201
 30
0.0
 10
154.4845098418681
 20
-7.005408555101254
 30
0.0
 10
154.4728221523532
 20
-6.919374244296137
 30
0.0
 10
154.4597734438443
 20
-6.778507081191925
 30
0.0
 10
154.4486459812602
 20
-6.614463036205713
 30
0.0
 10
154.440323682133
 20
-6.427431776920748
 30
0.0
 10
154.4331469165238
 20
-6.216950549671065
 30
0.0
 10
154.427519652277
 20
-5.983502537951241
 30
0.0
 10
154.4243768366992
 20
-5.726808161924265
 30
0.0
 10
154.4242175339221
 20
-5.548114269815989
 30
0.0
 10
154.424134432725
 20
-5.45489758748461
 30
0.0
  0
SPLINE
  5
8B
330
1F
100
AcDbEntity
  8
0
  6
Continuous
 62
     7
370
    25
100
AcDbSpline
210
0.0
220
0.0
230
1.0
 70
     8
 71
     3
 72
    23
 73
    19
 74
     0
 42
0.000000001
 43
0.00000001
 40
0.0
 40
0.0
 40
0.0
 40
0.0
 40
0.0560745648741928
 40
0.1101232072387593
 40
0.1631630981749438
 40
0.2155994951225809
 40
0.2688617438007642
 40
0.3228662515024583
 40
0.3789241745704194
 40
0.437352786958689
 40
0.4980151627293998
 40
0.5613480185741817
 40
0.6267172177485297
 40
0.6944602834888167
 40
0.7657410002921503
 40
0.840109458579332
 40
0.9180965899888524
 40
1.0
 40
1.0
 40
1.0
 40
1.0
 10
155.5050639199044
 20
-8.290634766971776
 30
0.0
 10
155.4721332769491
 20
-8.28990845686977
 30
0.0
 10
155.4074617449129
 20
-8.288482077582433
 30
0.0
 10
155.3129802446993
 20
-8.271346955119586
 30
0.0
 10
155.2227113781448
 20
-8.246175324439262
 30
0.0
 10
155.1367128948446
 20
-8.209702596969876
 30
0.0
 10
155.0558180403531
 20
-8.162021174608306
 30
0.0
 10
154.9789755435412
 20
-8.104515659079729
 30
0.0
 10
154.906593722427
 20
-8.036908472744527
 30
0.0
 10
154.839633834044
 20
-7.958772535967016
 30
0.0
 10
154.7769855274673
 20
-7.871886281466296
 30
0.0
 10
154.7196088714645
 20
-7.776636612970164
 30
0.0
 10
154.6675511638923
 20
-7.673741375047713
 30
0.0
 10
154.6206871282473
 20
-7.563271034144982
 30
0.0
 10
154.5805135196941
 20
-7.444640916591832
 30
0.0
 10
154.5441308106521
 20
-7.318559427131569
 30
0.0
 10
154.5138269353422
 20
-7.184441108527936
 30
0.0
 10
154.4979648583163
 20
-7.091995922973368
 30
0.0
 10
154.4898395609301
 20
-7.044641177228201
 30
0.0
  0
SPLINE
  5
8C
330
1F
100
AcDbEntity
  8
0
  6
Continuous
 62
     7
370
    25
100
AcDbSpline
210
0.0
220
0.0
230
1.0
 70
     8
 71
     3
 72
    23
 73
    19
 74
     0
 42
0.000000001
 43
0.00000001
 40
0.0
 40
0.0
 40
0.0
 40
0.0
 40
0.0770176645389759
 40
0.151069269901335
 40
0.2228192931161642
 40
0.2920589949166829
 40
0.3590590676971324
 40
0.4245300980856093
 40
0.4883695853617632
 40
0.551302873857245
 40
0.6119381325700505
 40
0.6701068597214817
 40
0.7258703779500892
 40
0.7800627766631415
 40
0.8341853975874838
 40
0.8881321784752637
 40
0.9432138463847255
 40
1.0
 40
1.0
 40
1.0
 40
1.0
 10
156.5178844327249
 20
-7.077493741330744
 30
0.0
 10
156.5103564384413
 20
-7.121126732275919
 30
0.0
 10
156.4955903635796
 20
-7.206712345980998
 30
0.0
 10
156.4655573419618
 20
-7.331300987394269
 30
0.0
 10
156.4305772751893
 20
-7.449902649396517
 30
0.0
 10
156.3897561319114
 20
-7.562359550215052
 30
0.0
 10
156.3430603575879
 20
-7.668556424523756
 30
0.0
 10
156.2912190658278
 20
-7.768888827908035
 30
0.0
 10
156.2330912556678
 20
-7.862952382378184
 30
0.0
 10
156.1706513671098
 20
-7.950886106047161
 30
0.0
 10
156.1023880235383
 20
-8.030073967312202
 30
0.0
 10
156.0309226711442
 20
-8.10088838771706
 30
0.0
 10
155.9528282326152
 20
-8.158138226288699
 30
0.0
 10
155.8724334200664
 20
-8.207910878096246
 30
0.0
 10
155.7860500994546
 20
-8.243767979870558
 30
0.0
 10
155.6965217618509
 20
-8.272303717266311
 30
0.0
 10
155.6019649220154
 20
-8.28699418495999
 30
0.0
 10
155.5376906942617
 20
-8.289408975233407
 30
0.0
 10
155.5050639199044
 20
-8.290634766971776
 30
0.0
  0
SPLINE
  5
8D
330
1F
100
AcDbEntity
  8
0
  6
Continuous
 62
     7
370
    25
100
AcDbSpline
210
0.0
220
0.0
230
1.0
 70
     8
 71
     3
 72
    15
 73
    11
 74
     0
 42
0.000000001
 43
0.00000001
 40
0.0
 40
0.0
 40
0.0
 40
0.0
 40
0.1775930308892259
 40
0.3402160080246255
 40
0.4873222102434873
 40
0.6200356430809489
 40
0.7372669130683664
 40
0.8396369564267042
 40
0.9271648819097276
 40
1.0
 40
1.0
 40
1.0
 40
1.0
 10
156.5779805865711
 20
-5.63598733107433
 30
0.0
 10
156.5779207763127
 20
-5.721458883204536
 30
0.0
 10
156.5778061974507
 20
-5.885197235547576
 30
0.0
 10
156.5743731456138
 20
-6.119711381831309
 30
0.0
 10
156.5697553278253
 20
-6.332600682703784
 30
0.0
 10
156.5633593329077
 20
-6.523581923561152
 30
0.0
 10
156.5559155486947
 20
-6.692997842257429
 30
0.0
 10
156.5452149954469
 20
-6.840419655479976
 30
0.0
 10
156.534294232096
 20
-6.96644532424822
 30
0.0
 10
156.5230097290244
 20
-7.042809829098141
 30
0.0
 10
156.5178844327249
 20
-7.077493741330744
 30
0.0
  0
SPLINE
  5
92
330
1F
100
AcDbEntity
  8
0
  6
Continuous
 62
     7
370
    25
100
AcDbSpline
210
0.0
220
0.0
230
1.0
 70
     8
 71
     3
 72
    27
 73
    23
 74
     0
 42
0.000000001
 43
0.00000001
 40
0.0
 40
0.0
 40
0.0
 40
0.0
 40
0.0878271218868903
 40
0.1734074142606986
 40
0.2579329549395111
 40
0.3423002767318075
 40
0.3838650171429357
 40
0.4235864640718905
 40
0.4619186222533082
 40
0.4992224307104184
 40
0.534999986030601
 40
0.5701688463802635
 40
0.604972864049129
 40
0.6391019522938977
 40
0.6740598724276977
 40
0.7111632721690693
 40
0.7512479573796799
 40
0.7943056032091174
 40
0.8403048673176433
 40
0.8900435450869231
 40
0.9430010943538482
 40
1.0
 40
1.0
 40
1.0
 40
1.0
 10
155.1933652019561
 20
-51.46130784389486
 30
0.0
 10
155.1916491294071
 20
-51.39335129923332
 30
0.0
 10
155.1882608855818
 20
-51.25917670215351
 30
0.0
 10
155.1573181204392
 20
-51.06159482070202
 30
0.0
 10
155.1085320983099
 20
-50.87068959222795
 30
0.0
 10
155.0518781998855
 20
-50.71774677053516
 30
0.0
 10
154.9977870887211
 20
-50.60155249518594
 30
0.0
 10
154.9534634838491
 20
-50.52030155866836
 30
0.0
 10
154.9063280230275
 20
-50.44447610044994
 30
0.0
 10
154.8550450403401
 20
-50.37514723458201
 30
0.0
 10
154.8011197849445
 20
-50.31103792925636
 30
0.0
 10
154.7432769358327
 20
-50.25304334856531
 30
0.0
 10
154.6814241690182
 20
-50.2014448431724
 30
0.0
 10
154.6168679552067
 20
-50.153392646182
 30
0.0
 10
154.5449570456801
 20
-50.11335988485659
 30
0.0
 10
154.4658346627735
 20
-50.07759757346675
 30
0.0
 10
154.3773948182686
 20
-50.04834946232178
 30
0.0
 10
154.2802819818105
 20
-50.02480644724446
 30
0.0
 10
154.1746658239388
 20
-50.00529708738704
 30
0.0
 10
154.060360769752
 20
-49.99218854211586
 30
0.0
 10
153.9370767109417
 20
-49.9839891481537
 30
0.0
 10
153.8520331617166
 20
-49.98329980102751
 30
0.0
 10
153.8079485352895
 20
-49.98294245927949
 30
0.0
  0
SPLINE
  5
93
330
1F
100
AcDbEntity
  8
0
  6
Continuous
 62
     7
370
    25
100
AcDbSpline
210
0.0
220
0.0
230
1.0
 70
     8
 71
     3
 72
    23
 73
    19
 74
     0
 42
0.000000001
 43
0.00000001
 40
0.0
 40
0.0
 40
0.0
 40
0.0
 40
0.0683678485211965
 40
0.1315590364086854
 40
0.1887661455010105
 40
0.2405070925620757
 40
0.286969596949656
 40
0.3277351168641988
 40
0.3640875441509979
 40
0.3952594933819083
 40
0.4544409623132991
 40
0.5166387135177282
 40
0.5835588737282559
 40
0.6567782477917394
 40
0.7355703869006545
 40
0.8180505088741512
 40
0.9063008482892698
 40
1.0
 40
1.0
 40
1.0
 40
1.0
 10
154.0643587916998
 20
-52.54704502338205
 30
0.0
 10
154.1062967902677
 20
-52.54675650422865
 30
0.0
 10
154.1869973359166
 20
-52.54620131194705
 30
0.0
 10
154.3027221453424
 20
-52.5414889732941
 30
0.0
 10
154.408021322833
 20
-52.53353352195106
 30
0.0
 10
154.5028230071929
 20
-52.52294196098524
 30
0.0
 10
154.5866893390572
 20
-52.50746466428969
 30
0.0
 10
154.6606317312803
 20
-52.49045278894392
 30
0.0
 10
154.7236375276804
 20
-52.46904383696994
 30
0.0
 10
154.7945490402306
 20
-52.43685399169165
 30
0.0
 10
154.8718071118992
 20
-52.38261502012742
 30
0.0
 10
154.9525857033126
 20
-52.29930090625106
 30
0.0
 10
155.0232667958172
 20
-52.1966642486078
 30
0.0
 10
155.0834350133432
 20
-52.07620884307009
 30
0.0
 10
155.1324518772548
 20
-51.94067688600592
 30
0.0
 10
155.1689353500092
 20
-51.79171642800299
 30
0.0
 10
155.1892071378188
 20
-51.63040613359897
 30
0.0
 10
155.1919517827627
 20
-51.5187881425024
 30
0.0
 10
155.1933652019561
 20
-51.46130784389486
 30
0.0
  0
SPLINE
  5
97
330
1F
100
AcDbEntity
  8
0
  6
Continuous
 62
     7
370
    25
100
AcDbSpline
210
0.0
220
0.0
230
1.0
 70
     8
 71
     3
 72
    27
 73
    23
 74
     0
 42
0.000000001
 43
0.00000001
 40
0.0
 40
0.0
 40
0.0
 40
0.0
 40
0.0876349256170984
 40
0.1724728208640028
 40
0.2549926109715956
 40
0.3366544256563315
 40
0.3764031565249921
 40
0.4146992242594997
 40
0.451580841537994
 40
0.4871294754235178
 40
0.5216629188479284
 40
0.5552012691337342
 40
0.5881925237673824
 40
0.620847081402398
 40
0.654671105792341
 40
0.6918644669784741
 40
0.7327747452187197
 40
0.7775209524244688
 40
0.8265328064715035
 40
0.8798547261773406
 40
0.9376497436139137
 40
1.0
 40
1.0
 40
1.0
 40
1.0
 10
155.1933652019562
 20
-54.64400015158717
 30
0.0
 10
155.1917380857741
 20
-54.57336543044947
 30
0.0
 10
155.1885357858254
 20
-54.43435042564661
 30
0.0
 10
155.1566916005992
 20
-54.23091776934572
 30
0.0
 10
155.1076376522007
 20
-54.03612380866652
 30
0.0
 10
155.0485503449565
 20
-53.88238132028933
 30
0.0
 10
154.9926884408836
 20
-53.76648673783918
 30
0.0
 10
154.9482988979969
 20
-53.685145457688
 30
0.0
 10
154.8988213545765
 20
-53.61087019794423
 30
0.0
 10
154.8479860164261
 20
-53.54122782206542
 30
0.0
 10
154.7924559483279
 20
-53.47875709657493
 30
0.0
 10
154.7336752426907
 20
-53.4223212781346
 30
0.0
 10
154.6717106199293
 20
-53.37180696055919
 30
0.0
 10
154.6061421247701
 20
-53.32552696948319
 30
0.0
 10
154.5320671372818
 20
-53.28648696688429
 30
0.0
 10
154.4481712580974
 20
-53.25320659871654
 30
0.0
 10
154.3534490811649
 20
-53.22407652546562
 30
0.0
 10
154.246986504958
 20
-53.20280019460159
 30
0.0
 10
154.1300059016183
 20
-53.18384808002865
 30
0.0
 10
154.0015221334889
 20
-53.17183269212466
 30
0.0
 10
153.8620150817055
 20
-53.16341262814778
 30
0.0
 10
153.7652281128794
 20
-53.16276548063559
 30
0.0
 10
153.7149998173408
 20
-53.16242963876667
 30
0.0
  0
SPLINE
  5
98
330
1F
100
AcDbEntity
  8
0
  6
Continuous
 62
     7
370
    25
100
AcDbSpline
210
0.0
220
0.0
230
1.0
 70
     8
 71
     3
 72
    23
 73
    19
 74
     0
 42
0.000000001
 43
0.00000001
 40
0.0
 40
0.0
 40
0.0
 40
0.0
 40
0.0641030648799059
 40
0.1232272831819911
 40
0.1770298860804386
 40
0.2259815609155348
 40
0.2698881339038653
 40
0.3093202298589843
 40
0.3445257193437917
 40
0.3754455056392332
 40
0.4349637071945155
 40
0.498132954550565
 40
0.5665769722976715
 40
0.6423409591618698
 40
0.7237115579990981
 40
0.8096731575176385
 40
0.901497932359215
 40
1.0
 40
1.0
 40
1.0
 40
1.0
 10
154.1629164840075
 20
-55.72653220286923
 30
0.0
 10
154.200311780645
 20
-55.72621414033127
 30
0.0
 10
154.2721979036729
 20
-55.72560271898175
 30
0.0
 10
154.375436433722
 20
-55.72128224605374
 30
0.0
 10
154.4694286953051
 20
-55.71194300514435
 30
0.0
 10
154.5544082868033
 20
-55.70163202329269
 30
0.0
 10
154.6301163197942
 20
-55.68624409038581
 30
0.0
 10
154.6968853087134
 20
-55.66805768179515
 30
0.0
 10
154.7548614069457
 20
-55.64693243468736
 30
0.0
 10
154.8201908455026
 20
-55.61325206461623
 30
0.0
 10
154.8916696329943
 20
-55.55817617487554
 30
0.0
 10
154.9680726361411
 20
-55.4762507293317
 30
0.0
 10
155.0334128038776
 20
-55.37382240629537
 30
0.0
 10
155.0905714581251
 20
-55.25500189615437
 30
0.0
 10
155.1364896692803
 20
-55.12047140025119
 30
0.0
 10
155.170027815874
 20
-54.97281826137451
 30
0.0
 10
155.1901871527747
 20
-54.81256047961254
 30
0.0
 10
155.1922813616464
 20
-54.70148588189593
 30
0.0
 10
155.1933652019562
 20
-54.64400015158717
 30
0.0
  0
SPLINE
  5
9C
330
1F
100
AcDbEntity
  8
0
  6
Continuous
 62
     7
370
    25
100
AcDbSpline
210
0.0
220
0.0
230
1.0
 70
     8
 71
     3
 72
    31
 73
    27
 74
     0
 42
0.000000001
 43
0.00000001
 40
0.0
 40
0.0
 40
0.0
 40
0.0
 40
0.049061653667645
 40
0.0968806365261915
 40
0.1432168147114388
 40
0.1884481494659011
 40
0.2324534612040125
 40
0.2756220841397443
 40
0.3179725077670777
 40
0.3595190263294236
 40
0.3998677699941298
 40
0.4387058865202354
 40
0.4763344571782716
 40
0.5126664561837111
 40
0.5477181700055704
 40
0.5824060398794875
 40
0.61648531739848
 40
0.6502358508249253
 40
0.6848523969550004
 40
0.7214989776244998
 40
0.7604923399752752
 40
0.8022116757038721
 40
0.8467381015470432
 40
0.8944662622282376
 40
0.9456364559664324
 40
1.0
 40
1.0
 40
1.0
 40
1.0
 10
155.5523395609306
 20
-54.76499374133075
 30
0.0
 10
155.5518803808529
 20
-54.80453354551078
 30
0.0
 10
155.5509736511593
 20
-54.88261165969407
 30
0.0
 10
155.5437173138311
 20
-54.99786204009077
 30
0.0
 10
155.5313862564931
 20
-55.10952963303583
 30
0.0
 10
155.516018419643
 20
-55.21774613593607
 30
0.0
 10
155.494078552384
 20
-55.32224809219813
 30
0.0
 10
155.4673962019266
 20
-55.42317945696648
 30
0.0
 10
155.4375743289557
 20
-55.52120673840558
 30
0.0
 10
155.4012541628704
 20
-55.6146005792666
 30
0.0
 10
155.361332065567
 20
-55.70336696914224
 30
0.0
 10
155.318156063689
 20
-55.78708617622084
 30
0.0
 10
155.2710531609538
 20
-55.86493378925923
 30
0.0
 10
155.219696241097
 20
-55.93632676581724
 30
0.0
 10
155.1646302323468
 20
-56.00179499782863
 30
0.0
 10
155.1064696363448
 20
-56.06205640886399
 30
0.0
 10
155.0437383873646
 20
-56.11604591319754
 30
0.0
 10
154.9761861070526
 20
-56.16362544318915
 30
0.0
 10
154.9035413631263
 20
-56.20739544191149
 30
0.0
 10
154.8217404222825
 20
-56.24252036271947
 30
0.0
 10
154.7326297005687
 20
-56.27450465293067
 30
0.0
 10
154.6344182335322
 20
-56.29828892187739
 30
0.0
 10
154.5283920513071
 20
-56.31901322275503
 30
0.0
 10
154.4134119939842
 20
-56.33158328522715
 30
0.0
 10
154.2902145788337
 20
-56.34113796642985
 30
0.0
 10
154.2051389091012
 20
-56.34165201609492
 30
0.0
 10
154.1613139199049
 20
-56.34191681825384
 30
0.0
  0
SPLINE
  5
9D
330
1F
100
AcDbEntity
  8
0
  6
Continuous
 62
     7
370
    25
100
AcDbSpline
210
0.0
220
0.0
230
1.0
 70
     8
 71
     3
 72
    23
 73
    19
 74
     0
 42
0.000000001
 43
0.00000001
 40
0.0
 40
0.0
 40
0.0
 40
0.0
 40
0.0597676864728478
 40
0.1191903756761272
 40
0.1784718245662356
 40
0.2382099757108976
 40
0.2982148920228071
 40
0.3588153725467718
 40
0.4200632768875966
 40
0.4827268955161631
 40
0.5460070762253357
 40
0.6093861856168599
 40
0.6728710196717252
 40
0.7368928850864686
 40
0.8015388335692866
 40
0.8666743250440859
 40
0.9327633417884109
 40
1.0
 40
1.0
 40
1.0
 40
1.0
 10
154.8464100737511
 20
-53.05585912594616
 30
0.0
 10
154.874837806954
 20
-53.08110171089125
 30
0.0
 10
154.9315291798354
 20
-53.13144117290153
 30
0.0
 10
155.0095772541063
 20
-53.21393594051838
 30
0.0
 10
155.0842009954393
 20
-53.29948688189167
 30
0.0
 10
155.1516607989557
 20
-53.39127228572303
 30
0.0
 10
155.2156054953059
 20
-53.48652232122387
 30
0.0
 10
155.2728015207003
 20
-53.58708405793325
 30
0.0
 10
155.3265051944392
 20
-53.69146123469502
 30
0.0
 10
155.3728412817816
 20
-53.80115957298221
 30
0.0
 10
155.4158334756411
 20
-53.91364420821366
 30
0.0
 10
155.4512419146279
 20
-54.02930378108577
 30
0.0
 10
155.4828970628872
 20
-54.14648366054185
 30
0.0
 10
155.5087970851498
 20
-54.26596103729377
 30
0.0
 10
155.5273440599204
 20
-54.38781555501315
 30
0.0
 10
155.5424472773906
 20
-54.51146944988286
 30
0.0
 10
155.5500641215958
 20
-54.63749453366749
 30
0.0
 10
155.551576741041
 20
-54.72225081691162
 30
0.0
 10
155.5523395609306
 20
-54.76499374133075
 30
0.0
  0
SPLINE
  5
9E
330
1F
100
AcDbEntity
  8
0
  6
Continuous
 62
     7
370
    25
100
AcDbSpline
210
0.0
220
0.0
230
1.0
 70
     8
 71
     3
 72
    19
 73
    15
 74
     0
 42
0.000000001
 43
0.00000001
 40
0.0
 40
0.0
 40
0.0
 40
0.0
 40
0.0973063231277527
 40
0.1921790396260561
 40
0.2855831795165942
 40
0.377452867436674
 40
0.4657533108349362
 40
0.5478410123585736
 40
0.6240057395681811
 40
0.6953833964562356
 40
0.765806712626713
 40
0.839216682788447
 40
0.91692644514101
 40
1.0
 40
1.0
 40
1.0
 40
1.0
 10
155.5523395609305
 20
-51.58150015158716
 30
0.0
 10
155.5511429467864
 20
-51.63735351704644
 30
0.0
 10
155.5487796455166
 20
-51.7476633693646
 30
0.0
 10
155.5335640697821
 20
-51.91105263012604
 30
0.0
 10
155.5070376570837
 20
-52.06978158067263
 30
0.0
 10
155.4705107664717
 20
-52.22264417231186
 30
0.0
 10
155.425253790595
 20
-52.36632742848133
 30
0.0
 10
155.3738178752579
 20
-52.49833097932883
 30
0.0
 10
155.3144056145505
 20
-52.61625087949551
 30
0.0
 10
155.2468497139975
 20
-52.72179846172683
 30
0.0
 10
155.168726846123
 20
-52.81800142455539
 30
0.0
 10
155.0748970647069
 20
-52.90422887210207
 30
0.0
 10
154.9682135980016
 20
-52.9865558532708
 30
0.0
 10
154.88790429808
 20
-53.03224991134572
 30
0.0
 10
154.8464100737511
 20
-53.05585912594616
 30
0.0
  0
SPLINE
  5
9F
330
1F
100
AcDbEntity
  8
0
  6
Continuous
 62
     7
370
    25
100
AcDbSpline
210
0.0
220
0.0
230
1.0
 70
     8
 71
     3
 72
    11
 73
     7
 74
     0
 42
0.000000001
 43
0.00000001
 40
0.0
 40
0.0
 40
0.0
 40
0.0
 40
0.2460490022239574
 40
0.4941081531964229
 40
0.7448572770330986
 40
1.0
 40
1.0
 40
1.0
 40
1.0
 10
155.4041023814434
 20
-50.62557066440768
 30
0.0
 10
155.4270545521978
 20
-50.70188975452858
 30
0.0
 10
155.4731464062627
 20
-50.85515143952798
 30
0.0
 10
155.5185995235236
 20
-51.09233428371253
 30
0.0
 10
155.5465486101002
 20
-51.33509646036217
 30
0.0
 10
155.5503980998957
 20
-51.49889140919166
 30
0.0
 10
155.5523395609305
 20
-51.58150015158716
 30
0.0
  0
SPLINE
  5
A0
330
1F
100
AcDbEntity
  8
0
  6
Continuous
 62
     7
370
    25
100
AcDbSpline
210
0.0
220
0.0
230
1.0
 70
     8
 71
     3
 72
    11
 73
     7
 74
     0
 42
0.000000001
 43
0.00000001
 40
0.0
 40
0.0
 40
0.0
 40
0.0
 40
0.2670804478595399
 40
0.5222146806059782
 40
0.7647453600346109
 40
1.0
 40
1.0
 40
1.0
 40
1.0
 10
154.9930446891356
 20
-49.98294245927948
 30
0.0
 10
155.0378610851702
 20
-50.03449657514242
 30
0.0
 10
155.1254892890643
 20
-50.13529884788478
 30
0.0
 10
155.2368005576398
 20
-50.29629119275572
 30
0.0
 10
155.3322691190282
 20
-50.45790001595584
 30
0.0
 10
155.3804022955433
 20
-50.5702507661095
 30
0.0
 10
155.4041023814434
 20
-50.62557066440768
 30
0.0
  0
SPLINE
  5
A6
330
1F
100
AcDbEntity
  8
0
  6
Continuous
 62
     7
370
    25
100
AcDbSpline
210
0.0
220
0.0
230
1.0
 70
     8
 71
     3
 72
    19
 73
    15
 74
     0
 42
0.000000001
 43
0.00000001
 40
0.0
 40
0.0
 40
0.0
 40
0.0
 40
0.1328519912744706
 40
0.264106352989213
 40
0.3937423390723399
 40
0.5229453409718049
 40
0.5868038465806944
 40
0.6490752870790718
 40
0.7102169595058925
 40
0.770203778649535
 40
0.8291078906403572
 40
0.8870054892305956
 40
0.9439768066652258
 40
0.9999999999999999
 40
0.9999999999999999
 40
0.9999999999999999
 40
0.9999999999999999
 10
146.3135575096482
 20
-20.03422451056163
 30
0.0
 10
146.1962289542531
 20
-20.03643056055219
 30
0.0
 10
145.9629827938485
 20
-20.04081613138128
 30
0.0
 10
145.6165612835512
 20
-20.07445587001842
 30
0.0
 10
145.2763242298253
 20
-20.1296466030407
 30
0.0
 10
144.9986067854184
 20
-20.19456474699603
 30
0.0
 10
144.7818013968664
 20
-20.25655427712404
 30
0.0
 10
144.6242421441099
 20
-20.3069006540505
 30
0.0
 10
144.4720534885813
 20
-20.36238504809454
 30
0.0
 10
144.3244960688423
 20
-20.42161664661576
 30
0.0
 10
144.1817325067087
 20
-20.4848827555017
 30
0.0
 10
144.0438976274735
 20
-20.55236166975663
 30
0.0
 10
143.9104709487108
 20
-20.62301973432337
 30
0.0
 10
143.825324693185
 20
-20.67507963917528
 30
0.0
 10
143.7831087916994
 20
-20.70089117722831
 30
0.0
  0
SPLINE
  5
A7
330
1F
100
AcDbEntity
  8
0
  6
Continuous
 62
     7
370
    25
100
AcDbSpline
210
0.0
220
0.0
230
1.0
 70
     8
 71
     3
 72
    23
 73
    19
 74
     0
 42
0.000000001
 43
0.00000001
 40
0.0
 40
0.0
 40
0.0
 40
0.0
 40
0.0573002682048633
 40
0.1156596566541009
 40
0.1744237591741527
 40
0.234066063852156
 40
0.2949250263632056
 40
0.3567381438431402
 40
0.4195497655882056
 40
0.4837490173040973
 40
0.5483903384441716
 40
0.6128049202953789
 40
0.6769046792716222
 40
0.7410527493179643
 40
0.8055808004035099
 40
0.8700938109290266
 40
0.9346866120821323
 40
1.0
 40
1.0
 40
1.0
 40
1.0
 10
149.0651600737507
 20
-20.90601938235647
 30
0.0
 10
149.0194843500507
 20
-20.8735802467645
 30
0.0
 10
148.9272886468528
 20
-20.80810238073938
 30
0.0
 10
148.7833758047564
 20
-20.71650596085248
 30
0.0
 10
148.6338776293696
 20
-20.62975611436792
 30
0.0
 10
148.4788845414747
 20
-20.54788047331672
 30
0.0
 10
148.318083480955
 20
-20.47086672770763
 30
0.0
 10
148.1510478010133
 20
-20.40023023709381
 30
0.0
 10
147.9794738254416
 20
-20.33202438826553
 30
0.0
 10
147.8021802326925
 20
-20.27130134161505
 30
0.0
 10
147.6218957595298
 20
-20.21468512907417
 30
0.0
 10
147.4391124558671
 20
-20.16702779108273
 30
0.0
 10
147.2552621375962
 20
-20.12598758410682
 30
0.0
 10
147.0698334385177
 20
-20.091995468959
 30
0.0
 10
146.8826107163515
 20
-20.06673178110933
 30
0.0
 10
146.6941866446018
 20
-20.0483021561391
 30
0.0
 10
146.5044085059531
 20
-20.03666782773477
 30
0.0
 10
146.3774093289608
 20
-20.03504195584451
 30
0.0
 10
146.3135575096482
 20
-20.03422451056163
 30
0.0
  0
SPLINE
  5
A9
330
1F
100
AcDbEntity
  8
0
  6
Continuous
 62
     7
370
    25
100
AcDbSpline
210
0.0
220
0.0
230
1.0
 70
     8
 71
     3
 72
    23
 73
    19
 74
     0
 42
0.000000001
 43
0.00000001
 40
0.0
 40
0.0
 40
0.0
 40
0.0
 40
0.0639890187806363
 40
0.1277668674220463
 40
0.1914353758814133
 40
0.2547542487583132
 40
0.3177839031115832
 40
0.3806345524610622
 40
0.4436518576863941
 40
0.5069115865965163
 40
0.569889476035939
 40
0.632135755391693
 40
0.6942413623156652
 40
0.7557714275221924
 40
0.8169462995162243
 40
0.8780678357684976
 40
0.9389731280320889
 40
1.0
 40
1.0
 40
1.0
 40
1.0
 10
146.2622754583661
 20
-19.41883989517701
 30
0.0
 10
146.3250499449374
 20
-19.41954863127675
 30
0.0
 10
146.4503917560182
 20
-19.42096376457646
 30
0.0
 10
146.6380611482645
 20
-19.42952902207903
 30
0.0
 10
146.824526097765
 20
-19.4459851530179
 30
0.0
 10
147.0097097417302
 20
-19.46755221309647
 30
0.0
 10
147.1933808907983
 20
-19.49459739615178
 30
0.0
 10
147.3756252643972
 20
-19.52842277453408
 30
0.0
 10
147.5568366273847
 20
-19.56845959782695
 30
0.0
 10
147.7366149768647
 20
-19.61497851316224
 30
0.0
 10
147.9141847445982
 20
-19.6667036429257
 30
0.0
 10
148.0885679068309
 20
-19.72482026604037
 30
0.0
 10
148.25980402137
 20
-19.78766007654782
 30
0.0
 10
148.4273127224302
 20
-19.85711343283169
 30
0.0
 10
148.5921712854955
 20
-19.93034095623831
 30
0.0
 10
148.7527772448316
 20
-20.01109173797445
 30
0.0
 10
148.9114193652781
 20
-20.0953741518763
 30
0.0
 10
149.0138791164003
 20
-20.15715129404134
 30
0.0
 10
149.0651600737507
 20
-20.18807066440775
 30
0.0
  0
SPLINE
  5
AA
330
1F
100
AcDbEntity
  8
0
  6
Continuous
 62
     7
370
    25
100
AcDbSpline
210
0.0
220
0.0
230
1.0
 70
     8
 71
     3
 72
    23
 73
    19
 74
     0
 42
0.000000001
 43
0.00000001
 40
0.0
 40
0.0
 40
0.0
 40
0.0
 40
0.0551831855100303
 40
0.1110438685368108
 40
0.1682446088005066
 40
0.2267328019663685
 40
0.2864298156588007
 40
0.347466698966411
 40
0.4098428436671044
 40
0.4738143361188999
 40
0.5387752719796354
 40
0.6035282338906252
 40
0.6687518456169294
 40
0.7341761279564575
 40
0.7999681605528858
 40
0.8661567619082334
 40
0.9328001747943987
 40
0.9999999999999999
 40
0.9999999999999999
 40
0.9999999999999999
 40
0.9999999999999999
 10
143.7831087916994
 20
-20.0855065618437
 30
0.0
 10
143.8237293207021
 20
-20.06024819165807
 30
0.0
 10
143.905469086915
 20
-20.00942134807475
 30
0.0
 10
144.0338211578099
 20
-19.94011761999736
 30
0.0
 10
144.1666211465279
 20
-19.87322028904141
 30
0.0
 10
144.3054736398927
 20
-19.81131995981648
 30
0.0
 10
144.4487674165995
 20
-19.75130269515338
 30
0.0
 10
144.5981272250864
 20
-19.69757108939993
 30
0.0
 10
144.7520695340226
 20
-19.64583321151774
 30
0.0
 10
144.9110906469953
 20
-19.59879932269723
 30
0.0
 10
145.0735790844955
 20
-19.55659408503221
 30
0.0
 10
145.2384399118508
 20
-19.51958631258956
 30
0.0
 10
145.4048744709245
 20
-19.48810592601587
 30
0.0
 10
145.573401336318
 20
-19.46378479433722
 30
0.0
 10
145.7432828777288
 20
-19.44347527070003
 30
0.0
 10
145.9148378869463
 20
-19.42888358069447
 30
0.0
 10
146.0880575833224
 20
-19.4211078045077
 30
0.0
 10
146.204042109955
 20
-19.41959795719669
 30
0.0
 10
146.2622754583661
 20
-19.41883989517701
 30
0.0
  0
SPLINE
  5
B1
330
1F
100
AcDbEntity
  8
0
  6
Continuous
 62
     7
370
    25
100
AcDbSpline
210
0.0
220
0.0
230
1.0
 70
     8
 71
     3
 72
    19
 73
    15
 74
     0
 42
0.000000001
 43
0.00000001
 40
0.0
 40
0.0
 40
0.0
 40
0.0
 40
0.1407828023836021
 40
0.2757618394997496
 40
0.4044750150130842
 40
0.5287110395683747
 40
0.5894722108715295
 40
0.6492871637200548
 40
0.7083401455944303
 40
0.7669935324750614
 40
0.8253862604813423
 40
0.8835417572498273
 40
0.941661722516565
 40
1.0
 40
1.0
 40
1.0
 40
1.0
 10
147.8856728942636
 20
-29.58486553620264
 30
0.0
 10
147.8840183580689
 20
-29.67920793612752
 30
0.0
 10
147.8807774938664
 20
-29.86400347440088
 30
0.0
 10
147.8543547293015
 20
-30.13407043859419
 30
0.0
 10
147.8091995466492
 20
-30.39025949151256
 30
0.0
 10
147.7576735695889
 20
-30.59428136386766
 30
0.0
 10
147.7074813266318
 20
-30.75051021397137
 30
0.0
 10
147.6641904162295
 20
-30.8628943115753
 30
0.0
 10
147.6149770538789
 20
-30.97124296188018
 30
0.0
 10
147.5612364131987
 20
-31.07632598888494
 30
0.0
 10
147.5029742335371
 20
-31.17830971259195
 30
0.0
 10
147.438700830206
 20
-31.27620040569662
 30
0.0
 10
147.3688552873064
 20
-31.37016055763242
 30
0.0
 10
147.3186667624243
 20
-31.429926530984
 30
0.0
 10
147.2935254583662
 20
-31.45986553620265
 30
0.0
  0
SPLINE
  5
B2
330
1F
100
AcDbEntity
  8
0
  6
Continuous
 62
     7
370
    25
100
AcDbSpline
210
0.0
220
0.0
230
1.0
 70
     8
 71
     3
 72
    23
 73
    19
 74
     0
 42
0.000000001
 43
0.00000001
 40
0.0
 40
0.0
 40
0.0
 40
0.0
 40
0.0486412444266234
 40
0.0968273970355336
 40
0.1450926226073886
 40
0.1951915258546468
 40
0.2474337415964034
 40
0.3030395512599834
 40
0.362895395134772
 40
0.4272639962782758
 40
0.4943694389129325
 40
0.5619887214172569
 40
0.6305091297698406
 40
0.700230530153882
 40
0.7718993306309658
 40
0.8454874756025091
 40
0.9213296026741058
 40
0.9999999999999999
 40
0.9999999999999999
 40
0.9999999999999999
 40
0.9999999999999999
 10
146.3808652019559
 20
-27.15217322851034
 30
0.0
 10
146.4318062277152
 20
-27.15428696790861
 30
0.0
 10
146.533211670457
 20
-27.15849467037097
 30
0.0
 10
146.6817233919944
 20
-27.19375740051784
 30
0.0
 10
146.825044289391
 20
-27.24950532387453
 30
0.0
 10
146.9616438182662
 20
-27.32921723252985
 30
0.0
 10
147.0925902434719
 20
-27.43069441635345
 30
0.0
 10
147.2170088576139
 20
-27.55491471524882
 30
0.0
 10
147.3365832980359
 20
-27.70053276347455
 30
0.0
 10
147.4479029830596
 20
-27.86719852944944
 30
0.0
 10
147.5501938378447
 20
-28.04884637313496
 30
0.0
 10
147.6400365596172
 20
-28.2417709890562
 30
0.0
 10
147.7165533031331
 20
-28.44331546451211
 30
0.0
 10
147.7778278164409
 20
-28.65438068414518
 30
0.0
 10
147.8270542047388
 20
-28.87399273223201
 30
0.0
 10
147.8611718397484
 20
-29.10294483279105
 30
0.0
 10
147.8812966996649
 20
-29.34091204171978
 30
0.0
 10
147.8841964698098
 20
-29.50256140261445
 30
0.0
 10
147.8856728942636
 20
-29.58486553620264
 30
0.0
  0
SPLINE
  5
B3
330
1F
100
AcDbEntity
  8
0
  6
Continuous
 62
     7
370
    25
100
AcDbSpline
210
0.0
220
0.0
230
1.0
 70
     8
 71
     3
 72
    23
 73
    19
 74
     0
 42
0.000000001
 43
0.00000001
 40
0.0
 40
0.0
 40
0.0
 40
0.0
 40
0.0781809544647587
 40
0.153810946027876
 40
0.2271663162950068
 40
0.2983004198204481
 40
0.367868234949129
 40
0.4359295690692137
 40
0.5031044905747127
 40
0.5699099378392587
 40
0.6340171450478678
 40
0.6934955928699952
 40
0.7493030339671153
 40
0.8020140850215525
 40
0.8524436363344233
 40
0.9014358981331372
 40
0.9503268810754049
 40
1.0
 40
1.0
 40
1.0
 40
1.0
 10
144.8600318686226
 20
-29.56803861312575
 30
0.0
 10
144.8614269552187
 20
-29.48626228090753
 30
0.0
 10
144.8641716081923
 20
-29.32537789279428
 30
0.0
 10
144.8855249220404
 20
-29.08854605585041
 30
0.0
 10
144.9196206247533
 20
-28.86074335535524
 30
0.0
 10
144.9675329683523
 20
-28.64185521645177
 30
0.0
 10
145.0300802374723
 20
-28.43245392045903
 30
0.0
 10
145.1064512889176
 20
-28.23213651278893
 30
0.0
 10
145.1962359688175
 20
-28.04060758967665
 30
0.0
 10
145.2994024329895
 20
-27.86070210050939
 30
0.0
 10
145.411590467235
 20
-27.69590550167242
 30
0.0
 10
145.5313504968869
 20
-27.55109885038904
 30
0.0
 10
145.6572589332251
 20
-27.427945028952
 30
0.0
 10
145.7904284813385
 20
-27.32770935854874
 30
0.0
 10
145.9291082957224
 20
-27.24863441530703
 30
0.0
 10
146.074329514153
 20
-27.19267850051881
 30
0.0
 10
146.2257184344349
 20
-27.1586915064904
 30
0.0
 10
146.328876748633
 20
-27.15435745184885
 30
0.0
 10
146.3808652019559
 20
-27.15217322851034
 30
0.0
  0
SPLINE
  5
B4
330
1F
100
AcDbEntity
  8
0
  6
Continuous
 62
     7
370
    25
100
AcDbSpline
210
0.0
220
0.0
230
1.0
 70
     8
 71
     3
 72
    15
 73
    11
 74
     0
 42
0.000000001
 43
0.00000001
 40
0.0
 40
0.0
 40
0.0
 40
0.0
 40
0.1185581518092449
 40
0.236825762334782
 40
0.3562052757820486
 40
0.4777407459348792
 40
0.6021266315960729
 40
0.7299368362281109
 40
0.8626532492197927
 40
1.0
 40
1.0
 40
1.0
 40
1.0
 10
145.4169228942637
 20
-31.45986553620266
 30
0.0
 10
145.3707349852471
 20
-31.39527931172061
 30
0.0
 10
145.2784723563466
 20
-31.26626513921646
 30
0.0
 10
145.163398171611
 20
-31.05688065156439
 30
0.0
 10
145.0666800821679
 20
-30.83650137837572
 30
0.0
 10
144.9899799307414
 20
-30.60399403709505
 30
0.0
 10
144.9318412939022
 20
-30.36045415958026
 30
0.0
 10
144.890650337979
 20
-30.10601140238196
 30
0.0
 10
144.8640017851312
 20
-29.84077621054317
 30
0.0
 10
144.8613702138956
 20
-29.65998439422453
 30
0.0
 10
144.8600318686226
 20
-29.56803861312575
 30
0.0
  0
SPLINE
  5
C2
330
1F
100
AcDbEntity
  8
0
  6
Continuous
 62
     7
370
    25
100
AcDbSpline
210
0.0
220
0.0
230
1.0
 70
     8
 71
     3
 72
    15
 73
    11
 74
     0
 42
0.000000001
 43
0.00000001
 40
0.0
 40
0.0
 40
0.0
 40
0.0
 40
0.1391376083713825
 40
0.2708939588788452
 40
0.3985887421819672
 40
0.5219912357021967
 40
0.6414098766479912
 40
0.7595350638120133
 40
0.8789938995219728
 40
1.0
 40
1.0
 40
1.0
 40
1.0
 10
154.3351921250328
 20
-25.48534630543334
 30
0.0
 10
154.3517628603076
 20
-25.46798919925276
 30
0.0
 10
154.3840252524292
 20
-25.43419578234003
 30
0.0
 10
154.4357822048811
 20
-25.38887482070933
 30
0.0
 10
154.4891885810931
 20
-25.3498030022524
 30
0.0
 10
154.5457436827976
 20
-25.31978396949704
 30
0.0
 10
154.603018343898
 20
-25.29526552582541
 30
0.0
 10
154.6620341312312
 20
-25.27735453704962
 30
0.0
 10
154.7231534011827
 20
-25.26665457358551
 30
0.0
 10
154.7646372500826
 20
-25.26554972179479
 30
0.0
 10
154.7855126378533
 20
-25.26499374133077
 30
0.0
  0
SPLINE
  5
C3
330
1F
100
AcDbEntity
  8
0
  6
Continuous
 62
     7
370
    25
100
AcDbSpline
210
0.0
220
0.0
230
1.0
 70
     8
 71
     3
 72
    15
 73
    11
 74
     0
 42
0.000000001
 43
0.00000001
 40
0.0
 40
0.0
 40
0.0
 40
0.0
 40
0.1669308253651559
 40
0.3216859262911551
 40
0.4643994428593591
 40
0.5948867204722492
 40
0.7129214878277699
 40
0.8195837013753814
 40
0.9152718147238917
 40
0.9999999999999999
 40
0.9999999999999999
 40
0.9999999999999999
 40
0.9999999999999999
 10
153.9361536634944
 20
-26.31867963876667
 30
0.0
 10
153.9527089192355
 20
-26.26970651002102
 30
0.0
 10
153.9846119111871
 20
-26.17533229094278
 30
0.0
 10
154.0350376977529
 20
-26.04061634039338
 30
0.0
 10
154.0855993102768
 20
-25.91810084748828
 30
0.0
 10
154.1347202970987
 20
-25.80731925828053
 30
0.0
 10
154.1844561220728
 20
-25.70914791819359
 30
0.0
 10
154.2340022857938
 20
-25.62315551721915
 30
0.0
 10
154.2831721250404
 20
-25.54892603489438
 30
0.0
 10
154.3185688857612
 20
-25.50566351142732
 30
0.0
 10
154.3351921250328
 20
-25.48534630543334
 30
0.0
  0
SPLINE
  5
C4
330
1F
100
AcDbEntity
  8
0
  6
Continuous
 62
     7
370
    25
100
AcDbSpline
210
0.0
220
0.0
230
1.0
 70
     8
 71
     3
 72
    15
 73
    11
 74
     0
 42
0.000000001
 43
0.00000001
 40
0.0
 40
0.0
 40
0.0
 40
0.0
 40
0.0699546856899432
 40
0.1561878681314068
 40
0.2572561554836661
 40
0.373831777647498
 40
0.507036813941593
 40
0.6551172724003625
 40
0.8194266219497868
 40
1.0
 40
1.0
 40
1.0
 40
1.0
 10
153.6348716122123
 20
-27.05105143363847
 30
0.0
 10
153.645290189891
 20
-27.03572374571184
 30
0.0
 10
153.6685517544388
 20
-27.00150160780879
 30
0.0
 10
153.7002395984094
 20
-26.94110064708791
 30
0.0
 10
153.7358378739431
 20
-26.86896639066219
 30
0.0
 10
153.7725138027155
 20
-26.7835740355593
 30
0.0
 10
153.810541627621
 20
-26.68533697309791
 30
0.0
 10
153.8505181656795
 20
-26.57433928854877
 30
0.0
 10
153.8930007747857
 20
-26.45093198461235
 30
0.0
 10
153.9213241414791
 20
-26.36412825490727
 30
0.0
 10
153.9361536634944
 20
-26.31867963876667
 30
0.0
  0
SPLINE
  5
C5
330
1F
100
AcDbEntity
  8
0
  6
Continuous
 62
     7
370
    25
100
AcDbSpline
210
0.0
220
0.0
230
1.0
 70
     8
 71
     3
 72
    11
 73
     7
 74
     0
 42
0.000000001
 43
0.00000001
 40
0.0
 40
0.0
 40
0.0
 40
0.0
 40
0.2296198844348457
 40
0.4635695666773171
 40
0.7150166158617768
 40
1.0
 40
1.0
 40
1.0
 40
1.0
 10
153.3560254583662
 20
-27.21371169004873
 30
0.0
 10
153.3817153986538
 20
-27.21165106521035
 30
0.0
 10
153.4335796982828
 20
-27.20749095962648
 30
0.0
 10
153.5076161592937
 20
-27.17445213717566
 30
0.0
 10
153.5768517473885
 20
-27.12236005421634
 30
0.0
 10
153.6147420537933
 20
-27.07579142653672
 30
0.0
 10
153.6348716122124
 20
-27.05105143363848
 30
0.0
  0
SPLINE
  5
C6
330
1F
100
AcDbEntity
  8
0
  6
Continuous
 62
     7
370
    25
100
AcDbSpline
210
0.0
220
0.0
230
1.0
 70
     8
 71
     3
 72
    19
 73
    15
 74
     0
 42
0.000000001
 43
0.00000001
 40
0.0
 40
0.0
 40
0.0
 40
0.0
 40
0.1603266904503157
 40
0.3103205857647532
 40
0.4513492706831028
 40
0.5880634549920305
 40
0.6524574951131564
 40
0.7115975859387071
 40
0.7668915491125197
 40
0.8179936626796126
 40
0.8651728307634275
 40
0.9104413172857596
 40
0.9554041299051454
 40
1.0
 40
1.0
 40
1.0
 40
1.0
 10
152.8856728942636
 20
-26.37717322851027
 30
0.0
 10
152.887224433778
 20
-26.43311195483033
 30
0.0
 10
152.8902275186018
 20
-26.54138424729653
 30
0.0
 10
152.9172601497487
 20
-26.69696461822946
 30
0.0
 10
152.9602088501329
 20
-26.84016574740018
 30
0.0
 10
153.0115546381937
 20
-26.94851735004311
 30
0.0
 10
153.060381742323
 20
-27.02505568680102
 30
0.0
 10
153.0970628079579
 20
-27.0755752163085
 30
0.0
 10
153.1362287734354
 20
-27.11816620220445
 30
0.0
 10
153.1771404260641
 20
-27.1529468203244
 30
0.0
 10
153.219469133959
 20
-27.17994094168269
 30
0.0
 10
153.2632762667261
 20
-27.1998242148058
 30
0.0
 10
153.3092537245265
 20
-27.21113446729363
 30
0.0
 10
153.3404775241161
 20
-27.21285496555607
 30
0.0
 10
153.3560254583662
 20
-27.21371169004873
 30
0.0
  0
SPLINE
  5
C7
330
1F
100
AcDbEntity
  8
0
  6
Continuous
 62
     7
370
    25
100
AcDbSpline
210
0.0
220
0.0
230
1.0
 70
     8
 71
     3
 72
    15
 73
    11
 74
     0
 42
0.000000001
 43
0.00000001
 40
0.0
 40
0.0
 40
0.0
 40
0.0
 40
0.1319716309655184
 40
0.2610897076429958
 40
0.3866084430871405
 40
0.5106689552424103
 40
0.6332772126140318
 40
0.7551893283274761
 40
0.8771743611072962
 40
1.0
 40
1.0
 40
1.0
 40
1.0
 10
153.1933652019559
 20
-25.43646810030514
 30
0.0
 10
153.1687364384826
 20
-25.4732308828594
 30
0.0
 10
153.1200114465443
 20
-25.54596154534354
 30
0.0
 10
153.0581254386154
 20
-25.65997383435347
 30
0.0
 10
153.0044498967501
 20
-25.7750834684702
 30
0.0
 10
152.9612601961607
 20
-25.89225294819998
 30
0.0
 10
152.9273751743794
 20
-26.01117404596456
 30
0.0
 10
152.903403875018
 20
-26.13175024743841
 30
0.0
 10
152.888415357222
 20
-26.25393051804708
 30
0.0
 10
152.8865891388111
 20
-26.33599839290104
 30
0.0
 10
152.8856728942636
 20
-26.37717322851027
 30
0.0
  0
SPLINE
  5
C9
330
1F
100
AcDbEntity
  8
0
  6
Continuous
 62
     7
370
    25
100
AcDbSpline
210
0.0
220
0.0
230
1.0
 70
     8
 71
     3
 72
    15
 73
    11
 74
     0
 42
0.000000001
 43
0.00000001
 40
0.0
 40
0.0
 40
0.0
 40
0.0
 40
0.1367997581407766
 40
0.271472965703642
 40
0.4040687209202548
 40
0.5352378743759663
 40
0.6617987338335185
 40
0.781075365862579
 40
0.89328874140206
 40
0.9999999999999999
 40
0.9999999999999999
 40
0.9999999999999999
 40
0.9999999999999999
 10
152.5266985352893
 20
-26.42765399774105
 30
0.0
 10
152.5278400572486
 20
-26.36162875064447
 30
0.0
 10
152.5301053562223
 20
-26.2306046181151
 30
0.0
 10
152.5509778184021
 20
-26.03651668600844
 30
0.0
 10
152.5836294848036
 20
-25.84694326213097
 30
0.0
 10
152.6287743751247
 20
-25.66392336158063
 30
0.0
 10
152.6857017147025
 20
-25.49091584291519
 30
0.0
 10
152.753819274024
 20
-25.33198320973461
 30
0.0
 10
152.8308434365655
 20
-25.18763758396268
 30
0.0
 10
152.8924854634137
 20
-25.10173658400258
 30
0.0
 10
152.9225318686226
 20
-25.05986553620258
 30
0.0
  0
SPLINE
  5
CA
330
1F
100
AcDbEntity
  8
0
  6
Continuous
 62
     7
370
    25
100
AcDbSpline
210
0.0
220
0.0
230
1.0
 70
     8
 71
     3
 72
    23
 73
    19
 74
     0
 42
0.000000001
 43
0.00000001
 40
0.0
 40
0.0
 40
0.0
 40
0.0
 40
0.0482471716654919
 40
0.095700003054612
 40
0.1435194962447237
 40
0.1924245121089703
 40
0.2439269887901643
 40
0.2984272070165798
 40
0.3570133694549795
 40
0.4199079941606719
 40
0.4857248310927327
 40
0.5527193036092095
 40
0.620927832734465
 40
0.6913032955521305
 40
0.7641769374750743
 40
0.8397829135547392
 40
0.918440789460588
 40
1.0
 40
1.0
 40
1.0
 40
1.0
 10
153.3712498173406
 20
-27.82909630543334
 30
0.0
 10
153.3423049703507
 20
-27.82782565634361
 30
0.0
 10
153.2848918236372
 20
-27.82530527810025
 30
0.0
 10
153.2005373841265
 20
-27.80619453285282
 30
0.0
 10
153.1196096748863
 20
-27.77487647160039
 30
0.0
 10
153.0428719813303
 20
-27.72947638964315
 30
0.0
 10
152.9686022533454
 20
-27.6733422863619
 30
0.0
 10
152.898705865554
 20
-27.60329258516466
 30
0.0
 10
152.8323967596471
 20
-27.52105419962198
 30
0.0
 10
152.7695924737402
 20
-27.42781102768173
 30
0.0
 10
152.7123647559115
 20
-27.32522059217878
 30
0.0
 10
152.6627626159863
 20
-27.21523442859056
 30
0.0
 10
152.6210576488892
 20
-27.09913477801512
 30
0.0
 10
152.5866957412914
 20
-26.97701328340991
 30
0.0
 10
152.5593326687391
 20
-26.8485859451125
 30
0.0
 10
152.5403289831623
 20
-26.71364924487978
 30
0.0
 10
152.5291174331339
 20
-26.57261047063638
 30
0.0
 10
152.5275145102258
 20
-26.47655265174215
 30
0.0
 10
152.5266985352893
 20
-26.42765399774105
 30
0.0
  0
SPLINE
  5
CB
330
1F
100
AcDbEntity
  8
0
  6
Continuous
 62
     7
370
    25
100
AcDbSpline
210
0.0
220
0.0
230
1.0
 70
     8
 71
     3
 72
    15
 73
    11
 74
     0
 42
0.000000001
 43
0.00000001
 40
0.0
 40
0.0
 40
0.0
 40
0.0
 40
0.1413111758092154
 40
0.2741953655402146
 40
0.4030262327324355
 40
0.5256174799943365
 40
0.6455098011999911
 40
0.7627015209231987
 40
0.8814851706981701
 40
1.0
 40
1.0
 40
1.0
 40
1.0
 10
153.8231728942636
 20
-27.60313476697181
 30
0.0
 10
153.8063670133693
 20
-27.62105085532734
 30
0.0
 10
153.7737574576944
 20
-27.6558146195347
 30
0.0
 10
153.7210426305516
 20
-27.70213270940484
 30
0.0
 10
153.6667609877367
 20
-27.74113848227583
 30
0.0
 10
153.611168241189
 20
-27.77423297893175
 30
0.0
 10
153.5530683899509
 20
-27.79777687371469
 30
0.0
 10
153.493866213433
 20
-27.81573824752729
 30
0.0
 10
153.433156845724
 20
-27.82763262468454
 30
0.0
 10
153.391869903011
 20
-27.82860878045884
 30
0.0
 10
153.3712498173406
 20
-27.82909630543334
 30
0.0
  0
SPLINE
  5
CC
330
1F
100
AcDbEntity
  8
0
  6
Continuous
 62
     7
370
    25
100
AcDbSpline
210
0.0
220
0.0
230
1.0
 70
     8
 71
     3
 72
    15
 73
    11
 74
     0
 42
0.000000001
 43
0.00000001
 40
0.0
 40
0.0
 40
0.0
 40
0.0
 40
0.1683599380208821
 40
0.3231653554166522
 40
0.4663758978310018
 40
0.5970503274931204
 40
0.7149816119237514
 40
0.8215424810290695
 40
0.9160695506282942
 40
1.0
 40
1.0
 40
1.0
 40
1.0
 10
154.23342930452
 20
-26.73374374133077
 30
0.0
 10
154.2160550960349
 20
-26.78511396916038
 30
0.0
 10
154.1827054623502
 20
-26.88371864987921
 30
0.0
 10
154.1305253011368
 20
-27.0246133802001
 30
0.0
 10
154.0784744704817
 20
-27.15251313106268
 30
0.0
 10
154.027895681655
 20
-27.26818764389574
 30
0.0
 10
153.9760770272899
 20
-27.37022016460132
 30
0.0
 10
153.9264211278352
 20
-27.46022120819735
 30
0.0
 10
153.8759255166384
 20
-27.53706783525897
 30
0.0
 10
153.8400469579999
 20
-27.58200183430613
 30
0.0
 10
153.8231728942636
 20
-27.60313476697181
 30
0.0
  0
SPLINE
  5
CD
330
1F
100
AcDbEntity
  8
0
  6
Continuous
 62
     7
370
    25
100
AcDbSpline
210
0.0
220
0.0
230
1.0
 70
     8
 71
     3
 72
    15
 73
    11
 74
     0
 42
0.000000001
 43
0.00000001
 40
0.0
 40
0.0
 40
0.0
 40
0.0
 40
0.0754091243635807
 40
0.1648236943982193
 40
0.267872227622367
 40
0.3856994889107137
 40
0.51702195448459
 40
0.6635259917936454
 40
0.8240749176751168
 40
1.0
 40
1.0
 40
1.0
 40
1.0
 10
154.5347113558021
 20
-26.0446411772282
 30
0.0
 10
154.5234227086171
 20
-26.05991495462449
 30
0.0
 10
154.4987488173675
 20
-26.09329924915278
 30
0.0
 10
154.466516811989
 20
-26.15262582198624
 30
0.0
 10
154.429536449386
 20
-26.22136827782035
 30
0.0
 10
154.3937845607934
 20
-26.30251014991696
 30
0.0
 10
154.3545715855321
 20
-26.39400327282831
 30
0.0
 10
154.3164248370621
 20
-26.49751134156706
 30
0.0
 10
154.2738227931348
 20
-26.61131117032862
 30
0.0
 10
154.2472978455484
 20
-26.69170822540027
 30
0.0
 10
154.23342930452
 20
-26.73374374133077
 30
0.0
  0
SPLINE
  5
CE
330
1F
100
AcDbEntity
  8
0
  6
Continuous
 62
     7
370
    25
100
AcDbSpline
210
0.0
220
0.0
230
1.0
 70
     8
 71
     3
 72
    11
 73
     7
 74
     0
 42
0.000000001
 43
0.00000001
 40
0.0
 40
0.0
 40
0.0
 40
0.0
 40
0.2159859923904272
 40
0.4426704848506668
 40
0.7009766372487578
 40
1.0
 40
1.0
 40
1.0
 40
1.0
 10
154.7999357147765
 20
-25.88037835671539
 30
0.0
 10
154.7766232122806
 20
-25.88248930455105
 30
0.0
 10
154.7288434619889
 20
-25.88681576244565
 30
0.0
 10
154.660016342525
 20
-25.92083117023021
 30
0.0
 10
154.5933796881633
 20
-25.97328348750265
 30
0.0
 10
154.5551973055576
 20
-26.01972432707152
 30
0.0
 10
154.5347113558021
 20
-26.0446411772282
 30
0.0
  0
SPLINE
  5
CF
330
1F
100
AcDbEntity
  8
0
  6
Continuous
 62
     7
370
    25
100
AcDbSpline
210
0.0
220
0.0
230
1.0
 70
     8
 71
     3
 72
    19
 73
    15
 74
     0
 42
0.000000001
 43
0.00000001
 40
0.0
 40
0.0
 40
0.0
 40
0.0
 40
0.1556545550983755
 40
0.3020005062188684
 40
0.4424164066188909
 40
0.5784163454497929
 40
0.6437431170912798
 40
0.7034430959358419
 40
0.7587350034204561
 40
0.810294580137366
 40
0.8601264362852171
 40
0.9069107179775666
 40
0.9535054070477627
 40
1.0
 40
1.0
 40
1.0
 40
1.0
 10
155.1933652019559
 20
-26.53021810030512
 30
0.0
 10
155.1921695635286
 20
-26.48710085348136
 30
0.0
 10
155.1898497893974
 20
-26.40344489905515
 30
0.0
 10
155.1664630277532
 20
-26.28279726000633
 30
0.0
 10
155.1303500574145
 20
-26.17113524033623
 30
0.0
 10
155.0862383567366
 20
-26.08698035997226
 30
0.0
 10
155.0458954386384
 20
-26.0269824351378
 30
0.0
 10
155.0143334118186
 20
-25.98829628024379
 30
0.0
 10
154.9825743456744
 20
-25.95471104916403
 30
0.0
 10
154.9481124011939
 20
-25.92825880292035
 30
0.0
 10
154.9134827331955
 20
-25.90600168379035
 30
0.0
 10
154.8763621011022
 20
-25.89160438135722
 30
0.0
 10
154.8385821342869
 20
-25.8823896952847
 30
0.0
 10
154.8128086167827
 20
-25.88104832212568
 30
0.0
 10
154.7999357147764
 20
-25.88037835671539
 30
0.0
  0
SPLINE
  5
D0
330
1F
100
AcDbEntity
  8
0
  6
Continuous
 62
     7
370
    25
100
AcDbSpline
210
0.0
220
0.0
230
1.0
 70
     8
 71
     3
 72
    15
 73
    11
 74
     0
 42
0.000000001
 43
0.00000001
 40
0.0
 40
0.0
 40
0.0
 40
0.0
 40
0.1412615421882089
 40
0.2763720514238463
 40
0.4066468166784618
 40
0.5319496682939686
 40
0.6529681352021885
 40
0.7704649802307698
 40
0.8861271182755067
 40
1.0
 40
1.0
 40
1.0
 40
1.0
 10
154.8856728942636
 20
-27.39239758748462
 30
0.0
 10
154.91017478904
 20
-27.35610072110538
 30
0.0
 10
154.9581116784315
 20
-27.28508748377206
 30
0.0
 10
155.020814614482
 20
-27.1756158430743
 30
0.0
 10
155.073832258203
 20
-27.06665513149792
 30
0.0
 10
155.1173717424329
 20
-26.95824872396566
 30
0.0
 10
155.1513006870524
 20
-26.8505794893617
 30
0.0
 10
155.1754872588701
 20
-26.74340456550667
 30
0.0
 10
155.1905226702042
 20
-26.63668323616517
 30
0.0
 10
155.1924226281812
 20
-26.56552157401915
 30
0.0
 10
155.1933652019559
 20
-26.53021810030512
 30
0.0
  0
SPLINE
  5
D2
330
1F
100
AcDbEntity
  8
0
  6
Continuous
 62
     7
370
    25
100
AcDbSpline
210
0.0
220
0.0
230
1.0
 70
     8
 71
     3
 72
    15
 73
    11
 74
     0
 42
0.000000001
 43
0.00000001
 40
0.0
 40
0.0
 40
0.0
 40
0.0
 40
0.1164336848478705
 40
0.2342285977201108
 40
0.3530834866831002
 40
0.4753803457398907
 40
0.6000806277228407
 40
0.7289313306075523
 40
0.8619578954363905
 40
1.0
 40
1.0
 40
1.0
 40
1.0
 10
155.5523395609302
 20
-26.51339117722819
 30
0.0
 10
155.5510653802893
 20
-26.56579376804617
 30
0.0
 10
155.5485021225417
 20
-26.67121158918817
 30
0.0
 10
155.5288520316571
 20
-26.82916703970766
 30
0.0
 10
155.4953311153119
 20
-26.98731001132267
 30
0.0
 10
155.4498824795962
 20
-27.14570199274037
 30
0.0
 10
155.3907277180186
 20
-27.30431693195491
 30
0.0
 10
155.3191582245235
 20
-27.46296791271169
 30
0.0
 10
155.2352394426376
 20
-27.62237856118167
 30
0.0
 10
155.1697995397345
 20
-27.72536716268424
 30
0.0
 10
155.1364741763149
 20
-27.77781425415128
 30
0.0
  0
SPLINE
  5
D3
330
1F
100
AcDbEntity
  8
0
  6
Continuous
 62
     7
370
    25
100
AcDbSpline
210
0.0
220
0.0
230
1.0
 70
     8
 71
     3
 72
    23
 73
    19
 74
     0
 42
0.000000001
 43
0.00000001
 40
0.0
 40
0.0
 40
0.0
 40
0.0
 40
0.0501875134222888
 40
0.0989016334411276
 40
0.1475223418303775
 40
0.1972128638566888
 40
0.2485692328703017
 40
0.3029107522011999
 40
0.3609858463640055
 40
0.4227200207025771
 40
0.487528254836167
 40
0.5538673302441753
 40
0.6214613821255036
 40
0.691596130091635
 40
0.7645120287159618
 40
0.8395947350987372
 40
0.9181826763277242
 40
1.0
 40
1.0
 40
1.0
 40
1.0
 10
154.7855126378533
 20
-25.26499374133077
 30
0.0
 10
154.8125877460205
 20
-25.26600790325384
 30
0.0
 10
154.8659430975955
 20
-25.26800645356895
 30
0.0
 10
154.9438146460417
 20
-25.28585402203292
 30
0.0
 10
155.0184161413514
 20
-25.31307501312146
 30
0.0
 10
155.0894401529472
 20
-25.35196576994828
 30
0.0
 10
155.1564786206702
 20
-25.40252944604894
 30
0.0
 10
155.2199911407398
 20
-25.46406612988652
 30
0.0
 10
155.2799733050481
 20
-25.53645294764055
 30
0.0
 10
155.3356040777097
 20
-25.61906018978245
 30
0.0
 10
155.3867557483762
 20
-25.7096844232311
 30
0.0
 10
155.4302884936611
 20
-25.80765477009706
 30
0.0
 10
155.468333611708
 20
-25.91089380173509
 30
0.0
 10
155.4996196540291
 20
-26.02011011534541
 30
0.0
 10
155.523427245917
 20
-26.1353154635077
 30
0.0
 10
155.5399584304194
 20
-26.25633308553944
 30
0.0
 10
155.5508165858
 20
-26.38285013881893
 30
0.0
 10
155.5518251343034
 20
-26.46929736064839
 30
0.0
 10
155.5523395609302
 20
-26.51339117722819
 30
0.0
  0
SPLINE
  5
D9
330
1F
100
AcDbEntity
  8
0
  6
Continuous
 62
     7
370
    25
100
AcDbSpline
210
0.0
220
0.0
230
1.0
 70
     8
 71
     3
 72
    15
 73
    11
 74
     0
 42
0.000000001
 43
0.00000001
 40
0.0
 40
0.0
 40
0.0
 40
0.0
 40
0.1342564906836216
 40
0.2625960987039068
 40
0.386971177965865
 40
0.5082500189080892
 40
0.6285802043150219
 40
0.7495980899447551
 40
0.8729126577255883
 40
1.0
 40
1.0
 40
1.0
 40
1.0
 10
154.9770190481097
 20
-21.07252579261282
 30
0.0
 10
154.9427735082762
 20
-21.11247646272039
 30
0.0
 10
154.8757916803401
 20
-21.19061711765217
 30
0.0
 10
154.7645054174729
 20
-21.29413451608154
 30
0.0
 10
154.6460997949286
 20
-21.38088670934301
 30
0.0
 10
154.521896718057
 20
-21.45306397409672
 30
0.0
 10
154.3911697362963
 20
-21.50956751539552
 30
0.0
 10
154.2540130593509
 20
-21.55034325717375
 30
0.0
 10
154.1105086910088
 20
-21.57700047856295
 30
0.0
 10
154.0123929768888
 20
-21.58094200355141
 30
0.0
 10
153.9625959711866
 20
-21.58294245927949
 30
0.0
  0
SPLINE
  5
DA
330
1F
100
AcDbEntity
  8
0
  6
Continuous
 62
     7
370
    25
100
AcDbSpline
210
0.0
220
0.0
230
1.0
 70
     8
 71
     3
 72
    15
 73
    11
 74
     0
 42
0.000000001
 43
0.00000001
 40
0.0
 40
0.0
 40
0.0
 40
0.0
 40
0.1430315648145791
 40
0.2795012351515903
 40
0.4100483234290815
 40
0.5346458689806497
 40
0.6550575246126343
 40
0.7722920525242151
 40
0.8868964497636367
 40
1.0
 40
1.0
 40
1.0
 40
1.0
 10
155.5523395609302
 20
-19.18550656184358
 30
0.0
 10
155.5508093326779
 20
-19.28146378079643
 30
0.0
 10
155.5478190788334
 20
-19.46897596563342
 30
0.0
 10
155.5197719281764
 20
-19.74288546837956
 30
0.0
 10
155.4756646192316
 20
-20.00202354083967
 30
0.0
 10
155.4132124460833
 20
-20.24636185972604
 30
0.0
 10
155.3323570734908
 20
-20.4758723709591
 30
0.0
 10
155.2325586070632
 20
-20.69031373382882
 30
0.0
 10
155.116258490449
 20
-20.89099256062937
 30
0.0
 10
155.02322780388
 20
-21.01228119065238
 30
0.0
 10
154.9770190481097
 20
-21.07252579261282
 30
0.0
  0
SPLINE
  5
DB
330
1F
100
AcDbEntity
  8
0
  6
Continuous
 62
     7
370
    25
100
AcDbSpline
210
0.0
220
0.0
230
1.0
 70
     8
 71
     3
 72
    15
 73
    11
 74
     0
 42
0.000000001
 43
0.00000001
 40
0.0
 40
0.0
 40
0.0
 40
0.0
 40
0.1126800005989785
 40
0.226786325684513
 40
0.3435438780032612
 40
0.4641578350564984
 40
0.5888885369105752
 40
0.7195659585847978
 40
0.8563425024365477
 40
0.9999999999999999
 40
0.9999999999999999
 40
0.9999999999999999
 40
0.9999999999999999
 10
155.0074677660584
 20
-17.35377579261281
 30
0.0
 10
155.051090590434
 20
-17.41255024393498
 30
0.0
 10
155.1388884250412
 20
-17.53084312455819
 30
0.0
 10
155.2506277309689
 20
-17.72453456373667
 30
0.0
 10
155.3430380874713
 20
-17.93347818803001
 30
0.0
 10
155.4204260187995
 20
-18.15577270393996
 30
0.0
 10
155.4790717540616
 20
-18.39302473118035
 30
0.0
 10
155.5226755797815
 20
-18.64408556790773
 30
0.0
 10
155.5470598791094
 20
-18.91018330882567
 30
0.0
 10
155.5505511124265
 20
-19.09224308942242
 30
0.0
 10
155.5523395609302
 20
-19.18550656184358
 30
0.0
  0
SPLINE
  5
DC
330
1F
100
AcDbEntity
  8
0
  6
Continuous
 62
     7
370
    25
100
AcDbSpline
210
0.0
220
0.0
230
1.0
 70
     8
 71
     3
 72
    15
 73
    11
 74
     0
 42
0.000000001
 43
0.00000001
 40
0.0
 40
0.0
 40
0.0
 40
0.0
 40
0.1167219295051353
 40
0.2324347286801629
 40
0.348630439513841
 40
0.4677087313995405
 40
0.5904345695510328
 40
0.7191717976118469
 40
0.8554696386454369
 40
1.0
 40
1.0
 40
1.0
 40
1.0
 10
154.0315062275968
 20
-16.81371169004872
 30
0.0
 10
154.0764833495568
 20
-16.81553513141957
 30
0.0
 10
154.1660487395729
 20
-16.81916624942879
 30
0.0
 10
154.298509065519
 20
-16.8445009448203
 30
0.0
 10
154.4270395335586
 20
-16.88763456389069
 30
0.0
 10
154.5515988611459
 20
-16.94755784142609
 30
0.0
 10
154.6729686928663
 20
-17.02336202842535
 30
0.0
 10
154.7891483044959
 20
-17.11768659093933
 30
0.0
 10
154.9028853905279
 20
-17.22746814090716
 30
0.0
 10
154.9719322677397
 20
-17.31085837634584
 30
0.0
 10
155.0074677660584
 20
-17.35377579261281
 30
0.0
  0
SPLINE
  5
DD
330
1F
100
AcDbEntity
  8
0
  6
Continuous
 62
     7
370
    25
100
AcDbSpline
210
0.0
220
0.0
230
1.0
 70
     8
 71
     3
 72
    23
 73
    19
 74
     0
 42
0.000000001
 43
0.00000001
 40
0.0
 40
0.0
 40
0.0
 40
0.0
 40
0.0875067036494351
 40
0.1706303404637907
 40
0.2491638638941562
 40
0.3239770505916202
 40
0.39498755641015
 40
0.4629346917213119
 40
0.528603451265827
 40
0.5921575274870657
 40
0.6527680449138518
 40
0.7095376398021663
 40
0.7627723065276012
 40
0.8130876446330677
 40
0.8611005991848919
 40
0.9075515534861224
 40
0.9537069937595969
 40
0.9999999999999999
 40
0.9999999999999999
 40
0.9999999999999999
 40
0.9999999999999999
 10
152.5266985352892
 20
-19.19271810030515
 30
0.0
 10
152.5280156731818
 20
-19.10212886014562
 30
0.0
 10
152.5305839756967
 20
-18.92548784584457
 30
0.0
 10
152.552434949702
 20
-18.66828587860127
 30
0.0
 10
152.5881503573336
 20
-18.42598089669994
 30
0.0
 10
152.6381583083327
 20
-18.19897350577581
 30
0.0
 10
152.7029454953474
 20
-17.98711827863216
 30
0.0
 10
152.7825158835877
 20
-17.79054919751982
 30
0.0
 10
152.875804032884
 20
-17.60863360352462
 30
0.0
 10
152.9841616529261
 20
-17.44430053236953
 30
0.0
 10
153.1007614324306
 20
-17.29749927596834
 30
0.0
 10
153.2215460562357
 20
-17.16834120872846
 30
0.0
 10
153.3469127079716
 20
-17.05908759308227
 30
0.0
 10
153.4766308348282
 20
-16.97023973942864
 30
0.0
 10
153.6096683358951
 20
-16.90040613314982
 30
0.0
 10
153.7465590009534
 20
-16.84987328883161
 30
0.0
 10
153.887770770654
 20
-16.81907938910354
 30
0.0
 10
153.9835469027294
 20
-16.81550269714074
 30
0.0
 10
154.0315062275968
 20
-16.81371169004872
 30
0.0
  0
SPLINE
  5
DE
330
1F
100
AcDbEntity
  8
0
  6
Continuous
 62
     7
370
    25
100
AcDbSpline
210
0.0
220
0.0
230
1.0
 70
     8
 71
     3
 72
    19
 73
    15
 74
     0
 42
0.000000001
 43
0.00000001
 40
0.0
 40
0.0
 40
0.0
 40
0.0
 40
0.0766227698023594
 40
0.1521849682155958
 40
0.2272434548159105
 40
0.3025789204818796
 40
0.3787458428279918
 40
0.4570996132546148
 40
0.5381495480707315
 40
0.6218167669713878
 40
0.7090154150213929
 40
0.8010790546584581
 40
0.8979864042121883
 40
1.0
 40
1.0
 40
1.0
 40
1.0
 10
153.3335895609302
 20
-21.37781425415129
 30
0.0
 10
153.2881288670505
 20
-21.33646480369442
 30
0.0
 10
153.1978367218957
 20
-21.25433823975338
 30
0.0
 10
153.0781384969248
 20
-21.11666096341318
 30
0.0
 10
152.9693110731601
 20
-20.97164482966337
 30
0.0
 10
152.8769266422514
 20
-20.81498575650183
 30
0.0
 10
152.7954515600992
 20
-20.64961949877546
 30
0.0
 10
152.7251676384535
 20
-20.47422752579227
 30
0.0
 10
152.6643107810359
 20
-20.28905896185375
 30
0.0
 10
152.6136001466504
 20
-20.09349974382025
 30
0.0
 10
152.5743493707207
 20
-19.88632188449531
 30
0.0
 10
152.5468190334745
 20
-19.66661599659412
 30
0.0
 10
152.5297008149065
 20
-19.43390968373404
 30
0.0
 10
152.5277162760184
 20
-19.27447947142261
 30
0.0
 10
152.5266985352892
 20
-19.19271810030515
 30
0.0
  0
SPLINE
  5
E0
330
1F
100
AcDbEntity
  8
0
  6
Continuous
 62
     7
370
    25
100
AcDbSpline
210
0.0
220
0.0
230
1.0
 70
     8
 71
     3
 72
    19
 73
    15
 74
     0
 42
0.000000001
 43
0.00000001
 40
0.0
 40
0.0
 40
0.0
 40
0.0
 40
0.0913377392588079
 40
0.1812092176624122
 40
0.2707116372388665
 40
0.3596023179115587
 40
0.445521222911548
 40
0.526149388786188
 40
0.6015151038242518
 40
0.6716761663306642
 40
0.7425877863139285
 40
0.8211594805399862
 40
0.9064620938651582
 40
1.0
 40
1.0
 40
1.0
 40
1.0
 10
152.8856728942635
 20
-19.14303861312565
 30
0.0
 10
152.8863719887006
 20
-19.20048784336886
 30
0.0
 10
152.8877589548883
 20
-19.31446406121877
 30
0.0
 10
152.9010568766741
 20
-19.48431147619495
 30
0.0
 10
152.9227231980807
 20
-19.65168070975604
 30
0.0
 10
152.9520861034964
 20
-19.81534990058375
 30
0.0
 10
152.9881805224288
 20
-19.97197952381763
 30
0.0
 10
153.0317114904159
 20
-20.11783628350061
 30
0.0
 10
153.0791992147568
 20
-20.25198637174297
 30
0.0
 10
153.1340455859873
 20
-20.37673042049215
 30
0.0
 10
153.2011448847239
 20
-20.49773618562627
 30
0.0
 10
153.2852371778158
 20
-20.61927676816225
 30
0.0
 10
153.384838163793
 20
-20.74707298744512
 30
0.0
 10
153.4611464401869
 20
-20.82975951378689
 30
0.0
 10
153.5010575096481
 20
-20.8730065618436
 30
0.0
  0
SPLINE
  5
E1
330
1F
100
AcDbEntity
  8
0
  6
Continuous
 62
     7
370
    25
100
AcDbSpline
210
0.0
220
0.0
230
1.0
 70
     8
 71
     3
 72
    23
 73
    19
 74
     0
 42
0.000000001
 43
0.00000001
 40
0.0
 40
0.0
 40
0.0
 40
0.0
 40
0.0520368647074099
 40
0.1030709112752027
 40
0.1537641505700488
 40
0.204803266577268
 40
0.2574591909004972
 40
0.3129115912010853
 40
0.3713966184903966
 40
0.4337485159862053
 40
0.4984823521491994
 40
0.5642982651829527
 40
0.6314422558938083
 40
0.7003124970113318
 40
0.7712781103567116
 40
0.8446766116103541
 40
0.9208428965267936
 40
1.0
 40
1.0
 40
1.0
 40
1.0
 10
153.9625959711866
 20
-17.42909630543334
 30
0.0
 10
153.9239878828125
 20
-17.43173022713453
 30
0.0
 10
153.8475157341986
 20
-17.43694731143615
 30
0.0
 10
153.7360055962344
 20
-17.46413950338571
 30
0.0
 10
153.6304459356387
 20
-17.50641123199854
 30
0.0
 10
153.5297646850202
 20
-17.56201373440057
 30
0.0
 10
153.4354093085497
 20
-17.63377574222609
 30
0.0
 10
153.3463193761541
 20
-17.72000110307233
 30
0.0
 10
153.2629793365491
 20
-17.82124038698987
 30
0.0
 10
153.1849178375492
 20
-17.93503565789417
 30
0.0
 10
153.1153524252979
 20
-18.06045349479474
 30
0.0
 10
153.0533019328941
 20
-18.19364680911809
 30
0.0
 10
153.0012647461695
 20
-18.33438071752899
 30
0.0
 10
152.9588373090925
 20
-18.48224433460833
 30
0.0
 10
152.9259820449113
 20
-18.63729319983413
 30
0.0
 10
152.9032800651833
 20
-18.79956205034324
 30
0.0
 10
152.8882352047594
 20
-18.96887786541102
 30
0.0
 10
152.8865378919247
 20
-19.08424455218569
 30
0.0
 10
152.8856728942635
 20
-19.14303861312565
 30
0.0
  0
SPLINE
  5
F6
330
1F
100
AcDbEntity
  8
0
  6
Continuous
 62
     7
370
    25
100
AcDbSpline
210
0.0
220
0.0
230
1.0
 70
     8
 71
     3
 72
    15
 73
    11
 74
     0
 42
0.000000001
 43
0.00000001
 40
0.0
 40
0.0
 40
0.0
 40
0.0
 40
0.0929477586755862
 40
0.1887204515450921
 40
0.2961449054465171
 40
0.4207621173566577
 40
0.5559395402698982
 40
0.6952523826069567
 40
0.8431274053104049
 40
1.0
 40
1.0
 40
1.0
 40
1.0
 10
156.4225318686224
 20
-10.721403997741
 30
0.0
 10
156.402166216411
 20
-10.71948165401047
 30
0.0
 10
156.3608159446444
 20
-10.71557854131557
 30
0.0
 10
156.3024023684563
 20
-10.68455820761659
 30
0.0
 10
156.249690667896
 20
-10.63544254387411
 30
0.0
 10
156.2039885621532
 20
-10.56897502613485
 30
0.0
 10
156.1655625377757
 20
-10.49056126606759
 30
0.0
 10
156.1360859010574
 20
-10.40288931384523
 30
0.0
 10
156.1195155153116
 20
-10.306966669926
 30
0.0
 10
156.1174865565695
 20
-10.24043013879934
 30
0.0
 10
156.1164421250327
 20
-10.20617963876665
 30
0.0
  0
SPLINE
  5
F7
330
1F
100
AcDbEntity
  8
0
  6
Continuous
 62
     7
370
    25
100
AcDbSpline
210
0.0
220
0.0
230
1.0
 70
     8
 71
     3
 72
    15
 73
    11
 74
     0
 42
0.000000001
 43
0.00000001
 40
0.0
 40
0.0
 40
0.0
 40
0.0
 40
0.1561818244526251
 40
0.3034056966815312
 40
0.4421050911100844
 40
0.5766872759535808
 40
0.7007557504556621
 40
0.8086124154677633
 40
0.9050546489233676
 40
1.0
 40
1.0
 40
1.0
 40
1.0
 10
156.7318267404173
 20
-10.20617963876664
 30
0.0
 10
156.7307826094458
 20
-10.24043044088364
 30
0.0
 10
156.7287542345953
 20
-10.30696755885259
 30
0.0
 10
156.7121797411836
 20
-10.40288607434729
 30
0.0
 10
156.6827175162336
 20
-10.49057251117003
 30
0.0
 10
156.6442411584003
 20
-10.56893568341351
 30
0.0
 10
156.5985913151731
 20
-10.63573403515757
 30
0.0
 10
156.5449974425393
 20
-10.68459452276559
 30
0.0
 10
156.4855787335833
 20
-10.71572456802354
 30
0.0
 10
156.4434376254654
 20
-10.71952075141695
 30
0.0
 10
156.4225318686224
 20
-10.721403997741
 30
0.0
  0
SPLINE
  5
F8
330
1F
100
AcDbEntity
  8
0
  6
Continuous
 62
     7
370
    25
100
AcDbSpline
210
0.0
220
0.0
230
1.0
 70
     8
 71
     3
 72
    15
 73
    11
 74
     0
 42
0.000000001
 43
0.00000001
 40
0.0
 40
0.0
 40
0.0
 40
0.0
 40
0.0956167756552311
 40
0.1927410191852934
 40
0.3013604136521144
 40
0.4253082524068586
 40
0.5608421614340104
 40
0.7005223956972727
 40
0.8451639175898027
 40
1.0
 40
1.0
 40
1.0
 40
1.0
 10
156.4225318686224
 20
-9.695762972099974
 30
0.0
 10
156.4434357828902
 20
-9.697647531578216
 30
0.0
 10
156.4855731768083
 20
-9.701446361982835
 30
0.0
 10
156.5450211971396
 20
-9.732555517805059
 30
0.0
 10
156.5983226167014
 20
-9.78136169850309
 30
0.0
 10
156.6444954385625
 20
-9.84750952802467
 30
0.0
 10
156.6826969365141
 20
-9.925822316932578
 30
0.0
 10
156.7118366605289
 20
-10.01273722243869
 30
0.0
 10
156.7288671333582
 20
-10.10722663892996
 30
0.0
 10
156.7308180673882
 20
-10.17245515437282
 30
0.0
 10
156.7318267404173
 20
-10.20617963876664
 30
0.0
  0
SPLINE
  5
F9
330
1F
100
AcDbEntity
  8
0
  6
Continuous
 62
     7
370
    25
100
AcDbSpline
210
0.0
220
0.0
230
1.0
 70
     8
 71
     3
 72
    15
 73
    11
 74
     0
 42
0.000000001
 43
0.00000001
 40
0.0
 40
0.0
 40
0.0
 40
0.0
 40
0.1555257650163291
 40
0.3008115601313593
 40
0.4411139686739771
 40
0.5772515831045596
 40
0.7017515197109802
 40
0.8099390303948808
 40
0.9063920153228151
 40
1.0
 40
1.0
 40
1.0
 40
1.0
 10
156.1164421250327
 20
-10.20617963876665
 30
0.0
 10
156.1174510928239
 20
-10.17245545027968
 30
0.0
 10
156.1194025969708
 20
-10.10722750716775
 30
0.0
 10
156.1364290548008
 20
-10.01273406008481
 30
0.0
 10
156.1655831733688
 20
-9.925833605033448
 30
0.0
 10
156.2037342437686
 20
-9.84747019273742
 30
0.0
 10
156.2499571528615
 20
-9.781651263754174
 30
0.0
 10
156.3023788877475
 20
-9.732592000683244
 30
0.0
 10
156.3608213389796
 20
-9.7015922792342
 30
0.0
 10
156.402167996489
 20
-9.697686586526796
 30
0.0
 10
156.4225318686224
 20
-9.695762972099974
 30
0.0
  0
SPLINE
  5
10B
330
1F
100
AcDbEntity
  8
0
  6
Continuous
 62
     7
370
    25
100
AcDbSpline
210
0.0
220
0.0
230
1.0
 70
     8
 71
     3
 72
    15
 73
    11
 74
     0
 42
0.000000001
 43
0.00000001
 40
0.0
 40
0.0
 40
0.0
 40
0.0
 40
0.1342564906836256
 40
0.2625960987039104
 40
0.3869711779658664
 40
0.5082500189080917
 40
0.6285802043150229
 40
0.7495980899447547
 40
0.8729126577255887
 40
1.0
 40
1.0
 40
1.0
 40
1.0
 10
154.9770190481099
 20
-40.71355143363845
 30
0.0
 10
154.9427735082764
 20
-40.75350210374604
 30
0.0
 10
154.8757916803402
 20
-40.83164275867781
 30
0.0
 10
154.7645054174731
 20
-40.93516015710718
 30
0.0
 10
154.6460997949288
 20
-41.02191235036865
 30
0.0
 10
154.5218967180572
 20
-41.09408961512237
 30
0.0
 10
154.3911697362964
 20
-41.15059315642116
 30
0.0
 10
154.2540130593513
 20
-41.19136889819939
 30
0.0
 10
154.110508691009
 20
-41.2180261195886
 30
0.0
 10
154.012392976889
 20
-41.22196764457707
 30
0.0
 10
153.9625959711868
 20
-41.22396810030514
 30
0.0
  0
SPLINE
  5
10C
330
1F
100
AcDbEntity
  8
0
  6
Continuous
 62
     7
370
    25
100
AcDbSpline
210
0.0
220
0.0
230
1.0
 70
     8
 71
     3
 72
    15
 73
    11
 74
     0
 42
0.000000001
 43
0.00000001
 40
0.0
 40
0.0
 40
0.0
 40
0.0
 40
0.1430315648145793
 40
0.2795012351515907
 40
0.4100483234290837
 40
0.534645868980652
 40
0.6550575246126352
 40
0.7722920525242177
 40
0.8868964497636379
 40
1.0
 40
1.0
 40
1.0
 40
1.0
 10
155.5523395609304
 20
-38.82653220286922
 30
0.0
 10
155.5508093326781
 20
-38.92248942182207
 30
0.0
 10
155.5478190788336
 20
-39.11000160665905
 30
0.0
 10
155.5197719281767
 20
-39.3839111094052
 30
0.0
 10
155.4756646192318
 20
-39.64304918186532
 30
0.0
 10
155.4132124460835
 20
-39.88738750075168
 30
0.0
 10
155.332357073491
 20
-40.11689801198474
 30
0.0
 10
155.2325586070634
 20
-40.33133937485446
 30
0.0
 10
155.1162584904492
 20
-40.53201820165502
 30
0.0
 10
155.0232278038802
 20
-40.65330683167801
 30
0.0
 10
154.9770190481099
 20
-40.71355143363845
 30
0.0
  0
SPLINE
  5
10D
330
1F
100
AcDbEntity
  8
0
  6
Continuous
 62
     7
370
    25
100
AcDbSpline
210
0.0
220
0.0
230
1.0
 70
     8
 71
     3
 72
    15
 73
    11
 74
     0
 42
0.000000001
 43
0.00000001
 40
0.0
 40
0.0
 40
0.0
 40
0.0
 40
0.1126800005989785
 40
0.2267863256845145
 40
0.3435438780032628
 40
0.4641578350564983
 40
0.5888885369105769
 40
0.7195659585847978
 40
0.8563425024365477
 40
0.9999999999999999
 40
0.9999999999999999
 40
0.9999999999999999
 40
0.9999999999999999
 10
155.0074677660586
 20
-36.99480143363845
 30
0.0
 10
155.0510905904342
 20
-37.05357588496062
 30
0.0
 10
155.1388884250414
 20
-37.17186876558384
 30
0.0
 10
155.2506277309691
 20
-37.36556020476231
 30
0.0
 10
155.3430380874714
 20
-37.57450382905565
 30
0.0
 10
155.4204260187997
 20
-37.79679834496559
 30
0.0
 10
155.4790717540618
 20
-38.034050372206
 30
0.0
 10
155.5226755797816
 20
-38.28511120893336
 30
0.0
 10
155.5470598791096
 20
-38.55120894985131
 30
0.0
 10
155.5505511124267
 20
-38.73326873044806
 30
0.0
 10
155.5523395609304
 20
-38.82653220286922
 30
0.0
  0
SPLINE
  5
10E
330
1F
100
AcDbEntity
  8
0
  6
Continuous
 62
     7
370
    25
100
AcDbSpline
210
0.0
220
0.0
230
1.0
 70
     8
 71
     3
 72
    15
 73
    11
 74
     0
 42
0.000000001
 43
0.00000001
 40
0.0
 40
0.0
 40
0.0
 40
0.0
 40
0.1167219295051354
 40
0.232434728680163
 40
0.3486304395138412
 40
0.4677087313995421
 40
0.5904345695510345
 40
0.7191717976118468
 40
0.8554696386454368
 40
0.9999999999999999
 40
0.9999999999999999
 40
0.9999999999999999
 40
0.9999999999999999
 10
154.031506227597
 20
-36.45473733107436
 30
0.0
 10
154.076483349557
 20
-36.4565607724452
 30
0.0
 10
154.1660487395731
 20
-36.46019189045442
 30
0.0
 10
154.2985090655193
 20
-36.48552658584595
 30
0.0
 10
154.4270395335588
 20
-36.52866020491633
 30
0.0
 10
154.5515988611461
 20
-36.58858348245173
 30
0.0
 10
154.6729686928666
 20
-36.664387669451
 30
0.0
 10
154.7891483044961
 20
-36.75871223196497
 30
0.0
 10
154.9028853905281
 20
-36.86849378193279
 30
0.0
 10
154.9719322677399
 20
-36.95188401737148
 30
0.0
 10
155.0074677660586
 20
-36.99480143363845
 30
0.0
  0
SPLINE
  5
10F
330
1F
100
AcDbEntity
  8
0
  6
Continuous
 62
     7
370
    25
100
AcDbSpline
210
0.0
220
0.0
230
1.0
 70
     8
 71
     3
 72
    23
 73
    19
 74
     0
 42
0.000000001
 43
0.00000001
 40
0.0
 40
0.0
 40
0.0
 40
0.0
 40
0.0875067036494361
 40
0.1706303404637917
 40
0.2491638638941571
 40
0.323977050591621
 40
0.3949875564101507
 40
0.4629346917213115
 40
0.5286034512658275
 40
0.5921575274870663
 40
0.6527680449138522
 40
0.7095376398021667
 40
0.7627723065276015
 40
0.8130876446330674
 40
0.8611005991848921
 40
0.9075515534861226
 40
0.953706993759597
 40
1.0
 40
1.0
 40
1.0
 40
1.0
 10
152.5266985352894
 20
-38.83374374133079
 30
0.0
 10
152.528015673182
 20
-38.74315450117125
 30
0.0
 10
152.5305839756969
 20
-38.5665134868702
 30
0.0
 10
152.5524349497022
 20
-38.30931151962692
 30
0.0
 10
152.5881503573339
 20
-38.0670065377256
 30
0.0
 10
152.6381583083329
 20
-37.83999914680146
 30
0.0
 10
152.7029454953476
 20
-37.62814391965779
 30
0.0
 10
152.782515883588
 20
-37.43157483854546
 30
0.0
 10
152.8758040328842
 20
-37.24965924455026
 30
0.0
 10
152.9841616529264
 20
-37.08532617339518
 30
0.0
 10
153.1007614324307
 20
-36.93852491699397
 30
0.0
 10
153.2215460562359
 20
-36.8093668497541
 30
0.0
 10
153.3469127079719
 20
-36.70011323410792
 30
0.0
 10
153.4766308348284
 20
-36.61126538045427
 30
0.0
 10
153.6096683358953
 20
-36.54143177417544
 30
0.0
 10
153.7465590009536
 20
-36.49089892985727
 30
0.0
 10
153.8877707706542
 20
-36.46010503012918
 30
0.0
 10
153.9835469027296
 20
-36.45652833816641
 30
0.0
 10
154.031506227597
 20
-36.45473733107436
 30
0.0
  0
SPLINE
  5
110
330
1F
100
AcDbEntity
  8
0
  6
Continuous
 62
     7
370
    25
100
AcDbSpline
210
0.0
220
0.0
230
1.0
 70
     8
 71
     3
 72
    19
 73
    15
 74
     0
 42
0.000000001
 43
0.00000001
 40
0.0
 40
0.0
 40
0.0
 40
0.0
 40
0.0766227698023604
 40
0.1521849682155979
 40
0.2272434548159127
 40
0.3025789204818805
 40
0.3787458428279915
 40
0.4570996132546145
 40
0.5381495480707312
 40
0.6218167669713877
 40
0.7090154150213926
 40
0.801079054658458
 40
0.8979864042121882
 40
1.0
 40
1.0
 40
1.0
 40
1.0
 10
153.3335895609304
 20
-41.01883989517694
 30
0.0
 10
153.2881288670507
 20
-40.97749044472006
 30
0.0
 10
153.1978367218959
 20
-40.89536388077902
 30
0.0
 10
153.078138496925
 20
-40.75768660443882
 30
0.0
 10
152.9693110731602
 20
-40.61267047068899
 30
0.0
 10
152.8769266422516
 20
-40.45601139752748
 30
0.0
 10
152.7954515600994
 20
-40.29064513980109
 30
0.0
 10
152.7251676384537
 20
-40.11525316681791
 30
0.0
 10
152.6643107810361
 20
-39.93008460287942
 30
0.0
 10
152.6136001466506
 20
-39.73452538484588
 30
0.0
 10
152.5743493707209
 20
-39.52734752552097
 30
0.0
 10
152.5468190334748
 20
-39.30764163761978
 30
0.0
 10
152.5297008149067
 20
-39.07493532475969
 30
0.0
 10
152.5277162760185
 20
-38.91550511244826
 30
0.0
 10
152.5266985352894
 20
-38.83374374133079
 30
0.0
  0
SPLINE
  5
112
330
1F
100
AcDbEntity
  8
0
  6
Continuous
 62
     7
370
    25
100
AcDbSpline
210
0.0
220
0.0
230
1.0
 70
     8
 71
     3
 72
    19
 73
    15
 74
     0
 42
0.000000001
 43
0.00000001
 40
0.0
 40
0.0
 40
0.0
 40
0.0
 40
0.0913377392588096
 40
0.1812092176624101
 40
0.2707116372388661
 40
0.3596023179115582
 40
0.4455212229115457
 40
0.526149388786189
 40
0.6015151038242509
 40
0.671676166330665
 40
0.7425877863139259
 40
0.8211594805399836
 40
0.9064620938651569
 40
1.0
 40
1.0
 40
1.0
 40
1.0
 10
152.8856728942638
 20
-38.7840642541513
 30
0.0
 10
152.8863719887008
 20
-38.84151348439451
 30
0.0
 10
152.8877589548885
 20
-38.95548970224442
 30
0.0
 10
152.9010568766743
 20
-39.12533711722061
 30
0.0
 10
152.9227231980809
 20
-39.29270635078169
 30
0.0
 10
152.9520861034967
 20
-39.4563755416094
 30
0.0
 10
152.988180522429
 20
-39.61300516484327
 30
0.0
 10
153.0317114904162
 20
-39.75886192452627
 30
0.0
 10
153.079199214757
 20
-39.8930120127686
 30
0.0
 10
153.1340455859875
 20
-40.0177560615178
 30
0.0
 10
153.201144884724
 20
-40.13876182665189
 30
0.0
 10
153.285237177816
 20
-40.2603024091879
 30
0.0
 10
153.3848381637932
 20
-40.38809862847074
 30
0.0
 10
153.4611464401871
 20
-40.47078515481254
 30
0.0
 10
153.5010575096483
 20
-40.51403220286924
 30
0.0
  0
SPLINE
  5
113
330
1F
100
AcDbEntity
  8
0
  6
Continuous
 62
     7
370
    25
100
AcDbSpline
210
0.0
220
0.0
230
1.0
 70
     8
 71
     3
 72
    23
 73
    19
 74
     0
 42
0.000000001
 43
0.00000001
 40
0.0
 40
0.0
 40
0.0
 40
0.0
 40
0.0520368647074101
 40
0.1030709112752032
 40
0.1537641505700488
 40
0.2048032665772681
 40
0.2574591909004982
 40
0.3129115912010852
 40
0.3713966184903965
 40
0.4337485159862066
 40
0.4984823521491993
 40
0.5642982651829527
 40
0.6314422558938082
 40
0.7003124970113316
 40
0.7712781103567115
 40
0.844676611610354
 40
0.9208428965267936
 40
1.0
 40
1.0
 40
1.0
 40
1.0
 10
153.9625959711868
 20
-37.07012194645898
 30
0.0
 10
153.9239878828127
 20
-37.07275586816017
 30
0.0
 10
153.8475157341988
 20
-37.07797295246178
 30
0.0
 10
153.7360055962346
 20
-37.10516514441136
 30
0.0
 10
153.6304459356389
 20
-37.14743687302418
 30
0.0
 10
153.5297646850204
 20
-37.20303937542621
 30
0.0
 10
153.43540930855
 20
-37.27480138325173
 30
0.0
 10
153.3463193761542
 20
-37.36102674409798
 30
0.0
 10
153.2629793365494
 20
-37.46226602801551
 30
0.0
 10
153.1849178375494
 20
-37.57606129891981
 30
0.0
 10
153.1153524252981
 20
-37.70147913582039
 30
0.0
 10
153.0533019328942
 20
-37.83467245014372
 30
0.0
 10
153.0012647461698
 20
-37.97540635855465
 30
0.0
 10
152.9588373090926
 20
-38.12326997563396
 30
0.0
 10
152.9259820449116
 20
-38.27831884085978
 30
0.0
 10
152.9032800651834
 20
-38.44058769136887
 30
0.0
 10
152.8882352047596
 20
-38.60990350643667
 30
0.0
 10
152.8865378919249
 20
-38.72527019321134
 30
0.0
 10
152.8856728942637
 20
-38.7840642541513
 30
0.0
  0
SPLINE
  5
115
330
1F
100
AcDbEntity
  8
0
  6
Continuous
 62
     7
370
    25
100
AcDbSpline
210
0.0
220
0.0
230
1.0
 70
     8
 71
     3
 72
    23
 73
    19
 74
     0
 42
0.000000001
 43
0.00000001
 40
0.0
 40
0.0
 40
0.0
 40
0.0
 40
0.0664054487464511
 40
0.1322821099389369
 40
0.1974251129561974
 40
0.2624877061748966
 40
0.3272422983607088
 40
0.3918182337461776
 40
0.4560177933301023
 40
0.520441901190213
 40
0.5842982111207372
 40
0.6466252435131687
 40
0.7077746918052811
 40
0.7683278786878986
 40
0.8273174227270242
 40
0.885637597304116
 40
0.9432477390129985
 40
1.0
 40
1.0
 40
1.0
 40
1.0
 10
146.5347113558022
 20
-42.08550656184368
 30
0.0
 10
146.5937483365305
 20
-42.08481670905913
 30
0.0
 10
146.7113521856509
 20
-42.08344249679777
 30
0.0
 10
146.8867071429827
 20
-42.07466627347539
 30
0.0
 10
147.0603760774339
 20
-42.05916363591903
 30
0.0
 10
147.2324834316352
 20
-42.03840004849334
 30
0.0
 10
147.4033312574347
 20
-42.0121073769975
 30
0.0
 10
147.5723033135328
 20
-41.97939001487843
 30
0.0
 10
147.7394337188953
 20
-41.93961907923728
 30
0.0
 10
147.904733089304
 20
-41.89523075385515
 30
0.0
 10
148.066556591958
 20
-41.84479594025579
 30
0.0
 10
148.2239129379141
 20
-41.79017308144829
 30
0.0
 10
148.3768165726247
 20
-41.73184827721914
 30
0.0
 10
148.5242819608106
 20
-41.6679904034637
 30
0.0
 10
148.6667587351027
 20
-41.59932350215121
 30
0.0
 10
148.8046841203569
 20
-41.52744086924264
 30
0.0
 10
148.9378990725563
 20
-41.45096029504605
 30
0.0
 10
149.022952413707
 20
-41.39521928197868
 30
0.0
 10
149.0651600737509
 20
-41.36755784389494
 30
0.0
  0
SPLINE
  5
116
330
1F
100
AcDbEntity
  8
0
  6
Continuous
 62
     7
370
    25
100
AcDbSpline
210
0.0
220
0.0
230
1.0
 70
     8
 71
     3
 72
    23
 73
    19
 74
     0
 42
0.000000001
 43
0.00000001
 40
0.0
 40
0.0
 40
0.0
 40
0.0
 40
0.0583149004096536
 40
0.1172940060591672
 40
0.1766070762992205
 40
0.2365935356109537
 40
0.2977291535408452
 40
0.3595046077406632
 40
0.422515156785375
 40
0.4863567622319117
 40
0.5507736710048404
 40
0.6150047297679477
 40
0.6790229741107291
 40
0.7428040533334339
 40
0.806938830787984
 40
0.8710380393204316
 40
0.9351613450848577
 40
1.0
 40
1.0
 40
1.0
 40
1.0
 10
143.7831087916997
 20
-41.16242963876679
 30
0.0
 10
143.8286973604771
 20
-41.19736965386318
 30
0.0
 10
143.9203937506765
 20
-41.26764764994367
 30
0.0
 10
144.0648844067751
 20
-41.36460264793268
 30
0.0
 10
144.2140704020194
 20
-41.45721374848121
 30
0.0
 10
144.3692928988194
 20
-41.54381638331411
 30
0.0
 10
144.5299683404282
 20
-41.62527523314733
 30
0.0
 10
144.6963417125515
 20
-41.7018313494647
 30
0.0
 10
144.868421408293
 20
-41.77189735451817
 30
0.0
 10
145.0452417704425
 20
-41.83691938982792
 30
0.0
 10
145.2257230170389
 20
-41.89498295568902
 30
0.0
 10
145.4082842599801
 20
-41.94689443228538
 30
0.0
 10
145.5927750323983
 20
-41.98866816954339
 30
0.0
 10
145.778382656457
 20
-42.02461772456937
 30
0.0
 10
145.9656413082293
 20
-42.05125461888797
 30
0.0
 10
146.1539839375417
 20
-42.071885738464
 30
0.0
 10
146.3438715277259
 20
-42.08294669193955
 30
0.0
 10
146.4708632729737
 20
-42.08465012224553
 30
0.0
 10
146.5347113558022
 20
-42.08550656184368
 30
0.0
  0
SPLINE
  5
118
330
1F
100
AcDbEntity
  8
0
  6
Continuous
 62
     7
370
    25
100
AcDbSpline
210
0.0
220
0.0
230
1.0
 70
     8
 71
     3
 72
    23
 73
    19
 74
     0
 42
0.000000001
 43
0.00000001
 40
0.0
 40
0.0
 40
0.0
 40
0.0
 40
0.0636619166505099
 40
0.1268565326224358
 40
0.1896837975409631
 40
0.2524754359950858
 40
0.3153073717384607
 40
0.3782553827130691
 40
0.4411310905647696
 40
0.5040855115161226
 40
0.5670544981697497
 40
0.6294223253702903
 40
0.6916924388140346
 40
0.7534360282005067
 40
0.815098763984313
 40
0.8766489606784683
 40
0.9382992022638584
 40
1.0
 40
1.0
 40
1.0
 40
1.0
 10
146.5827882788791
 20
-42.70089117722829
 30
0.0
 10
146.5200105529166
 20
-42.70025960845062
 30
0.0
 10
146.3949159114021
 20
-42.69900110683044
 30
0.0
 10
146.2080559761256
 20
-42.68933904462726
 30
0.0
 10
146.0226145408736
 20
-42.67227547410012
 30
0.0
 10
145.8382044523657
 20
-42.64907636415428
 30
0.0
 10
145.654597668952
 20
-42.61940500744438
 30
0.0
 10
145.4720689342157
 20
-42.5833242312259
 30
0.0
 10
145.2906947752429
 20
-42.54117180054727
 30
0.0
 10
145.1114109711637
 20
-42.49086682215876
 30
0.0
 10
144.933863566249
 20
-42.43640946321754
 30
0.0
 10
144.7596484766657
 20
-42.37402519728733
 30
0.0
 10
144.5884458218592
 20
-42.3071160759098
 30
0.0
 10
144.4204744742218
 20
-42.23411829517638
 30
0.0
 10
144.256315479577
 20
-42.15455390477895
 30
0.0
 10
144.0949403746524
 20
-42.06969840935899
 30
0.0
 10
143.937026114816
 20
-41.978423414836
 30
0.0
 10
143.8344285828063
 20
-41.91306897139033
 30
0.0
 10
143.7831087916997
 20
-41.8803783567155
 30
0.0
  0
SPLINE
  5
119
330
1F
100
AcDbEntity
  8
0
  6
Continuous
 62
     7
370
    25
100
AcDbSpline
210
0.0
220
0.0
230
1.0
 70
     8
 71
     3
 72
    23
 73
    19
 74
     0
 42
0.000000001
 43
0.00000001
 40
0.0
 40
0.0
 40
0.0
 40
0.0
 40
0.0560259963716995
 40
0.1127864681995648
 40
0.1707613967764681
 40
0.229258325533253
 40
0.289331351856418
 40
0.3505066144061068
 40
0.4130415016541689
 40
0.4771224052135288
 40
0.541771367336223
 40
0.6064816960451981
 40
0.6713297072271346
 40
0.7360400359361025
 40
0.8016162849488753
 40
0.8672722394572938
 40
0.9333676820709482
 40
1.0
 40
1.0
 40
1.0
 40
1.0
 10
149.0651600737509
 20
-41.98294245927955
 30
0.0
 10
149.0245044932645
 20
-42.01024126713612
 30
0.0
 10
148.9426603560312
 20
-42.06519675786536
 30
0.0
 10
148.8148844688303
 20
-42.14246780050315
 30
0.0
 10
148.6813536457707
 20
-42.21392747575443
 30
0.0
 10
148.5427608819725
 20
-42.28184872394267
 30
0.0
 10
148.3987116404037
 20
-42.34462188015146
 30
0.0
 10
148.2495721054993
 20
-42.40437444927152
 30
0.0
 10
148.0945778752749
 20
-42.45848899655014
 30
0.0
 10
147.9351988152322
 20
-42.50900922036537
 30
0.0
 10
147.7720677226657
 20
-42.5535731587581
 30
0.0
 10
147.606915436151
 20
-42.59287380651174
 30
0.0
 10
147.440474095274
 20
-42.62660222673959
 30
0.0
 10
147.272112186086
 20
-42.65413570677746
 30
0.0
 10
147.1020339935246
 20
-42.6744718198393
 30
0.0
 10
146.9302468982789
 20
-42.69003803982388
 30
0.0
 10
146.7570261700493
 20
-42.69882734067789
 30
0.0
 10
146.641023983082
 20
-42.70020137907895
 30
0.0
 10
146.5827882788791
 20
-42.70089117722829
 30
0.0
  0
SPLINE
  5
126
330
1F
100
AcDbEntity
  8
0
  6
Continuous
 62
     7
370
    25
100
AcDbSpline
210
0.0
220
0.0
230
1.0
 70
     8
 71
     3
 72
    15
 73
    11
 74
     0
 42
0.000000001
 43
0.00000001
 40
0.0
 40
0.0
 40
0.0
 40
0.0
 40
0.1391376083713477
 40
0.2708939588788087
 40
0.398588742181925
 40
0.5219912357022001
 40
0.641409876647993
 40
0.7595350638119619
 40
0.878993899521922
 40
1.0
 40
1.0
 40
1.0
 40
1.0
 10
146.6685254583662
 20
-33.85457707466419
 30
0.0
 10
146.6850961936411
 20
-33.83721996848363
 30
0.0
 10
146.7173585857626
 20
-33.80342655157089
 30
0.0
 10
146.7691155382145
 20
-33.75810558994018
 30
0.0
 10
146.8225219144266
 20
-33.71903377148324
 30
0.0
 10
146.879077016131
 20
-33.6890147387279
 30
0.0
 10
146.9363516772315
 20
-33.66449629505629
 30
0.0
 10
146.9953674645645
 20
-33.64658530628045
 30
0.0
 10
147.0564867345162
 20
-33.63588534281637
 30
0.0
 10
147.097970583416
 20
-33.63478049102564
 30
0.0
 10
147.1188459711868
 20
-33.63422451056162
 30
0.0
  0
SPLINE
  5
127
330
1F
100
AcDbEntity
  8
0
  6
Continuous
 62
     7
370
    25
100
AcDbSpline
210
0.0
220
0.0
230
1.0
 70
     8
 71
     3
 72
    15
 73
    11
 74
     0
 42
0.000000001
 43
0.00000001
 40
0.0
 40
0.0
 40
0.0
 40
0.0
 40
0.1669308253651424
 40
0.3216859262911519
 40
0.4643994428593444
 40
0.5948867204722343
 40
0.7129214878277548
 40
0.819583701375363
 40
0.9152718147238763
 40
1.0
 40
1.0
 40
1.0
 40
1.0
 10
146.2694869968278
 20
-34.68791040799752
 30
0.0
 10
146.2860422525689
 20
-34.63893727925186
 30
0.0
 10
146.3179452445204
 20
-34.54456306017361
 30
0.0
 10
146.3683710310864
 20
-34.40984710962426
 30
0.0
 10
146.4189326436101
 20
-34.28733161671911
 30
0.0
 10
146.4680536304321
 20
-34.1765500275114
 30
0.0
 10
146.5177894554061
 20
-34.07837868742442
 30
0.0
 10
146.5673356191273
 20
-33.99238628645001
 30
0.0
 10
146.6165054583738
 20
-33.91815680412522
 30
0.0
 10
146.6519022190946
 20
-33.87489428065818
 30
0.0
 10
146.6685254583662
 20
-33.85457707466419
 30
0.0
  0
SPLINE
  5
128
330
1F
100
AcDbEntity
  8
0
  6
Continuous
 62
     7
370
    25
100
AcDbSpline
210
0.0
220
0.0
230
1.0
 70
     8
 71
     3
 72
    15
 73
    11
 74
     0
 42
0.000000001
 43
0.00000001
 40
0.0
 40
0.0
 40
0.0
 40
0.0
 40
0.0699546856899464
 40
0.1561878681314095
 40
0.2572561554836529
 40
0.3738317776474979
 40
0.5070368139415881
 40
0.6551172724003568
 40
0.8194266219497728
 40
1.0
 40
1.0
 40
1.0
 40
1.0
 10
145.9682049455458
 20
-35.42028220286933
 30
0.0
 10
145.9786235232244
 20
-35.40495451494269
 30
0.0
 10
146.0018850877722
 20
-35.37073237703964
 30
0.0
 10
146.0335729317428
 20
-35.31033141631877
 30
0.0
 10
146.0691712072765
 20
-35.23819715989303
 30
0.0
 10
146.105847136049
 20
-35.15280480479016
 30
0.0
 10
146.1438749609544
 20
-35.05456774232876
 30
0.0
 10
146.183851499013
 20
-34.94357005777963
 30
0.0
 10
146.226334108119
 20
-34.82016275384319
 30
0.0
 10
146.2546574748125
 20
-34.73335902413812
 30
0.0
 10
146.2694869968278
 20
-34.68791040799752
 30
0.0
  0
SPLINE
  5
129
330
1F
100
AcDbEntity
  8
0
  6
Continuous
 62
     7
370
    25
100
AcDbSpline
210
0.0
220
0.0
230
1.0
 70
     8
 71
     3
 72
    11
 73
     7
 74
     0
 42
0.000000001
 43
0.00000001
 40
0.0
 40
0.0
 40
0.0
 40
0.0
 40
0.229619884434853
 40
0.4635695666772483
 40
0.7150166158617792
 40
1.0
 40
1.0
 40
1.0
 40
1.0
 10
145.6893587916996
 20
-35.58294245927959
 30
0.0
 10
145.7150487319872
 20
-35.58088183444122
 30
0.0
 10
145.7669130316162
 20
-35.57672172885732
 30
0.0
 10
145.8409494926271
 20
-35.54368290640649
 30
0.0
 10
145.9101850807219
 20
-35.4915908234472
 30
0.0
 10
145.9480753871268
 20
-35.44502219576759
 30
0.0
 10
145.9682049455458
 20
-35.42028220286933
 30
0.0
  0
SPLINE
  5
12A
330
1F
100
AcDbEntity
  8
0
  6
Continuous
 62
     7
370
    25
100
AcDbSpline
210
0.0
220
0.0
230
1.0
 70
     8
 71
     3
 72
    19
 73
    15
 74
     0
 42
0.000000001
 43
0.00000001
 40
0.0
 40
0.0
 40
0.0
 40
0.0
 40
0.1603266904503156
 40
0.3103205857647517
 40
0.4513492706830924
 40
0.5880634549920303
 40
0.6524574951131584
 40
0.7115975859387086
 40
0.7668915491125206
 40
0.8179936626796109
 40
0.8651728307634272
 40
0.9104413172857346
 40
0.9554041299051192
 40
1.0
 40
1.0
 40
1.0
 40
1.0
 10
145.219006227597
 20
-34.74640399774113
 30
0.0
 10
145.2205577671114
 20
-34.8023427240612
 30
0.0
 10
145.2235608519353
 20
-34.91061501652741
 30
0.0
 10
145.250593483082
 20
-35.06619538746028
 30
0.0
 10
145.2935421834663
 20
-35.20939651663105
 30
0.0
 10
145.3448879715271
 20
-35.31774811927397
 30
0.0
 10
145.3937150756564
 20
-35.39428645603189
 30
0.0
 10
145.4303961412913
 20
-35.44480598553935
 30
0.0
 10
145.4695621067688
 20
-35.48739697143532
 30
0.0
 10
145.5104737593975
 20
-35.52217758955525
 30
0.0
 10
145.5528024672924
 20
-35.54917171091353
 30
0.0
 10
145.5966096000595
 20
-35.56905498403667
 30
0.0
 10
145.6425870578599
 20
-35.58036523652448
 30
0.0
 10
145.6738108574495
 20
-35.58208573478694
 30
0.0
 10
145.6893587916996
 20
-35.58294245927959
 30
0.0
  0
SPLINE
  5
12B
330
1F
100
AcDbEntity
  8
0
  6
Continuous
 62
     7
370
    25
100
AcDbSpline
210
0.0
220
0.0
230
1.0
 70
     8
 71
     3
 72
    15
 73
    11
 74
     0
 42
0.000000001
 43
0.00000001
 40
0.0
 40
0.0
 40
0.0
 40
0.0
 40
0.1319716309655018
 40
0.2610897076429835
 40
0.3866084430871441
 40
0.5106689552423991
 40
0.6332772126140249
 40
0.7551893283274759
 40
0.8771743611072974
 40
1.0
 40
1.0
 40
1.0
 40
1.0
 10
145.5266985352893
 20
-33.80569886953599
 30
0.0
 10
145.502069771816
 20
-33.84246165209024
 30
0.0
 10
145.4533447798777
 20
-33.91519231457438
 30
0.0
 10
145.3914587719489
 20
-34.02920460358434
 30
0.0
 10
145.3377832300834
 20
-34.14431423770101
 30
0.0
 10
145.2945935294941
 20
-34.26148371743086
 30
0.0
 10
145.2607085077128
 20
-34.3804048151954
 30
0.0
 10
145.2367372083513
 20
-34.50098101666926
 30
0.0
 10
145.2217486905554
 20
-34.62316128727795
 30
0.0
 10
145.2199224721445
 20
-34.7052291621319
 30
0.0
 10
145.219006227597
 20
-34.74640399774113
 30
0.0
  0
SPLINE
  5
12D
330
1F
100
AcDbEntity
  8
0
  6
Continuous
 62
     7
370
    25
100
AcDbSpline
210
0.0
220
0.0
230
1.0
 70
     8
 71
     3
 72
    15
 73
    11
 74
     0
 42
0.000000001
 43
0.00000001
 40
0.0
 40
0.0
 40
0.0
 40
0.0
 40
0.1367997581407763
 40
0.2714729657036411
 40
0.4040687209202526
 40
0.5352378743759638
 40
0.6617987338335136
 40
0.7810753658625793
 40
0.8932887414020644
 40
1.0
 40
1.0
 40
1.0
 40
1.0
 10
144.8600318686227
 20
-34.79688476697189
 30
0.0
 10
144.861173390582
 20
-34.73085951987532
 30
0.0
 10
144.8634386895557
 20
-34.59983538734595
 30
0.0
 10
144.8843111517356
 20
-34.4057474552393
 30
0.0
 10
144.916962818137
 20
-34.21617403136182
 30
0.0
 10
144.9621077084581
 20
-34.03315413081148
 30
0.0
 10
145.0190350480359
 20
-33.86014661214605
 30
0.0
 10
145.0871526073574
 20
-33.70121397896546
 30
0.0
 10
145.164176769899
 20
-33.55686835319356
 30
0.0
 10
145.2258187967471
 20
-33.47096735323343
 30
0.0
 10
145.255865201956
 20
-33.42909630543344
 30
0.0
  0
SPLINE
  5
12E
330
1F
100
AcDbEntity
  8
0
  6
Continuous
 62
     7
370
    25
100
AcDbSpline
210
0.0
220
0.0
230
1.0
 70
     8
 71
     3
 72
    23
 73
    19
 74
     0
 42
0.000000001
 43
0.00000001
 40
0.0
 40
0.0
 40
0.0
 40
0.0
 40
0.048247171665507
 40
0.0957000030546111
 40
0.143519496244723
 40
0.1924245121089683
 40
0.2439269887901752
 40
0.2984272070165779
 40
0.3570133694549786
 40
0.4199079941606689
 40
0.4857248310927382
 40
0.5527193036092144
 40
0.6209278327344641
 40
0.691303295552135
 40
0.7641769374750763
 40
0.8397829135547404
 40
0.9184407894605887
 40
0.9999999999999999
 40
0.9999999999999999
 40
0.9999999999999999
 40
0.9999999999999999
 10
145.704583150674
 20
-36.1983270746642
 30
0.0
 10
145.6756383036841
 20
-36.19705642557447
 30
0.0
 10
145.6182251569707
 20
-36.19453604733111
 30
0.0
 10
145.5338707174599
 20
-36.17542530208367
 30
0.0
 10
145.4529430082198
 20
-36.14410724083124
 30
0.0
 10
145.3762053146638
 20
-36.09870715887401
 30
0.0
 10
145.3019355866788
 20
-36.04257305559276
 30
0.0
 10
145.2320391988875
 20
-35.9725233543955
 30
0.0
 10
145.1657300929806
 20
-35.89028496885282
 30
0.0
 10
145.1029258070736
 20
-35.79704179691257
 30
0.0
 10
145.045698089245
 20
-35.69445136140964
 30
0.0
 10
144.9960959493196
 20
-35.58446519782141
 30
0.0
 10
144.9543909822227
 20
-35.46836554724597
 30
0.0
 10
144.9200290746248
 20
-35.34624405264077
 30
0.0
 10
144.8926660020725
 20
-35.21781671434335
 30
0.0
 10
144.8736623164957
 20
-35.08288001411063
 30
0.0
 10
144.8624507664673
 20
-34.94184123986722
 30
0.0
 10
144.8608478435592
 20
-34.84578342097301
 30
0.0
 10
144.8600318686227
 20
-34.79688476697189
 30
0.0
  0
SPLINE
  5
12F
330
1F
100
AcDbEntity
  8
0
  6
Continuous
 62
     7
370
    25
100
AcDbSpline
210
0.0
220
0.0
230
1.0
 70
     8
 71
     3
 72
    15
 73
    11
 74
     0
 42
0.000000001
 43
0.00000001
 40
0.0
 40
0.0
 40
0.0
 40
0.0
 40
0.1413111758092205
 40
0.27419536554026
 40
0.4030262327324303
 40
0.525617479994335
 40
0.6455098011999926
 40
0.7627015209231985
 40
0.881485170698169
 40
1.0
 40
1.0
 40
1.0
 40
1.0
 10
146.156506227597
 20
-35.97236553620265
 30
0.0
 10
146.1397003467027
 20
-35.99028162455818
 30
0.0
 10
146.1070907910278
 20
-36.02504538876556
 30
0.0
 10
146.0543759638851
 20
-36.07136347863568
 30
0.0
 10
146.0000943210701
 20
-36.11036925150669
 30
0.0
 10
145.9445015745224
 20
-36.1434637481626
 30
0.0
 10
145.8864017232844
 20
-36.16700764294556
 30
0.0
 10
145.8271995467664
 20
-36.18496901675814
 30
0.0
 10
145.7664901790574
 20
-36.19686339391539
 30
0.0
 10
145.7252032363444
 20
-36.19783954968969
 30
0.0
 10
145.704583150674
 20
-36.19832707466421
 30
0.0
  0
SPLINE
  5
130
330
1F
100
AcDbEntity
  8
0
  6
Continuous
 62
     7
370
    25
100
AcDbSpline
210
0.0
220
0.0
230
1.0
 70
     8
 71
     3
 72
    15
 73
    11
 74
     0
 42
0.000000001
 43
0.00000001
 40
0.0
 40
0.0
 40
0.0
 40
0.0
 40
0.1683599380208798
 40
0.3231653554166508
 40
0.4663758978310154
 40
0.5970503274931348
 40
0.7149816119237635
 40
0.8215424810290681
 40
0.9160695506282964
 40
1.0
 40
1.0
 40
1.0
 40
1.0
 10
146.5667626378534
 20
-35.10297451056163
 30
0.0
 10
146.5493884293683
 20
-35.15434473839123
 30
0.0
 10
146.5160387956836
 20
-35.25294941911006
 30
0.0
 10
146.4638586344703
 20
-35.39384414943094
 30
0.0
 10
146.4118078038151
 20
-35.52174390029354
 30
0.0
 10
146.3612290149884
 20
-35.63741841312659
 30
0.0
 10
146.3094103606233
 20
-35.73945093383217
 30
0.0
 10
146.2597544611687
 20
-35.82945197742821
 30
0.0
 10
146.2092588499719
 20
-35.90629860448983
 30
0.0
 10
146.1733802913334
 20
-35.95123260353699
 30
0.0
 10
146.156506227597
 20
-35.97236553620265
 30
0.0
  0
SPLINE
  5
131
330
1F
100
AcDbEntity
  8
0
  6
Continuous
 62
     7
370
    25
100
AcDbSpline
210
0.0
220
0.0
230
1.0
 70
     8
 71
     3
 72
    15
 73
    11
 74
     0
 42
0.000000001
 43
0.00000001
 40
0.0
 40
0.0
 40
0.0
 40
0.0
 40
0.0754091243635853
 40
0.1648236943982027
 40
0.2678722276223476
 40
0.3856994889107151
 40
0.5170219544845972
 40
0.6635259917936414
 40
0.8240749176751103
 40
1.0
 40
1.0
 40
1.0
 40
1.0
 10
146.8680446891355
 20
-34.41387194645905
 30
0.0
 10
146.8567560419505
 20
-34.42914572385535
 30
0.0
 10
146.8320821507009
 20
-34.46253001838363
 30
0.0
 10
146.7998501453223
 20
-34.52185659121709
 30
0.0
 10
146.7628697827194
 20
-34.59059904705119
 30
0.0
 10
146.7271178941269
 20
-34.67174091914782
 30
0.0
 10
146.6879049188654
 20
-34.76323404205915
 30
0.0
 10
146.6497581703955
 20
-34.86674211079793
 30
0.0
 10
146.6071561264682
 20
-34.98054193955947
 30
0.0
 10
146.5806311788818
 20
-35.06093899463113
 30
0.0
 10
146.5667626378535
 20
-35.10297451056164
 30
0.0
  0
SPLINE
  5
132
330
1F
100
AcDbEntity
  8
0
  6
Continuous
 62
     7
370
    25
100
AcDbSpline
210
0.0
220
0.0
230
1.0
 70
     8
 71
     3
 72
    11
 73
     7
 74
     0
 42
0.000000001
 43
0.00000001
 40
0.0
 40
0.0
 40
0.0
 40
0.0
 40
0.215985992390431
 40
0.4426704848506745
 40
0.7009766372486954
 40
0.9999999999999999
 40
0.9999999999999999
 40
0.9999999999999999
 40
0.9999999999999999
 10
147.1332690481098
 20
-34.24960912594624
 30
0.0
 10
147.109956545614
 20
-34.25172007378189
 30
0.0
 10
147.0621767953223
 20
-34.2560465316765
 30
0.0
 10
146.9933496758585
 20
-34.29006193946108
 30
0.0
 10
146.9267130214967
 20
-34.34251425673351
 30
0.0
 10
146.888530638891
 20
-34.38895509630237
 30
0.0
 10
146.8680446891355
 20
-34.41387194645905
 30
0.0
  0
SPLINE
  5
133
330
1F
100
AcDbEntity
  8
0
  6
Continuous
 62
     7
370
    25
100
AcDbSpline
210
0.0
220
0.0
230
1.0
 70
     8
 71
     3
 72
    19
 73
    15
 74
     0
 42
0.000000001
 43
0.00000001
 40
0.0
 40
0.0
 40
0.0
 40
0.0
 40
0.1556545550983686
 40
0.3020005062188631
 40
0.4424164066188792
 40
0.5784163454497943
 40
0.64374311709128
 40
0.7034430959358443
 40
0.7587350034204515
 40
0.810294580137342
 40
0.8601264362852185
 40
0.9069107179775672
 40
0.9535054070477308
 40
1.0
 40
1.0
 40
1.0
 40
1.0
 10
147.5266985352893
 20
-34.89944886953598
 30
0.0
 10
147.525502896862
 20
-34.85633162271221
 30
0.0
 10
147.5231831227308
 20
-34.77267566828601
 30
0.0
 10
147.4997963610867
 20
-34.65202802923719
 30
0.0
 10
147.4636833907479
 20
-34.54036600956707
 30
0.0
 10
147.41957169007
 20
-34.45621112920311
 30
0.0
 10
147.3792287719719
 20
-34.39621320436866
 30
0.0
 10
147.347666745152
 20
-34.35752704947466
 30
0.0
 10
147.3159076790077
 20
-34.32394181839489
 30
0.0
 10
147.2814457345274
 20
-34.29748957215119
 30
0.0
 10
147.2468160665289
 20
-34.27523245302122
 30
0.0
 10
147.2096954344356
 20
-34.26083515058809
 30
0.0
 10
147.1719154676204
 20
-34.25162046451553
 30
0.0
 10
147.1461419501161
 20
-34.25027909135653
 30
0.0
 10
147.1332690481098
 20
-34.24960912594624
 30
0.0
  0
SPLINE
  5
134
330
1F
100
AcDbEntity
  8
0
  6
Continuous
 62
     7
370
    25
100
AcDbSpline
210
0.0
220
0.0
230
1.0
 70
     8
 71
     3
 72
    15
 73
    11
 74
     0
 42
0.000000001
 43
0.00000001
 40
0.0
 40
0.0
 40
0.0
 40
0.0
 40
0.1412615421882075
 40
0.276372051423855
 40
0.4066468166784725
 40
0.5319496682939634
 40
0.652968135202191
 40
0.7704649802307681
 40
0.8861271182755042
 40
1.0
 40
1.0
 40
1.0
 40
1.0
 10
147.219006227597
 20
-35.76162835671547
 30
0.0
 10
147.2435081223734
 20
-35.72533149033625
 30
0.0
 10
147.2914450117649
 20
-35.6543182530029
 30
0.0
 10
147.3541479478154
 20
-35.54484661230515
 30
0.0
 10
147.4071655915365
 20
-35.43588590072879
 30
0.0
 10
147.4507050757663
 20
-35.3274794931965
 30
0.0
 10
147.484634020386
 20
-35.21981025859255
 30
0.0
 10
147.5088205922034
 20
-35.11263533473748
 30
0.0
 10
147.5238560035378
 20
-35.00591400539605
 30
0.0
 10
147.5257559615147
 20
-34.93475234325
 30
0.0
 10
147.5266985352893
 20
-34.89944886953597
 30
0.0
  0
SPLINE
  5
136
330
1F
100
AcDbEntity
  8
0
  6
Continuous
 62
     7
370
    25
100
AcDbSpline
210
0.0
220
0.0
230
1.0
 70
     8
 71
     3
 72
    15
 73
    11
 74
     0
 42
0.000000001
 43
0.00000001
 40
0.0
 40
0.0
 40
0.0
 40
0.0
 40
0.1164336848478696
 40
0.2342285977201132
 40
0.3530834866830967
 40
0.4753803457398906
 40
0.6000806277228484
 40
0.7289313306075503
 40
0.8619578954363916
 40
1.0
 40
1.0
 40
1.0
 40
1.0
 10
147.8856728942637
 20
-34.88262194645905
 30
0.0
 10
147.8843987136227
 20
-34.93502453727702
 30
0.0
 10
147.8818354558751
 20
-35.04044235841902
 30
0.0
 10
147.8621853649905
 20
-35.19839780893852
 30
0.0
 10
147.8286644486453
 20
-35.35654078055352
 30
0.0
 10
147.7832158129296
 20
-35.51493276197125
 30
0.0
 10
147.724061051352
 20
-35.67354770118574
 30
0.0
 10
147.652491557857
 20
-35.83219868194254
 30
0.0
 10
147.5685727759711
 20
-35.99160933041252
 30
0.0
 10
147.503132873068
 20
-36.09459793191509
 30
0.0
 10
147.4698075096483
 20
-36.14704502338213
 30
0.0
  0
SPLINE
  5
137
330
1F
100
AcDbEntity
  8
0
  6
Continuous
 62
     7
370
    25
100
AcDbSpline
210
0.0
220
0.0
230
1.0
 70
     8
 71
     3
 72
    23
 73
    19
 74
     0
 42
0.000000001
 43
0.00000001
 40
0.0
 40
0.0
 40
0.0
 40
0.0
 40
0.0501875134222717
 40
0.098901633441127
 40
0.147522341830361
 40
0.1972128638566714
 40
0.2485692328702982
 40
0.3029107522011872
 40
0.360985846364004
 40
0.4227200207025723
 40
0.4875282548361642
 40
0.5538673302441728
 40
0.6214613821255054
 40
0.6915961300916302
 40
0.7645120287159588
 40
0.8395947350987344
 40
0.9181826763277238
 40
0.9999999999999999
 40
0.9999999999999999
 40
0.9999999999999999
 40
0.9999999999999999
 10
147.1188459711868
 20
-33.63422451056162
 30
0.0
 10
147.1459210793539
 20
-33.6352386724847
 30
0.0
 10
147.1992764309289
 20
-33.63723722279981
 30
0.0
 10
147.2771479793752
 20
-33.65508479126377
 30
0.0
 10
147.3517494746847
 20
-33.68230578235232
 30
0.0
 10
147.4227734862805
 20
-33.72119653917911
 30
0.0
 10
147.4898119540036
 20
-33.77176021527977
 30
0.0
 10
147.5533244740733
 20
-33.8332968991174
 30
0.0
 10
147.6133066383815
 20
-33.90568371687139
 30
0.0
 10
147.6689374110432
 20
-33.98829095901331
 30
0.0
 10
147.7200890817096
 20
-34.07891519246194
 30
0.0
 10
147.7636218269946
 20
-34.17688553932793
 30
0.0
 10
147.8016669450414
 20
-34.28012457096593
 30
0.0
 10
147.8329529873625
 20
-34.38934088457626
 30
0.0
 10
147.8567605792505
 20
-34.50454623273857
 30
0.0
 10
147.8732917637528
 20
-34.62556385477031
 30
0.0
 10
147.8841499191334
 20
-34.75208090804978
 30
0.0
 10
147.8851584676369
 20
-34.83852812987925
 30
0.0
 10
147.8856728942637
 20
-34.88262194645905
 30
0.0
  0
SPLINE
  5
138
330
1F
100
AcDbEntity
  8
0
  6
Continuous
 62
     7
370
    25
100
AcDbSpline
210
0.0
220
0.0
230
1.0
 70
     8
 71
     3
 72
    19
 73
    15
 74
     0
 42
0.000000001
 43
0.00000001
 40
0.0
 40
0.0
 40
0.0
 40
0.0
 40
0.1407828023836013
 40
0.2757618394997485
 40
0.4044750150130862
 40
0.5287110395683742
 40
0.5894722108715319
 40
0.6492871637200592
 40
0.7083401455944279
 40
0.7669935324750595
 40
0.8253862604813492
 40
0.8835417572498346
 40
0.9416617225165644
 40
1.0
 40
1.0
 40
1.0
 40
1.0
 10
155.5523395609304
 20
-45.11307066440768
 30
0.0
 10
155.5506850247358
 20
-45.20741306433257
 30
0.0
 10
155.5474441605333
 20
-45.39220860260592
 30
0.0
 10
155.5210213959683
 20
-45.66227556679924
 30
0.0
 10
155.475866213316
 20
-45.91846461971758
 30
0.0
 10
155.4243402362558
 20
-46.12248649207272
 30
0.0
 10
155.3741479932985
 20
-46.2787153421764
 30
0.0
 10
155.3308570828964
 20
-46.39109943978033
 30
0.0
 10
155.2816437205458
 20
-46.49944809008522
 30
0.0
 10
155.2279030798656
 20
-46.60453111709
 30
0.0
 10
155.1696409002039
 20
-46.70651484079697
 30
0.0
 10
155.1053674968728
 20
-46.80440553390168
 30
0.0
 10
155.0355219539732
 20
-46.89836568583746
 30
0.0
 10
154.9853334290912
 20
-46.95813165918904
 30
0.0
 10
154.9601921250331
 20
-46.98807066440769
 30
0.0
  0
SPLINE
  5
139
330
1F
100
AcDbEntity
  8
0
  6
Continuous
 62
     7
370
    25
100
AcDbSpline
210
0.0
220
0.0
230
1.0
 70
     8
 71
     3
 72
    23
 73
    19
 74
     0
 42
0.000000001
 43
0.00000001
 40
0.0
 40
0.0
 40
0.0
 40
0.0
 40
0.0486412444266146
 40
0.0968273970355337
 40
0.1450926226073805
 40
0.1951915258546459
 40
0.2474337415964026
 40
0.303039551259978
 40
0.3628953951347723
 40
0.4272639962782744
 40
0.4943694389129331
 40
0.5619887214172575
 40
0.6305091297698404
 40
0.7002305301538795
 40
0.7718993306309653
 40
0.8454874756025087
 40
0.9213296026741046
 40
1.0
 40
1.0
 40
1.0
 40
1.0
 10
154.0475318686227
 20
-42.68037835671539
 30
0.0
 10
154.098472894382
 20
-42.68249209611365
 30
0.0
 10
154.1998783371239
 20
-42.68669979857602
 30
0.0
 10
154.348390058661
 20
-42.72196252872286
 30
0.0
 10
154.4917109560579
 20
-42.7777104520796
 30
0.0
 10
154.628310484933
 20
-42.85742236073487
 30
0.0
 10
154.7592569101388
 20
-42.95889954455849
 30
0.0
 10
154.8836755242807
 20
-43.08311984345387
 30
0.0
 10
155.0032499647028
 20
-43.22873789167958
 30
0.0
 10
155.1145696497265
 20
-43.3954036576545
 30
0.0
 10
155.2168605045115
 20
-43.57705150134001
 30
0.0
 10
155.306703226284
 20
-43.76997611726124
 30
0.0
 10
155.3832199698
 20
-43.97152059271715
 30
0.0
 10
155.4444944831077
 20
-44.18258581235023
 30
0.0
 10
155.4937208714057
 20
-44.40219786043705
 30
0.0
 10
155.5278385064152
 20
-44.63114996099608
 30
0.0
 10
155.5479633663317
 20
-44.86911716992483
 30
0.0
 10
155.5508631364766
 20
-45.03076653081948
 30
0.0
 10
155.5523395609304
 20
-45.11307066440768
 30
0.0
  0
SPLINE
  5
13A
330
1F
100
AcDbEntity
  8
0
  6
Continuous
 62
     7
370
    25
100
AcDbSpline
210
0.0
220
0.0
230
1.0
 70
     8
 71
     3
 72
    23
 73
    19
 74
     0
 42
0.000000001
 43
0.00000001
 40
0.0
 40
0.0
 40
0.0
 40
0.0
 40
0.078180954464758
 40
0.153810946027876
 40
0.2271663162950064
 40
0.2983004198204481
 40
0.367868234949125
 40
0.4359295690692103
 40
0.5031044905747082
 40
0.569909937839259
 40
0.6340171450478618
 40
0.6934955928699896
 40
0.7493030339671152
 40
0.8020140850215449
 40
0.8524436363344156
 40
0.9014358981331374
 40
0.9503268810753965
 40
1.0
 40
1.0
 40
1.0
 40
1.0
 10
152.5266985352894
 20
-45.09624374133079
 30
0.0
 10
152.5280936218856
 20
-45.01446740911258
 30
0.0
 10
152.5308382748592
 20
-44.85358302099934
 30
0.0
 10
152.5521915887072
 20
-44.61675118405546
 30
0.0
 10
152.5862872914201
 20
-44.38894848356026
 30
0.0
 10
152.6341996350191
 20
-44.17006034465683
 30
0.0
 10
152.6967469041391
 20
-43.96065904866407
 30
0.0
 10
152.7731179555845
 20
-43.76034164099396
 30
0.0
 10
152.8629026354842
 20
-43.56881271788168
 30
0.0
 10
152.9660690996563
 20
-43.38890722871444
 30
0.0
 10
153.0782571339019
 20
-43.2241106298775
 30
0.0
 10
153.1980171635537
 20
-43.07930397859407
 30
0.0
 10
153.323925599892
 20
-42.95615015715709
 30
0.0
 10
153.4570951480053
 20
-42.85591448675377
 30
0.0
 10
153.5957749623893
 20
-42.77683954351207
 30
0.0
 10
153.7409961808199
 20
-42.72088362872388
 30
0.0
 10
153.8923851011018
 20
-42.68689663469542
 30
0.0
 10
153.9955434152999
 20
-42.6825625800539
 30
0.0
 10
154.0475318686228
 20
-42.68037835671539
 30
0.0
  0
SPLINE
  5
13B
330
1F
100
AcDbEntity
  8
0
  6
Continuous
 62
     7
370
    25
100
AcDbSpline
210
0.0
220
0.0
230
1.0
 70
     8
 71
     3
 72
    15
 73
    11
 74
     0
 42
0.000000001
 43
0.00000001
 40
0.0
 40
0.0
 40
0.0
 40
0.0
 40
0.1185581518092375
 40
0.2368257623347833
 40
0.3562052757820503
 40
0.4777407459348753
 40
0.6021266315960728
 40
0.729936836228113
 40
0.862653249219792
 40
1.0
 40
1.0
 40
1.0
 40
1.0
 10
153.0835895609305
 20
-46.98807066440772
 30
0.0
 10
153.0374016519139
 20
-46.92348443992565
 30
0.0
 10
152.9451390230134
 20
-46.7944702674215
 30
0.0
 10
152.8300648382779
 20
-46.58508577976944
 30
0.0
 10
152.7333467488347
 20
-46.36470650658077
 30
0.0
 10
152.6566465974082
 20
-46.13219916530009
 30
0.0
 10
152.598507960569
 20
-45.88865928778532
 30
0.0
 10
152.5573170046458
 20
-45.63421653058701
 30
0.0
 10
152.5306684517981
 20
-45.36898133874821
 30
0.0
 10
152.5280368805625
 20
-45.18818952242957
 30
0.0
 10
152.5266985352894
 20
-45.09624374133079
 30
0.0
  0
LINE
  5
159
330
1F
100
AcDbEntity
  8
0
  6
Continuous
 62
     7
370
    25
100
AcDbLine
 10
154.834390843
 20
-5.0085834849
 30
0.0
 11
154.8255767404
 21
-6.0798975875
 31
0.0
  0
LINE
  5
15A
330
1F
100
AcDbEntity
  8
0
  6
Continuous
 62
     7
370
    25
100
AcDbLine
 10
156.1677241763
 20
-5.0085834849
 30
0.0
 11
154.834390843
 21
-5.0085834849
 31
0.0
  0
LINE
  5
15B
330
1F
100
AcDbEntity
  8
0
  6
Continuous
 62
     7
370
    25
100
AcDbLine
 10
156.1677241763
 20
-6.1271732285
 30
0.0
 11
156.1677241763
 21
-5.0085834849
 31
0.0
  0
LINE
  5
15C
330
1F
100
AcDbEntity
  8
0
  6
Continuous
 62
     7
370
    25
100
AcDbLine
 10
154.3215703302
 20
-37.1302181003
 30
0.0
 11
154.3215703302
 21
-40.6085834849
 31
0.0
  0
LINE
  5
15D
330
1F
100
AcDbEntity
  8
0
  6
Continuous
 62
     7
370
    25
100
AcDbLine
 10
154.3215703302
 20
-17.4891924593
 30
0.0
 11
154.3215703302
 21
-20.9675578439
 31
0.0
  0
LINE
  5
15E
330
1F
100
AcDbEntity
  8
0
  6
Continuous
 62
     7
370
    25
100
AcDbLine
 10
154.4241344327
 20
-5.0085834849
 30
0.0
 11
152.5779805866
 21
-5.0085834849
 31
0.0
  0
LINE
  5
15F
330
1F
100
AcDbEntity
  8
0
  6
Continuous
 62
     7
370
    25
100
AcDbLine
 10
154.4241344327
 20
-5.4548975875
 30
0.0
 11
154.4241344327
 21
-5.0085834849
 31
0.0
  0
LINE
  5
160
330
1F
100
AcDbEntity
  8
0
  6
Continuous
 62
     7
370
    25
100
AcDbLine
 10
156.5779805866
 20
-4.3931988695
 30
0.0
 11
156.5779805866
 21
-5.6359873311
 31
0.0
  0
LINE
  5
161
330
1F
100
AcDbEntity
  8
0
  6
Continuous
 62
     7
370
    25
100
AcDbLine
 10
152.5779805866
 20
-4.3931988695
 30
0.0
 11
156.5779805866
 21
-4.3931988695
 31
0.0
  0
LINE
  5
162
330
1F
100
AcDbEntity
  8
0
  6
Continuous
 62
     7
370
    25
100
AcDbLine
 10
152.5779805866
 20
-5.0085834849
 30
0.0
 11
152.5779805866
 21
-4.3931988695
 31
0.0
  0
LINE
  5
163
330
1F
100
AcDbEntity
  8
0
  6
Continuous
 62
     7
370
    25
100
AcDbLine
 10
153.8079485353
 20
-49.9829424593
 30
0.0
 11
152.5779805866
 21
-49.9829424593
 31
0.0
  0
LINE
  5
164
330
1F
100
AcDbEntity
  8
0
  6
Continuous
 62
     7
370
    25
100
AcDbLine
 10
152.5779805866
 20
-52.5470450234
 30
0.0
 11
154.0643587917
 21
-52.5470450234
 31
0.0
  0
LINE
  5
165
330
1F
100
AcDbEntity
  8
0
  6
Continuous
 62
     7
370
    25
100
AcDbLine
 10
152.5779805866
 20
-53.1624296388
 30
0.0
 11
152.5779805866
 21
-52.5470450234
 31
0.0
  0
LINE
  5
166
330
1F
100
AcDbEntity
  8
0
  6
Continuous
 62
     7
370
    25
100
AcDbLine
 10
153.7149998173
 20
-53.1624296388
 30
0.0
 11
152.5779805866
 21
-53.1624296388
 31
0.0
  0
LINE
  5
167
330
1F
100
AcDbEntity
  8
0
  6
Continuous
 62
     7
370
    25
100
AcDbLine
 10
152.5779805866
 20
-55.7265322029
 30
0.0
 11
154.162916484
 21
-55.7265322029
 31
0.0
  0
LINE
  5
168
330
1F
100
AcDbEntity
  8
0
  6
Continuous
 62
     7
370
    25
100
AcDbLine
 10
152.5779805866
 20
-56.3419168183
 30
0.0
 11
152.5779805866
 21
-55.7265322029
 31
0.0
  0
LINE
  5
169
330
1F
100
AcDbEntity
  8
0
  6
Continuous
 62
     7
370
    25
100
AcDbLine
 10
154.1613139199
 20
-56.3419168183
 30
0.0
 11
152.5779805866
 21
-56.3419168183
 31
0.0
  0
LINE
  5
16A
330
1F
100
AcDbEntity
  8
0
  6
Continuous
 62
     7
370
    25
100
AcDbLine
 10
155.5010575096
 20
-49.9829424593
 30
0.0
 11
154.9930446891
 21
-49.9829424593
 31
0.0
  0
LINE
  5
16B
330
1F
100
AcDbEntity
  8
0
  6
Continuous
 62
     7
370
    25
100
AcDbLine
 10
155.5010575096
 20
-49.3675578439
 30
0.0
 11
155.5010575096
 21
-49.9829424593
 31
0.0
  0
LINE
  5
16C
330
1F
100
AcDbEntity
  8
0
  6
Continuous
 62
     7
370
    25
100
AcDbLine
 10
152.5779805866
 20
-49.3675578439
 30
0.0
 11
155.5010575096
 21
-49.3675578439
 31
0.0
  0
LINE
  5
16D
330
1F
100
AcDbEntity
  8
0
  6
Continuous
 62
     7
370
    25
100
AcDbLine
 10
152.5779805866
 20
-49.9829424593
 30
0.0
 11
152.5779805866
 21
-49.3675578439
 31
0.0
  0
LINE
  5
16E
330
1F
100
AcDbEntity
  8
0
  6
Continuous
 62
     7
370
    25
100
AcDbLine
 10
143.7831087917
 20
-20.7008911772
 30
0.0
 11
143.7831087917
 21
-20.0855065618
 31
0.0
  0
LINE
  5
16F
330
1F
100
AcDbEntity
  8
0
  6
Continuous
 62
     7
370
    25
100
AcDbLine
 10
149.0651600738
 20
-20.1880706644
 30
0.0
 11
149.0651600738
 21
-20.9060193824
 31
0.0
  0
LINE
  5
170
330
1F
100
AcDbEntity
  8
0
  6
Continuous
 62
     7
370
    25
100
AcDbLine
 10
145.3215703302
 20
-25.9008911772
 30
0.0
 11
144.9113139199
 21
-25.9008911772
 31
0.0
  0
LINE
  5
171
330
1F
100
AcDbEntity
  8
0
  6
Continuous
 62
     7
370
    25
100
AcDbLine
 10
145.3215703302
 20
-23.490634767
 30
0.0
 11
145.3215703302
 21
-25.9008911772
 31
0.0
  0
LINE
  5
172
330
1F
100
AcDbEntity
  8
0
  6
Continuous
 62
     7
370
    25
100
AcDbLine
 10
148.9113139199
 20
-23.490634767
 30
0.0
 11
145.3215703302
 21
-23.490634767
 31
0.0
  0
LINE
  5
173
330
1F
100
AcDbEntity
  8
0
  6
Continuous
 62
     7
370
    25
100
AcDbLine
 10
148.9113139199
 20
-22.8752501516
 30
0.0
 11
148.9113139199
 21
-23.490634767
 31
0.0
  0
LINE
  5
174
330
1F
100
AcDbEntity
  8
0
  6
Continuous
 62
     7
370
    25
100
AcDbLine
 10
144.9113139199
 20
-22.8752501516
 30
0.0
 11
148.9113139199
 21
-22.8752501516
 31
0.0
  0
LINE
  5
175
330
1F
100
AcDbEntity
  8
0
  6
Continuous
 62
     7
370
    25
100
AcDbLine
 10
144.9113139199
 20
-25.9008911772
 30
0.0
 11
144.9113139199
 21
-22.8752501516
 31
0.0
  0
LINE
  5
176
330
1F
100
AcDbEntity
  8
0
  6
Continuous
 62
     7
370
    25
100
AcDbLine
 10
144.9113139199
 20
-31.4598655362
 30
0.0
 11
145.4169228943
 21
-31.4598655362
 31
0.0
  0
LINE
  5
177
330
1F
100
AcDbEntity
  8
0
  6
Continuous
 62
     7
370
    25
100
AcDbLine
 10
144.9113139199
 20
-32.0752501516
 30
0.0
 11
144.9113139199
 21
-31.4598655362
 31
0.0
  0
LINE
  5
178
330
1F
100
AcDbEntity
  8
0
  6
Continuous
 62
     7
370
    25
100
AcDbLine
 10
147.834390843
 20
-32.0752501516
 30
0.0
 11
144.9113139199
 21
-32.0752501516
 31
0.0
  0
LINE
  5
179
330
1F
100
AcDbEntity
  8
0
  6
Continuous
 62
     7
370
    25
100
AcDbLine
 10
147.834390843
 20
-31.4598655362
 30
0.0
 11
147.834390843
 21
-32.0752501516
 31
0.0
  0
LINE
  5
17A
330
1F
100
AcDbEntity
  8
0
  6
Continuous
 62
     7
370
    25
100
AcDbLine
 10
147.2935254584
 20
-31.4598655362
 30
0.0
 11
147.834390843
 21
-31.4598655362
 31
0.0
  0
LINE
  5
17B
330
1F
100
AcDbEntity
  8
0
  6
Continuous
 62
     7
370
    25
100
AcDbLine
 10
152.5779805866
 20
-33.8188398952
 30
0.0
 11
152.5779805866
 21
-33.2034552798
 31
0.0
  0
LINE
  5
17C
330
1F
100
AcDbEntity
  8
0
  6
Continuous
 62
     7
370
    25
100
AcDbLine
 10
156.1677241763
 20
-33.8188398952
 30
0.0
 11
152.5779805866
 21
-33.8188398952
 31
0.0
  0
LINE
  5
17D
330
1F
100
AcDbEntity
  8
0
  6
Continuous
 62
     7
370
    25
100
AcDbLine
 10
156.1677241763
 20
-35.2034552798
 30
0.0
 11
156.1677241763
 21
-33.8188398952
 31
0.0
  0
LINE
  5
17E
330
1F
100
AcDbEntity
  8
0
  6
Continuous
 62
     7
370
    25
100
AcDbLine
 10
156.5779805866
 20
-35.2034552798
 30
0.0
 11
156.1677241763
 21
-35.2034552798
 31
0.0
  0
LINE
  5
17F
330
1F
100
AcDbEntity
  8
0
  6
Continuous
 62
     7
370
    25
100
AcDbLine
 10
156.5779805866
 20
-31.8188398952
 30
0.0
 11
156.5779805866
 21
-35.2034552798
 31
0.0
  0
LINE
  5
180
330
1F
100
AcDbEntity
  8
0
  6
Continuous
 62
     7
370
    25
100
AcDbLine
 10
156.1677241763
 20
-31.8188398952
 30
0.0
 11
156.5779805866
 21
-31.8188398952
 31
0.0
  0
LINE
  5
181
330
1F
100
AcDbEntity
  8
0
  6
Continuous
 62
     7
370
    25
100
AcDbLine
 10
156.1677241763
 20
-33.2034552798
 30
0.0
 11
156.1677241763
 21
-31.8188398952
 31
0.0
  0
LINE
  5
182
330
1F
100
AcDbEntity
  8
0
  6
Continuous
 62
     7
370
    25
100
AcDbLine
 10
152.5779805866
 20
-33.2034552798
 30
0.0
 11
156.1677241763
 21
-33.2034552798
 31
0.0
  0
LINE
  5
183
330
1F
100
AcDbEntity
  8
0
  6
Continuous
 62
     7
370
    25
100
AcDbLine
 10
152.9225318686
 20
-25.0598655362
 30
0.0
 11
153.193365202
 21
-25.4364681003
 31
0.0
  0
LINE
  5
184
330
1F
100
AcDbEntity
  8
0
  6
Continuous
 62
     7
370
    25
100
AcDbLine
 10
155.1364741763
 20
-27.7778142542
 30
0.0
 11
154.8856728943
 21
-27.3923975875
 31
0.0
  0
LINE
  5
185
330
1F
100
AcDbEntity
  8
0
  6
Continuous
 62
     7
370
    25
100
AcDbLine
 10
156.6805446891
 20
-23.7573014336
 30
0.0
 11
152.5779805866
 21
-23.7573014336
 31
0.0
  0
LINE
  5
186
330
1F
100
AcDbEntity
  8
0
  6
Continuous
 62
     7
370
    25
100
AcDbLine
 10
156.6805446891
 20
-23.1419168183
 30
0.0
 11
156.6805446891
 21
-23.7573014336
 31
0.0
  0
LINE
  5
187
330
1F
100
AcDbEntity
  8
0
  6
Continuous
 62
     7
370
    25
100
AcDbLine
 10
152.5779805866
 20
-23.1419168183
 30
0.0
 11
156.6805446891
 21
-23.1419168183
 31
0.0
  0
LINE
  5
188
330
1F
100
AcDbEntity
  8
0
  6
Continuous
 62
     7
370
    25
100
AcDbLine
 10
152.5779805866
 20
-23.7573014336
 30
0.0
 11
152.5779805866
 21
-23.1419168183
 31
0.0
  0
LINE
  5
189
330
1F
100
AcDbEntity
  8
0
  6
Continuous
 62
     7
370
    25
100
AcDbLine
 10
153.9625959712
 20
-21.5829424593
 30
0.0
 11
153.9625959712
 21
-17.4290963054
 31
0.0
  0
LINE
  5
18A
330
1F
100
AcDbEntity
  8
0
  6
Continuous
 62
     7
370
    25
100
AcDbLine
 10
153.5010575096
 20
-20.8730065618
 30
0.0
 11
153.3335895609
 21
-21.3778142542
 31
0.0
  0
LINE
  5
18B
330
1F
100
AcDbEntity
  8
0
  6
Continuous
 62
     7
370
    25
100
AcDbLine
 10
-20.0
 20
-33.2201861257
 30
0.0
 11
-20.0
 21
-103.2201861257
 31
0.0
  0
LINE
  5
18C
330
1F
100
AcDbEntity
  8
0
  6
Continuous
 62
     7
370
    25
100
AcDbLine
 10
-20.0
 20
-103.2201861257
 30
0.0
 11
-16.7
 21
-103.2201861257
 31
0.0
  0
LINE
  5
18D
330
1F
100
AcDbEntity
  8
0
  6
Continuous
 62
     7
370
    25
100
AcDbLine
 10
-16.7
 20
-103.2201861257
 30
0.0
 11
-16.7
 21
-33.2201861257
 31
0.0
  0
LINE
  5
18E
330
1F
100
AcDbEntity
  8
0
  6
Continuous
 62
     7
370
    25
100
AcDbLine
 10
-16.7
 20
-33.2201861257
 30
0.0
 11
-20.0
 21
-33.2201861257
 31
0.0
  0
LINE
  5
18F
330
1F
100
AcDbEntity
  8
0
  6
Continuous
 62
     7
370
    25
100
AcDbLine
 10
190.0
 20
-68.8
 30
0.0
 11
190.0
 21
-65.5
 31
0.0
  0
LINE
  5
190
330
1F
100
AcDbEntity
  8
0
  6
Continuous
 62
     7
370
    25
100
AcDbLine
 10
190.0
 20
-65.5
 30
0.0
 11
184.0
 21
-65.5
 31
0.0
  0
LINE
  5
191
330
1F
100
AcDbEntity
  8
0
  6
Continuous
 62
     7
370
    25
100
AcDbLine
 10
184.0
 20
-65.5
 30
0.0
 11
184.0
 21
-68.8
 31
0.0
  0
LINE
  5
192
330
1F
100
AcDbEntity
  8
0
  6
Continuous
 62
     7
370
    25
100
AcDbLine
 10
184.0
 20
-68.8
 30
0.0
 11
190.0
 21
-68.8
 31
0.0
  0
LINE
  5
193
330
1F
100
AcDbEntity
  8
0
  6
Continuous
 62
     7
370
    25
100
AcDbLine
 10
184.0
 20
-78.8
 30
0.0
 11
184.0
 21
-82.1
 31
0.0
  0
LINE
  5
194
330
1F
100
AcDbEntity
  8
0
  6
Continuous
 62
     7
370
    25
100
AcDbLine
 10
184.0
 20
-82.1
 30
0.0
 11
190.0
 21
-82.1
 31
0.0
  0
LINE
  5
195
330
1F
100
AcDbEntity
  8
0
  6
Continuous
 62
     7
370
    25
100
AcDbLine
 10
190.0
 20
-82.1
 30
0.0
 11
190.0
 21
-78.8
 31
0.0
  0
LINE
  5
196
330
1F
100
AcDbEntity
  8
0
  6
Continuous
 62
     7
370
    25
100
AcDbLine
 10
190.0
 20
-78.8
 30
0.0
 11
184.0
 21
-78.8
 31
0.0
  0
LINE
  5
197
330
1F
100
AcDbEntity
  8
0
  6
Continuous
 62
     7
370
    25
100
AcDbLine
 10
166.0
 20
-82.1
 30
0.0
 11
166.0
 21
-78.8
 31
0.0
  0
LINE
  5
198
330
1F
100
AcDbEntity
  8
0
  6
Continuous
 62
     7
370
    25
100
AcDbLine
 10
166.0
 20
-78.8
 30
0.0
 11
160.0
 21
-78.8
 31
0.0
  0
LINE
  5
199
330
1F
100
AcDbEntity
  8
0
  6
Continuous
 62
     7
370
    25
100
AcDbLine
 10
160.0
 20
-78.8
 30
0.0
 11
160.0
 21
-82.1
 31
0.0
  0
LINE
  5
19A
330
1F
100
AcDbEntity
  8
0
  6
Continuous
 62
     7
370
    25
100
AcDbLine
 10
160.0
 20
-82.1
 30
0.0
 11
166.0
 21
-82.1
 31
0.0
  0
LINE
  5
19B
330
1F
100
AcDbEntity
  8
0
  6
Continuous
 62
     7
370
    25
100
AcDbLine
 10
160.0
 20
-65.5
 30
0.0
 11
160.0
 21
-68.8
 31
0.0
  0
LINE
  5
19C
330
1F
100
AcDbEntity
  8
0
  6
Continuous
 62
     7
370
    25
100
AcDbLine
 10
160.0
 20
-68.8
 30
0.0
 11
166.0
 21
-68.8
 31
0.0
  0
LINE
  5
19D
330
1F
100
AcDbEntity
  8
0
  6
Continuous
 62
     7
370
    25
100
AcDbLine
 10
166.0
 20
-68.8
 30
0.0
 11
166.0
 21
-65.5
 31
0.0
  0
LINE
  5
19E
330
1F
100
AcDbEntity
  8
0
  6
Continuous
 62
     7
370
    25
100
AcDbLine
 10
166.0
 20
-65.5
 30
0.0
 11
160.0
 21
-65.5
 31
0.0
  0
LINE
  5
19F
330
1F
100
AcDbEntity
  8
0
  6
Continuous
 62
     7
370
    25
100
AcDbLine
 10
155.5010575096
 20
-10.5162757926
 30
0.0
 11
152.5779805866
 21
-10.5162757926
 31
0.0
  0
LINE
  5
1A0
330
1F
100
AcDbEntity
  8
0
  6
Continuous
 62
     7
370
    25
100
AcDbLine
 10
155.5010575096
 20
-9.9008911772
 30
0.0
 11
155.5010575096
 21
-10.5162757926
 31
0.0
  0
LINE
  5
1A1
330
1F
100
AcDbEntity
  8
0
  6
Continuous
 62
     7
370
    25
100
AcDbLine
 10
152.5779805866
 20
-9.9008911772
 30
0.0
 11
155.5010575096
 21
-9.9008911772
 31
0.0
  0
LINE
  5
1A2
330
1F
100
AcDbEntity
  8
0
  6
Continuous
 62
     7
370
    25
100
AcDbLine
 10
152.5779805866
 20
-10.5162757926
 30
0.0
 11
152.5779805866
 21
-9.9008911772
 31
0.0
  0
LINE
  5
1A3
330
1F
100
AcDbEntity
  8
0
  6
Continuous
 62
     7
370
    25
100
AcDbLine
 10
152.5779805866
 20
-12.3717245106
 30
0.0
 11
152.5779805866
 21
-11.61371169
 31
0.0
  0
LINE
  5
1A4
330
1F
100
AcDbEntity
  8
0
  6
Continuous
 62
     7
370
    25
100
AcDbLine
 10
153.7943267404
 20
-13.7419168183
 30
0.0
 11
152.5779805866
 21
-12.3717245106
 31
0.0
  0
LINE
  5
1A5
330
1F
100
AcDbEntity
  8
0
  6
Continuous
 62
     7
370
    25
100
AcDbLine
 10
152.5779805866
 20
-15.1121091259
 30
0.0
 11
153.7943267404
 21
-13.7419168183
 31
0.0
  0
LINE
  5
1A6
330
1F
100
AcDbEntity
  8
0
  6
Continuous
 62
     7
370
    25
100
AcDbLine
 10
152.5779805866
 20
-15.8701219465
 30
0.0
 11
152.5779805866
 21
-15.1121091259
 31
0.0
  0
LINE
  5
1A7
330
1F
100
AcDbEntity
  8
0
  6
Continuous
 62
     7
370
    25
100
AcDbLine
 10
154.1300639199
 20
-14.1209232285
 30
0.0
 11
152.5779805866
 21
-15.8701219465
 31
0.0
  0
LINE
  5
1A8
330
1F
100
AcDbEntity
  8
0
  6
Continuous
 62
     7
370
    25
100
AcDbLine
 10
155.5010575096
 20
-15.6649937413
 30
0.0
 11
154.1300639199
 21
-14.1209232285
 31
0.0
  0
LINE
  5
1A9
330
1F
100
AcDbEntity
  8
0
  6
Continuous
 62
     7
370
    25
100
AcDbLine
 10
155.5010575096
 20
-14.9069809208
 30
0.0
 11
155.5010575096
 21
-15.6649937413
 31
0.0
  0
LINE
  5
1AA
330
1F
100
AcDbEntity
  8
0
  6
Continuous
 62
     7
370
    25
100
AcDbLine
 10
154.4666023814
 20
-13.7419168183
 30
0.0
 11
155.5010575096
 21
-14.9069809208
 31
0.0
  0
LINE
  5
1AB
330
1F
100
AcDbEntity
  8
0
  6
Continuous
 62
     7
370
    25
100
AcDbLine
 10
155.5010575096
 20
-12.5768527157
 30
0.0
 11
154.4666023814
 21
-13.7419168183
 31
0.0
  0
LINE
  5
1AC
330
1F
100
AcDbEntity
  8
0
  6
Continuous
 62
     7
370
    25
100
AcDbLine
 10
155.5010575096
 20
-11.8188398952
 30
0.0
 11
155.5010575096
 21
-12.5768527157
 31
0.0
  0
LINE
  5
1AD
330
1F
100
AcDbEntity
  8
0
  6
Continuous
 62
     7
370
    25
100
AcDbLine
 10
154.1300639199
 20
-13.362910408
 30
0.0
 11
155.5010575096
 21
-11.8188398952
 31
0.0
  0
LINE
  5
1AE
330
1F
100
AcDbEntity
  8
0
  6
Continuous
 62
     7
370
    25
100
AcDbLine
 10
152.5779805866
 20
-11.61371169
 30
0.0
 11
154.1300639199
 21
-13.362910408
 31
0.0
  0
LINE
  5
1AF
330
1F
100
AcDbEntity
  8
0
  6
Continuous
 62
     7
370
    25
100
AcDbLine
 10
153.9625959712
 20
-41.2239681003
 30
0.0
 11
153.9625959712
 21
-37.0701219465
 31
0.0
  0
LINE
  5
1B0
330
1F
100
AcDbEntity
  8
0
  6
Continuous
 62
     7
370
    25
100
AcDbLine
 10
153.5010575096
 20
-40.5140322029
 30
0.0
 11
153.3335895609
 21
-41.0188398952
 31
0.0
  0
LINE
  5
1B1
330
1F
100
AcDbEntity
  8
0
  6
Continuous
 62
     7
370
    25
100
AcDbLine
 10
149.0651600738
 20
-41.3675578439
 30
0.0
 11
149.0651600738
 21
-41.9829424593
 31
0.0
  0
LINE
  5
1B2
330
1F
100
AcDbEntity
  8
0
  6
Continuous
 62
     7
370
    25
100
AcDbLine
 10
143.7831087917
 20
-41.8803783567
 30
0.0
 11
143.7831087917
 21
-41.1624296388
 31
0.0
  0
LINE
  5
1B3
330
1F
100
AcDbEntity
  8
0
  6
Continuous
 62
     7
370
    25
100
AcDbLine
 10
147.475416484
 20
-37.5521732285
 30
0.0
 11
147.834390843
 21
-37.5521732285
 31
0.0
  0
LINE
  5
1B4
330
1F
100
AcDbEntity
  8
0
  6
Continuous
 62
     7
370
    25
100
AcDbLine
 10
147.475416484
 20
-38.372686049
 30
0.0
 11
147.475416484
 21
-37.5521732285
 31
0.0
  0
LINE
  5
1B5
330
1F
100
AcDbEntity
  8
0
  6
Continuous
 62
     7
370
    25
100
AcDbLine
 10
144.9113139199
 20
-38.372686049
 30
0.0
 11
147.475416484
 21
-38.372686049
 31
0.0
  0
LINE
  5
1B6
330
1F
100
AcDbEntity
  8
0
  6
Continuous
 62
     7
370
    25
100
AcDbLine
 10
144.9113139199
 20
-38.9880706644
 30
0.0
 11
144.9113139199
 21
-38.372686049
 31
0.0
  0
LINE
  5
1B7
330
1F
100
AcDbEntity
  8
0
  6
Continuous
 62
     7
370
    25
100
AcDbLine
 10
147.475416484
 20
-38.9880706644
 30
0.0
 11
144.9113139199
 21
-38.9880706644
 31
0.0
  0
LINE
  5
1B8
330
1F
100
AcDbEntity
  8
0
  6
Continuous
 62
     7
370
    25
100
AcDbLine
 10
147.475416484
 20
-39.9624296388
 30
0.0
 11
147.475416484
 21
-38.9880706644
 31
0.0
  0
LINE
  5
1B9
330
1F
100
AcDbEntity
  8
0
  6
Continuous
 62
     7
370
    25
100
AcDbLine
 10
147.834390843
 20
-39.9624296388
 30
0.0
 11
147.475416484
 21
-39.9624296388
 31
0.0
  0
LINE
  5
1BA
330
1F
100
AcDbEntity
  8
0
  6
Continuous
 62
     7
370
    25
100
AcDbLine
 10
147.834390843
 20
-38.9880706644
 30
0.0
 11
147.834390843
 21
-39.9624296388
 31
0.0
  0
LINE
  5
1BB
330
1F
100
AcDbEntity
  8
0
  6
Continuous
 62
     7
370
    25
100
AcDbLine
 10
149.0138780225
 20
-38.9880706644
 30
0.0
 11
147.834390843
 21
-38.9880706644
 31
0.0
  0
LINE
  5
1BC
330
1F
100
AcDbEntity
  8
0
  6
Continuous
 62
     7
370
    25
100
AcDbLine
 10
149.0138780225
 20
-38.372686049
 30
0.0
 11
149.0138780225
 21
-38.9880706644
 31
0.0
  0
LINE
  5
1BD
330
1F
100
AcDbEntity
  8
0
  6
Continuous
 62
     7
370
    25
100
AcDbLine
 10
147.834390843
 20
-38.372686049
 30
0.0
 11
149.0138780225
 21
-38.372686049
 31
0.0
  0
LINE
  5
1BE
330
1F
100
AcDbEntity
  8
0
  6
Continuous
 62
     7
370
    25
100
AcDbLine
 10
147.834390843
 20
-37.5521732285
 30
0.0
 11
147.834390843
 21
-38.372686049
 31
0.0
  0
LINE
  5
1BF
330
1F
100
AcDbEntity
  8
0
  6
Continuous
 62
     7
370
    25
100
AcDbLine
 10
145.255865202
 20
-33.4290963054
 30
0.0
 11
145.5266985353
 21
-33.8056988695
 31
0.0
  0
LINE
  5
1C0
330
1F
100
AcDbEntity
  8
0
  6
Continuous
 62
     7
370
    25
100
AcDbLine
 10
147.4698075096
 20
-36.1470450234
 30
0.0
 11
147.2190062276
 21
-35.7616283567
 31
0.0
  0
LINE
  5
1C1
330
1F
100
AcDbEntity
  8
0
  6
Continuous
 62
     7
370
    25
100
AcDbLine
 10
152.5779805866
 20
-46.9880706644
 30
0.0
 11
153.0835895609
 21
-46.9880706644
 31
0.0
  0
LINE
  5
1C2
330
1F
100
AcDbEntity
  8
0
  6
Continuous
 62
     7
370
    25
100
AcDbLine
 10
152.5779805866
 20
-47.6034552798
 30
0.0
 11
152.5779805866
 21
-46.9880706644
 31
0.0
  0
LINE
  5
1C3
330
1F
100
AcDbEntity
  8
0
  6
Continuous
 62
     7
370
    25
100
AcDbLine
 10
155.5010575096
 20
-47.6034552798
 30
0.0
 11
152.5779805866
 21
-47.6034552798
 31
0.0
  0
LINE
  5
1C4
330
1F
100
AcDbEntity
  8
0
  6
Continuous
 62
     7
370
    25
100
AcDbLine
 10
155.5010575096
 20
-46.9880706644
 30
0.0
 11
155.5010575096
 21
-47.6034552798
 31
0.0
  0
LINE
  5
1C5
330
1F
100
AcDbEntity
  8
0
  6
Continuous
 62
     7
370
    25
100
AcDbLine
 10
154.960192125
 20
-46.9880706644
 30
0.0
 11
155.5010575096
 21
-46.9880706644
 31
0.0
  0
LINE
  5
1C6
330
1F
100
AcDbEntity
  8
0
  6
Continuous
 62
     7
370
    25
100
AcDbLine
 10
50.5
 20
-47.5
 30
0.0
 11
50.5
 21
-44.2
 31
0.0
  0
LINE
  5
1C7
330
1F
100
AcDbEntity
  8
0
  6
Continuous
 62
     7
370
    25
100
AcDbLine
 10
50.5
 20
-44.2
 30
0.0
 11
35.0
 21
-44.2
 31
0.0
  0
LINE
  5
1C8
330
1F
100
AcDbEntity
  8
0
  6
Continuous
 62
     7
370
    25
100
AcDbLine
 10
35.0
 20
-44.2
 30
0.0
 11
35.0
 21
-47.5
 31
0.0
  0
LINE
  5
1C9
330
1F
100
AcDbEntity
  8
0
  6
Continuous
 62
     7
370
    25
100
AcDbLine
 10
35.0
 20
-47.5
 30
0.0
 11
50.5
 21
-47.5
 31
0.0
  0
LINE
  5
1CA
330
1F
100
AcDbEntity
  8
0
  6
Continuous
 62
     7
370
    25
100
AcDbLine
 10
35.0
 20
-87.5
 30
0.0
 11
35.0
 21
-90.8
 31
0.0
  0
LINE
  5
1CB
330
1F
100
AcDbEntity
  8
0
  6
Continuous
 62
     7
370
    25
100
AcDbLine
 10
35.0
 20
-90.8
 30
0.0
 11
50.5
 21
-90.8
 31
0.0
  0
LINE
  5
1CC
330
1F
100
AcDbEntity
  8
0
  6
Continuous
 62
     7
370
    25
100
AcDbLine
 10
50.5
 20
-90.8
 30
0.0
 11
50.5
 21
-87.5
 31
0.0
  0
LINE
  5
1CD
330
1F
100
AcDbEntity
  8
0
  6
Continuous
 62
     7
370
    25
100
AcDbLine
 10
50.5
 20
-87.5
 30
0.0
 11
35.0
 21
-87.5
 31
0.0
  0
LINE
  5
1CE
330
1F
100
AcDbEntity
  8
0
  6
Continuous
 62
     7
370
    25
100
AcDbLine
 10
0.0
 20
-37.5
 30
0.0
 11
75.0
 21
-37.5
 31
0.0
  0
LINE
  5
1CF
330
1F
100
AcDbEntity
  8
0
  6
Continuous
 62
     7
370
    25
100
AcDbLine
 10
75.0
 20
-37.5
 30
0.0
 11
75.0
 21
0.0
 31
0.0
  0
LINE
  5
1D0
330
1F
100
AcDbEntity
  8
0
  6
Continuous
 62
     7
370
    25
100
AcDbLine
 10
158.7878387082
 20
0.0
 30
0.0
 11
75.0
 21
0.0
 31
0.0
  0
LINE
  5
1D1
330
1F
100
AcDbEntity
  8
0
  6
Continuous
 62
     7
370
    25
100
AcDbLine
 10
200.0
 20
-15.0
 30
0.0
 11
158.7878387082
 21
0.0
 31
0.0
  0
LINE
  5
1D2
330
1F
100
AcDbEntity
  8
0
  6
Continuous
 62
     7
370
    25
100
AcDbLine
 10
200.0
 20
-120.0
 30
0.0
 11
200.0
 21
-15.0
 31
0.0
  0
LINE
  5
1D3
330
1F
100
AcDbEntity
  8
0
  6
Continuous
 62
     7
370
    25
100
AcDbLine
 10
158.7878387082
 20
-135.0
 30
0.0
 11
200.0
 21
-120.0
 31
0.0
  0
LINE
  5
1D4
330
1F
100
AcDbEntity
  8
0
  6
Continuous
 62
     7
370
    25
100
AcDbLine
 10
75.0
 20
-135.0
 30
0.0
 11
158.7878387082
 21
-135.0
 31
0.0
  0
LINE
  5
1D5
330
1F
100
AcDbEntity
  8
0
  6
Continuous
 62
     7
370
    25
100
AcDbLine
 10
75.0
 20
-135.0
 30
0.0
 11
75.0
 21
-97.5
 31
0.0
  0
LINE
  5
1D6
330
1F
100
AcDbEntity
  8
0
  6
Continuous
 62
     7
370
    25
100
AcDbLine
 10
75.0
 20
-97.5
 30
0.0
 11
0.0
 21
-97.5
 31
0.0
  0
LINE
  5
1D7
330
1F
100
AcDbEntity
  8
0
  6
Continuous
 62
     7
370
    25
100
AcDbLine
 10
0.0
 20
-97.5
 30
0.0
 11
0.0
 21
-135.0
 31
0.0
  0
LINE
  5
1D8
330
1F
100
AcDbEntity
  8
0
  6
Continuous
 62
     7
370
    25
100
AcDbLine
 10
-10.0
 20
-135.0
 30
0.0
 11
0.0
 21
-135.0
 31
0.0
  0
LINE
  5
1D9
330
1F
100
AcDbEntity
  8
0
  6
Continuous
 62
     7
370
    25
100
AcDbLine
 10
-30.0
 20
-20.0
 30
0.0
 11
-30.0
 21
-115.0
 31
0.0
  0
LINE
  5
1DA
330
1F
100
AcDbEntity
  8
0
  6
Continuous
 62
     7
370
    25
100
AcDbLine
 10
0.0
 20
0.0
 30
0.0
 11
-10.0
 21
0.0
 31
0.0
  0
LINE
  5
1DB
330
1F
100
AcDbEntity
  8
0
  6
Continuous
 62
     7
370
    25
100
AcDbLine
 10
0.0
 20
0.0
 30
0.0
 11
0.0
 21
-37.5
 31
0.0
  0
ARC
  5
1DC
330
1F
100
AcDbEntity
  8
0
  6
Continuous
 62
     7
370
    25
100
AcDbCircle
 10
-10.0
 20
-115.0
 30
0.0
 40
19.99999999999999
100
AcDbArc
 50
180.0
 51
270.0
  0
ARC
  5
1DD
330
1F
100
AcDbEntity
  8
0
  6
Continuous
 62
     7
370
    25
100
AcDbCircle
 10
-10.0
 20
-20.0
 30
0.0
 40
19.99999999999997
100
AcDbArc
 50
90.0
 51
180.0
  0
ENDSEC
  0
SECTION
  2
OBJECTS
  0
DICTIONARY
  5
C
330
0
100
AcDbDictionary
281
     1
  3
ACAD_GROUP
350
D
  3
ACAD_LAYOUT
350
1A
  3
ACAD_MLINESTYLE
350
17
  3
ACAD_PLOTSETTINGS
350
19
  3
ACAD_PLOTSTYLENAME
350
E
  3
ACAD_SCALELIST
350
47
  0
DICTIONARY
  5
D
102
{ACAD_REACTORS
330
C
102
}
330
C
100
AcDbDictionary
281
     1
  0
DICTIONARY
  5
1A
102
{ACAD_REACTORS
330
C
102
}
330
C
100
AcDbDictionary
281
     1
  3
Layout1
350
1E
  3
Layout2
350
26
  3
Model
350
22
  0
DICTIONARY
  5
17
102
{ACAD_REACTORS
330
C
102
}
330
C
100
AcDbDictionary
281
     1
  3
Standard
350
18
  0
DICTIONARY
  5
19
102
{ACAD_REACTORS
330
C
102
}
330
C
100
AcDbDictionary
281
     1
  0
ACDBDICTIONARYWDFLT
  5
E
102
{ACAD_REACTORS
330
C
102
}
330
C
100
AcDbDictionary
281
     1
  3
Normal
350
F
100
AcDbDictionaryWithDefault
340
F
  0
DICTIONARY
  5
47
102
{ACAD_REACTORS
330
C
102
}
330
C
100
AcDbDictionary
281
     1
  3
A0
350
48
  3
A1
350
49
  3
A2
350
4A
  3
A3
350
4B
  3
A4
350
4C
  3
A5
350
4D
  3
A6
350
4E
  3
A7
350
4F
  3
A8
350
50
  3
A9
350
51
  3
B0
350
52
  3
B1
350
53
  3
B2
350
54
  3
B3
350
55
  3
B4
350
56
  3
B5
350
57
  3
B6
350
58
  3
B7
350
59
  3
B8
350
5A
  3
B9
350
5B
  3
C0
350
5C
  3
C1
350
5D
  3
C2
350
5E
  3
C3
350
5F
  3
C4
350
60
  3
C5
350
61
  3
C6
350
62
  3
C7
350
63
  3
C8
350
64
  3
C9
350
65
  3
D0
350
66
  3
D1
350
67
  3
D2
350
68
  0
LAYOUT
  5
1E
102
{ACAD_REACTORS
330
1A
102
}
330
1A
100
AcDbPlotSettings
  1

  2
none_device
  4

  6

 40
0.0
 41
0.0
 42
0.0
 43
0.0
 44
0.0
 45
0.0
 46
0.0
 47
0.0
 48
0.0
 49
0.0
140
0.0
141
0.0
142
1.0
143
1.0
 70
   688
 72
     1
 73
     0
 74
     5
  7

 75
    16
147
1.0
148
0.0
149
0.0
100
AcDbLayout
  1
Layout1
 70
     1
 71
     1
 10
0.0
 20
0.0
 11
420.0
 21
297.0
 12
0.0
 22
0.0
 32
0.0
 14
1.0000000000E+20
 24
1.0000000000E+20
 34
1.0000000000E+20
 15
-1.0000000000E+20
 25
-1.0000000000E+20
 35
-1.0000000000E+20
146
0.0
 13
0.0
 23
0.0
 33
0.0
 16
1.0
 26
0.0
 36
0.0
 17
0.0
 27
1.0
 37
0.0
 76
     0
330
1B
  0
LAYOUT
  5
26
102
{ACAD_REACTORS
330
1A
102
}
330
1A
100
AcDbPlotSettings
  1

  2
none_device
  4

  6

 40
0.0
 41
0.0
 42
0.0
 43
0.0
 44
0.0
 45
0.0
 46
0.0
 47
0.0
 48
0.0
 49
0.0
140
0.0
141
0.0
142
1.0
143
1.0
 70
   688
 72
     1
 73
     0
 74
     5
  7

 75
    16
147
1.0
148
0.0
149
0.0
100
AcDbLayout
  1
Layout2
 70
     1
 71
     2
 10
0.0
 20
0.0
 11
0.0
 21
0.0
 12
0.0
 22
0.0
 32
0.0
 14
0.0
 24
0.0
 34
0.0
 15
0.0
 25
0.0
 35
0.0
146
0.0
 13
0.0
 23
0.0
 33
0.0
 16
1.0
 26
0.0
 36
0.0
 17
0.0
 27
1.0
 37
0.0
 76
     0
330
23
  0
LAYOUT
  5
22
102
{ACAD_REACTORS
330
1A
102
}
330
1A
100
AcDbPlotSettings
  1

  2
none_device
  4
ANSI_A_(11.00_x_8.50_Inches)
  6

 40
6.35
 41
19.05
 42
6.35000508
 43
19.05000254
 44
279.4
 45
215.9
 46
31.1260409383
 47
170.0778465561
 48
0.0
 49
0.0
140
0.0
141
0.0
142
0.0473478261
143
1.0
 70
  1696
 72
     0
 73
     0
 74
     0
  7

 75
     0
147
0.0179189148
148
-1300.4909072572
149
0.0
100
AcDbLayout
  1
Model
 70
     1
 71
     0
 10
0.0
 20
0.0
 11
420.0
 21
297.0
 12
0.0
 22
0.0
 32
0.0
 14
-30.0
 24
-135.0
 34
0.0
 15
200.0
 25
0.0
 35
0.0
146
0.0
 13
0.0
 23
0.0
 33
0.0
 16
1.0
 26
0.0
 36
0.0
 17
0.0
 27
1.0
 37
0.0
 76
     0
330
1F
331
29
  0
MLINESTYLE
  5
18
102
{ACAD_REACTORS
330
17
102
}
330
17
100
AcDbMlineStyle
  2
Standard
 70
     0
  3

 62
   256
 51
90.0
 52
90.0
 71
     2
 49
0.5
 62
   256
  6
BYLAYER
 49
-0.5
 62
   256
  6
BYLAYER
  0
ACDBPLACEHOLDER
  5
F
102
{ACAD_REACTORS
330
E
102
}
330
E
  0
SCALE
  5
48
102
{ACAD_REACTORS
330
47
102
}
330
47
100
AcDbScale
 70
     0
300
1:1
140
1.0
141
1.0
290
     1
  0
SCALE
  5
49
102
{ACAD_REACTORS
330
47
102
}
330
47
100
AcDbScale
 70
     0
300
1:2
140
1.0
141
2.0
290
     0
  0
SCALE
  5
4A
102
{ACAD_REACTORS
330
47
102
}
330
47
100
AcDbScale
 70
     0
300
1:4
140
1.0
141
4.0
290
     0
  0
SCALE
  5
4B
102
{ACAD_REACTORS
330
47
102
}
330
47
100
AcDbScale
 70
     0
300
1:5
140
1.0
141
5.0
290
     0
  0
SCALE
  5
4C
102
{ACAD_REACTORS
330
47
102
}
330
47
100
AcDbScale
 70
     0
300
1:8
140
1.0
141
8.0
290
     0
  0
SCALE
  5
4D
102
{ACAD_REACTORS
330
47
102
}
330
47
100
AcDbScale
 70
     0
300
1:10
140
1.0
141
10.0
290
     0
  0
SCALE
  5
4E
102
{ACAD_REACTORS
330
47
102
}
330
47
100
AcDbScale
 70
     0
300
1:16
140
1.0
141
16.0
290
     0
  0
SCALE
  5
4F
102
{ACAD_REACTORS
330
47
102
}
330
47
100
AcDbScale
 70
     0
300
1:20
140
1.0
141
20.0
290
     0
  0
SCALE
  5
50
102
{ACAD_REACTORS
330
47
102
}
330
47
100
AcDbScale
 70
     0
300
1:30
140
1.0
141
30.0
290
     0
  0
SCALE
  5
51
102
{ACAD_REACTORS
330
47
102
}
330
47
100
AcDbScale
 70
     0
300
1:40
140
1.0
141
40.0
290
     0
  0
SCALE
  5
52
102
{ACAD_REACTORS
330
47
102
}
330
47
100
AcDbScale
 70
     0
300
1:50
140
1.0
141
50.0
290
     0
  0
SCALE
  5
53
102
{ACAD_REACTORS
330
47
102
}
330
47
100
AcDbScale
 70
     0
300
1:100
140
1.0
141
100.0
290
     0
  0
SCALE
  5
54
102
{ACAD_REACTORS
330
47
102
}
330
47
100
AcDbScale
 70
     0
300
2:1
140
2.0
141
1.0
290
     0
  0
SCALE
  5
55
102
{ACAD_REACTORS
330
47
102
}
330
47
100
AcDbScale
 70
     0
300
4:1
140
4.0
141
1.0
290
     0
  0
SCALE
  5
56
102
{ACAD_REACTORS
330
47
102
}
330
47
100
AcDbScale
 70
     0
300
8:1
140
8.0
141
1.0
290
     0
  0
SCALE
  5
57
102
{ACAD_REACTORS
330
47
102
}
330
47
100
AcDbScale
 70
     0
300
10:1
140
10.0
141
1.0
290
     0
  0
SCALE
  5
58
102
{ACAD_REACTORS
330
47
102
}
330
47
100
AcDbScale
 70
     0
300
100:1
140
100.0
141
1.0
290
     0
  0
SCALE
  5
59
102
{ACAD_REACTORS
330
47
102
}
330
47
100
AcDbScale
 70
     0
300
1/128" = 1'-0"
140
0.0078125
141
12.0
290
     0
  0
SCALE
  5
5A
102
{ACAD_REACTORS
330
47
102
}
330
47
100
AcDbScale
 70
     0
300
1/64" = 1'-0"
140
0.015625
141
12.0
290
     0
  0
SCALE
  5
5B
102
{ACAD_REACTORS
330
47
102
}
330
47
100
AcDbScale
 70
     0
300
1/32" = 1'-0"
140
0.03125
141
12.0
290
     0
  0
SCALE
  5
5C
102
{ACAD_REACTORS
330
47
102
}
330
47
100
AcDbScale
 70
     0
300
1/16" = 1'-0"
140
0.0625
141
12.0
290
     0
  0
SCALE
  5
5D
102
{ACAD_REACTORS
330
47
102
}
330
47
100
AcDbScale
 70
     0
300
3/32" = 1'-0"
140
0.09375
141
12.0
290
     0
  0
SCALE
  5
5E
102
{ACAD_REACTORS
330
47
102
}
330
47
100
AcDbScale
 70
     0
300
1/8" = 1'-0"
140
0.125
141
12.0
290
     0
  0
SCALE
  5
5F
102
{ACAD_REACTORS
330
47
102
}
330
47
100
AcDbScale
 70
     0
300
3/16" = 1'-0"
140
0.1875
141
12.0
290
     0
  0
SCALE
  5
60
102
{ACAD_REACTORS
330
47
102
}
330
47
100
AcDbScale
 70
     0
300
1/4" = 1'-0"
140
0.25
141
12.0
290
     0
  0
SCALE
  5
61
102
{ACAD_REACTORS
330
47
102
}
330
47
100
AcDbScale
 70
     0
300
3/8" = 1'-0"
140
0.375
141
12.0
290
     0
  0
SCALE
  5
62
102
{ACAD_REACTORS
330
47
102
}
330
47
100
AcDbScale
 70
     0
300
1/2" = 1'-0"
140
0.5
141
12.0
290
     0
  0
SCALE
  5
63
102
{ACAD_REACTORS
330
47
102
}
330
47
100
AcDbScale
 70
     0
300
3/4" = 1'-0"
140
0.75
141
12.0
290
     0
  0
SCALE
  5
64
102
{ACAD_REACTORS
330
47
102
}
330
47
100
AcDbScale
 70
     0
300
1" = 1'-0"
140
1.0
141
12.0
290
     0
  0
SCALE
  5
65
102
{ACAD_REACTORS
330
47
102
}
330
47
100
AcDbScale
 70
     0
300
1-1/2" = 1'-0"
140
1.5
141
12.0
290
     0
  0
SCALE
  5
66
102
{ACAD_REACTORS
330
47
102
}
330
47
100
AcDbScale
 70
     0
300
3" = 1'-0"
140
3.0
141
12.0
290
     0
  0
SCALE
  5
67
102
{ACAD_REACTORS
330
47
102
}
330
47
100
AcDbScale
 70
     0
300
6" = 1'-0"
140
6.0
141
12.0
290
     0
  0
SCALE
  5
68
102
{ACAD_REACTORS
330
47
102
}
330
47
100
AcDbScale
 70
     0
300
1'-0" = 1'-0"
140
12.0
141
12.0
290
     0
  0
ENDSEC
  0
EOF
